<?xml version="1.0" standalone="no"?>
 <!DOCTYPE svg PUBLIC "-//W3C//DTD SVG 1.1//EN" 
 "http://www.w3.org/Graphics/SVG/1.1/DTD/svg11.dtd"> 
<svg
  xmlns:svg="http://www.w3.org/2000/svg"
  xmlns="http://www.w3.org/2000/svg"
  xmlns:xlink="http://www.w3.org/1999/xlink"
  version="1.1"
  width="29.700220cm" height="21.000720cm" viewBox="0 0 297002200 210007200">
<title>SVG Picture created as view_screen-B_Silkscreen.svg date 2023/01/26 01:54:50 </title>
  <desc>Picture generated by PCBNEW </desc>
<g style="fill:#000000; fill-opacity:1.000000;stroke:#000000; stroke-opacity:1.000000;
stroke-linecap:round; stroke-linejoin:round;"
 transform="translate(0 0) scale(1 1)">
</g>
<g style="fill:#000000; fill-opacity:0.0; 
stroke:#000000; stroke-width:0.000000; stroke-opacity:1; 
stroke-linecap:round; stroke-linejoin:round;">
</g>
<g style="fill:#000000; fill-opacity:0.0; 
stroke:#000000; stroke-width:21200.000000; stroke-opacity:1; 
stroke-linecap:round; stroke-linejoin:round;">
</g>
<g style="fill:#000000; fill-opacity:0.0; 
stroke:#000000; stroke-width:150000.000000; stroke-opacity:1; 
stroke-linecap:round; stroke-linejoin:round;">
<rect x="177002200.000000" y="166007200.000000" width="108000000.000000" height="32000000.000000" rx="0.000000" />
</g>
<g style="fill:#000000; fill-opacity:0.0; 
stroke:#000000; stroke-width:21200.000000; stroke-opacity:1; 
stroke-linecap:round; stroke-linejoin:round;">
</g>
<g style="fill:#000000; fill-opacity:0.0; 
stroke:#000000; stroke-width:150000.000000; stroke-opacity:1; 
stroke-linecap:round; stroke-linejoin:round;">
<rect x="10000000.000000" y="10000000.000000" width="277002200.000000" height="190007200.000000" rx="0.000000" />
</g>
<g style="fill:#000000; fill-opacity:0.0; 
stroke:#000000; stroke-width:21200.000000; stroke-opacity:1; 
stroke-linecap:round; stroke-linejoin:round;">
</g>
<g style="fill:#000000; fill-opacity:0.0; 
stroke:#000000; stroke-width:150000.000000; stroke-opacity:1; 
stroke-linecap:round; stroke-linejoin:round;">
<rect x="12000000.000000" y="12000000.000000" width="273002200.000000" height="186007200.000000" rx="0.000000" />
</g>
<g style="fill:#000000; fill-opacity:0.0; 
stroke:#000000; stroke-width:21200.000000; stroke-opacity:1; 
stroke-linecap:round; stroke-linejoin:round;">
</g>
<g style="fill:#000000; fill-opacity:0.0; 
stroke:#000000; stroke-width:150000.000000; stroke-opacity:1; 
stroke-linecap:round; stroke-linejoin:round;">
<path d="M60000000 12000000
L60000000 10000000
" />
</g>
<g style="fill:#000000; fill-opacity:0.0; 
stroke:#000000; stroke-width:21200.000000; stroke-opacity:1; 
stroke-linecap:round; stroke-linejoin:round;">
</g>
<g style="fill:#000000; fill-opacity:0.0; 
stroke:#000000; stroke-width:150000.000000; stroke-opacity:1; 
stroke-linecap:round; stroke-linejoin:round;">
<path d="M110000000 12000000
L110000000 10000000
" />
</g>
<g style="fill:#000000; fill-opacity:0.0; 
stroke:#000000; stroke-width:21200.000000; stroke-opacity:1; 
stroke-linecap:round; stroke-linejoin:round;">
</g>
<g style="fill:#000000; fill-opacity:0.0; 
stroke:#000000; stroke-width:150000.000000; stroke-opacity:1; 
stroke-linecap:round; stroke-linejoin:round;">
<path d="M160000000 12000000
L160000000 10000000
" />
</g>
<g style="fill:#000000; fill-opacity:0.0; 
stroke:#000000; stroke-width:21200.000000; stroke-opacity:1; 
stroke-linecap:round; stroke-linejoin:round;">
</g>
<g style="fill:#000000; fill-opacity:0.0; 
stroke:#000000; stroke-width:150000.000000; stroke-opacity:1; 
stroke-linecap:round; stroke-linejoin:round;">
<path d="M210000000 12000000
L210000000 10000000
" />
</g>
<g style="fill:#000000; fill-opacity:0.0; 
stroke:#000000; stroke-width:21200.000000; stroke-opacity:1; 
stroke-linecap:round; stroke-linejoin:round;">
</g>
<g style="fill:#000000; fill-opacity:0.0; 
stroke:#000000; stroke-width:150000.000000; stroke-opacity:1; 
stroke-linecap:round; stroke-linejoin:round;">
<path d="M260000000 12000000
L260000000 10000000
" />
</g>
<g style="fill:#000000; fill-opacity:0.0; 
stroke:#000000; stroke-width:21200.000000; stroke-opacity:1; 
stroke-linecap:round; stroke-linejoin:round;">
</g>
<g style="fill:#000000; fill-opacity:0.0; 
stroke:#000000; stroke-width:150000.000000; stroke-opacity:1; 
stroke-linecap:round; stroke-linejoin:round;">
<text x="35000000.000000" y="11650000.000000"
textLength="1238096.000000" font-size="1733333.000000" lengthAdjust="spacingAndGlyphs"
text-anchor="start" opacity="0">1</text>
<g class="stroked-text"><desc>1</desc>
<path d="M36065476 11588095
L35322619 11588095
" />
<path d="M35694047 11588095
L35694047 10288095
L35570238 10473809
L35446428 10597619
L35322619 10659523
" />
</g></g>
<g style="fill:#000000; fill-opacity:0.0; 
stroke:#000000; stroke-width:21200.000000; stroke-opacity:1; 
stroke-linecap:round; stroke-linejoin:round;">
</g>
<g style="fill:#000000; fill-opacity:0.0; 
stroke:#000000; stroke-width:150000.000000; stroke-opacity:1; 
stroke-linecap:round; stroke-linejoin:round;">
<text x="85000000.000000" y="11650000.000000"
textLength="1388095.000000" font-size="1733333.000000" lengthAdjust="spacingAndGlyphs"
text-anchor="start" opacity="0">2</text>
<g class="stroked-text"><desc>2</desc>
<path d="M85322619 10411904
L85384523 10350000
L85508333 10288095
L85817857 10288095
L85941666 10350000
L86003571 10411904
L86065476 10535714
L86065476 10659523
L86003571 10845238
L85260714 11588095
L86065476 11588095
" />
</g></g>
<g style="fill:#000000; fill-opacity:0.0; 
stroke:#000000; stroke-width:21200.000000; stroke-opacity:1; 
stroke-linecap:round; stroke-linejoin:round;">
</g>
<g style="fill:#000000; fill-opacity:0.0; 
stroke:#000000; stroke-width:150000.000000; stroke-opacity:1; 
stroke-linecap:round; stroke-linejoin:round;">
<text x="135000000.000000" y="11650000.000000"
textLength="1388095.000000" font-size="1733333.000000" lengthAdjust="spacingAndGlyphs"
text-anchor="start" opacity="0">3</text>
<g class="stroked-text"><desc>3</desc>
<path d="M135260714 10288095
L136065476 10288095
L135632142 10783333
L135817857 10783333
L135941666 10845238
L136003571 10907142
L136065476 11030952
L136065476 11340476
L136003571 11464285
L135941666 11526190
L135817857 11588095
L135446428 11588095
L135322619 11526190
L135260714 11464285
" />
</g></g>
<g style="fill:#000000; fill-opacity:0.0; 
stroke:#000000; stroke-width:21200.000000; stroke-opacity:1; 
stroke-linecap:round; stroke-linejoin:round;">
</g>
<g style="fill:#000000; fill-opacity:0.0; 
stroke:#000000; stroke-width:150000.000000; stroke-opacity:1; 
stroke-linecap:round; stroke-linejoin:round;">
<text x="185000000.000000" y="11650000.000000"
textLength="1388095.000000" font-size="1733333.000000" lengthAdjust="spacingAndGlyphs"
text-anchor="start" opacity="0">4</text>
<g class="stroked-text"><desc>4</desc>
<path d="M185941666 10721428
L185941666 11588095
" />
<path d="M185632142 10226190
L185322619 11154761
L186127380 11154761
" />
</g></g>
<g style="fill:#000000; fill-opacity:0.0; 
stroke:#000000; stroke-width:21200.000000; stroke-opacity:1; 
stroke-linecap:round; stroke-linejoin:round;">
</g>
<g style="fill:#000000; fill-opacity:0.0; 
stroke:#000000; stroke-width:150000.000000; stroke-opacity:1; 
stroke-linecap:round; stroke-linejoin:round;">
<text x="235000000.000000" y="11650000.000000"
textLength="1388095.000000" font-size="1733333.000000" lengthAdjust="spacingAndGlyphs"
text-anchor="start" opacity="0">5</text>
<g class="stroked-text"><desc>5</desc>
<path d="M236003571 10288095
L235384523 10288095
L235322619 10907142
L235384523 10845238
L235508333 10783333
L235817857 10783333
L235941666 10845238
L236003571 10907142
L236065476 11030952
L236065476 11340476
L236003571 11464285
L235941666 11526190
L235817857 11588095
L235508333 11588095
L235384523 11526190
L235322619 11464285
" />
</g></g>
<g style="fill:#000000; fill-opacity:0.0; 
stroke:#000000; stroke-width:21200.000000; stroke-opacity:1; 
stroke-linecap:round; stroke-linejoin:round;">
</g>
<g style="fill:#000000; fill-opacity:0.0; 
stroke:#000000; stroke-width:150000.000000; stroke-opacity:1; 
stroke-linecap:round; stroke-linejoin:round;">
<text x="285000000.000000" y="11650000.000000"
textLength="1388095.000000" font-size="1733333.000000" lengthAdjust="spacingAndGlyphs"
text-anchor="start" opacity="0">6</text>
<g class="stroked-text"><desc>6</desc>
<path d="M285941666 10288095
L285694047 10288095
L285570238 10350000
L285508333 10411904
L285384523 10597619
L285322619 10845238
L285322619 11340476
L285384523 11464285
L285446428 11526190
L285570238 11588095
L285817857 11588095
L285941666 11526190
L286003571 11464285
L286065476 11340476
L286065476 11030952
L286003571 10907142
L285941666 10845238
L285817857 10783333
L285570238 10783333
L285446428 10845238
L285384523 10907142
L285322619 11030952
" />
</g></g>
<g style="fill:#000000; fill-opacity:0.0; 
stroke:#000000; stroke-width:21200.000000; stroke-opacity:1; 
stroke-linecap:round; stroke-linejoin:round;">
</g>
<g style="fill:#000000; fill-opacity:0.0; 
stroke:#000000; stroke-width:150000.000000; stroke-opacity:1; 
stroke-linecap:round; stroke-linejoin:round;">
<path d="M60000000 198007200
L60000000 200007200
" />
</g>
<g style="fill:#000000; fill-opacity:0.0; 
stroke:#000000; stroke-width:21200.000000; stroke-opacity:1; 
stroke-linecap:round; stroke-linejoin:round;">
</g>
<g style="fill:#000000; fill-opacity:0.0; 
stroke:#000000; stroke-width:150000.000000; stroke-opacity:1; 
stroke-linecap:round; stroke-linejoin:round;">
<path d="M110000000 198007200
L110000000 200007200
" />
</g>
<g style="fill:#000000; fill-opacity:0.0; 
stroke:#000000; stroke-width:21200.000000; stroke-opacity:1; 
stroke-linecap:round; stroke-linejoin:round;">
</g>
<g style="fill:#000000; fill-opacity:0.0; 
stroke:#000000; stroke-width:150000.000000; stroke-opacity:1; 
stroke-linecap:round; stroke-linejoin:round;">
<path d="M160000000 198007200
L160000000 200007200
" />
</g>
<g style="fill:#000000; fill-opacity:0.0; 
stroke:#000000; stroke-width:21200.000000; stroke-opacity:1; 
stroke-linecap:round; stroke-linejoin:round;">
</g>
<g style="fill:#000000; fill-opacity:0.0; 
stroke:#000000; stroke-width:150000.000000; stroke-opacity:1; 
stroke-linecap:round; stroke-linejoin:round;">
<path d="M210000000 198007200
L210000000 200007200
" />
</g>
<g style="fill:#000000; fill-opacity:0.0; 
stroke:#000000; stroke-width:21200.000000; stroke-opacity:1; 
stroke-linecap:round; stroke-linejoin:round;">
</g>
<g style="fill:#000000; fill-opacity:0.0; 
stroke:#000000; stroke-width:150000.000000; stroke-opacity:1; 
stroke-linecap:round; stroke-linejoin:round;">
<path d="M260000000 198007200
L260000000 200007200
" />
</g>
<g style="fill:#000000; fill-opacity:0.0; 
stroke:#000000; stroke-width:21200.000000; stroke-opacity:1; 
stroke-linecap:round; stroke-linejoin:round;">
</g>
<g style="fill:#000000; fill-opacity:0.0; 
stroke:#000000; stroke-width:150000.000000; stroke-opacity:1; 
stroke-linecap:round; stroke-linejoin:round;">
<text x="35000000.000000" y="199657200.000000"
textLength="1388095.000000" font-size="1733333.000000" lengthAdjust="spacingAndGlyphs"
text-anchor="start" opacity="0">1</text>
<g class="stroked-text"><desc>1</desc>
<path d="M36065476 199595295
L35322619 199595295
" />
<path d="M35694047 199595295
L35694047 198295295
L35570238 198481009
L35446428 198604819
L35322619 198666723
" />
</g></g>
<g style="fill:#000000; fill-opacity:0.0; 
stroke:#000000; stroke-width:21200.000000; stroke-opacity:1; 
stroke-linecap:round; stroke-linejoin:round;">
</g>
<g style="fill:#000000; fill-opacity:0.0; 
stroke:#000000; stroke-width:150000.000000; stroke-opacity:1; 
stroke-linecap:round; stroke-linejoin:round;">
<text x="85000000.000000" y="199657200.000000"
textLength="1388095.000000" font-size="1733333.000000" lengthAdjust="spacingAndGlyphs"
text-anchor="start" opacity="0">2</text>
<g class="stroked-text"><desc>2</desc>
<path d="M85322619 198419104
L85384523 198357200
L85508333 198295295
L85817857 198295295
L85941666 198357200
L86003571 198419104
L86065476 198542914
L86065476 198666723
L86003571 198852438
L85260714 199595295
L86065476 199595295
" />
</g></g>
<g style="fill:#000000; fill-opacity:0.0; 
stroke:#000000; stroke-width:21200.000000; stroke-opacity:1; 
stroke-linecap:round; stroke-linejoin:round;">
</g>
<g style="fill:#000000; fill-opacity:0.0; 
stroke:#000000; stroke-width:150000.000000; stroke-opacity:1; 
stroke-linecap:round; stroke-linejoin:round;">
<text x="135000000.000000" y="199657200.000000"
textLength="1388095.000000" font-size="1733333.000000" lengthAdjust="spacingAndGlyphs"
text-anchor="start" opacity="0">3</text>
<g class="stroked-text"><desc>3</desc>
<path d="M135260714 198295295
L136065476 198295295
L135632142 198790533
L135817857 198790533
L135941666 198852438
L136003571 198914342
L136065476 199038152
L136065476 199347676
L136003571 199471485
L135941666 199533390
L135817857 199595295
L135446428 199595295
L135322619 199533390
L135260714 199471485
" />
</g></g>
<g style="fill:#000000; fill-opacity:0.0; 
stroke:#000000; stroke-width:21200.000000; stroke-opacity:1; 
stroke-linecap:round; stroke-linejoin:round;">
</g>
<g style="fill:#000000; fill-opacity:0.0; 
stroke:#000000; stroke-width:150000.000000; stroke-opacity:1; 
stroke-linecap:round; stroke-linejoin:round;">
<text x="185000000.000000" y="199657200.000000"
textLength="1388095.000000" font-size="1733333.000000" lengthAdjust="spacingAndGlyphs"
text-anchor="start" opacity="0">4</text>
<g class="stroked-text"><desc>4</desc>
<path d="M185941666 198728628
L185941666 199595295
" />
<path d="M185632142 198233390
L185322619 199161961
L186127380 199161961
" />
</g></g>
<g style="fill:#000000; fill-opacity:0.0; 
stroke:#000000; stroke-width:21200.000000; stroke-opacity:1; 
stroke-linecap:round; stroke-linejoin:round;">
</g>
<g style="fill:#000000; fill-opacity:0.0; 
stroke:#000000; stroke-width:150000.000000; stroke-opacity:1; 
stroke-linecap:round; stroke-linejoin:round;">
<text x="235000000.000000" y="199657200.000000"
textLength="1388095.000000" font-size="1733333.000000" lengthAdjust="spacingAndGlyphs"
text-anchor="start" opacity="0">5</text>
<g class="stroked-text"><desc>5</desc>
<path d="M236003571 198295295
L235384523 198295295
L235322619 198914342
L235384523 198852438
L235508333 198790533
L235817857 198790533
L235941666 198852438
L236003571 198914342
L236065476 199038152
L236065476 199347676
L236003571 199471485
L235941666 199533390
L235817857 199595295
L235508333 199595295
L235384523 199533390
L235322619 199471485
" />
</g></g>
<g style="fill:#000000; fill-opacity:0.0; 
stroke:#000000; stroke-width:21200.000000; stroke-opacity:1; 
stroke-linecap:round; stroke-linejoin:round;">
</g>
<g style="fill:#000000; fill-opacity:0.0; 
stroke:#000000; stroke-width:150000.000000; stroke-opacity:1; 
stroke-linecap:round; stroke-linejoin:round;">
<text x="285000000.000000" y="199657200.000000"
textLength="1388095.000000" font-size="1733333.000000" lengthAdjust="spacingAndGlyphs"
text-anchor="start" opacity="0">6</text>
<g class="stroked-text"><desc>6</desc>
<path d="M285941666 198295295
L285694047 198295295
L285570238 198357200
L285508333 198419104
L285384523 198604819
L285322619 198852438
L285322619 199347676
L285384523 199471485
L285446428 199533390
L285570238 199595295
L285817857 199595295
L285941666 199533390
L286003571 199471485
L286065476 199347676
L286065476 199038152
L286003571 198914342
L285941666 198852438
L285817857 198790533
L285570238 198790533
L285446428 198852438
L285384523 198914342
L285322619 199038152
" />
</g></g>
<g style="fill:#000000; fill-opacity:0.0; 
stroke:#000000; stroke-width:21200.000000; stroke-opacity:1; 
stroke-linecap:round; stroke-linejoin:round;">
</g>
<g style="fill:#000000; fill-opacity:0.0; 
stroke:#000000; stroke-width:150000.000000; stroke-opacity:1; 
stroke-linecap:round; stroke-linejoin:round;">
<path d="M10000000 60000000
L12000000 60000000
" />
</g>
<g style="fill:#000000; fill-opacity:0.0; 
stroke:#000000; stroke-width:21200.000000; stroke-opacity:1; 
stroke-linecap:round; stroke-linejoin:round;">
</g>
<g style="fill:#000000; fill-opacity:0.0; 
stroke:#000000; stroke-width:150000.000000; stroke-opacity:1; 
stroke-linecap:round; stroke-linejoin:round;">
<path d="M10000000 110000000
L12000000 110000000
" />
</g>
<g style="fill:#000000; fill-opacity:0.0; 
stroke:#000000; stroke-width:21200.000000; stroke-opacity:1; 
stroke-linecap:round; stroke-linejoin:round;">
</g>
<g style="fill:#000000; fill-opacity:0.0; 
stroke:#000000; stroke-width:150000.000000; stroke-opacity:1; 
stroke-linecap:round; stroke-linejoin:round;">
<path d="M10000000 160000000
L12000000 160000000
" />
</g>
<g style="fill:#000000; fill-opacity:0.0; 
stroke:#000000; stroke-width:21200.000000; stroke-opacity:1; 
stroke-linecap:round; stroke-linejoin:round;">
</g>
<g style="fill:#000000; fill-opacity:0.0; 
stroke:#000000; stroke-width:150000.000000; stroke-opacity:1; 
stroke-linecap:round; stroke-linejoin:round;">
<text x="11000000.000000" y="35650000.000000"
textLength="1264286.000000" font-size="1733333.000000" lengthAdjust="spacingAndGlyphs"
text-anchor="middle" opacity="0">A</text>
<g class="stroked-text"><desc>A</desc>
<path d="M10690476 35216666
L11309523 35216666
" />
<path d="M10566666 35588095
L11000000 34288095
L11433333 35588095
" />
</g></g>
<g style="fill:#000000; fill-opacity:0.0; 
stroke:#000000; stroke-width:21200.000000; stroke-opacity:1; 
stroke-linecap:round; stroke-linejoin:round;">
</g>
<g style="fill:#000000; fill-opacity:0.0; 
stroke:#000000; stroke-width:150000.000000; stroke-opacity:1; 
stroke-linecap:round; stroke-linejoin:round;">
<text x="11000000.000000" y="85650000.000000"
textLength="1450000.000000" font-size="1733333.000000" lengthAdjust="spacingAndGlyphs"
text-anchor="middle" opacity="0">B</text>
<g class="stroked-text"><desc>B</desc>
<path d="M11092857 84907142
L11278571 84969047
L11340476 85030952
L11402380 85154761
L11402380 85340476
L11340476 85464285
L11278571 85526190
L11154761 85588095
L10659523 85588095
L10659523 84288095
L11092857 84288095
L11216666 84350000
L11278571 84411904
L11340476 84535714
L11340476 84659523
L11278571 84783333
L11216666 84845238
L11092857 84907142
L10659523 84907142
" />
</g></g>
<g style="fill:#000000; fill-opacity:0.0; 
stroke:#000000; stroke-width:21200.000000; stroke-opacity:1; 
stroke-linecap:round; stroke-linejoin:round;">
</g>
<g style="fill:#000000; fill-opacity:0.0; 
stroke:#000000; stroke-width:150000.000000; stroke-opacity:1; 
stroke-linecap:round; stroke-linejoin:round;">
<text x="11000000.000000" y="135650000.000000"
textLength="1450000.000000" font-size="1733333.000000" lengthAdjust="spacingAndGlyphs"
text-anchor="middle" opacity="0">C</text>
<g class="stroked-text"><desc>C</desc>
<path d="M11402380 135464285
L11340476 135526190
L11154761 135588095
L11030952 135588095
L10845238 135526190
L10721428 135402380
L10659523 135278571
L10597619 135030952
L10597619 134845238
L10659523 134597619
L10721428 134473809
L10845238 134350000
L11030952 134288095
L11154761 134288095
L11340476 134350000
L11402380 134411904
" />
</g></g>
<g style="fill:#000000; fill-opacity:0.0; 
stroke:#000000; stroke-width:21200.000000; stroke-opacity:1; 
stroke-linecap:round; stroke-linejoin:round;">
</g>
<g style="fill:#000000; fill-opacity:0.0; 
stroke:#000000; stroke-width:150000.000000; stroke-opacity:1; 
stroke-linecap:round; stroke-linejoin:round;">
<text x="11000000.000000" y="185650000.000000"
textLength="1450000.000000" font-size="1733333.000000" lengthAdjust="spacingAndGlyphs"
text-anchor="middle" opacity="0">D</text>
<g class="stroked-text"><desc>D</desc>
<path d="M10659523 185588095
L10659523 184288095
L10969047 184288095
L11154761 184350000
L11278571 184473809
L11340476 184597619
L11402380 184845238
L11402380 185030952
L11340476 185278571
L11278571 185402380
L11154761 185526190
L10969047 185588095
L10659523 185588095
" />
</g></g>
<g style="fill:#000000; fill-opacity:0.0; 
stroke:#000000; stroke-width:21200.000000; stroke-opacity:1; 
stroke-linecap:round; stroke-linejoin:round;">
</g>
<g style="fill:#000000; fill-opacity:0.0; 
stroke:#000000; stroke-width:150000.000000; stroke-opacity:1; 
stroke-linecap:round; stroke-linejoin:round;">
<path d="M287002200 60000000
L285002200 60000000
" />
</g>
<g style="fill:#000000; fill-opacity:0.0; 
stroke:#000000; stroke-width:21200.000000; stroke-opacity:1; 
stroke-linecap:round; stroke-linejoin:round;">
</g>
<g style="fill:#000000; fill-opacity:0.0; 
stroke:#000000; stroke-width:150000.000000; stroke-opacity:1; 
stroke-linecap:round; stroke-linejoin:round;">
<path d="M287002200 110000000
L285002200 110000000
" />
</g>
<g style="fill:#000000; fill-opacity:0.0; 
stroke:#000000; stroke-width:21200.000000; stroke-opacity:1; 
stroke-linecap:round; stroke-linejoin:round;">
</g>
<g style="fill:#000000; fill-opacity:0.0; 
stroke:#000000; stroke-width:150000.000000; stroke-opacity:1; 
stroke-linecap:round; stroke-linejoin:round;">
<path d="M287002200 160000000
L285002200 160000000
" />
</g>
<g style="fill:#000000; fill-opacity:0.0; 
stroke:#000000; stroke-width:21200.000000; stroke-opacity:1; 
stroke-linecap:round; stroke-linejoin:round;">
</g>
<g style="fill:#000000; fill-opacity:0.0; 
stroke:#000000; stroke-width:150000.000000; stroke-opacity:1; 
stroke-linecap:round; stroke-linejoin:round;">
<text x="286002200.000000" y="35650000.000000"
textLength="1264286.000000" font-size="1733333.000000" lengthAdjust="spacingAndGlyphs"
text-anchor="middle" opacity="0">A</text>
<g class="stroked-text"><desc>A</desc>
<path d="M285692676 35216666
L286311723 35216666
" />
<path d="M285568866 35588095
L286002200 34288095
L286435533 35588095
" />
</g></g>
<g style="fill:#000000; fill-opacity:0.0; 
stroke:#000000; stroke-width:21200.000000; stroke-opacity:1; 
stroke-linecap:round; stroke-linejoin:round;">
</g>
<g style="fill:#000000; fill-opacity:0.0; 
stroke:#000000; stroke-width:150000.000000; stroke-opacity:1; 
stroke-linecap:round; stroke-linejoin:round;">
<text x="286002200.000000" y="85650000.000000"
textLength="1450000.000000" font-size="1733333.000000" lengthAdjust="spacingAndGlyphs"
text-anchor="middle" opacity="0">B</text>
<g class="stroked-text"><desc>B</desc>
<path d="M286095057 84907142
L286280771 84969047
L286342676 85030952
L286404580 85154761
L286404580 85340476
L286342676 85464285
L286280771 85526190
L286156961 85588095
L285661723 85588095
L285661723 84288095
L286095057 84288095
L286218866 84350000
L286280771 84411904
L286342676 84535714
L286342676 84659523
L286280771 84783333
L286218866 84845238
L286095057 84907142
L285661723 84907142
" />
</g></g>
<g style="fill:#000000; fill-opacity:0.0; 
stroke:#000000; stroke-width:21200.000000; stroke-opacity:1; 
stroke-linecap:round; stroke-linejoin:round;">
</g>
<g style="fill:#000000; fill-opacity:0.0; 
stroke:#000000; stroke-width:150000.000000; stroke-opacity:1; 
stroke-linecap:round; stroke-linejoin:round;">
<text x="286002200.000000" y="135650000.000000"
textLength="1450000.000000" font-size="1733333.000000" lengthAdjust="spacingAndGlyphs"
text-anchor="middle" opacity="0">C</text>
<g class="stroked-text"><desc>C</desc>
<path d="M286404580 135464285
L286342676 135526190
L286156961 135588095
L286033152 135588095
L285847438 135526190
L285723628 135402380
L285661723 135278571
L285599819 135030952
L285599819 134845238
L285661723 134597619
L285723628 134473809
L285847438 134350000
L286033152 134288095
L286156961 134288095
L286342676 134350000
L286404580 134411904
" />
</g></g>
<g style="fill:#000000; fill-opacity:0.0; 
stroke:#000000; stroke-width:21200.000000; stroke-opacity:1; 
stroke-linecap:round; stroke-linejoin:round;">
</g>
<g style="fill:#000000; fill-opacity:0.0; 
stroke:#000000; stroke-width:150000.000000; stroke-opacity:1; 
stroke-linecap:round; stroke-linejoin:round;">
<text x="286002200.000000" y="185650000.000000"
textLength="1450000.000000" font-size="1733333.000000" lengthAdjust="spacingAndGlyphs"
text-anchor="middle" opacity="0">D</text>
<g class="stroked-text"><desc>D</desc>
<path d="M285661723 185588095
L285661723 184288095
L285971247 184288095
L286156961 184350000
L286280771 184473809
L286342676 184597619
L286404580 184845238
L286404580 185030952
L286342676 185278571
L286280771 185402380
L286156961 185526190
L285971247 185588095
L285661723 185588095
" />
</g></g>
<g style="fill:#000000; fill-opacity:0.0; 
stroke:#000000; stroke-width:21200.000000; stroke-opacity:1; 
stroke-linecap:round; stroke-linejoin:round;">
</g>
<g style="fill:#000000; fill-opacity:0.0; 
stroke:#000000; stroke-width:150000.000000; stroke-opacity:1; 
stroke-linecap:round; stroke-linejoin:round;">
<text x="200002200.000000" y="193857200.000000"
textLength="7007143.000000" font-size="2000000.000000" lengthAdjust="spacingAndGlyphs"
text-anchor="start" opacity="0">Date: </text>
<g class="stroked-text"><desc>Date: </desc>
<path d="M200434342 193785771
L200434342 192285771
L200791485 192285771
L201005771 192357200
L201148628 192500057
L201220057 192642914
L201291485 192928628
L201291485 193142914
L201220057 193428628
L201148628 193571485
L201005771 193714342
L200791485 193785771
L200434342 193785771
" />
<path d="M202577200 193785771
L202577200 193000057
L202505771 192857200
L202362914 192785771
L202077200 192785771
L201934342 192857200
" />
<path d="M202577200 193714342
L202434342 193785771
L202077200 193785771
L201934342 193714342
L201862914 193571485
L201862914 193428628
L201934342 193285771
L202077200 193214342
L202434342 193214342
L202577200 193142914
" />
<path d="M203077200 192785771
L203648628 192785771
" />
<path d="M203291485 192285771
L203291485 193571485
L203362914 193714342
L203505771 193785771
L203648628 193785771
" />
<path d="M204720057 193714342
L204577200 193785771
L204291485 193785771
L204148628 193714342
L204077200 193571485
L204077200 193000057
L204148628 192857200
L204291485 192785771
L204577200 192785771
L204720057 192857200
L204791485 193000057
L204791485 193142914
L204077200 193285771
" />
<path d="M205434342 193642914
L205505771 193714342
L205434342 193785771
L205362914 193714342
L205434342 193642914
L205434342 193785771
" />
<path d="M205434342 192857200
L205505771 192928628
L205434342 193000057
L205362914 192928628
L205434342 192857200
L205434342 193000057
" />
</g></g>
<g style="fill:#000000; fill-opacity:0.0; 
stroke:#000000; stroke-width:21200.000000; stroke-opacity:1; 
stroke-linecap:round; stroke-linejoin:round;">
</g>
<g style="fill:#000000; fill-opacity:0.0; 
stroke:#000000; stroke-width:150000.000000; stroke-opacity:1; 
stroke-linecap:round; stroke-linejoin:round;">
<path d="M177002200 194507200
L285002200 194507200
" />
</g>
<g style="fill:#000000; fill-opacity:0.0; 
stroke:#000000; stroke-width:21200.000000; stroke-opacity:1; 
stroke-linecap:round; stroke-linejoin:round;">
</g>
<g style="fill:#000000; fill-opacity:0.0; 
stroke:#000000; stroke-width:150000.000000; stroke-opacity:1; 
stroke-linecap:round; stroke-linejoin:round;">
<text x="178002200.000000" y="196657200.000000"
textLength="34792857.000000" font-size="2000000.000000" lengthAdjust="spacingAndGlyphs"
text-anchor="start" opacity="0">KiCad E.D.A.  pcbnew (6.0.10)</text>
<g class="stroked-text"><desc>KiCad E.D.A.  pcbnew (6.0.10)</desc>
<path d="M178434342 196585771
L178434342 195085771
" />
<path d="M179291485 196585771
L178648628 195728628
" />
<path d="M179291485 195085771
L178434342 195942914
" />
<path d="M179934342 196585771
L179934342 195585771
" />
<path d="M179934342 195085771
L179862914 195157200
L179934342 195228628
L180005771 195157200
L179934342 195085771
L179934342 195228628
" />
<path d="M181505771 196442914
L181434342 196514342
L181220057 196585771
L181077200 196585771
L180862914 196514342
L180720057 196371485
L180648628 196228628
L180577200 195942914
L180577200 195728628
L180648628 195442914
L180720057 195300057
L180862914 195157200
L181077200 195085771
L181220057 195085771
L181434342 195157200
L181505771 195228628
" />
<path d="M182791485 196585771
L182791485 195800057
L182720057 195657200
L182577200 195585771
L182291485 195585771
L182148628 195657200
" />
<path d="M182791485 196514342
L182648628 196585771
L182291485 196585771
L182148628 196514342
L182077200 196371485
L182077200 196228628
L182148628 196085771
L182291485 196014342
L182648628 196014342
L182791485 195942914
" />
<path d="M184148628 196585771
L184148628 195085771
" />
<path d="M184148628 196514342
L184005771 196585771
L183720057 196585771
L183577200 196514342
L183505771 196442914
L183434342 196300057
L183434342 195871485
L183505771 195728628
L183577200 195657200
L183720057 195585771
L184005771 195585771
L184148628 195657200
" />
<path d="M186005771 195800057
L186505771 195800057
" />
<path d="M186720057 196585771
L186005771 196585771
L186005771 195085771
L186720057 195085771
" />
<path d="M187362914 196442914
L187434342 196514342
L187362914 196585771
L187291485 196514342
L187362914 196442914
L187362914 196585771
" />
<path d="M188077200 196585771
L188077200 195085771
L188434342 195085771
L188648628 195157200
L188791485 195300057
L188862914 195442914
L188934342 195728628
L188934342 195942914
L188862914 196228628
L188791485 196371485
L188648628 196514342
L188434342 196585771
L188077200 196585771
" />
<path d="M189577200 196442914
L189648628 196514342
L189577200 196585771
L189505771 196514342
L189577200 196442914
L189577200 196585771
" />
<path d="M190220057 196157200
L190934342 196157200
" />
<path d="M190077200 196585771
L190577200 195085771
L191077200 196585771
" />
<path d="M191577200 196442914
L191648628 196514342
L191577200 196585771
L191505771 196514342
L191577200 196442914
L191577200 196585771
" />
<path d="M194577200 195585771
L194577200 197085771
" />
<path d="M194577200 195657200
L194720057 195585771
L195005771 195585771
L195148628 195657200
L195220057 195728628
L195291485 195871485
L195291485 196300057
L195220057 196442914
L195148628 196514342
L195005771 196585771
L194720057 196585771
L194577200 196514342
" />
<path d="M196577200 196514342
L196434342 196585771
L196148628 196585771
L196005771 196514342
L195934342 196442914
L195862914 196300057
L195862914 195871485
L195934342 195728628
L196005771 195657200
L196148628 195585771
L196434342 195585771
L196577200 195657200
" />
<path d="M197220057 196585771
L197220057 195085771
" />
<path d="M197220057 195657200
L197362914 195585771
L197648628 195585771
L197791485 195657200
L197862914 195728628
L197934342 195871485
L197934342 196300057
L197862914 196442914
L197791485 196514342
L197648628 196585771
L197362914 196585771
L197220057 196514342
" />
<path d="M198577200 195585771
L198577200 196585771
" />
<path d="M198577200 195728628
L198648628 195657200
L198791485 195585771
L199005771 195585771
L199148628 195657200
L199220057 195800057
L199220057 196585771
" />
<path d="M200505771 196514342
L200362914 196585771
L200077200 196585771
L199934342 196514342
L199862914 196371485
L199862914 195800057
L199934342 195657200
L200077200 195585771
L200362914 195585771
L200505771 195657200
L200577200 195800057
L200577200 195942914
L199862914 196085771
" />
<path d="M201077200 195585771
L201362914 196585771
L201648628 195871485
L201934342 196585771
L202220057 195585771
" />
<path d="M204362914 197157200
L204291485 197085771
L204148628 196871485
L204077200 196728628
L204005771 196514342
L203934342 196157200
L203934342 195871485
L204005771 195514342
L204077200 195300057
L204148628 195157200
L204291485 194942914
L204362914 194871485
" />
<path d="M205577200 195085771
L205291485 195085771
L205148628 195157200
L205077200 195228628
L204934342 195442914
L204862914 195728628
L204862914 196300057
L204934342 196442914
L205005771 196514342
L205148628 196585771
L205434342 196585771
L205577200 196514342
L205648628 196442914
L205720057 196300057
L205720057 195942914
L205648628 195800057
L205577200 195728628
L205434342 195657200
L205148628 195657200
L205005771 195728628
L204934342 195800057
L204862914 195942914
" />
<path d="M206362914 196442914
L206434342 196514342
L206362914 196585771
L206291485 196514342
L206362914 196442914
L206362914 196585771
" />
<path d="M207362914 195085771
L207505771 195085771
L207648628 195157200
L207720057 195228628
L207791485 195371485
L207862914 195657200
L207862914 196014342
L207791485 196300057
L207720057 196442914
L207648628 196514342
L207505771 196585771
L207362914 196585771
L207220057 196514342
L207148628 196442914
L207077200 196300057
L207005771 196014342
L207005771 195657200
L207077200 195371485
L207148628 195228628
L207220057 195157200
L207362914 195085771
" />
<path d="M208505771 196442914
L208577200 196514342
L208505771 196585771
L208434342 196514342
L208505771 196442914
L208505771 196585771
" />
<path d="M210005771 196585771
L209148628 196585771
" />
<path d="M209577200 196585771
L209577200 195085771
L209434342 195300057
L209291485 195442914
L209148628 195514342
" />
<path d="M210934342 195085771
L211077200 195085771
L211220057 195157200
L211291485 195228628
L211362914 195371485
L211434342 195657200
L211434342 196014342
L211362914 196300057
L211291485 196442914
L211220057 196514342
L211077200 196585771
L210934342 196585771
L210791485 196514342
L210720057 196442914
L210648628 196300057
L210577200 196014342
L210577200 195657200
L210648628 195371485
L210720057 195228628
L210791485 195157200
L210934342 195085771
" />
<path d="M211934342 197157200
L212005771 197085771
L212148628 196871485
L212220057 196728628
L212291485 196514342
L212362914 196157200
L212362914 195871485
L212291485 195514342
L212220057 195300057
L212148628 195157200
L212005771 194942914
L211934342 194871485
" />
</g></g>
<g style="fill:#000000; fill-opacity:0.0; 
stroke:#000000; stroke-width:21200.000000; stroke-opacity:1; 
stroke-linecap:round; stroke-linejoin:round;">
</g>
<g style="fill:#000000; fill-opacity:0.0; 
stroke:#000000; stroke-width:150000.000000; stroke-opacity:1; 
stroke-linecap:round; stroke-linejoin:round;">
<path d="M177002200 191507200
L285002200 191507200
" />
</g>
<g style="fill:#000000; fill-opacity:0.0; 
stroke:#000000; stroke-width:21200.000000; stroke-opacity:1; 
stroke-linecap:round; stroke-linejoin:round;">
</g>
<g style="fill:#000000; fill-opacity:0.0; 
stroke:#000000; stroke-width:300000.000000; stroke-opacity:1; 
stroke-linecap:round; stroke-linejoin:round;">
<text x="263002200.000000" y="193857200.000000"
textLength="5935714.000000" font-size="2000000.000000" lengthAdjust="spacingAndGlyphs"
text-anchor="start" opacity="0">Rev: </text>
<g class="stroked-text"><desc>Rev: </desc>
<path d="M264411485 193785771
L263911485 193071485
" />
<path d="M263554342 193785771
L263554342 192285771
L264125771 192285771
L264268628 192357200
L264340057 192428628
L264411485 192571485
L264411485 192785771
L264340057 192928628
L264268628 193000057
L264125771 193071485
L263554342 193071485
" />
<path d="M265625771 193714342
L265482914 193785771
L265197200 193785771
L265054342 193714342
L264982914 193571485
L264982914 193000057
L265054342 192857200
L265197200 192785771
L265482914 192785771
L265625771 192857200
L265697200 193000057
L265697200 193142914
L264982914 193285771
" />
<path d="M266197200 192785771
L266554342 193785771
L266911485 192785771
" />
<path d="M267482914 193642914
L267554342 193714342
L267482914 193785771
L267411485 193714342
L267482914 193642914
L267482914 193785771
" />
<path d="M267482914 192857200
L267554342 192928628
L267482914 193000057
L267411485 192928628
L267482914 192857200
L267482914 193000057
" />
</g></g>
<g style="fill:#000000; fill-opacity:0.0; 
stroke:#000000; stroke-width:21200.000000; stroke-opacity:1; 
stroke-linecap:round; stroke-linejoin:round;">
</g>
<g style="fill:#000000; fill-opacity:0.0; 
stroke:#000000; stroke-width:150000.000000; stroke-opacity:1; 
stroke-linecap:round; stroke-linejoin:round;">
<text x="178002200.000000" y="193857200.000000"
textLength="9604286.000000" font-size="2000000.000000" lengthAdjust="spacingAndGlyphs"
text-anchor="start" opacity="0">Size: A4</text>
<g class="stroked-text"><desc>Size: A4</desc>
<path d="M178362914 193714342
L178577200 193785771
L178934342 193785771
L179077200 193714342
L179148628 193642914
L179220057 193500057
L179220057 193357200
L179148628 193214342
L179077200 193142914
L178934342 193071485
L178648628 193000057
L178505771 192928628
L178434342 192857200
L178362914 192714342
L178362914 192571485
L178434342 192428628
L178505771 192357200
L178648628 192285771
L179005771 192285771
L179220057 192357200
" />
<path d="M179862914 193785771
L179862914 192785771
" />
<path d="M179862914 192285771
L179791485 192357200
L179862914 192428628
L179934342 192357200
L179862914 192285771
L179862914 192428628
" />
<path d="M180434342 192785771
L181220057 192785771
L180434342 193785771
L181220057 193785771
" />
<path d="M182362914 193714342
L182220057 193785771
L181934342 193785771
L181791485 193714342
L181720057 193571485
L181720057 193000057
L181791485 192857200
L181934342 192785771
L182220057 192785771
L182362914 192857200
L182434342 193000057
L182434342 193142914
L181720057 193285771
" />
<path d="M183077200 193642914
L183148628 193714342
L183077200 193785771
L183005771 193714342
L183077200 193642914
L183077200 193785771
" />
<path d="M183077200 192857200
L183148628 192928628
L183077200 193000057
L183005771 192928628
L183077200 192857200
L183077200 193000057
" />
<path d="M184862914 193357200
L185577200 193357200
" />
<path d="M184720057 193785771
L185220057 192285771
L185720057 193785771
" />
<path d="M186862914 192785771
L186862914 193785771
" />
<path d="M186505771 192214342
L186148628 193285771
L187077200 193285771
" />
</g></g>
<g style="fill:#000000; fill-opacity:0.0; 
stroke:#000000; stroke-width:21200.000000; stroke-opacity:1; 
stroke-linecap:round; stroke-linejoin:round;">
</g>
<g style="fill:#000000; fill-opacity:0.0; 
stroke:#000000; stroke-width:150000.000000; stroke-opacity:1; 
stroke-linecap:round; stroke-linejoin:round;">
<text x="263002200.000000" y="196657200.000000"
textLength="8507143.000000" font-size="2000000.000000" lengthAdjust="spacingAndGlyphs"
text-anchor="start" opacity="0">Id: 1/1</text>
<g class="stroked-text"><desc>Id: 1/1</desc>
<path d="M263434342 196585771
L263434342 195085771
" />
<path d="M264791485 196585771
L264791485 195085771
" />
<path d="M264791485 196514342
L264648628 196585771
L264362914 196585771
L264220057 196514342
L264148628 196442914
L264077200 196300057
L264077200 195871485
L264148628 195728628
L264220057 195657200
L264362914 195585771
L264648628 195585771
L264791485 195657200
" />
<path d="M265505771 196442914
L265577200 196514342
L265505771 196585771
L265434342 196514342
L265505771 196442914
L265505771 196585771
" />
<path d="M265505771 195657200
L265577200 195728628
L265505771 195800057
L265434342 195728628
L265505771 195657200
L265505771 195800057
" />
<path d="M268148628 196585771
L267291485 196585771
" />
<path d="M267720057 196585771
L267720057 195085771
L267577200 195300057
L267434342 195442914
L267291485 195514342
" />
<path d="M269862914 195014342
L268577200 196942914
" />
<path d="M271148628 196585771
L270291485 196585771
" />
<path d="M270720057 196585771
L270720057 195085771
L270577200 195300057
L270434342 195442914
L270291485 195514342
" />
</g></g>
<g style="fill:#000000; fill-opacity:0.0; 
stroke:#000000; stroke-width:21200.000000; stroke-opacity:1; 
stroke-linecap:round; stroke-linejoin:round;">
</g>
<g style="fill:#000000; fill-opacity:0.0; 
stroke:#000000; stroke-width:150000.000000; stroke-opacity:1; 
stroke-linecap:round; stroke-linejoin:round;">
<path d="M177002200 187507200
L285002200 187507200
" />
</g>
<g style="fill:#000000; fill-opacity:0.0; 
stroke:#000000; stroke-width:21200.000000; stroke-opacity:1; 
stroke-linecap:round; stroke-linejoin:round;">
</g>
<g style="fill:#000000; fill-opacity:0.0; 
stroke:#000000; stroke-width:400000.000000; stroke-opacity:1; 
stroke-linecap:round; stroke-linejoin:round;">
<text x="178002200.000000" y="190307200.000000"
textLength="9409643.000000" font-size="2666666.000000" lengthAdjust="spacingAndGlyphs"
text-anchor="start" opacity="0">Title: </text>
<g class="stroked-text"><desc>Title: </desc>
<path d="M178714580 188211961
L179857438 188211961
" />
<path d="M179036009 190211961
L179286009 188211961
" />
<path d="M180274104 190211961
L180440771 188878628
" />
<path d="M180524104 188211961
L180416961 188307200
L180500295 188402438
L180607438 188307200
L180524104 188211961
L180500295 188402438
" />
<path d="M181107438 188878628
L181869342 188878628
" />
<path d="M181476485 188211961
L181262200 189926247
L181333628 190116723
L181512200 190211961
L181702676 190211961
" />
<path d="M182655057 190211961
L182476485 190116723
L182405057 189926247
L182619342 188211961
" />
<path d="M184190771 190116723
L183988390 190211961
L183607438 190211961
L183428866 190116723
L183357438 189926247
L183452676 189164342
L183571723 188973866
L183774104 188878628
L184155057 188878628
L184333628 188973866
L184405057 189164342
L184381247 189354819
L183405057 189545295
" />
<path d="M185155057 190021485
L185238390 190116723
L185131247 190211961
L185047914 190116723
L185155057 190021485
L185131247 190211961
" />
<path d="M185286009 188973866
L185369342 189069104
L185262200 189164342
L185178866 189069104
L185286009 188973866
L185262200 189164342
" />
</g></g>
<g style="fill:#000000; fill-opacity:0.0; 
stroke:#000000; stroke-width:21200.000000; stroke-opacity:1; 
stroke-linecap:round; stroke-linejoin:round;">
</g>
<g style="fill:#000000; fill-opacity:0.0; 
stroke:#000000; stroke-width:150000.000000; stroke-opacity:1; 
stroke-linecap:round; stroke-linejoin:round;">
<text x="178002200.000000" y="186457200.000000"
textLength="31448571.000000" font-size="2000000.000000" lengthAdjust="spacingAndGlyphs"
text-anchor="start" opacity="0">File: view_screen.kicad_pcb</text>
<g class="stroked-text"><desc>File: view_screen.kicad_pcb</desc>
<path d="M178934342 185600057
L178434342 185600057
" />
<path d="M178434342 186385771
L178434342 184885771
L179148628 184885771
" />
<path d="M179720057 186385771
L179720057 185385771
" />
<path d="M179720057 184885771
L179648628 184957200
L179720057 185028628
L179791485 184957200
L179720057 184885771
L179720057 185028628
" />
<path d="M180648628 186385771
L180505771 186314342
L180434342 186171485
L180434342 184885771
" />
<path d="M181791485 186314342
L181648628 186385771
L181362914 186385771
L181220057 186314342
L181148628 186171485
L181148628 185600057
L181220057 185457200
L181362914 185385771
L181648628 185385771
L181791485 185457200
L181862914 185600057
L181862914 185742914
L181148628 185885771
" />
<path d="M182505771 186242914
L182577200 186314342
L182505771 186385771
L182434342 186314342
L182505771 186242914
L182505771 186385771
" />
<path d="M182505771 185457200
L182577200 185528628
L182505771 185600057
L182434342 185528628
L182505771 185457200
L182505771 185600057
" />
<path d="M184220057 185385771
L184577200 186385771
L184934342 185385771
" />
<path d="M185505771 186385771
L185505771 185385771
" />
<path d="M185505771 184885771
L185434342 184957200
L185505771 185028628
L185577200 184957200
L185505771 184885771
L185505771 185028628
" />
<path d="M186791485 186314342
L186648628 186385771
L186362914 186385771
L186220057 186314342
L186148628 186171485
L186148628 185600057
L186220057 185457200
L186362914 185385771
L186648628 185385771
L186791485 185457200
L186862914 185600057
L186862914 185742914
L186148628 185885771
" />
<path d="M187362914 185385771
L187648628 186385771
L187934342 185671485
L188220057 186385771
L188505771 185385771
" />
<path d="M188720057 186528628
L189862914 186528628
" />
<path d="M190148628 186314342
L190291485 186385771
L190577200 186385771
L190720057 186314342
L190791485 186171485
L190791485 186100057
L190720057 185957200
L190577200 185885771
L190362914 185885771
L190220057 185814342
L190148628 185671485
L190148628 185600057
L190220057 185457200
L190362914 185385771
L190577200 185385771
L190720057 185457200
" />
<path d="M192077200 186314342
L191934342 186385771
L191648628 186385771
L191505771 186314342
L191434342 186242914
L191362914 186100057
L191362914 185671485
L191434342 185528628
L191505771 185457200
L191648628 185385771
L191934342 185385771
L192077200 185457200
" />
<path d="M192720057 186385771
L192720057 185385771
" />
<path d="M192720057 185671485
L192791485 185528628
L192862914 185457200
L193005771 185385771
L193148628 185385771
" />
<path d="M194220057 186314342
L194077200 186385771
L193791485 186385771
L193648628 186314342
L193577200 186171485
L193577200 185600057
L193648628 185457200
L193791485 185385771
L194077200 185385771
L194220057 185457200
L194291485 185600057
L194291485 185742914
L193577200 185885771
" />
<path d="M195505771 186314342
L195362914 186385771
L195077200 186385771
L194934342 186314342
L194862914 186171485
L194862914 185600057
L194934342 185457200
L195077200 185385771
L195362914 185385771
L195505771 185457200
L195577200 185600057
L195577200 185742914
L194862914 185885771
" />
<path d="M196220057 185385771
L196220057 186385771
" />
<path d="M196220057 185528628
L196291485 185457200
L196434342 185385771
L196648628 185385771
L196791485 185457200
L196862914 185600057
L196862914 186385771
" />
<path d="M197577200 186242914
L197648628 186314342
L197577200 186385771
L197505771 186314342
L197577200 186242914
L197577200 186385771
" />
<path d="M198291485 186385771
L198291485 184885771
" />
<path d="M198434342 185814342
L198862914 186385771
" />
<path d="M198862914 185385771
L198291485 185957200
" />
<path d="M199505771 186385771
L199505771 185385771
" />
<path d="M199505771 184885771
L199434342 184957200
L199505771 185028628
L199577200 184957200
L199505771 184885771
L199505771 185028628
" />
<path d="M200862914 186314342
L200720057 186385771
L200434342 186385771
L200291485 186314342
L200220057 186242914
L200148628 186100057
L200148628 185671485
L200220057 185528628
L200291485 185457200
L200434342 185385771
L200720057 185385771
L200862914 185457200
" />
<path d="M202148628 186385771
L202148628 185600057
L202077200 185457200
L201934342 185385771
L201648628 185385771
L201505771 185457200
" />
<path d="M202148628 186314342
L202005771 186385771
L201648628 186385771
L201505771 186314342
L201434342 186171485
L201434342 186028628
L201505771 185885771
L201648628 185814342
L202005771 185814342
L202148628 185742914
" />
<path d="M203505771 186385771
L203505771 184885771
" />
<path d="M203505771 186314342
L203362914 186385771
L203077200 186385771
L202934342 186314342
L202862914 186242914
L202791485 186100057
L202791485 185671485
L202862914 185528628
L202934342 185457200
L203077200 185385771
L203362914 185385771
L203505771 185457200
" />
<path d="M203862914 186528628
L205005771 186528628
" />
<path d="M205362914 185385771
L205362914 186885771
" />
<path d="M205362914 185457200
L205505771 185385771
L205791485 185385771
L205934342 185457200
L206005771 185528628
L206077200 185671485
L206077200 186100057
L206005771 186242914
L205934342 186314342
L205791485 186385771
L205505771 186385771
L205362914 186314342
" />
<path d="M207362914 186314342
L207220057 186385771
L206934342 186385771
L206791485 186314342
L206720057 186242914
L206648628 186100057
L206648628 185671485
L206720057 185528628
L206791485 185457200
L206934342 185385771
L207220057 185385771
L207362914 185457200
" />
<path d="M208005771 186385771
L208005771 184885771
" />
<path d="M208005771 185457200
L208148628 185385771
L208434342 185385771
L208577200 185457200
L208648628 185528628
L208720057 185671485
L208720057 186100057
L208648628 186242914
L208577200 186314342
L208434342 186385771
L208148628 186385771
L208005771 186314342
" />
</g></g>
<g style="fill:#000000; fill-opacity:0.0; 
stroke:#000000; stroke-width:21200.000000; stroke-opacity:1; 
stroke-linecap:round; stroke-linejoin:round;">
</g>
<g style="fill:#000000; fill-opacity:0.0; 
stroke:#000000; stroke-width:150000.000000; stroke-opacity:1; 
stroke-linecap:round; stroke-linejoin:round;">
<path d="M177002200 181507200
L285002200 181507200
" />
</g>
<g style="fill:#000000; fill-opacity:0.0; 
stroke:#000000; stroke-width:21200.000000; stroke-opacity:1; 
stroke-linecap:round; stroke-linejoin:round;">
</g>
<g style="fill:#000000; fill-opacity:0.0; 
stroke:#000000; stroke-width:150000.000000; stroke-opacity:1; 
stroke-linecap:round; stroke-linejoin:round;">
<text x="178002200.000000" y="183757200.000000"
textLength="8221429.000000" font-size="2000000.000000" lengthAdjust="spacingAndGlyphs"
text-anchor="start" opacity="0">Sheet: </text>
<g class="stroked-text"><desc>Sheet: </desc>
<path d="M178362914 183614342
L178577200 183685771
L178934342 183685771
L179077200 183614342
L179148628 183542914
L179220057 183400057
L179220057 183257200
L179148628 183114342
L179077200 183042914
L178934342 182971485
L178648628 182900057
L178505771 182828628
L178434342 182757200
L178362914 182614342
L178362914 182471485
L178434342 182328628
L178505771 182257200
L178648628 182185771
L179005771 182185771
L179220057 182257200
" />
<path d="M179862914 183685771
L179862914 182185771
" />
<path d="M180505771 183685771
L180505771 182900057
L180434342 182757200
L180291485 182685771
L180077200 182685771
L179934342 182757200
L179862914 182828628
" />
<path d="M181791485 183614342
L181648628 183685771
L181362914 183685771
L181220057 183614342
L181148628 183471485
L181148628 182900057
L181220057 182757200
L181362914 182685771
L181648628 182685771
L181791485 182757200
L181862914 182900057
L181862914 183042914
L181148628 183185771
" />
<path d="M183077200 183614342
L182934342 183685771
L182648628 183685771
L182505771 183614342
L182434342 183471485
L182434342 182900057
L182505771 182757200
L182648628 182685771
L182934342 182685771
L183077200 182757200
L183148628 182900057
L183148628 183042914
L182434342 183185771
" />
<path d="M183577200 182685771
L184148628 182685771
" />
<path d="M183791485 182185771
L183791485 183471485
L183862914 183614342
L184005771 183685771
L184148628 183685771
" />
<path d="M184648628 183542914
L184720057 183614342
L184648628 183685771
L184577200 183614342
L184648628 183542914
L184648628 183685771
" />
<path d="M184648628 182757200
L184720057 182828628
L184648628 182900057
L184577200 182828628
L184648628 182757200
L184648628 182900057
" />
</g></g>
<g style="fill:#000000; fill-opacity:0.0; 
stroke:#000000; stroke-width:21200.000000; stroke-opacity:1; 
stroke-linecap:round; stroke-linejoin:round;">
</g>
<g style="fill:#000000; fill-opacity:0.0; 
stroke:#000000; stroke-width:300000.000000; stroke-opacity:1; 
stroke-linecap:round; stroke-linejoin:round;">
<text x="178002200.000000" y="180757200.000000"
textLength="150000.000000" font-size="2000000.000000" lengthAdjust="spacingAndGlyphs"
text-anchor="start" opacity="0"></text>
<g class="stroked-text"><desc></desc>
</g></g>
<g style="fill:#000000; fill-opacity:0.0; 
stroke:#000000; stroke-width:21200.000000; stroke-opacity:1; 
stroke-linecap:round; stroke-linejoin:round;">
</g>
<g style="fill:#000000; fill-opacity:0.0; 
stroke:#000000; stroke-width:150000.000000; stroke-opacity:1; 
stroke-linecap:round; stroke-linejoin:round;">
<text x="178002200.000000" y="177757200.000000"
textLength="300000.000000" font-size="2000000.000000" lengthAdjust="spacingAndGlyphs"
text-anchor="start" opacity="0"></text>
<g class="stroked-text"><desc></desc>
</g></g>
<g style="fill:#000000; fill-opacity:0.0; 
stroke:#000000; stroke-width:21200.000000; stroke-opacity:1; 
stroke-linecap:round; stroke-linejoin:round;">
</g>
<g style="fill:#000000; fill-opacity:0.0; 
stroke:#000000; stroke-width:150000.000000; stroke-opacity:1; 
stroke-linecap:round; stroke-linejoin:round;">
<text x="178002200.000000" y="174757200.000000"
textLength="150000.000000" font-size="2000000.000000" lengthAdjust="spacingAndGlyphs"
text-anchor="start" opacity="0"></text>
<g class="stroked-text"><desc></desc>
</g></g>
<g style="fill:#000000; fill-opacity:0.0; 
stroke:#000000; stroke-width:21200.000000; stroke-opacity:1; 
stroke-linecap:round; stroke-linejoin:round;">
</g>
<g style="fill:#000000; fill-opacity:0.0; 
stroke:#000000; stroke-width:150000.000000; stroke-opacity:1; 
stroke-linecap:round; stroke-linejoin:round;">
<text x="178002200.000000" y="171757200.000000"
textLength="150000.000000" font-size="2000000.000000" lengthAdjust="spacingAndGlyphs"
text-anchor="start" opacity="0"></text>
<g class="stroked-text"><desc></desc>
</g></g>
<g style="fill:#000000; fill-opacity:0.0; 
stroke:#000000; stroke-width:21200.000000; stroke-opacity:1; 
stroke-linecap:round; stroke-linejoin:round;">
</g>
<g style="fill:#000000; fill-opacity:0.0; 
stroke:#000000; stroke-width:150000.000000; stroke-opacity:1; 
stroke-linecap:round; stroke-linejoin:round;">
<text x="178002200.000000" y="168757200.000000"
textLength="150000.000000" font-size="2000000.000000" lengthAdjust="spacingAndGlyphs"
text-anchor="start" opacity="0"></text>
<g class="stroked-text"><desc></desc>
</g></g>
<g style="fill:#000000; fill-opacity:0.0; 
stroke:#000000; stroke-width:21200.000000; stroke-opacity:1; 
stroke-linecap:round; stroke-linejoin:round;">
</g>
<g style="fill:#000000; fill-opacity:0.0; 
stroke:#000000; stroke-width:150000.000000; stroke-opacity:1; 
stroke-linecap:round; stroke-linejoin:round;">
<path d="M197002200 191507200
L197002200 194507200
" />
</g>
<g style="fill:#000000; fill-opacity:0.0; 
stroke:#000000; stroke-width:21200.000000; stroke-opacity:1; 
stroke-linecap:round; stroke-linejoin:round;">
</g>
<g style="fill:#000000; fill-opacity:0.0; 
stroke:#000000; stroke-width:150000.000000; stroke-opacity:1; 
stroke-linecap:round; stroke-linejoin:round;">
<path d="M261002200 191507200
L261002200 198007200
" />
</g>
<g style="fill:#E8B2A7; fill-opacity:0.0; 
stroke:#E8B2A7; stroke-width:150000.000000; stroke-opacity:1; 
stroke-linecap:round; stroke-linejoin:round;">
</g>
<g style="fill:#E8B2A7; fill-opacity:0.0; 
stroke:#E8B2A7; stroke-width:120000.000000; stroke-opacity:1; 
stroke-linecap:round; stroke-linejoin:round;">
<path d="M100000000.000000 107000000.000000 A7000000.000000 7000000.000000 0.0 1 0 93466580.936991 102512854.024234" />
<path d="M98500000 85000000
L94500000 86000000
" />
<path d="M98500000 91000000
L94500000 92000000
" />
<path d="M101500000 85000000
L105500000 86000000
" />
<path d="M101500000 91000000
L105500000 92000000
" />
<path d="M101500000 89000000
L105500000 90000000
" />
<path d="M101500000 87000000
L105500000 88000000
" />
<path d="M98500000 87000000
L94500000 88000000
" />
<path d="M98500000 89000000
L94500000 90000000
" />
<text x="100000000.000000" y="104725500.000000"
transform="scale(-1 1) translate(-200000000.000000 0)"
textLength="14807143.000000" font-size="1200000.000000" lengthAdjust="spacingAndGlyphs"
text-anchor="start" opacity="0">    COMMIT: deadbeef</text>
<g class="stroked-text"><desc>    COMMIT: deadbeef</desc>
<path d="M96450571 104596928
L96493428 104639785
L96622000 104682642
L96707714 104682642
L96836285 104639785
L96922000 104554071
L96964857 104468357
L97007714 104296928
L97007714 104168357
L96964857 103996928
L96922000 103911214
L96836285 103825500
L96707714 103782642
L96622000 103782642
L96493428 103825500
L96450571 103868357
" />
<path d="M95893428 103782642
L95722000 103782642
L95636285 103825500
L95550571 103911214
L95507714 104082642
L95507714 104382642
L95550571 104554071
L95636285 104639785
L95722000 104682642
L95893428 104682642
L95979142 104639785
L96064857 104554071
L96107714 104382642
L96107714 104082642
L96064857 103911214
L95979142 103825500
L95893428 103782642
" />
<path d="M95122000 104682642
L95122000 103782642
L94822000 104425500
L94522000 103782642
L94522000 104682642
" />
<path d="M94093428 104682642
L94093428 103782642
L93793428 104425500
L93493428 103782642
L93493428 104682642
" />
<path d="M93064857 104682642
L93064857 103782642
" />
<path d="M92764857 103782642
L92250571 103782642
" />
<path d="M92507714 104682642
L92507714 103782642
" />
<path d="M91950571 104596928
L91907714 104639785
L91950571 104682642
L91993428 104639785
L91950571 104596928
L91950571 104682642
" />
<path d="M91950571 104125500
L91907714 104168357
L91950571 104211214
L91993428 104168357
L91950571 104125500
L91950571 104211214
" />
<path d="M90450571 104682642
L90450571 103782642
" />
<path d="M90450571 104639785
L90536285 104682642
L90707714 104682642
L90793428 104639785
L90836285 104596928
L90879142 104511214
L90879142 104254071
L90836285 104168357
L90793428 104125500
L90707714 104082642
L90536285 104082642
L90450571 104125500
" />
<path d="M89679142 104639785
L89764857 104682642
L89936285 104682642
L90022000 104639785
L90064857 104554071
L90064857 104211214
L90022000 104125500
L89936285 104082642
L89764857 104082642
L89679142 104125500
L89636285 104211214
L89636285 104296928
L90064857 104382642
" />
<path d="M88864857 104682642
L88864857 104211214
L88907714 104125500
L88993428 104082642
L89164857 104082642
L89250571 104125500
" />
<path d="M88864857 104639785
L88950571 104682642
L89164857 104682642
L89250571 104639785
L89293428 104554071
L89293428 104468357
L89250571 104382642
L89164857 104339785
L88950571 104339785
L88864857 104296928
" />
<path d="M88050571 104682642
L88050571 103782642
" />
<path d="M88050571 104639785
L88136285 104682642
L88307714 104682642
L88393428 104639785
L88436285 104596928
L88479142 104511214
L88479142 104254071
L88436285 104168357
L88393428 104125500
L88307714 104082642
L88136285 104082642
L88050571 104125500
" />
<path d="M87622000 104682642
L87622000 103782642
" />
<path d="M87622000 104125500
L87536285 104082642
L87364857 104082642
L87279142 104125500
L87236285 104168357
L87193428 104254071
L87193428 104511214
L87236285 104596928
L87279142 104639785
L87364857 104682642
L87536285 104682642
L87622000 104639785
" />
<path d="M86464857 104639785
L86550571 104682642
L86722000 104682642
L86807714 104639785
L86850571 104554071
L86850571 104211214
L86807714 104125500
L86722000 104082642
L86550571 104082642
L86464857 104125500
L86422000 104211214
L86422000 104296928
L86850571 104382642
" />
<path d="M85693428 104639785
L85779142 104682642
L85950571 104682642
L86036285 104639785
L86079142 104554071
L86079142 104211214
L86036285 104125500
L85950571 104082642
L85779142 104082642
L85693428 104125500
L85650571 104211214
L85650571 104296928
L86079142 104382642
" />
<path d="M85393428 104082642
L85050571 104082642
" />
<path d="M85264857 104682642
L85264857 103911214
L85222000 103825500
L85136285 103782642
L85050571 103782642
" />
</g><text x="100000000.000000" y="106174500.000000"
transform="scale(-1 1) translate(-200000000.000000 0)"
textLength="13301143.000000" font-size="1200000.000000" lengthAdjust="spacingAndGlyphs"
text-anchor="start" opacity="0">DATE: YYYY-MM-DD</text>
<g class="stroked-text"><desc>DATE: YYYY-MM-DD</desc>
<path d="M99707714 106131642
L99707714 105231642
L99493428 105231642
L99364857 105274500
L99279142 105360214
L99236285 105445928
L99193428 105617357
L99193428 105745928
L99236285 105917357
L99279142 106003071
L99364857 106088785
L99493428 106131642
L99707714 106131642
" />
<path d="M98850571 105874500
L98422000 105874500
" />
<path d="M98936285 106131642
L98636285 105231642
L98336285 106131642
" />
<path d="M98164857 105231642
L97650571 105231642
" />
<path d="M97907714 106131642
L97907714 105231642
" />
<path d="M97350571 105660214
L97050571 105660214
" />
<path d="M96922000 106131642
L97350571 106131642
L97350571 105231642
L96922000 105231642
" />
<path d="M96536285 106045928
L96493428 106088785
L96536285 106131642
L96579142 106088785
L96536285 106045928
L96536285 106131642
" />
<path d="M96536285 105574500
L96493428 105617357
L96536285 105660214
L96579142 105617357
L96536285 105574500
L96536285 105660214
" />
<path d="M95250571 105703071
L95250571 106131642
" />
<path d="M95550571 105231642
L95250571 105703071
L94950571 105231642
" />
<path d="M94479142 105703071
L94479142 106131642
" />
<path d="M94779142 105231642
L94479142 105703071
L94179142 105231642
" />
<path d="M93707714 105703071
L93707714 106131642
" />
<path d="M94007714 105231642
L93707714 105703071
L93407714 105231642
" />
<path d="M92936285 105703071
L92936285 106131642
" />
<path d="M93236285 105231642
L92936285 105703071
L92636285 105231642
" />
<path d="M92336285 105788785
L91650571 105788785
" />
<path d="M91222000 106131642
L91222000 105231642
L90922000 105874500
L90622000 105231642
L90622000 106131642
" />
<path d="M90193428 106131642
L90193428 105231642
L89893428 105874500
L89593428 105231642
L89593428 106131642
" />
<path d="M89164857 105788785
L88479142 105788785
" />
<path d="M88050571 106131642
L88050571 105231642
L87836285 105231642
L87707714 105274500
L87622000 105360214
L87579142 105445928
L87536285 105617357
L87536285 105745928
L87579142 105917357
L87622000 106003071
L87707714 106088785
L87836285 106131642
L88050571 106131642
" />
<path d="M87150571 106131642
L87150571 105231642
L86936285 105231642
L86807714 105274500
L86722000 105360214
L86679142 105445928
L86636285 105617357
L86636285 105745928
L86679142 105917357
L86722000 106003071
L86807714 106088785
L86936285 106131642
L87150571 106131642
" />
</g></g>
<g style="fill:#E8B2A7; fill-opacity:0.0; 
stroke:#E8B2A7; stroke-width:270000.000000; stroke-opacity:1; 
stroke-linecap:round; stroke-linejoin:round;">
<text x="116400000.000000" y="95100000.000000"
transform="scale(-1 1) translate(-232800000.000000 0)"
textLength="11177333.000000" font-size="1866666.000000" lengthAdjust="spacingAndGlyphs"
text-anchor="start" opacity="0">SmartKnob</text>
<g class="stroked-text"><desc>SmartKnob</desc>
<path d="M115957833 94966666
L115757833 95033333
L115424500 95033333
L115291166 94966666
L115224500 94900000
L115157833 94766666
L115157833 94633333
L115224500 94500000
L115291166 94433333
L115424500 94366666
L115691166 94300000
L115824500 94233333
L115891166 94166666
L115957833 94033333
L115957833 93900000
L115891166 93766666
L115824500 93700000
L115691166 93633333
L115357833 93633333
L115157833 93700000
" />
<path d="M114557833 95033333
L114557833 94100000
" />
<path d="M114557833 94233333
L114491166 94166666
L114357833 94100000
L114157833 94100000
L114024500 94166666
L113957833 94300000
L113957833 95033333
" />
<path d="M113957833 94300000
L113891166 94166666
L113757833 94100000
L113557833 94100000
L113424500 94166666
L113357833 94300000
L113357833 95033333
" />
<path d="M112091166 95033333
L112091166 94300000
L112157833 94166666
L112291166 94100000
L112557833 94100000
L112691166 94166666
" />
<path d="M112091166 94966666
L112224500 95033333
L112557833 95033333
L112691166 94966666
L112757833 94833333
L112757833 94700000
L112691166 94566666
L112557833 94500000
L112224500 94500000
L112091166 94433333
" />
<path d="M111424500 95033333
L111424500 94100000
" />
<path d="M111424500 94366666
L111357833 94233333
L111291166 94166666
L111157833 94100000
L111024500 94100000
" />
<path d="M110757833 94100000
L110224500 94100000
" />
<path d="M110557833 93633333
L110557833 94833333
L110491166 94966666
L110357833 95033333
L110224500 95033333
" />
<path d="M109757833 95033333
L109757833 93633333
" />
<path d="M108957833 95033333
L109557833 94233333
" />
<path d="M108957833 93633333
L109757833 94433333
" />
<path d="M108357833 94100000
L108357833 95033333
" />
<path d="M108357833 94233333
L108291166 94166666
L108157833 94100000
L107957833 94100000
L107824500 94166666
L107757833 94300000
L107757833 95033333
" />
<path d="M106891166 95033333
L107024500 94966666
L107091166 94900000
L107157833 94766666
L107157833 94366666
L107091166 94233333
L107024500 94166666
L106891166 94100000
L106691166 94100000
L106557833 94166666
L106491166 94233333
L106424500 94366666
L106424500 94766666
L106491166 94900000
L106557833 94966666
L106691166 95033333
L106891166 95033333
" />
<path d="M105824500 95033333
L105824500 93633333
" />
<path d="M105824500 94166666
L105691166 94100000
L105424500 94100000
L105291166 94166666
L105224500 94233333
L105157833 94366666
L105157833 94766666
L105224500 94900000
L105291166 94966666
L105424500 95033333
L105691166 95033333
L105824500 94966666
" />
</g><text x="116800000.000000" y="97500000.000000"
transform="scale(-1 1) translate(-233600000.000000 0)"
textLength="4182333.000000" font-size="1866666.000000" lengthAdjust="spacingAndGlyphs"
text-anchor="start" opacity="0">View</text>
<g class="stroked-text"><desc>View</desc>
<path d="M116491166 96033333
L116024500 97433333
L115557833 96033333
" />
<path d="M115091166 97433333
L115091166 96500000
" />
<path d="M115091166 96033333
L115157833 96100000
L115091166 96166666
L115024500 96100000
L115091166 96033333
L115091166 96166666
" />
<path d="M113891166 97366666
L114024500 97433333
L114291166 97433333
L114424500 97366666
L114491166 97233333
L114491166 96700000
L114424500 96566666
L114291166 96500000
L114024500 96500000
L113891166 96566666
L113824500 96700000
L113824500 96833333
L114491166 96966666
" />
<path d="M113357833 96500000
L113091166 97433333
L112824500 96766666
L112557833 97433333
L112291166 96500000
" />
</g></g>
<g style="fill:#E8B2A7; fill-opacity:0.0; 
stroke:#E8B2A7; stroke-width:150000.000000; stroke-opacity:1; 
stroke-linecap:round; stroke-linejoin:round;">
<text x="91100000.000000" y="86500000.000000"
transform="scale(-1 1) translate(-182200000.000000 0)"
textLength="649000.000000" font-size="1333333.000000" lengthAdjust="spacingAndGlyphs"
text-anchor="middle" opacity="0">R</text>
<g class="stroked-text"><desc>R</desc>
<path d="M90790476 86452380
L91123809 85976190
" />
<path d="M91361904 86452380
L91361904 85452380
L90980952 85452380
L90885714 85500000
L90838095 85547619
L90790476 85642857
L90790476 85785714
L90838095 85880952
L90885714 85928571
L90980952 85976190
L91361904 85976190
" />
</g><text x="108900000.000000" y="86500000.000000"
transform="scale(-1 1) translate(-217800000.000000 0)"
textLength="947857.000000" font-size="1333333.000000" lengthAdjust="spacingAndGlyphs"
text-anchor="middle" opacity="0">M</text>
<g class="stroked-text"><desc>M</desc>
<path d="M109233333 86452380
L109233333 85452380
L108900000 86166666
L108566666 85452380
L108566666 86452380
" />
</g><text x="91100000.000000" y="92500000.000000"
transform="scale(-1 1) translate(-182200000.000000 0)"
textLength="757381.000000" font-size="1333333.000000" lengthAdjust="spacingAndGlyphs"
text-anchor="middle" opacity="0">S</text>
<g class="stroked-text"><desc>S</desc>
<path d="M91385714 92404761
L91242857 92452380
L91004761 92452380
L90909523 92404761
L90861904 92357142
L90814285 92261904
L90814285 92166666
L90861904 92071428
L90909523 92023809
L91004761 91976190
L91195238 91928571
L91290476 91880952
L91338095 91833333
L91385714 91738095
L91385714 91642857
L91338095 91547619
L91290476 91500000
L91195238 91452380
L90957142 91452380
L90814285 91500000
" />
</g><text x="108900000.000000" y="92500000.000000"
transform="scale(-1 1) translate(-217800000.000000 0)"
textLength="1043095.000000" font-size="1333333.000000" lengthAdjust="spacingAndGlyphs"
text-anchor="middle" opacity="0">-</text>
<g class="stroked-text"><desc>-</desc>
<path d="M109280952 92071428
L108519047 92071428
" />
</g><text x="91100000.000000" y="88500000.000000"
transform="scale(-1 1) translate(-182200000.000000 0)"
textLength="805000.000000" font-size="1333333.000000" lengthAdjust="spacingAndGlyphs"
text-anchor="middle" opacity="0">D</text>
<g class="stroked-text"><desc>D</desc>
<path d="M91361904 88452380
L91361904 87452380
L91123809 87452380
L90980952 87500000
L90885714 87595238
L90838095 87690476
L90790476 87880952
L90790476 88023809
L90838095 88214285
L90885714 88309523
L90980952 88404761
L91123809 88452380
L91361904 88452380
" />
</g><text x="108900000.000000" y="90500000.000000"
transform="scale(-1 1) translate(-217800000.000000 0)"
textLength="1043095.000000" font-size="1333333.000000" lengthAdjust="spacingAndGlyphs"
text-anchor="middle" opacity="0">+</text>
<g class="stroked-text"><desc>+</desc>
<path d="M109280952 90071428
L108519047 90071428
" />
<path d="M108900000 90452380
L108900000 89690476
" />
</g></g>
<g style="fill:#E8B2A7; fill-opacity:0.0; 
stroke:#E8B2A7; stroke-width:100000.000000; stroke-opacity:1; 
stroke-linecap:round; stroke-linejoin:round;">
<text x="117000000.000000" y="99295000.000000"
transform="scale(-1 1) translate(-234000000.000000 0)"
textLength="8614524.000000" font-size="1333333.000000" lengthAdjust="spacingAndGlyphs"
text-anchor="start" opacity="0">Screen PCB</text>
<g class="stroked-text"><desc>Screen PCB</desc>
<path d="M116744523 99199761
L116601666 99247380
L116363571 99247380
L116268333 99199761
L116220714 99152142
L116173095 99056904
L116173095 98961666
L116220714 98866428
L116268333 98818809
L116363571 98771190
L116554047 98723571
L116649285 98675952
L116696904 98628333
L116744523 98533095
L116744523 98437857
L116696904 98342619
L116649285 98295000
L116554047 98247380
L116315952 98247380
L116173095 98295000
" />
<path d="M115315952 99199761
L115411190 99247380
L115601666 99247380
L115696904 99199761
L115744523 99152142
L115792142 99056904
L115792142 98771190
L115744523 98675952
L115696904 98628333
L115601666 98580714
L115411190 98580714
L115315952 98628333
" />
<path d="M114887380 99247380
L114887380 98580714
" />
<path d="M114887380 98771190
L114839761 98675952
L114792142 98628333
L114696904 98580714
L114601666 98580714
" />
<path d="M113887380 99199761
L113982619 99247380
L114173095 99247380
L114268333 99199761
L114315952 99104523
L114315952 98723571
L114268333 98628333
L114173095 98580714
L113982619 98580714
L113887380 98628333
L113839761 98723571
L113839761 98818809
L114315952 98914047
" />
<path d="M113030238 99199761
L113125476 99247380
L113315952 99247380
L113411190 99199761
L113458809 99104523
L113458809 98723571
L113411190 98628333
L113315952 98580714
L113125476 98580714
L113030238 98628333
L112982619 98723571
L112982619 98818809
L113458809 98914047
" />
<path d="M112554047 98580714
L112554047 99247380
" />
<path d="M112554047 98675952
L112506428 98628333
L112411190 98580714
L112268333 98580714
L112173095 98628333
L112125476 98723571
L112125476 99247380
" />
<path d="M110887380 99247380
L110887380 98247380
L110506428 98247380
L110411190 98295000
L110363571 98342619
L110315952 98437857
L110315952 98580714
L110363571 98675952
L110411190 98723571
L110506428 98771190
L110887380 98771190
" />
<path d="M109315952 99152142
L109363571 99199761
L109506428 99247380
L109601666 99247380
L109744523 99199761
L109839761 99104523
L109887380 99009285
L109935000 98818809
L109935000 98675952
L109887380 98485476
L109839761 98390238
L109744523 98295000
L109601666 98247380
L109506428 98247380
L109363571 98295000
L109315952 98342619
" />
<path d="M108554047 98723571
L108411190 98771190
L108363571 98818809
L108315952 98914047
L108315952 99056904
L108363571 99152142
L108411190 99199761
L108506428 99247380
L108887380 99247380
L108887380 98247380
L108554047 98247380
L108458809 98295000
L108411190 98342619
L108363571 98437857
L108363571 98533095
L108411190 98628333
L108458809 98675952
L108554047 98723571
L108887380 98723571
" />
</g><text x="117000000.000000" y="100905000.000000"
transform="scale(-1 1) translate(-234000000.000000 0)"
textLength="3108095.000000" font-size="1333333.000000" lengthAdjust="spacingAndGlyphs"
text-anchor="start" opacity="0">v#.#</text>
<g class="stroked-text"><desc>v#.#</desc>
<path d="M116792142 100190714
L116554047 100857380
L116315952 100190714
" />
<path d="M115982619 100190714
L115268333 100190714
" />
<path d="M115696904 99762142
L115982619 101047857
" />
<path d="M115363571 100619285
L116077857 100619285
" />
<path d="M115649285 101047857
L115363571 99762142
" />
<path d="M114935000 100762142
L114887380 100809761
L114935000 100857380
L114982619 100809761
L114935000 100762142
L114935000 100857380
" />
<path d="M114506428 100190714
L113792142 100190714
" />
<path d="M114220714 99762142
L114506428 101047857
" />
<path d="M113887380 100619285
L114601666 100619285
" />
<path d="M114173095 101047857
L113887380 99762142
" />
</g></g>
<g style="fill:#E8B2A7; fill-opacity:0.0; 
stroke:#E8B2A7; stroke-width:150000.000000; stroke-opacity:1; 
stroke-linecap:round; stroke-linejoin:round;">
<text x="91100000.000000" y="90500000.000000"
transform="scale(-1 1) translate(-182200000.000000 0)"
textLength="870000.000000" font-size="1333333.000000" lengthAdjust="spacingAndGlyphs"
text-anchor="middle" opacity="0">C</text>
<g class="stroked-text"><desc>C</desc>
<path d="M90790476 90357142
L90838095 90404761
L90980952 90452380
L91076190 90452380
L91219047 90404761
L91314285 90309523
L91361904 90214285
L91409523 90023809
L91409523 89880952
L91361904 89690476
L91314285 89595238
L91219047 89500000
L91076190 89452380
L90980952 89452380
L90838095 89500000
L90790476 89547619
" />
</g><text x="100076000.000000" y="114292000.000000"
textLength="10480714.000000" font-size="1333333.000000" lengthAdjust="spacingAndGlyphs"
text-anchor="middle" opacity="0">JLCJLCJLCJLC</text>
<g class="stroked-text"><desc>JLCJLCJLCJLC</desc>
<path d="M95456952 113244380
L95456952 113958666
L95409333 114101523
L95314095 114196761
L95171238 114244380
L95076000 114244380
" />
<path d="M96409333 114244380
L95933142 114244380
L95933142 113244380
" />
<path d="M97314095 114149142
L97266476 114196761
L97123619 114244380
L97028380 114244380
L96885523 114196761
L96790285 114101523
L96742666 114006285
L96695047 113815809
L96695047 113672952
L96742666 113482476
L96790285 113387238
L96885523 113292000
L97028380 113244380
L97123619 113244380
L97266476 113292000
L97314095 113339619
" />
<path d="M98028380 113244380
L98028380 113958666
L97980761 114101523
L97885523 114196761
L97742666 114244380
L97647428 114244380
" />
<path d="M98980761 114244380
L98504571 114244380
L98504571 113244380
" />
<path d="M99885523 114149142
L99837904 114196761
L99695047 114244380
L99599809 114244380
L99456952 114196761
L99361714 114101523
L99314095 114006285
L99266476 113815809
L99266476 113672952
L99314095 113482476
L99361714 113387238
L99456952 113292000
L99599809 113244380
L99695047 113244380
L99837904 113292000
L99885523 113339619
" />
<path d="M100599809 113244380
L100599809 113958666
L100552190 114101523
L100456952 114196761
L100314095 114244380
L100218857 114244380
" />
<path d="M101552190 114244380
L101076000 114244380
L101076000 113244380
" />
<path d="M102456952 114149142
L102409333 114196761
L102266476 114244380
L102171238 114244380
L102028380 114196761
L101933142 114101523
L101885523 114006285
L101837904 113815809
L101837904 113672952
L101885523 113482476
L101933142 113387238
L102028380 113292000
L102171238 113244380
L102266476 113244380
L102409333 113292000
L102456952 113339619
" />
<path d="M103171238 113244380
L103171238 113958666
L103123619 114101523
L103028380 114196761
L102885523 114244380
L102790285 114244380
" />
<path d="M104123619 114244380
L103647428 114244380
L103647428 113244380
" />
<path d="M105028380 114149142
L104980761 114196761
L104837904 114244380
L104742666 114244380
L104599809 114196761
L104504571 114101523
L104456952 114006285
L104409333 113815809
L104409333 113672952
L104456952 113482476
L104504571 113387238
L104599809 113292000
L104742666 113244380
L104837904 113244380
L104980761 113292000
L105028380 113339619
" />
</g><text x="108900000.000000" y="88500000.000000"
transform="scale(-1 1) translate(-217800000.000000 0)"
textLength="805000.000000" font-size="1333333.000000" lengthAdjust="spacingAndGlyphs"
text-anchor="middle" opacity="0">B</text>
<g class="stroked-text"><desc>B</desc>
<path d="M108828571 87928571
L108685714 87976190
L108638095 88023809
L108590476 88119047
L108590476 88261904
L108638095 88357142
L108685714 88404761
L108780952 88452380
L109161904 88452380
L109161904 87452380
L108828571 87452380
L108733333 87500000
L108685714 87547619
L108638095 87642857
L108638095 87738095
L108685714 87833333
L108733333 87880952
L108828571 87928571
L109161904 87928571
" />
</g></g>
<g style="fill:#E8B2A7; fill-opacity:0.0; 
stroke:#E8B2A7; stroke-width:120000.000000; stroke-opacity:1; 
stroke-linecap:round; stroke-linejoin:round;">
<g transform="rotate(-90.000000 96000000.000000 108900000.000000)">
<text x="96000000.000000" y="109300000.000000"
transform="scale(-1 1) translate(-192000000.000000 0)"
textLength="1328810.000000" font-size="1066666.000000" lengthAdjust="spacingAndGlyphs"
text-anchor="middle" opacity="0">12</text>
</g>
<g class="stroked-text"><desc>12</desc>
<path d="M96361904 108747619
L96361904 108290476
" />
<path d="M96361904 108519047
L95561904 108519047
L95676190 108442857
L95752380 108366666
L95790476 108290476
" />
<path d="M95638095 109052380
L95600000 109090476
L95561904 109166666
L95561904 109357142
L95600000 109433333
L95638095 109471428
L95714285 109509523
L95790476 109509523
L95904761 109471428
L96361904 109014285
L96361904 109509523
" />
</g><g transform="rotate(-90.000000 104000000.000000 109500000.000000)">
<text x="104000000.000000" y="109900000.000000"
transform="scale(-1 1) translate(-208000000.000000 0)"
textLength="605905.000000" font-size="1066666.000000" lengthAdjust="spacingAndGlyphs"
text-anchor="middle" opacity="0">1</text>
</g>
<g class="stroked-text"><desc>1</desc>
<path d="M104361904 109728571
L104361904 109271428
" />
<path d="M104361904 109500000
L103561904 109500000
L103676190 109423809
L103752380 109347619
L103790476 109271428
" />
</g></g>
<g style="fill:#E8B2A7; fill-opacity:0.0; 
stroke:#E8B2A7; stroke-width:150000.000000; stroke-opacity:1; 
stroke-linecap:round; stroke-linejoin:round;">
<text x="108000000.000000" y="113000000.000000"
transform="scale(-1 1) translate(-216000000.000000 0)"
textLength="1844000.000000" font-size="1333333.000000" lengthAdjust="spacingAndGlyphs"
text-anchor="middle" opacity="0">Q1</text>
<g class="stroked-text"><desc>Q1</desc>
<path d="M108095238 113047619
L108190476 113000000
L108285714 112904761
L108428571 112761904
L108523809 112714285
L108619047 112714285
" />
<path d="M108571428 112952380
L108666666 112904761
L108761904 112809523
L108809523 112619047
L108809523 112285714
L108761904 112095238
L108666666 112000000
L108571428 111952380
L108380952 111952380
L108285714 112000000
L108190476 112095238
L108142857 112285714
L108142857 112619047
L108190476 112809523
L108285714 112904761
L108380952 112952380
L108571428 112952380
" />
<path d="M107190476 112952380
L107761904 112952380
" />
<path d="M107476190 112952380
L107476190 111952380
L107571428 112095238
L107666666 112190476
L107761904 112238095
" />
</g><text x="113000000.000000" y="105070000.000000"
transform="scale(-1 1) translate(-226000000.000000 0)"
textLength="1757381.000000" font-size="1333333.000000" lengthAdjust="spacingAndGlyphs"
text-anchor="middle" opacity="0">R1</text>
<g class="stroked-text"><desc>R1</desc>
<path d="M113166666 105022380
L113500000 104546190
" />
<path d="M113738095 105022380
L113738095 104022380
L113357142 104022380
L113261904 104070000
L113214285 104117619
L113166666 104212857
L113166666 104355714
L113214285 104450952
L113261904 104498571
L113357142 104546190
L113738095 104546190
" />
<path d="M112214285 105022380
L112785714 105022380
" />
<path d="M112500000 105022380
L112500000 104022380
L112595238 104165238
L112690476 104260476
L112785714 104308095
" />
</g><text x="103000000.000000" y="108000000.000000"
transform="scale(-1 1) translate(-206000000.000000 0)"
textLength="1757381.000000" font-size="1333333.000000" lengthAdjust="spacingAndGlyphs"
text-anchor="middle" opacity="0">R2</text>
<g class="stroked-text"><desc>R2</desc>
<path d="M103166666 107952380
L103500000 107476190
" />
<path d="M103738095 107952380
L103738095 106952380
L103357142 106952380
L103261904 107000000
L103214285 107047619
L103166666 107142857
L103166666 107285714
L103214285 107380952
L103261904 107428571
L103357142 107476190
L103738095 107476190
" />
<path d="M102785714 107047619
L102738095 107000000
L102642857 106952380
L102404761 106952380
L102309523 107000000
L102261904 107047619
L102214285 107142857
L102214285 107238095
L102261904 107380952
L102833333 107952380
L102214285 107952380
" />
</g><text x="113000000.000000" y="109430000.000000"
transform="scale(-1 1) translate(-226000000.000000 0)"
textLength="1757381.000000" font-size="1333333.000000" lengthAdjust="spacingAndGlyphs"
text-anchor="middle" opacity="0">R3</text>
<g class="stroked-text"><desc>R3</desc>
<path d="M113166666 109382380
L113500000 108906190
" />
<path d="M113738095 109382380
L113738095 108382380
L113357142 108382380
L113261904 108430000
L113214285 108477619
L113166666 108572857
L113166666 108715714
L113214285 108810952
L113261904 108858571
L113357142 108906190
L113738095 108906190
" />
<path d="M112833333 108382380
L112214285 108382380
L112547619 108763333
L112404761 108763333
L112309523 108810952
L112261904 108858571
L112214285 108953809
L112214285 109191904
L112261904 109287142
L112309523 109334761
L112404761 109382380
L112690476 109382380
L112785714 109334761
L112833333 109287142
" />
</g><text x="107000000.000000" y="105000000.000000"
transform="scale(-1 1) translate(-214000000.000000 0)"
textLength="1757381.000000" font-size="1333333.000000" lengthAdjust="spacingAndGlyphs"
text-anchor="middle" opacity="0">C2</text>
<g class="stroked-text"><desc>C2</desc>
<path d="M107166666 104857142
L107214285 104904761
L107357142 104952380
L107452380 104952380
L107595238 104904761
L107690476 104809523
L107738095 104714285
L107785714 104523809
L107785714 104380952
L107738095 104190476
L107690476 104095238
L107595238 104000000
L107452380 103952380
L107357142 103952380
L107214285 104000000
L107166666 104047619
" />
<path d="M106785714 104047619
L106738095 104000000
L106642857 103952380
L106404761 103952380
L106309523 104000000
L106261904 104047619
L106214285 104142857
L106214285 104238095
L106261904 104380952
L106833333 104952380
L106214285 104952380
" />
</g><text x="109000000.000000" y="105000000.000000"
transform="scale(-1 1) translate(-218000000.000000 0)"
textLength="1757381.000000" font-size="1333333.000000" lengthAdjust="spacingAndGlyphs"
text-anchor="middle" opacity="0">C1</text>
<g class="stroked-text"><desc>C1</desc>
<path d="M109166666 104857142
L109214285 104904761
L109357142 104952380
L109452380 104952380
L109595238 104904761
L109690476 104809523
L109738095 104714285
L109785714 104523809
L109785714 104380952
L109738095 104190476
L109690476 104095238
L109595238 104000000
L109452380 103952380
L109357142 103952380
L109214285 104000000
L109166666 104047619
" />
<path d="M108214285 104952380
L108785714 104952380
" />
<path d="M108500000 104952380
L108500000 103952380
L108595238 104095238
L108690476 104190476
L108785714 104238095
" />
</g><path d="M106400000 117400000
L106400000 115400000
" />
<path d="M94300000 110900000
L94300000 117400000
" />
<path d="M106400000 115400000
L105700000 113900000
" />
<path d="M94300000 110900000
L95500000 110900000
" />
<path d="M105700000 110900000
L105700000 113900000
" />
<path d="M105700000 110900000
L104500000 110900000
" />
</g>
<g style="fill:#E8B2A7; fill-opacity:0.0; 
stroke:#E8B2A7; stroke-width:120000.000000; stroke-opacity:1; 
stroke-linecap:round; stroke-linejoin:round;">
<path d="M110000000 112060000
L110650000 112060000
" />
<path d="M110000000 112060000
L109350000 112060000
" />
<path d="M110000000 108940000
L111675000 108940000
" />
<path d="M110000000 108940000
L109350000 108940000
" />
<path d="M112737258 106522500
L112262742 106522500
" />
<path d="M112737258 105477500
L112262742 105477500
" />
<path d="M105022500 107262742
L105022500 107737258
" />
<path d="M103977500 107262742
L103977500 107737258
" />
<path d="M112262742 108022500
L112737258 108022500
" />
<path d="M112262742 106977500
L112737258 106977500
" />
<path d="M106510000 106859420
L106510000 107140580
" />
<path d="M105490000 106859420
L105490000 107140580
" />
<path d="M108735000 106738748
L108735000 107261252
" />
<path d="M107265000 106738748
L107265000 107261252
" />
</g>
<g style="fill:#E8B2A7; fill-opacity:0.0; 
stroke:#E8B2A7; stroke-width:150000.000000; stroke-opacity:1; 
stroke-linecap:round; stroke-linejoin:round;">
<path d="M94500000 92500000
L94500000 93000000
" />
<path d="M94500000 93000000
L94000000 93000000
" />
<path d="M108500000 92500000
L108500000 93000000
" />
<path d="M108500000 93000000
L108000000 93000000
" />
<g >
</g>
<g >
</g>
<g >
</g>
<g >
</g>
<g >
</g>
<g >
</g>
<g >
</g>
<g >
</g>
<g >
</g>
<g >
</g>
<g >
</g>
<g >
</g>
<g >
</g>
<g >
</g>
<g >
</g>
</g>
<g style="fill:#000000; fill-opacity:0.0; 
stroke:#000000; stroke-width:150000.000000; stroke-opacity:1; 
stroke-linecap:round; stroke-linejoin:round;">
</g>
<g style="fill:#D0D2CD; fill-opacity:0.0; 
stroke:#D0D2CD; stroke-width:150000.000000; stroke-opacity:1; 
stroke-linecap:round; stroke-linejoin:round;">
</g>
<g style="fill:#D0D2CD; fill-opacity:0.0; 
stroke:#D0D2CD; stroke-width:200000.000000; stroke-opacity:1; 
stroke-linecap:round; stroke-linejoin:round;">
<path d="M99000000.000000 91000000.000000 A1000000.000000 1000000.000000 0.0 0 0 101000000.000000 91000000.000000" />
<path d="M99000000 85000000
L99000000 91000000
" />
<path d="M101000000 91000000
L101000000 85000000
" />
<path d="M101000000.000000 85000000.000000 A1000000.000000 1000000.000000 0.0 0 0 99000000.000000 85000000.000000" />
<circle cx="100000000.000000" cy="100000000.000000" r="17500000.000000" /> 
<circle cx="100000000.000000" cy="100000000.000000" r="4050000.000000" /> 
<g >
</g>
<g >
</g>
<g >
</g>
<g >
</g>
<g >
</g>
<g >
</g>
<g >
</g>
<g >
</g>
<g >
</g>
<g >
</g>
<g >
</g>
<g >
</g>
<g >
</g>
<g >
</g>
<g >
</g>
</g> 
</svg>
