%TF.GenerationSoftware,KiCad,Pcbnew,(6.0.10)*%
%TF.CreationDate,2023-01-22T12:58:48+02:00*%
%TF.ProjectId,view_base,76696577-5f62-4617-9365-2e6b69636164,rev?*%
%TF.SameCoordinates,Original*%
%TF.FileFunction,Copper,L1,Top*%
%TF.FilePolarity,Positive*%
%FSLAX46Y46*%
G04 Gerber Fmt 4.6, Leading zero omitted, Abs format (unit mm)*
G04 Created by KiCad (PCBNEW (6.0.10)) date 2023-01-22 12:58:48*
%MOMM*%
%LPD*%
G01*
G04 APERTURE LIST*
G04 Aperture macros list*
%AMRoundRect*
0 Rectangle with rounded corners*
0 $1 Rounding radius*
0 $2 $3 $4 $5 $6 $7 $8 $9 X,Y pos of 4 corners*
0 Add a 4 corners polygon primitive as box body*
4,1,4,$2,$3,$4,$5,$6,$7,$8,$9,$2,$3,0*
0 Add four circle primitives for the rounded corners*
1,1,$1+$1,$2,$3*
1,1,$1+$1,$4,$5*
1,1,$1+$1,$6,$7*
1,1,$1+$1,$8,$9*
0 Add four rect primitives between the rounded corners*
20,1,$1+$1,$2,$3,$4,$5,0*
20,1,$1+$1,$4,$5,$6,$7,0*
20,1,$1+$1,$6,$7,$8,$9,0*
20,1,$1+$1,$8,$9,$2,$3,0*%
%AMRotRect*
0 Rectangle, with rotation*
0 The origin of the aperture is its center*
0 $1 length*
0 $2 width*
0 $3 Rotation angle, in degrees counterclockwise*
0 Add horizontal line*
21,1,$1,$2,0,0,$3*%
%AMFreePoly0*
4,1,9,0.499999,-0.675000,-0.050000,-0.675000,-0.050000,-0.275000,-0.500000,-0.275000,-0.500000,0.275000,-0.050000,0.275000,-0.050000,0.525000,0.500000,0.525000,0.499999,-0.675000,0.499999,-0.675000,$1*%
%AMFreePoly1*
4,1,9,0.050000,0.275000,0.500000,0.275000,0.500000,-0.275000,0.050000,-0.275000,0.050000,-0.675000,-0.500000,-0.675000,-0.500000,0.525000,0.050000,0.525000,0.050000,0.275000,0.050000,0.275000,$1*%
G04 Aperture macros list end*
%TA.AperFunction,SMDPad,CuDef*%
%ADD10R,1.850000X3.600000*%
%TD*%
%TA.AperFunction,SMDPad,CuDef*%
%ADD11R,0.600000X0.300000*%
%TD*%
%TA.AperFunction,SMDPad,CuDef*%
%ADD12R,0.300000X0.600000*%
%TD*%
%TA.AperFunction,SMDPad,CuDef*%
%ADD13R,0.805000X0.400000*%
%TD*%
%TA.AperFunction,SMDPad,CuDef*%
%ADD14R,0.350000X0.805000*%
%TD*%
%TA.AperFunction,SMDPad,CuDef*%
%ADD15R,1.600000X2.900000*%
%TD*%
%TA.AperFunction,SMDPad,CuDef*%
%ADD16R,2.000000X1.300000*%
%TD*%
%TA.AperFunction,SMDPad,CuDef*%
%ADD17R,2.000000X2.000000*%
%TD*%
%TA.AperFunction,SMDPad,CuDef*%
%ADD18RoundRect,0.225000X-0.250000X0.225000X-0.250000X-0.225000X0.250000X-0.225000X0.250000X0.225000X0*%
%TD*%
%TA.AperFunction,SMDPad,CuDef*%
%ADD19RoundRect,0.150000X0.825000X0.150000X-0.825000X0.150000X-0.825000X-0.150000X0.825000X-0.150000X0*%
%TD*%
%TA.AperFunction,SMDPad,CuDef*%
%ADD20RoundRect,0.200000X-0.275000X0.200000X-0.275000X-0.200000X0.275000X-0.200000X0.275000X0.200000X0*%
%TD*%
%TA.AperFunction,SMDPad,CuDef*%
%ADD21R,0.600000X1.160000*%
%TD*%
%TA.AperFunction,SMDPad,CuDef*%
%ADD22R,0.300000X1.160000*%
%TD*%
%TA.AperFunction,ComponentPad*%
%ADD23O,0.900000X2.000000*%
%TD*%
%TA.AperFunction,ComponentPad*%
%ADD24O,0.900000X1.700000*%
%TD*%
%TA.AperFunction,SMDPad,CuDef*%
%ADD25RoundRect,0.225000X0.250000X-0.225000X0.250000X0.225000X-0.250000X0.225000X-0.250000X-0.225000X0*%
%TD*%
%TA.AperFunction,SMDPad,CuDef*%
%ADD26RoundRect,0.225000X-0.225000X-0.250000X0.225000X-0.250000X0.225000X0.250000X-0.225000X0.250000X0*%
%TD*%
%TA.AperFunction,SMDPad,CuDef*%
%ADD27RoundRect,0.225000X0.225000X0.250000X-0.225000X0.250000X-0.225000X-0.250000X0.225000X-0.250000X0*%
%TD*%
%TA.AperFunction,SMDPad,CuDef*%
%ADD28RoundRect,0.250000X0.250000X0.475000X-0.250000X0.475000X-0.250000X-0.475000X0.250000X-0.475000X0*%
%TD*%
%TA.AperFunction,SMDPad,CuDef*%
%ADD29RoundRect,0.250000X0.475000X-0.250000X0.475000X0.250000X-0.475000X0.250000X-0.475000X-0.250000X0*%
%TD*%
%TA.AperFunction,SMDPad,CuDef*%
%ADD30R,2.000000X1.500000*%
%TD*%
%TA.AperFunction,SMDPad,CuDef*%
%ADD31R,2.000000X3.800000*%
%TD*%
%TA.AperFunction,SMDPad,CuDef*%
%ADD32RoundRect,0.200000X0.200000X0.275000X-0.200000X0.275000X-0.200000X-0.275000X0.200000X-0.275000X0*%
%TD*%
%TA.AperFunction,SMDPad,CuDef*%
%ADD33RoundRect,0.225000X0.082580X-0.326045X0.332913X0.047898X-0.082580X0.326045X-0.332913X-0.047898X0*%
%TD*%
%TA.AperFunction,ComponentPad*%
%ADD34C,2.400000*%
%TD*%
%TA.AperFunction,ComponentPad*%
%ADD35C,3.500000*%
%TD*%
%TA.AperFunction,SMDPad,CuDef*%
%ADD36FreePoly0,337.500000*%
%TD*%
%TA.AperFunction,SMDPad,CuDef*%
%ADD37RotRect,0.700000X1.200000X337.500000*%
%TD*%
%TA.AperFunction,SMDPad,CuDef*%
%ADD38RotRect,0.450000X1.200000X337.500000*%
%TD*%
%TA.AperFunction,SMDPad,CuDef*%
%ADD39FreePoly1,337.500000*%
%TD*%
%TA.AperFunction,SMDPad,CuDef*%
%ADD40RoundRect,0.225000X-0.048479X-0.332829X0.325901X-0.083149X0.048479X0.332829X-0.325901X0.083149X0*%
%TD*%
%TA.AperFunction,SMDPad,CuDef*%
%ADD41FreePoly0,292.500000*%
%TD*%
%TA.AperFunction,SMDPad,CuDef*%
%ADD42RotRect,0.700000X1.200000X292.500000*%
%TD*%
%TA.AperFunction,SMDPad,CuDef*%
%ADD43RotRect,0.450000X1.200000X292.500000*%
%TD*%
%TA.AperFunction,SMDPad,CuDef*%
%ADD44FreePoly1,292.500000*%
%TD*%
%TA.AperFunction,SMDPad,CuDef*%
%ADD45RoundRect,0.200000X-0.200000X-0.275000X0.200000X-0.275000X0.200000X0.275000X-0.200000X0.275000X0*%
%TD*%
%TA.AperFunction,SMDPad,CuDef*%
%ADD46R,2.100000X0.700000*%
%TD*%
%TA.AperFunction,SMDPad,CuDef*%
%ADD47R,0.700000X2.100000*%
%TD*%
%TA.AperFunction,SMDPad,CuDef*%
%ADD48RoundRect,0.250000X-0.475000X0.250000X-0.475000X-0.250000X0.475000X-0.250000X0.475000X0.250000X0*%
%TD*%
%TA.AperFunction,SMDPad,CuDef*%
%ADD49RoundRect,0.150000X-0.587500X-0.150000X0.587500X-0.150000X0.587500X0.150000X-0.587500X0.150000X0*%
%TD*%
%TA.AperFunction,SMDPad,CuDef*%
%ADD50R,0.650000X0.400000*%
%TD*%
%TA.AperFunction,SMDPad,CuDef*%
%ADD51RoundRect,0.150000X-0.825000X-0.150000X0.825000X-0.150000X0.825000X0.150000X-0.825000X0.150000X0*%
%TD*%
%TA.AperFunction,SMDPad,CuDef*%
%ADD52RoundRect,0.150000X0.150000X-0.512500X0.150000X0.512500X-0.150000X0.512500X-0.150000X-0.512500X0*%
%TD*%
%TA.AperFunction,SMDPad,CuDef*%
%ADD53RoundRect,0.225000X-0.332829X0.048479X-0.083149X-0.325901X0.332829X-0.048479X0.083149X0.325901X0*%
%TD*%
%TA.AperFunction,SMDPad,CuDef*%
%ADD54FreePoly0,202.500000*%
%TD*%
%TA.AperFunction,SMDPad,CuDef*%
%ADD55RotRect,0.700000X1.200000X202.500000*%
%TD*%
%TA.AperFunction,SMDPad,CuDef*%
%ADD56RotRect,0.450000X1.200000X202.500000*%
%TD*%
%TA.AperFunction,SMDPad,CuDef*%
%ADD57FreePoly1,202.500000*%
%TD*%
%TA.AperFunction,SMDPad,CuDef*%
%ADD58FreePoly0,247.500000*%
%TD*%
%TA.AperFunction,SMDPad,CuDef*%
%ADD59RotRect,0.700000X1.200000X247.500000*%
%TD*%
%TA.AperFunction,SMDPad,CuDef*%
%ADD60RotRect,0.450000X1.200000X247.500000*%
%TD*%
%TA.AperFunction,SMDPad,CuDef*%
%ADD61FreePoly1,247.500000*%
%TD*%
%TA.AperFunction,SMDPad,CuDef*%
%ADD62RoundRect,0.225000X-0.326045X-0.082580X0.047898X-0.332913X0.326045X0.082580X-0.047898X0.332913X0*%
%TD*%
%TA.AperFunction,SMDPad,CuDef*%
%ADD63RoundRect,0.218750X-0.381250X0.218750X-0.381250X-0.218750X0.381250X-0.218750X0.381250X0.218750X0*%
%TD*%
%TA.AperFunction,SMDPad,CuDef*%
%ADD64RoundRect,0.050000X0.050000X-0.300000X0.050000X0.300000X-0.050000X0.300000X-0.050000X-0.300000X0*%
%TD*%
%TA.AperFunction,SMDPad,CuDef*%
%ADD65RoundRect,0.050000X0.300000X-0.050000X0.300000X0.050000X-0.300000X0.050000X-0.300000X-0.050000X0*%
%TD*%
%TA.AperFunction,ComponentPad*%
%ADD66C,0.600000*%
%TD*%
%TA.AperFunction,SMDPad,CuDef*%
%ADD67R,1.500000X1.500000*%
%TD*%
%TA.AperFunction,SMDPad,CuDef*%
%ADD68RoundRect,0.225000X0.048479X0.332829X-0.325901X0.083149X-0.048479X-0.332829X0.325901X-0.083149X0*%
%TD*%
%TA.AperFunction,SMDPad,CuDef*%
%ADD69FreePoly0,112.500000*%
%TD*%
%TA.AperFunction,SMDPad,CuDef*%
%ADD70RotRect,0.700000X1.200000X112.500000*%
%TD*%
%TA.AperFunction,SMDPad,CuDef*%
%ADD71RotRect,0.450000X1.200000X112.500000*%
%TD*%
%TA.AperFunction,SMDPad,CuDef*%
%ADD72FreePoly1,112.500000*%
%TD*%
%TA.AperFunction,SMDPad,CuDef*%
%ADD73RoundRect,0.225000X0.332829X-0.048479X0.083149X0.325901X-0.332829X0.048479X-0.083149X-0.325901X0*%
%TD*%
%TA.AperFunction,SMDPad,CuDef*%
%ADD74RoundRect,0.225000X-0.082580X0.326045X-0.332913X-0.047898X0.082580X-0.326045X0.332913X0.047898X0*%
%TD*%
%TA.AperFunction,SMDPad,CuDef*%
%ADD75FreePoly0,157.500000*%
%TD*%
%TA.AperFunction,SMDPad,CuDef*%
%ADD76RotRect,0.700000X1.200000X157.500000*%
%TD*%
%TA.AperFunction,SMDPad,CuDef*%
%ADD77RotRect,0.450000X1.200000X157.500000*%
%TD*%
%TA.AperFunction,SMDPad,CuDef*%
%ADD78FreePoly1,157.500000*%
%TD*%
%TA.AperFunction,SMDPad,CuDef*%
%ADD79FreePoly0,67.500000*%
%TD*%
%TA.AperFunction,SMDPad,CuDef*%
%ADD80RotRect,0.700000X1.200000X67.500000*%
%TD*%
%TA.AperFunction,SMDPad,CuDef*%
%ADD81RotRect,0.450000X1.200000X67.500000*%
%TD*%
%TA.AperFunction,SMDPad,CuDef*%
%ADD82FreePoly1,67.500000*%
%TD*%
%TA.AperFunction,SMDPad,CuDef*%
%ADD83RoundRect,0.225000X0.326045X0.082580X-0.047898X0.332913X-0.326045X-0.082580X0.047898X-0.332913X0*%
%TD*%
%TA.AperFunction,SMDPad,CuDef*%
%ADD84FreePoly0,22.500000*%
%TD*%
%TA.AperFunction,SMDPad,CuDef*%
%ADD85RotRect,0.700000X1.200000X22.500000*%
%TD*%
%TA.AperFunction,SMDPad,CuDef*%
%ADD86RotRect,0.450000X1.200000X22.500000*%
%TD*%
%TA.AperFunction,SMDPad,CuDef*%
%ADD87FreePoly1,22.500000*%
%TD*%
%TA.AperFunction,ViaPad*%
%ADD88C,0.800000*%
%TD*%
%TA.AperFunction,Conductor*%
%ADD89C,0.250000*%
%TD*%
%TA.AperFunction,Conductor*%
%ADD90C,0.150000*%
%TD*%
%TA.AperFunction,Conductor*%
%ADD91C,0.400000*%
%TD*%
%TA.AperFunction,Conductor*%
%ADD92C,0.600000*%
%TD*%
%TA.AperFunction,Conductor*%
%ADD93C,0.650000*%
%TD*%
G04 APERTURE END LIST*
D10*
%TO.P,C37,1*%
%TO.N,Net-(LS1-PadP)*%
X129413000Y-74185000D03*
%TO.P,C37,2*%
%TO.N,Net-(C36-Pad2)*%
X129413000Y-79485000D03*
%TD*%
D11*
%TO.P,AC1,1,VDDIO*%
%TO.N,+3.3V*%
X89097000Y-68215000D03*
%TO.P,AC1,2,BYP*%
%TO.N,Net-(AC1-Pad2)*%
X89097000Y-68715000D03*
%TO.P,AC1,3,DNC*%
%TO.N,unconnected-(AC1-Pad3)*%
X89097000Y-69215000D03*
%TO.P,AC1,4,SCL*%
%TO.N,/SCL*%
X89097000Y-69715000D03*
%TO.P,AC1,5,GND_1*%
%TO.N,GND*%
X89097000Y-70215000D03*
D12*
%TO.P,AC1,6,SDA*%
%TO.N,/SDA*%
X89797000Y-70415000D03*
%TO.P,AC1,7,SA0*%
%TO.N,Net-(AC1-Pad7)*%
X90297000Y-70415000D03*
%TO.P,AC1,8,NC_1*%
%TO.N,unconnected-(AC1-Pad8)*%
X90797000Y-70415000D03*
D11*
%TO.P,AC1,9,INT2*%
%TO.N,/ACL_INT2*%
X91497000Y-70215000D03*
%TO.P,AC1,10,GND_2*%
%TO.N,GND*%
X91497000Y-69715000D03*
%TO.P,AC1,11,INT1*%
%TO.N,/ACL_INT1*%
X91497000Y-69215000D03*
%TO.P,AC1,12,GND_3*%
%TO.N,GND*%
X91497000Y-68715000D03*
%TO.P,AC1,13,NC_2*%
%TO.N,unconnected-(AC1-Pad13)*%
X91497000Y-68215000D03*
D12*
%TO.P,AC1,14,VDD*%
%TO.N,+3.3V*%
X90797000Y-68015000D03*
%TO.P,AC1,15,NC_3*%
%TO.N,unconnected-(AC1-Pad15)*%
X90297000Y-68015000D03*
%TO.P,AC1,16,NC_4*%
%TO.N,unconnected-(AC1-Pad16)*%
X89797000Y-68015000D03*
%TD*%
D13*
%TO.P,U11,13,GND_2*%
%TO.N,GND*%
X135630000Y-108839000D03*
%TO.P,U11,12,GND_1*%
X132086000Y-109014000D03*
D14*
%TO.P,U11,11,NC_4*%
%TO.N,unconnected-(IC1-Pad11)*%
X132358000Y-107067000D03*
%TO.P,U11,10,NC_3*%
%TO.N,unconnected-(IC1-Pad10)*%
X133108000Y-107067000D03*
%TO.P,U11,9,NC_2*%
%TO.N,unconnected-(IC1-Pad9)*%
X133858000Y-107067000D03*
%TO.P,U11,8,NC_1*%
%TO.N,unconnected-(IC1-Pad8)*%
X134608000Y-107067000D03*
%TO.P,U11,7,VDD*%
%TO.N,+3.3V*%
X135358000Y-107067000D03*
D13*
%TO.P,U11,6,INT*%
%TO.N,/PRX_INT*%
X135630000Y-109639000D03*
D14*
%TO.P,U11,5,SCL*%
%TO.N,/SCL*%
X135358000Y-110611000D03*
%TO.P,U11,4,SDA*%
%TO.N,/SDA*%
X134608000Y-110611000D03*
%TO.P,U11,3,IR_CATHODE_*%
%TO.N,unconnected-(IC1-Pad3)*%
X133858000Y-110611000D03*
%TO.P,U11,2,IR_CATHODE*%
%TO.N,unconnected-(IC1-Pad2)*%
X133108000Y-110611000D03*
%TO.P,U11,1,IR_ANODE*%
%TO.N,+3.3V*%
X132358000Y-110611000D03*
%TD*%
D15*
%TO.P,LS1,P*%
%TO.N,Net-(LS1-PadP)*%
X133604000Y-69998000D03*
%TO.P,LS1,N*%
%TO.N,GND*%
X133604000Y-63098000D03*
%TD*%
D16*
%TO.P,R19,1,1*%
%TO.N,/DAC2*%
X132747000Y-91828000D03*
D17*
%TO.P,R19,2,2*%
%TO.N,Net-(U10-Pad3)*%
X136747000Y-90678000D03*
D16*
%TO.P,R19,3,3*%
%TO.N,GND*%
X132747000Y-89528000D03*
%TD*%
D18*
%TO.P,C35,1*%
%TO.N,Net-(C35-Pad1)*%
X137668000Y-77203000D03*
%TO.P,C35,2*%
%TO.N,GND*%
X137668000Y-78753000D03*
%TD*%
%TO.P,C36,1*%
%TO.N,Net-(C36-Pad1)*%
X134747000Y-77203000D03*
%TO.P,C36,2*%
%TO.N,Net-(C36-Pad2)*%
X134747000Y-78753000D03*
%TD*%
D19*
%TO.P,U10,1,GAIN*%
%TO.N,unconnected-(U10-Pad1)*%
X136206000Y-86868000D03*
%TO.P,U10,2,-*%
%TO.N,GND*%
X136206000Y-85598000D03*
%TO.P,U10,3,+*%
%TO.N,Net-(U10-Pad3)*%
X136206000Y-84328000D03*
%TO.P,U10,4,GND*%
%TO.N,GND*%
X136206000Y-83058000D03*
%TO.P,U10,5*%
%TO.N,Net-(C36-Pad2)*%
X131256000Y-83058000D03*
%TO.P,U10,6,V+*%
%TO.N,+5V*%
X131256000Y-84328000D03*
%TO.P,U10,7,BYPASS*%
%TO.N,Net-(C35-Pad1)*%
X131256000Y-85598000D03*
%TO.P,U10,8,GAIN*%
%TO.N,unconnected-(U10-Pad8)*%
X131256000Y-86868000D03*
%TD*%
D20*
%TO.P,R20,1*%
%TO.N,GND*%
X134747000Y-73724000D03*
%TO.P,R20,2*%
%TO.N,Net-(C36-Pad1)*%
X134747000Y-75374000D03*
%TD*%
D21*
%TO.P,J2,A1,GND*%
%TO.N,GND*%
X96800000Y-134142000D03*
%TO.P,J2,A4,VBUS*%
%TO.N,+5V*%
X97600000Y-134142000D03*
D22*
%TO.P,J2,A5,CC1*%
%TO.N,/USB_CC1*%
X98750000Y-134142000D03*
%TO.P,J2,A6,D+*%
%TO.N,/USB_D+*%
X99750000Y-134142000D03*
%TO.P,J2,A7,D-*%
%TO.N,/USB_D-*%
X100250000Y-134142000D03*
%TO.P,J2,A8,SBU1*%
%TO.N,unconnected-(J2-PadA8)*%
X101250000Y-134142000D03*
D21*
%TO.P,J2,A9,VBUS*%
%TO.N,+5V*%
X102400000Y-134142000D03*
%TO.P,J2,A12,GND*%
%TO.N,GND*%
X103200000Y-134142000D03*
%TO.P,J2,B1,GND*%
X103200000Y-134142000D03*
%TO.P,J2,B4,VBUS*%
%TO.N,+5V*%
X102400000Y-134142000D03*
D22*
%TO.P,J2,B5,CC2*%
%TO.N,/USB_CC2*%
X101750000Y-134142000D03*
%TO.P,J2,B6,D+*%
%TO.N,/USB_D+*%
X100750000Y-134142000D03*
%TO.P,J2,B7,D-*%
%TO.N,/USB_D-*%
X99250000Y-134142000D03*
%TO.P,J2,B8,SBU2*%
%TO.N,unconnected-(J2-PadB8)*%
X98250000Y-134142000D03*
D21*
%TO.P,J2,B9,VBUS*%
%TO.N,+5V*%
X97600000Y-134142000D03*
%TO.P,J2,B12,GND*%
%TO.N,GND*%
X96800000Y-134142000D03*
D23*
%TO.P,J2,S1,SHIELD*%
X95680000Y-134722000D03*
D24*
X95680000Y-138892000D03*
D23*
X104320000Y-134722000D03*
D24*
X104320000Y-138892000D03*
%TD*%
D25*
%TO.P,C30,1*%
%TO.N,GND*%
X86995000Y-70244000D03*
%TO.P,C30,2*%
%TO.N,Net-(AC1-Pad2)*%
X86995000Y-68694000D03*
%TD*%
D26*
%TO.P,C31,1*%
%TO.N,+3.3V*%
X90792000Y-66548000D03*
%TO.P,C31,2*%
%TO.N,GND*%
X92342000Y-66548000D03*
%TD*%
D27*
%TO.P,C33,2*%
%TO.N,GND*%
X130416000Y-112903000D03*
%TO.P,C33,1*%
%TO.N,+3.3V*%
X131966000Y-112903000D03*
%TD*%
D28*
%TO.P,C32,1*%
%TO.N,GND*%
X135443000Y-113157000D03*
%TO.P,C32,2*%
%TO.N,+3.3V*%
X133543000Y-113157000D03*
%TD*%
D29*
%TO.P,C34,1*%
%TO.N,GND*%
X138176000Y-108646000D03*
%TO.P,C34,2*%
%TO.N,+3.3V*%
X138176000Y-106746000D03*
%TD*%
D30*
%TO.P,U9,1,GND*%
%TO.N,GND*%
X115150000Y-137800000D03*
D31*
%TO.P,U9,2,Output*%
%TO.N,+3.3V*%
X108850000Y-135500000D03*
D30*
X115150000Y-135500000D03*
%TO.P,U9,3,Input*%
%TO.N,+5V*%
X115150000Y-133200000D03*
%TD*%
%TO.P,U6,1,VI*%
%TO.N,+5V*%
X120350000Y-133200000D03*
D31*
%TO.P,U6,2,GND*%
%TO.N,GND*%
X126650000Y-135500000D03*
D30*
X120350000Y-135500000D03*
%TO.P,U6,3,VO*%
%TO.N,+3.3V*%
X120350000Y-137800000D03*
%TD*%
D32*
%TO.P,R18,2*%
%TO.N,Net-(AC1-Pad7)*%
X89726000Y-71755000D03*
%TO.P,R18,1*%
%TO.N,+3.3V*%
X91376000Y-71755000D03*
%TD*%
D33*
%TO.P,C2,1*%
%TO.N,+5V*%
X89568871Y-115611013D03*
%TO.P,C2,2*%
%TO.N,GND*%
X90431129Y-114322987D03*
%TD*%
D34*
%TO.P,H3,1,1*%
%TO.N,unconnected-(H3-Pad1)*%
X105125427Y-91122500D03*
%TD*%
%TO.P,H1,1,1*%
%TO.N,unconnected-(H1-Pad1)*%
X105125427Y-108877499D03*
%TD*%
%TO.P,H2,1,1*%
%TO.N,unconnected-(H2-Pad1)*%
X89749146Y-100000000D03*
%TD*%
D35*
%TO.P,H4,1,1*%
%TO.N,unconnected-(H4-Pad1)*%
X100000000Y-129800000D03*
%TD*%
%TO.P,H5,1,1*%
%TO.N,unconnected-(H5-Pad1)*%
X70200000Y-100000000D03*
%TD*%
%TO.P,H6,1,1*%
%TO.N,unconnected-(H6-Pad1)*%
X100000000Y-70200000D03*
%TD*%
D36*
%TO.P,D2,1,DIN*%
%TO.N,Net-(D1-Pad3)*%
X91735336Y-115248051D03*
D37*
%TO.P,D2,2,VDD*%
%TO.N,+5V*%
X92953872Y-115833965D03*
D38*
%TO.P,D2,3,DOUT*%
%TO.N,Net-(D2-Pad3)*%
X93900849Y-116226215D03*
D39*
%TO.P,D2,4,VSS*%
%TO.N,GND*%
X95061302Y-116625711D03*
%TD*%
D35*
%TO.P,H7,1,1*%
%TO.N,unconnected-(H7-Pad1)*%
X129800000Y-100000000D03*
%TD*%
D40*
%TO.P,C1,1*%
%TO.N,+5V*%
X84388236Y-110430004D03*
%TO.P,C1,2*%
%TO.N,GND*%
X85677764Y-109569996D03*
%TD*%
D41*
%TO.P,D1,1,DIN*%
%TO.N,/LED_DATA_5V*%
X83374000Y-104938000D03*
D42*
%TO.P,D1,2,VDD*%
%TO.N,+5V*%
X83821332Y-106213938D03*
D43*
%TO.P,D1,3,DOUT*%
%TO.N,Net-(D1-Pad3)*%
X84213582Y-107160915D03*
D44*
%TO.P,D1,4,VSS*%
%TO.N,GND*%
X84751660Y-108263966D03*
%TD*%
D32*
%TO.P,R1,2*%
%TO.N,GND*%
X94298000Y-132207000D03*
%TO.P,R1,1*%
%TO.N,/USB_CC1*%
X95948000Y-132207000D03*
%TD*%
D45*
%TO.P,R2,1*%
%TO.N,/USB_CC2*%
X104675000Y-132080000D03*
%TO.P,R2,2*%
%TO.N,GND*%
X106325000Y-132080000D03*
%TD*%
D46*
%TO.P,U2,1,GND*%
%TO.N,GND*%
X76800000Y-135000000D03*
%TO.P,U2,2,3V3*%
%TO.N,+3.3V*%
X76800000Y-134000000D03*
%TO.P,U2,3,EN*%
%TO.N,/ESP32_EN*%
X76800000Y-133000000D03*
%TO.P,U2,4,IO36/SVP*%
%TO.N,/TMC_DIAG*%
X76800000Y-132000000D03*
%TO.P,U2,5,IO39/SVN*%
%TO.N,/PRX_INT*%
X76800000Y-131000000D03*
%TO.P,U2,6,IO34*%
%TO.N,/ACL_INT1*%
X76800000Y-130000000D03*
%TO.P,U2,7,IO35*%
%TO.N,/TMC_VL*%
X76800000Y-129000000D03*
%TO.P,U2,8,IO32*%
%TO.N,/TMC_WL*%
X76800000Y-128000000D03*
%TO.P,U2,9,IO33*%
%TO.N,/TMC_UL*%
X76800000Y-127000000D03*
%TO.P,U2,10,IO25*%
%TO.N,/TMC_UH*%
X76800000Y-126000000D03*
%TO.P,U2,11,IO26*%
%TO.N,/DAC2*%
X76800000Y-125000000D03*
%TO.P,U2,12,IO27*%
%TO.N,/TMC_VH*%
X76800000Y-124000000D03*
%TO.P,U2,13,IO14*%
%TO.N,/MAG_CSN*%
X76800000Y-123000000D03*
%TO.P,U2,14,IO12*%
%TO.N,/TMC_WH*%
X76800000Y-122000000D03*
%TO.P,U2,15,GND*%
%TO.N,GND*%
X76800000Y-121000000D03*
D47*
%TO.P,U2,16,IO13*%
%TO.N,/MAG_CLK*%
X73500000Y-119200000D03*
%TO.P,U2,17,IO37*%
%TO.N,/MAG_DO*%
X72500000Y-119200000D03*
%TO.P,U2,18,IO38*%
%TO.N,/STRAIN_DO*%
X71500000Y-119200000D03*
%TO.P,U2,19,NC*%
%TO.N,unconnected-(U2-Pad19)*%
X70500000Y-119200000D03*
%TO.P,U2,20,NC*%
%TO.N,unconnected-(U2-Pad20)*%
X69500000Y-119200000D03*
%TO.P,U2,21,IO7*%
%TO.N,/LED_DATA_3V3*%
X68500000Y-119200000D03*
%TO.P,U2,22,IO8*%
%TO.N,/SCL*%
X67500000Y-119200000D03*
%TO.P,U2,23,IO15*%
%TO.N,/SDA*%
X66500000Y-119200000D03*
D46*
%TO.P,U2,24,IO2*%
%TO.N,/STRAIN_SCK*%
X63200000Y-121000000D03*
%TO.P,U2,25,IO0*%
%TO.N,/ESP32_BOOT*%
X63200000Y-122000000D03*
%TO.P,U2,26,IO4*%
%TO.N,/LCD_RST*%
X63200000Y-123000000D03*
%TO.P,U2,27,NC*%
%TO.N,unconnected-(U2-Pad27)*%
X63200000Y-124000000D03*
%TO.P,U2,28,IO20*%
%TO.N,/LCD_SCK*%
X63200000Y-125000000D03*
%TO.P,U2,29,IO5*%
%TO.N,/LCD_DATA*%
X63200000Y-126000000D03*
%TO.P,U2,30,NC*%
%TO.N,unconnected-(U2-Pad30)*%
X63200000Y-127000000D03*
%TO.P,U2,31,IO19*%
%TO.N,/LCD_BACKLIGHT*%
X63200000Y-128000000D03*
%TO.P,U2,32,VDD_SDIO*%
%TO.N,unconnected-(U2-Pad32)*%
X63200000Y-129000000D03*
%TO.P,U2,33,IO21*%
%TO.N,/LCD_CS*%
X63200000Y-130000000D03*
%TO.P,U2,34,RXD*%
%TO.N,/USB_SERIAL_TXO*%
X63200000Y-131000000D03*
%TO.P,U2,35,TXD*%
%TO.N,/USB_SERIAL_RXI*%
X63200000Y-132000000D03*
%TO.P,U2,36,IO22*%
%TO.N,/LCD_CMD*%
X63200000Y-133000000D03*
%TO.P,U2,37,NC*%
%TO.N,unconnected-(U2-Pad37)*%
X63200000Y-134000000D03*
%TO.P,U2,38,GND*%
%TO.N,GND*%
X63200000Y-135000000D03*
%TD*%
D18*
%TO.P,C11,1*%
%TO.N,+3.3V*%
X93000000Y-128765000D03*
%TO.P,C11,2*%
%TO.N,GND*%
X93000000Y-130315000D03*
%TD*%
D48*
%TO.P,C13,1*%
%TO.N,+5V*%
X121000000Y-121550000D03*
%TO.P,C13,2*%
%TO.N,GND*%
X121000000Y-123450000D03*
%TD*%
D18*
%TO.P,C14,1*%
%TO.N,+5V*%
X123000000Y-121725000D03*
%TO.P,C14,2*%
%TO.N,GND*%
X123000000Y-123275000D03*
%TD*%
D26*
%TO.P,C15,1*%
%TO.N,+5V*%
X125725000Y-126000000D03*
%TO.P,C15,2*%
%TO.N,Net-(C15-Pad2)*%
X127275000Y-126000000D03*
%TD*%
D48*
%TO.P,C16,1*%
%TO.N,+3.3V*%
X68500000Y-80050000D03*
%TO.P,C16,2*%
%TO.N,GNDA*%
X68500000Y-81950000D03*
%TD*%
D26*
%TO.P,C17,1*%
%TO.N,+3.3V*%
X129225000Y-117500000D03*
%TO.P,C17,2*%
%TO.N,GND*%
X130775000Y-117500000D03*
%TD*%
D29*
%TO.P,C18,1*%
%TO.N,/STRAIN_E+*%
X79500000Y-77450000D03*
%TO.P,C18,2*%
%TO.N,GNDA*%
X79500000Y-75550000D03*
%TD*%
D27*
%TO.P,C22,1*%
%TO.N,GNDA*%
X73775000Y-72500000D03*
%TO.P,C22,2*%
%TO.N,Net-(C22-Pad2)*%
X72225000Y-72500000D03*
%TD*%
D49*
%TO.P,Q1,1,B*%
%TO.N,Net-(Q1-Pad1)*%
X72562500Y-79050000D03*
%TO.P,Q1,2,E*%
%TO.N,+3.3V*%
X72562500Y-80950000D03*
%TO.P,Q1,3,C*%
%TO.N,Net-(L1-Pad1)*%
X74437500Y-80000000D03*
%TD*%
D45*
%TO.P,R4,1*%
%TO.N,Net-(R3-Pad2)*%
X72175000Y-74000000D03*
%TO.P,R4,2*%
%TO.N,GNDA*%
X73825000Y-74000000D03*
%TD*%
%TO.P,R5,1*%
%TO.N,Net-(C23-Pad2)*%
X74175000Y-70500000D03*
%TO.P,R5,2*%
%TO.N,/STRAIN_S-*%
X75825000Y-70500000D03*
%TD*%
D28*
%TO.P,C26,1*%
%TO.N,+3.3V*%
X64450000Y-118000000D03*
%TO.P,C26,2*%
%TO.N,GND*%
X62550000Y-118000000D03*
%TD*%
D50*
%TO.P,Q2,1,E1*%
%TO.N,/RTS*%
X78550000Y-137850000D03*
%TO.P,Q2,2,B1*%
%TO.N,/DTR*%
X78550000Y-138500000D03*
%TO.P,Q2,3,C2*%
%TO.N,/ESP32_BOOT*%
X78550000Y-139150000D03*
%TO.P,Q2,4,E2*%
%TO.N,/DTR*%
X80450000Y-139150000D03*
%TO.P,Q2,5,B2*%
%TO.N,/RTS*%
X80450000Y-138500000D03*
%TO.P,Q2,6,C1*%
%TO.N,/ESP32_EN*%
X80450000Y-137850000D03*
%TD*%
D51*
%TO.P,U3,1,GND*%
%TO.N,GND*%
X86025000Y-129055000D03*
%TO.P,U3,2,TXD*%
%TO.N,/USB_SERIAL_TXO*%
X86025000Y-130325000D03*
%TO.P,U3,3,RXD*%
%TO.N,/USB_SERIAL_RXI*%
X86025000Y-131595000D03*
%TO.P,U3,4,V3*%
%TO.N,+3.3V*%
X86025000Y-132865000D03*
%TO.P,U3,5,UD+*%
%TO.N,/USB_D+*%
X86025000Y-134135000D03*
%TO.P,U3,6,UD-*%
%TO.N,/USB_D-*%
X86025000Y-135405000D03*
%TO.P,U3,7,NC*%
%TO.N,unconnected-(U3-Pad7)*%
X86025000Y-136675000D03*
%TO.P,U3,8,NC*%
%TO.N,unconnected-(U3-Pad8)*%
X86025000Y-137945000D03*
%TO.P,U3,9,~{CTS}*%
%TO.N,unconnected-(U3-Pad9)*%
X90975000Y-137945000D03*
%TO.P,U3,10,~{DSR}*%
%TO.N,unconnected-(U3-Pad10)*%
X90975000Y-136675000D03*
%TO.P,U3,11,~{RI}*%
%TO.N,unconnected-(U3-Pad11)*%
X90975000Y-135405000D03*
%TO.P,U3,12,~{DCD}*%
%TO.N,unconnected-(U3-Pad12)*%
X90975000Y-134135000D03*
%TO.P,U3,13,~{DTR}*%
%TO.N,/DTR*%
X90975000Y-132865000D03*
%TO.P,U3,14,~{RTS}*%
%TO.N,/RTS*%
X90975000Y-131595000D03*
%TO.P,U3,15,R232*%
%TO.N,unconnected-(U3-Pad15)*%
X90975000Y-130325000D03*
%TO.P,U3,16,VCC*%
%TO.N,+3.3V*%
X90975000Y-129055000D03*
%TD*%
D18*
%TO.P,C12,1*%
%TO.N,+3.3V*%
X70500000Y-80225000D03*
%TO.P,C12,2*%
%TO.N,GNDA*%
X70500000Y-81775000D03*
%TD*%
D52*
%TO.P,U7,1,NC*%
%TO.N,unconnected-(U7-Pad1)*%
X67550000Y-115637500D03*
%TO.P,U7,2,A*%
%TO.N,/LED_DATA_3V3*%
X68500000Y-115637500D03*
%TO.P,U7,3,GND*%
%TO.N,GND*%
X69450000Y-115637500D03*
%TO.P,U7,4,Y*%
%TO.N,/LED_DATA_5V*%
X69450000Y-113362500D03*
%TO.P,U7,5,VCC*%
%TO.N,+5V*%
X67550000Y-113362500D03*
%TD*%
D53*
%TO.P,C7,1*%
%TO.N,+5V*%
X89569996Y-84388236D03*
%TO.P,C7,2*%
%TO.N,GND*%
X90430004Y-85677764D03*
%TD*%
D54*
%TO.P,D7,1,DIN*%
%TO.N,Net-(D6-Pad3)*%
X95062000Y-83374000D03*
D55*
%TO.P,D7,2,VDD*%
%TO.N,+5V*%
X93786062Y-83821332D03*
D56*
%TO.P,D7,3,DOUT*%
%TO.N,Net-(D7-Pad3)*%
X92839085Y-84213582D03*
D57*
%TO.P,D7,4,VSS*%
%TO.N,GND*%
X91736034Y-84751660D03*
%TD*%
D58*
%TO.P,D8,1,DIN*%
%TO.N,Net-(D7-Pad3)*%
X84751949Y-91735336D03*
D59*
%TO.P,D8,2,VDD*%
%TO.N,+5V*%
X84166035Y-92953872D03*
D60*
%TO.P,D8,3,DOUT*%
%TO.N,unconnected-(D8-Pad3)*%
X83773785Y-93900849D03*
D61*
%TO.P,D8,4,VSS*%
%TO.N,GND*%
X83374289Y-95061302D03*
%TD*%
D62*
%TO.P,C8,1*%
%TO.N,+5V*%
X84388987Y-89568871D03*
%TO.P,C8,2*%
%TO.N,GND*%
X85677013Y-90431129D03*
%TD*%
D63*
%TO.P,L1,1*%
%TO.N,Net-(L1-Pad1)*%
X75750000Y-75437500D03*
%TO.P,L1,2*%
%TO.N,/STRAIN_E+*%
X75750000Y-77562500D03*
%TD*%
D64*
%TO.P,U5,1,W*%
%TO.N,Net-(J1-Pad1)*%
X127200000Y-123450000D03*
%TO.P,U5,2,VCP*%
%TO.N,Net-(C15-Pad2)*%
X127600000Y-123450000D03*
%TO.P,U5,3,UH*%
%TO.N,/TMC_UH*%
X128000000Y-123450000D03*
%TO.P,U5,4,VH*%
%TO.N,/TMC_VH*%
X128400000Y-123450000D03*
%TO.P,U5,5,WH*%
%TO.N,/TMC_WH*%
X128800000Y-123450000D03*
D65*
%TO.P,U5,6,UL*%
%TO.N,/TMC_UL*%
X129450000Y-122800000D03*
%TO.P,U5,7,WL*%
%TO.N,/TMC_WL*%
X129450000Y-122400000D03*
%TO.P,U5,8,GND*%
%TO.N,GND*%
X129450000Y-122000000D03*
%TO.P,U5,9,GND*%
X129450000Y-121600000D03*
%TO.P,U5,10,VL*%
%TO.N,/TMC_VL*%
X129450000Y-121200000D03*
D64*
%TO.P,U5,11,VIO/~{STDBY}*%
%TO.N,+3.3V*%
X128800000Y-120550000D03*
%TO.P,U5,12,DIAG*%
%TO.N,/TMC_DIAG*%
X128400000Y-120550000D03*
%TO.P,U5,13,1V8OUT*%
%TO.N,Net-(C21-Pad1)*%
X128000000Y-120550000D03*
%TO.P,U5,14,GND*%
%TO.N,GND*%
X127600000Y-120550000D03*
%TO.P,U5,15,U*%
%TO.N,Net-(J1-Pad3)*%
X127200000Y-120550000D03*
D65*
%TO.P,U5,16,BRUV*%
%TO.N,GND*%
X126550000Y-121200000D03*
%TO.P,U5,17,V*%
%TO.N,Net-(J1-Pad2)*%
X126550000Y-121600000D03*
%TO.P,U5,18,VS*%
%TO.N,+5V*%
X126550000Y-122000000D03*
%TO.P,U5,19,NC*%
%TO.N,unconnected-(U5-Pad19)*%
X126550000Y-122400000D03*
%TO.P,U5,20,BRW*%
%TO.N,GND*%
X126550000Y-122800000D03*
D66*
%TO.P,U5,PAD,PAD*%
X127500000Y-122500000D03*
D67*
X128000000Y-122000000D03*
D66*
X128500000Y-121500000D03*
X128500000Y-122500000D03*
X127500000Y-121500000D03*
%TD*%
D27*
%TO.P,C27,1*%
%TO.N,+3.3V*%
X100775000Y-64500000D03*
%TO.P,C27,2*%
%TO.N,GND*%
X99225000Y-64500000D03*
%TD*%
%TO.P,C21,1*%
%TO.N,Net-(C21-Pad1)*%
X127775000Y-117500000D03*
%TO.P,C21,2*%
%TO.N,GND*%
X126225000Y-117500000D03*
%TD*%
D32*
%TO.P,R16,1*%
%TO.N,/MAG_CLK*%
X70825000Y-106500000D03*
%TO.P,R16,2*%
%TO.N,+3.3V*%
X69175000Y-106500000D03*
%TD*%
D19*
%TO.P,U1,1,VDD*%
%TO.N,+3.3V*%
X102475000Y-101905000D03*
%TO.P,U1,2,MODE*%
X102475000Y-100635000D03*
%TO.P,U1,3,ANALOG/PWM*%
%TO.N,unconnected-(U1-Pad3)*%
X102475000Y-99365000D03*
%TO.P,U1,4,GND*%
%TO.N,GND*%
X102475000Y-98095000D03*
%TO.P,U1,5,PUSH*%
%TO.N,unconnected-(U1-Pad5)*%
X97525000Y-98095000D03*
%TO.P,U1,6,A/U/SDA/DO*%
%TO.N,/MAG_DO*%
X97525000Y-99365000D03*
%TO.P,U1,7,B/V/SCL/CLK*%
%TO.N,/MAG_CLK*%
X97525000Y-100635000D03*
%TO.P,U1,8,Z/W/CSN*%
%TO.N,/MAG_CSN*%
X97525000Y-101905000D03*
%TD*%
D27*
%TO.P,C20,1*%
%TO.N,+3.3V*%
X102775000Y-103500000D03*
%TO.P,C20,2*%
%TO.N,GND*%
X101225000Y-103500000D03*
%TD*%
D25*
%TO.P,C29,1*%
%TO.N,+5V*%
X67500000Y-111275000D03*
%TO.P,C29,2*%
%TO.N,GND*%
X67500000Y-109725000D03*
%TD*%
D45*
%TO.P,R15,1*%
%TO.N,+3.3V*%
X68175000Y-108000000D03*
%TO.P,R15,2*%
%TO.N,/MAG_DO*%
X69825000Y-108000000D03*
%TD*%
D32*
%TO.P,R14,1*%
%TO.N,+3.3V*%
X64825000Y-110500000D03*
%TO.P,R14,2*%
%TO.N,/SCL*%
X63175000Y-110500000D03*
%TD*%
%TO.P,R13,1*%
%TO.N,+3.3V*%
X63825000Y-109000000D03*
%TO.P,R13,2*%
%TO.N,/SDA*%
X62175000Y-109000000D03*
%TD*%
D19*
%TO.P,U4,1,VSUP*%
%TO.N,+3.3V*%
X69975000Y-78445000D03*
%TO.P,U4,2,BASE*%
%TO.N,Net-(Q1-Pad1)*%
X69975000Y-77175000D03*
%TO.P,U4,3,AVDD*%
%TO.N,Net-(L1-Pad1)*%
X69975000Y-75905000D03*
%TO.P,U4,4,VFB*%
%TO.N,Net-(R3-Pad2)*%
X69975000Y-74635000D03*
%TO.P,U4,5,AGND*%
%TO.N,GNDA*%
X69975000Y-73365000D03*
%TO.P,U4,6,VBG*%
%TO.N,Net-(C22-Pad2)*%
X69975000Y-72095000D03*
%TO.P,U4,7,INA-*%
%TO.N,Net-(C23-Pad2)*%
X69975000Y-70825000D03*
%TO.P,U4,8,INA+*%
%TO.N,Net-(C23-Pad1)*%
X69975000Y-69555000D03*
%TO.P,U4,9,INB-*%
%TO.N,GNDA*%
X65025000Y-69555000D03*
%TO.P,U4,10,INB+*%
X65025000Y-70825000D03*
%TO.P,U4,11,PD_SCK*%
%TO.N,/STRAIN_SCK*%
X65025000Y-72095000D03*
%TO.P,U4,12,DOUT*%
%TO.N,/STRAIN_DO*%
X65025000Y-73365000D03*
%TO.P,U4,13,XO*%
%TO.N,unconnected-(U4-Pad13)*%
X65025000Y-74635000D03*
%TO.P,U4,14,XI*%
%TO.N,GNDA*%
X65025000Y-75905000D03*
%TO.P,U4,15,RATE*%
%TO.N,+3.3V*%
X65025000Y-77175000D03*
%TO.P,U4,16,DVDD*%
X65025000Y-78445000D03*
%TD*%
D32*
%TO.P,R6,1*%
%TO.N,/STRAIN_S+*%
X75825000Y-69000000D03*
%TO.P,R6,2*%
%TO.N,Net-(C23-Pad1)*%
X74175000Y-69000000D03*
%TD*%
D25*
%TO.P,C19,1*%
%TO.N,/STRAIN_E+*%
X77500000Y-77275000D03*
%TO.P,C19,2*%
%TO.N,GNDA*%
X77500000Y-75725000D03*
%TD*%
D32*
%TO.P,R3,1*%
%TO.N,Net-(L1-Pad1)*%
X73825000Y-75500000D03*
%TO.P,R3,2*%
%TO.N,Net-(R3-Pad2)*%
X72175000Y-75500000D03*
%TD*%
D18*
%TO.P,C23,1*%
%TO.N,Net-(C23-Pad1)*%
X72500000Y-68725000D03*
%TO.P,C23,2*%
%TO.N,Net-(C23-Pad2)*%
X72500000Y-70275000D03*
%TD*%
D20*
%TO.P,R7,1*%
%TO.N,/TMC_UH*%
X129000000Y-133675000D03*
%TO.P,R7,2*%
%TO.N,GND*%
X129000000Y-135325000D03*
%TD*%
%TO.P,R8,1*%
%TO.N,/TMC_VH*%
X130500000Y-133675000D03*
%TO.P,R8,2*%
%TO.N,GND*%
X130500000Y-135325000D03*
%TD*%
%TO.P,R12,1*%
%TO.N,/TMC_VL*%
X136500000Y-133675000D03*
%TO.P,R12,2*%
%TO.N,GND*%
X136500000Y-135325000D03*
%TD*%
%TO.P,R9,1*%
%TO.N,/TMC_WH*%
X132000000Y-133675000D03*
%TO.P,R9,2*%
%TO.N,GND*%
X132000000Y-135325000D03*
%TD*%
%TO.P,R10,1*%
%TO.N,/TMC_UL*%
X133500000Y-133675000D03*
%TO.P,R10,2*%
%TO.N,GND*%
X133500000Y-135325000D03*
%TD*%
%TO.P,R11,1*%
%TO.N,/TMC_WL*%
X135000000Y-133675000D03*
%TO.P,R11,2*%
%TO.N,GND*%
X135000000Y-135325000D03*
%TD*%
D32*
%TO.P,R17,1*%
%TO.N,+3.3V*%
X81470000Y-131000000D03*
%TO.P,R17,2*%
%TO.N,/ESP32_EN*%
X79820000Y-131000000D03*
%TD*%
D26*
%TO.P,C28,1*%
%TO.N,/ESP32_EN*%
X79225000Y-132500000D03*
%TO.P,C28,2*%
%TO.N,GND*%
X80775000Y-132500000D03*
%TD*%
D18*
%TO.P,C25,1*%
%TO.N,+3.3V*%
X79000000Y-134225000D03*
%TO.P,C25,2*%
%TO.N,GND*%
X79000000Y-135775000D03*
%TD*%
D29*
%TO.P,C10,1*%
%TO.N,+3.3V*%
X118000000Y-138450000D03*
%TO.P,C10,2*%
%TO.N,GND*%
X118000000Y-136550000D03*
%TD*%
D48*
%TO.P,C9,1*%
%TO.N,+5V*%
X118000000Y-132550000D03*
%TO.P,C9,2*%
%TO.N,GND*%
X118000000Y-134450000D03*
%TD*%
D35*
%TO.P,H8,1,1*%
%TO.N,unconnected-(H8-Pad1)*%
X135000000Y-100000000D03*
%TD*%
%TO.P,H9,1,1*%
%TO.N,unconnected-(H9-Pad1)*%
X65000000Y-100000000D03*
%TD*%
D48*
%TO.P,C24,1*%
%TO.N,+3.3V*%
X81000000Y-134050000D03*
%TO.P,C24,2*%
%TO.N,GND*%
X81000000Y-135950000D03*
%TD*%
D68*
%TO.P,C5,1*%
%TO.N,+5V*%
X115611764Y-89569996D03*
%TO.P,C5,2*%
%TO.N,GND*%
X114322236Y-90430004D03*
%TD*%
D69*
%TO.P,D5,1,DIN*%
%TO.N,Net-(D4-Pad3)*%
X116626000Y-95062000D03*
D70*
%TO.P,D5,2,VDD*%
%TO.N,+5V*%
X116178668Y-93786062D03*
D71*
%TO.P,D5,3,DOUT*%
%TO.N,Net-(D5-Pad3)*%
X115786418Y-92839085D03*
D72*
%TO.P,D5,4,VSS*%
%TO.N,GND*%
X115248340Y-91736034D03*
%TD*%
D73*
%TO.P,C3,1*%
%TO.N,+5V*%
X110430004Y-115611764D03*
%TO.P,C3,2*%
%TO.N,GND*%
X109569996Y-114322236D03*
%TD*%
D74*
%TO.P,C6,1*%
%TO.N,+5V*%
X110431129Y-84388987D03*
%TO.P,C6,2*%
%TO.N,GND*%
X109568871Y-85677013D03*
%TD*%
D75*
%TO.P,D6,1,DIN*%
%TO.N,Net-(D5-Pad3)*%
X108264664Y-84751949D03*
D76*
%TO.P,D6,2,VDD*%
%TO.N,+5V*%
X107046128Y-84166035D03*
D77*
%TO.P,D6,3,DOUT*%
%TO.N,Net-(D6-Pad3)*%
X106099151Y-83773785D03*
D78*
%TO.P,D6,4,VSS*%
%TO.N,GND*%
X104938698Y-83374289D03*
%TD*%
D79*
%TO.P,D4,1,DIN*%
%TO.N,Net-(D3-Pad3)*%
X115248051Y-108264664D03*
D80*
%TO.P,D4,2,VDD*%
%TO.N,+5V*%
X115833965Y-107046128D03*
D81*
%TO.P,D4,3,DOUT*%
%TO.N,Net-(D4-Pad3)*%
X116226215Y-106099151D03*
D82*
%TO.P,D4,4,VSS*%
%TO.N,GND*%
X116625711Y-104938698D03*
%TD*%
D83*
%TO.P,C4,1*%
%TO.N,+5V*%
X115611013Y-110431129D03*
%TO.P,C4,2*%
%TO.N,GND*%
X114322987Y-109568871D03*
%TD*%
D84*
%TO.P,D3,1,DIN*%
%TO.N,Net-(D2-Pad3)*%
X104938000Y-116626000D03*
D85*
%TO.P,D3,2,VDD*%
%TO.N,+5V*%
X106213938Y-116178668D03*
D86*
%TO.P,D3,3,DOUT*%
%TO.N,Net-(D3-Pad3)*%
X107160915Y-115786418D03*
D87*
%TO.P,D3,4,VSS*%
%TO.N,GND*%
X108263966Y-115248340D03*
%TD*%
D88*
%TO.N,/SCL*%
X120396000Y-91821000D03*
X137033000Y-110871000D03*
%TO.N,/SDA*%
X119380000Y-92710000D03*
X134366000Y-109474000D03*
X98044000Y-66802000D03*
%TO.N,+3.3V*%
X133731000Y-116586000D03*
X132334000Y-117856000D03*
%TO.N,GND*%
X95952000Y-66548000D03*
X93345000Y-66548000D03*
%TO.N,/SDA*%
X88392000Y-71628000D03*
%TO.N,/SCL*%
X88138000Y-69723000D03*
%TO.N,/ACL_INT1*%
X92964000Y-69215000D03*
X72771000Y-124968000D03*
%TO.N,/DAC2*%
X134493000Y-92710000D03*
X78740000Y-124968000D03*
%TO.N,/PRX_INT*%
X138430000Y-113157000D03*
X71882000Y-129032000D03*
%TO.N,GND*%
X117500000Y-104500000D03*
X114000000Y-110500000D03*
X110828626Y-113638699D03*
X100000000Y-103500000D03*
X101000000Y-98000000D03*
X94361000Y-129667000D03*
X126500000Y-115000000D03*
X82500000Y-95500000D03*
X130500000Y-122000000D03*
X117000000Y-135500000D03*
X127200000Y-118900000D03*
X137000000Y-139500000D03*
X86361301Y-110828626D03*
X125000000Y-139500000D03*
X81400000Y-132900000D03*
X89500000Y-114000000D03*
X137000000Y-129000000D03*
X123900000Y-118800000D03*
X120000000Y-124000000D03*
X113638699Y-89171374D03*
X104500000Y-82000000D03*
X130500000Y-119000000D03*
X87500000Y-129500000D03*
X69175010Y-117000000D03*
X118000000Y-125500000D03*
X95885000Y-64500000D03*
X130000000Y-139500000D03*
X133500000Y-115000000D03*
X65000000Y-135000000D03*
X63500000Y-119500000D03*
X120000000Y-139500000D03*
X114000000Y-120500000D03*
X86000000Y-89500000D03*
X68500000Y-109500000D03*
X124900000Y-118800000D03*
X137000000Y-124000000D03*
X95500000Y-118000000D03*
X119500000Y-115000000D03*
X115000000Y-139500000D03*
X89171374Y-86361301D03*
X110500000Y-86000000D03*
X129500000Y-127500000D03*
X82000000Y-135500000D03*
X122101428Y-123000000D03*
X137000000Y-119000000D03*
X125989142Y-120347368D03*
X76500000Y-120000000D03*
%TO.N,/USB_D+*%
X99749024Y-132874931D03*
X101100000Y-132600000D03*
%TO.N,/STRAIN_E+*%
X76000000Y-84000000D03*
X81000000Y-79000000D03*
%TO.N,Net-(J1-Pad3)*%
X126100000Y-119200000D03*
%TO.N,Net-(J1-Pad2)*%
X121800000Y-119900000D03*
%TO.N,Net-(J1-Pad1)*%
X122000000Y-124500000D03*
%TO.N,/STRAIN_S-*%
X81000000Y-76000000D03*
%TO.N,/STRAIN_S+*%
X82500000Y-77500000D03*
%TO.N,/DTR*%
X88700000Y-133300000D03*
X88600000Y-136000000D03*
%TO.N,/ESP32_EN*%
X81500042Y-137500000D03*
%TO.N,/ESP32_BOOT*%
X77500000Y-138100000D03*
X65000000Y-134000000D03*
X61500000Y-134000000D03*
%TO.N,/USB_SERIAL_RXI*%
X73453000Y-132000000D03*
X83000000Y-132000000D03*
%TO.N,/USB_SERIAL_TXO*%
X72517000Y-131000000D03*
X83000000Y-131000000D03*
%TO.N,/LED_DATA_5V*%
X80500000Y-107000006D03*
X70500000Y-110000000D03*
X74000000Y-110000000D03*
%TO.N,/LCD_CMD*%
X65500000Y-133000000D03*
%TO.N,/LCD_CS*%
X65500000Y-130000000D03*
%TO.N,/LCD_BACKLIGHT*%
X65500000Y-129000000D03*
%TO.N,/LCD_DATA*%
X65500000Y-127000000D03*
%TO.N,/LCD_SCK*%
X65500000Y-125000000D03*
%TO.N,/LCD_RST*%
X65500000Y-123000000D03*
%TO.N,/MAG_DO*%
X71399979Y-116899979D03*
%TO.N,/MAG_CLK*%
X73111083Y-116888917D03*
%TO.N,/MAG_CSN*%
X74916084Y-117583916D03*
%TO.N,/STRAIN_DO*%
X65000000Y-107500000D03*
X67000000Y-108500000D03*
%TO.N,/STRAIN_SCK*%
X63175010Y-106500000D03*
X60500000Y-106500000D03*
%TO.N,/TMC_UH*%
X128000000Y-132500000D03*
X88300000Y-125000000D03*
X125500000Y-127500000D03*
X112459000Y-123000000D03*
%TO.N,/TMC_VH*%
X129500000Y-132500000D03*
X111252000Y-123952000D03*
X127000000Y-128200000D03*
X86800000Y-124100000D03*
%TO.N,/TMC_WH*%
X131000000Y-132500000D03*
X84700000Y-122900000D03*
X108966000Y-125222000D03*
X128500000Y-129000000D03*
%TO.N,/TMC_UL*%
X130000000Y-129500000D03*
X132500000Y-132500000D03*
%TO.N,/TMC_WL*%
X131500000Y-130000000D03*
X134000000Y-132500000D03*
%TO.N,/TMC_VL*%
X132500000Y-130500000D03*
X135500000Y-132500000D03*
%TO.N,GNDA*%
X83500000Y-82500000D03*
X77500000Y-67500000D03*
X85000000Y-75000000D03*
X76500000Y-73500000D03*
X80500000Y-85500000D03*
X68000000Y-67500000D03*
X79500000Y-86500000D03*
X76000000Y-67500000D03*
X70000000Y-67500000D03*
X67000000Y-78500000D03*
X67000000Y-72500000D03*
X73500000Y-83500000D03*
X78500000Y-87500000D03*
X79000000Y-69000000D03*
X67000000Y-71000000D03*
X75000000Y-85000000D03*
X86500000Y-79500000D03*
X86000000Y-76000000D03*
X80500000Y-70500000D03*
X85000000Y-81000000D03*
X74000000Y-67500000D03*
X66000000Y-67500000D03*
X67000000Y-74000000D03*
X82000000Y-72000000D03*
X87500000Y-78500000D03*
X72000000Y-67500000D03*
X83500000Y-73500000D03*
X72000000Y-83000000D03*
X76000000Y-86000000D03*
X67000000Y-75500000D03*
X70000000Y-83000000D03*
X68000000Y-83000000D03*
X67000000Y-69500000D03*
X67000000Y-77000000D03*
X76000000Y-80000000D03*
X82000000Y-84000000D03*
%TO.N,+5V*%
X103007090Y-131459231D03*
X97207866Y-132760666D03*
X111000000Y-129500000D03*
X102600000Y-132700000D03*
X74500008Y-112000000D03*
X68500000Y-112000000D03*
X113500000Y-134500000D03*
X116000000Y-124499990D03*
%TO.N,+3.3V*%
X138250000Y-133500000D03*
X107500000Y-128500000D03*
X80899000Y-129177305D03*
X133600000Y-128750000D03*
X62000000Y-86500000D03*
X124999998Y-138000000D03*
X107500000Y-130500000D03*
X102000000Y-64500000D03*
X97500000Y-128500000D03*
X71400000Y-121600000D03*
X74400000Y-128600000D03*
X65500000Y-118000000D03*
X66175012Y-87000000D03*
X102500000Y-128500000D03*
%TO.N,/SDA*%
X90500000Y-62000000D03*
X65324990Y-115500000D03*
X63000000Y-115500000D03*
%TO.N,/SCL*%
X89000000Y-63000000D03*
X65500000Y-113500000D03*
X103500000Y-64000000D03*
X63500000Y-113500000D03*
%TD*%
D89*
%TO.N,+3.3V*%
X94234000Y-65532000D02*
X94266000Y-65500000D01*
X94234000Y-70485000D02*
X94234000Y-65532000D01*
X91376000Y-71755000D02*
X92964000Y-71755000D01*
X92964000Y-71755000D02*
X94234000Y-70485000D01*
%TO.N,Net-(AC1-Pad7)*%
X90297000Y-71501000D02*
X90297000Y-70415000D01*
X90043000Y-71755000D02*
X90297000Y-71501000D01*
X89726000Y-71755000D02*
X90043000Y-71755000D01*
D90*
%TO.N,/SDA*%
X88584000Y-71628000D02*
X89797000Y-70415000D01*
X88392000Y-71628000D02*
X88584000Y-71628000D01*
D89*
%TO.N,GND*%
X94996000Y-67504000D02*
X95952000Y-66548000D01*
X93218000Y-72898000D02*
X94996000Y-71120000D01*
X88392000Y-72898000D02*
X93218000Y-72898000D01*
X86995000Y-70244000D02*
X86995000Y-71501000D01*
X86995000Y-71501000D02*
X88392000Y-72898000D01*
X94996000Y-71120000D02*
X94996000Y-67504000D01*
D90*
%TO.N,/USB_CC1*%
X97448006Y-131953000D02*
X98750000Y-133254994D01*
X96372000Y-131953000D02*
X97448006Y-131953000D01*
X96250002Y-132074998D02*
X96372000Y-131953000D01*
X98750000Y-133254994D02*
X98750000Y-133850000D01*
X96075000Y-132080000D02*
X96250002Y-132080000D01*
X95948000Y-132207000D02*
X96075000Y-132080000D01*
D89*
%TO.N,GND*%
X94298000Y-133668000D02*
X94488000Y-133858000D01*
X94298000Y-132207000D02*
X94298000Y-133668000D01*
%TO.N,/SDA*%
X60500000Y-89000000D02*
X61500000Y-90000000D01*
X90500000Y-62000000D02*
X65000000Y-62000000D01*
X65000000Y-62000000D02*
X62000000Y-65000000D01*
X62000000Y-65000000D02*
X62000000Y-69000000D01*
X61500000Y-108325000D02*
X62175000Y-109000000D01*
X62000000Y-69000000D02*
X60500000Y-70500000D01*
X60500000Y-70500000D02*
X60500000Y-89000000D01*
X61500000Y-90000000D02*
X61500000Y-108325000D01*
%TO.N,/SCL*%
X62200000Y-107878234D02*
X63149990Y-108828224D01*
X62200000Y-88700000D02*
X62200000Y-107878234D01*
X89000000Y-63000000D02*
X65750000Y-63000000D01*
X65750000Y-63000000D02*
X63000000Y-65750000D01*
X63000000Y-69000000D02*
X61000000Y-71000000D01*
X63000000Y-65750000D02*
X63000000Y-69000000D01*
X61000000Y-71000000D02*
X61000000Y-87500000D01*
X61000000Y-87500000D02*
X62200000Y-88700000D01*
X63149990Y-108828224D02*
X63149990Y-110474990D01*
X63149990Y-110474990D02*
X63175000Y-110500000D01*
D91*
%TO.N,+3.3V*%
X137602000Y-106172000D02*
X138176000Y-106746000D01*
X135358000Y-106704000D02*
X135890000Y-106172000D01*
X134364500Y-108077000D02*
X135255000Y-108077000D01*
X132334000Y-110107500D02*
X134364500Y-108077000D01*
X132334000Y-111681000D02*
X132334000Y-110107500D01*
X135358000Y-107974000D02*
X135358000Y-106704000D01*
X132715000Y-112062000D02*
X132334000Y-111681000D01*
X135255000Y-108077000D02*
X135358000Y-107974000D01*
X135890000Y-106172000D02*
X137602000Y-106172000D01*
D92*
X132461000Y-112903000D02*
X131966000Y-112903000D01*
D89*
X132715000Y-113157000D02*
X132461000Y-112903000D01*
D92*
X133543000Y-113157000D02*
X132715000Y-113157000D01*
X132715000Y-113157000D02*
X132715000Y-112062000D01*
D89*
%TO.N,GND*%
X131445000Y-105410000D02*
X131445000Y-108373000D01*
X139192000Y-105410000D02*
X131445000Y-105410000D01*
X131445000Y-108373000D02*
X132086000Y-109014000D01*
X139509500Y-105092500D02*
X139192000Y-105410000D01*
X130429000Y-112890000D02*
X130416000Y-112903000D01*
X131778000Y-109014000D02*
X130429000Y-110363000D01*
X130429000Y-110363000D02*
X130429000Y-112890000D01*
X132086000Y-109014000D02*
X131778000Y-109014000D01*
D91*
X128319000Y-115000000D02*
X126500000Y-115000000D01*
X130416000Y-112903000D02*
X128319000Y-115000000D01*
D89*
X93713000Y-130315000D02*
X93000000Y-130315000D01*
X94361000Y-129667000D02*
X93713000Y-130315000D01*
D90*
%TO.N,/USB_D+*%
X99750000Y-132875907D02*
X99749024Y-132874931D01*
X99750000Y-133850000D02*
X99750000Y-132875907D01*
D89*
%TO.N,/PRX_INT*%
X138430000Y-110998000D02*
X137071000Y-109639000D01*
X137071000Y-109639000D02*
X136138000Y-109639000D01*
X138430000Y-113157000D02*
X138430000Y-110998000D01*
%TO.N,GND*%
X138176000Y-108646000D02*
X138303000Y-108646000D01*
X135630000Y-108839000D02*
X137983000Y-108839000D01*
X137983000Y-108839000D02*
X138176000Y-108646000D01*
%TO.N,/SCL*%
X136773000Y-110611000D02*
X137033000Y-110871000D01*
X135358000Y-110611000D02*
X136773000Y-110611000D01*
%TO.N,/SDA*%
X134366000Y-109474000D02*
X134608000Y-109716000D01*
X134608000Y-109716000D02*
X134608000Y-110611000D01*
%TO.N,+3.3V*%
X132080000Y-113017000D02*
X131966000Y-112903000D01*
X132080000Y-114935000D02*
X132080000Y-113017000D01*
X133731000Y-116586000D02*
X132080000Y-114935000D01*
D91*
X81470000Y-129748305D02*
X80899000Y-129177305D01*
X81470000Y-131000000D02*
X81470000Y-129748305D01*
D89*
X80899000Y-129177305D02*
X80825000Y-129251305D01*
%TO.N,/ACL_INT1*%
X92964000Y-69215000D02*
X91497000Y-69215000D01*
D91*
%TO.N,GND*%
X138875000Y-73724000D02*
X138938000Y-73787000D01*
X134747000Y-73724000D02*
X138875000Y-73724000D01*
D93*
X138938000Y-68432000D02*
X138938000Y-73787000D01*
X138938000Y-73787000D02*
X138938000Y-78359000D01*
D91*
%TO.N,Net-(C36-Pad1)*%
X134747000Y-77203000D02*
X134747000Y-75374000D01*
%TO.N,GND*%
X138430000Y-104013000D02*
X139509500Y-105092500D01*
X139509500Y-105092500D02*
X139700000Y-105283000D01*
X139700000Y-108458000D02*
X139512000Y-108646000D01*
X138430000Y-92710000D02*
X138430000Y-104013000D01*
X139700000Y-105283000D02*
X139700000Y-108458000D01*
X138430000Y-92710000D02*
X138557000Y-92710000D01*
X139512000Y-108646000D02*
X138303000Y-108646000D01*
X135890000Y-92710000D02*
X138430000Y-92710000D01*
X138557000Y-86360000D02*
X137795000Y-85598000D01*
X138557000Y-92710000D02*
X138557000Y-86360000D01*
X134747000Y-91567000D02*
X135890000Y-92710000D01*
X134747000Y-91186000D02*
X134747000Y-91567000D01*
X134112000Y-90551000D02*
X134747000Y-91186000D01*
X133820000Y-90551000D02*
X134112000Y-90551000D01*
X132797000Y-89528000D02*
X133820000Y-90551000D01*
X132747000Y-89528000D02*
X132797000Y-89528000D01*
X137795000Y-85598000D02*
X136206000Y-85598000D01*
X138176000Y-85217000D02*
X137795000Y-85598000D01*
X138176000Y-83693000D02*
X138176000Y-85217000D01*
X136206000Y-83058000D02*
X137541000Y-83058000D01*
X137541000Y-83058000D02*
X138176000Y-83693000D01*
D89*
%TO.N,/DAC2*%
X134493000Y-92710000D02*
X133611000Y-91828000D01*
X133611000Y-91828000D02*
X132747000Y-91828000D01*
D93*
%TO.N,GND*%
X137414000Y-82169000D02*
X137414000Y-78753000D01*
X136525000Y-83058000D02*
X137414000Y-82169000D01*
X136206000Y-83058000D02*
X136525000Y-83058000D01*
%TO.N,Net-(U10-Pad3)*%
X135617117Y-84328000D02*
X136206000Y-84328000D01*
X133858000Y-86087117D02*
X135617117Y-84328000D01*
X135001000Y-89789000D02*
X135001000Y-88646000D01*
X135890000Y-90678000D02*
X135001000Y-89789000D01*
X135001000Y-88646000D02*
X133858000Y-87503000D01*
X133858000Y-87503000D02*
X133858000Y-86087117D01*
X136747000Y-90678000D02*
X135890000Y-90678000D01*
%TO.N,Net-(C35-Pad1)*%
X133096000Y-84963000D02*
X133096000Y-83566000D01*
X136144000Y-78473000D02*
X137414000Y-77203000D01*
X132461000Y-85598000D02*
X133096000Y-84963000D01*
X133096000Y-83566000D02*
X136144000Y-80518000D01*
X131256000Y-85598000D02*
X132461000Y-85598000D01*
X136144000Y-80518000D02*
X136144000Y-78473000D01*
%TO.N,Net-(C36-Pad2)*%
X133210000Y-78753000D02*
X134747000Y-78753000D01*
X132478000Y-79485000D02*
X133210000Y-78753000D01*
X129413000Y-79485000D02*
X132478000Y-79485000D01*
X131256000Y-81328000D02*
X129413000Y-79485000D01*
X131256000Y-83058000D02*
X131256000Y-81328000D01*
D91*
%TO.N,+5V*%
X128143000Y-84328000D02*
X131256000Y-84328000D01*
X124814763Y-87656237D02*
X128143000Y-84328000D01*
X124814763Y-93814763D02*
X124814763Y-87656237D01*
D93*
%TO.N,GND*%
X138417000Y-78880000D02*
X137795000Y-78880000D01*
X138938000Y-78359000D02*
X138417000Y-78880000D01*
X133604000Y-63098000D02*
X138938000Y-68432000D01*
%TO.N,Net-(LS1-PadP)*%
X131805000Y-69998000D02*
X133604000Y-69998000D01*
X129413000Y-72390000D02*
X131805000Y-69998000D01*
X129413000Y-74185000D02*
X129413000Y-72390000D01*
D89*
%TO.N,/SCL*%
X110236000Y-76327000D02*
X106172000Y-72263000D01*
X110236000Y-79629000D02*
X110236000Y-76327000D01*
X120396000Y-89789000D02*
X110236000Y-79629000D01*
X106172000Y-72263000D02*
X106172000Y-66672000D01*
X120396000Y-91821000D02*
X120396000Y-89789000D01*
X106172000Y-66672000D02*
X103500000Y-64000000D01*
%TO.N,GND*%
X99225000Y-64500000D02*
X95885000Y-64500000D01*
%TO.N,/SDA*%
X103378000Y-66802000D02*
X98044000Y-66802000D01*
X105283000Y-72619217D02*
X105283000Y-68707000D01*
X109347000Y-76683217D02*
X105283000Y-72619217D01*
X109347000Y-78740000D02*
X109347000Y-76683217D01*
X109347000Y-80010000D02*
X109347000Y-78740000D01*
X114554000Y-85217000D02*
X109347000Y-80010000D01*
X119380000Y-90043000D02*
X114554000Y-85217000D01*
X119380000Y-92710000D02*
X119380000Y-90043000D01*
X105283000Y-68707000D02*
X103378000Y-66802000D01*
%TO.N,GND*%
X135190000Y-115000000D02*
X133500000Y-115000000D01*
X135443000Y-114747000D02*
X135190000Y-115000000D01*
X135443000Y-112522000D02*
X135443000Y-114747000D01*
X90678000Y-68961000D02*
X90924000Y-68715000D01*
X90924000Y-68715000D02*
X91497000Y-68715000D01*
X90678000Y-69469000D02*
X90678000Y-68961000D01*
X90924000Y-69715000D02*
X90678000Y-69469000D01*
X91497000Y-69715000D02*
X90924000Y-69715000D01*
X92456000Y-66662000D02*
X92342000Y-66548000D01*
X92456000Y-68306000D02*
X92456000Y-66662000D01*
X92047000Y-68715000D02*
X92456000Y-68306000D01*
X91497000Y-68715000D02*
X92047000Y-68715000D01*
X92342000Y-66548000D02*
X93345000Y-66548000D01*
%TO.N,+3.3V*%
X90792000Y-65545000D02*
X90837000Y-65500000D01*
X90792000Y-66548000D02*
X90792000Y-65545000D01*
X90837000Y-65500000D02*
X64500000Y-65500000D01*
X94266000Y-65500000D02*
X90837000Y-65500000D01*
X99775000Y-65500000D02*
X94266000Y-65500000D01*
X90797000Y-66553000D02*
X90792000Y-66548000D01*
X90797000Y-68015000D02*
X90797000Y-66553000D01*
X89097000Y-68215000D02*
X89097000Y-67113000D01*
X89097000Y-67113000D02*
X89662000Y-66548000D01*
X89662000Y-66548000D02*
X90792000Y-66548000D01*
%TO.N,GND*%
X87490000Y-70739000D02*
X86995000Y-70244000D01*
X88519000Y-70739000D02*
X87490000Y-70739000D01*
X89043000Y-70215000D02*
X88519000Y-70739000D01*
X89097000Y-70215000D02*
X89043000Y-70215000D01*
%TO.N,Net-(AC1-Pad2)*%
X87016000Y-68715000D02*
X86995000Y-68694000D01*
X89097000Y-68715000D02*
X87016000Y-68715000D01*
%TO.N,/SCL*%
X89097000Y-69715000D02*
X88146000Y-69715000D01*
X88146000Y-69715000D02*
X88138000Y-69723000D01*
%TO.N,/ACL_INT1*%
X72771000Y-125222000D02*
X72771000Y-124968000D01*
X72771000Y-128966405D02*
X72771000Y-125222000D01*
X73804595Y-130000000D02*
X72771000Y-128966405D01*
X76500000Y-130000000D02*
X73804595Y-130000000D01*
%TO.N,Net-(D2-Pad3)*%
X96331378Y-125199978D02*
X93929550Y-122798150D01*
X104245846Y-125199978D02*
X96331378Y-125199978D01*
X105283000Y-124162824D02*
X104245846Y-125199978D01*
X105283000Y-116971000D02*
X105283000Y-124162824D01*
X93929550Y-122798150D02*
X93929550Y-116156924D01*
X104938000Y-116626000D02*
X105283000Y-116971000D01*
%TO.N,+5V*%
X104450510Y-125599989D02*
X106185237Y-123865262D01*
X96165689Y-125599989D02*
X104450510Y-125599989D01*
X106185237Y-123865262D02*
X106185237Y-116109377D01*
X92982573Y-115764674D02*
X92982573Y-122416873D01*
X92982573Y-122416873D02*
X96165689Y-125599989D01*
%TO.N,/TMC_WH*%
X117500000Y-129000000D02*
X128500000Y-129000000D01*
X114000000Y-125500000D02*
X117500000Y-129000000D01*
X108966000Y-125222000D02*
X109244000Y-125500000D01*
X109244000Y-125500000D02*
X114000000Y-125500000D01*
%TO.N,/TMC_VH*%
X114250000Y-124750000D02*
X117700000Y-128200000D01*
X112050000Y-124750000D02*
X114250000Y-124750000D01*
X117700000Y-128200000D02*
X127000000Y-128200000D01*
X111252000Y-123952000D02*
X112050000Y-124750000D01*
%TO.N,/TMC_UH*%
X118000000Y-127500000D02*
X125500000Y-127500000D01*
X112459000Y-123000000D02*
X113500000Y-123000000D01*
X113500000Y-123000000D02*
X118000000Y-127500000D01*
%TO.N,/DAC2*%
X78708000Y-125000000D02*
X78740000Y-124968000D01*
X76500000Y-125000000D02*
X78708000Y-125000000D01*
%TO.N,/TMC_UH*%
X80359000Y-125000000D02*
X88300000Y-125000000D01*
X79359000Y-126000000D02*
X80359000Y-125000000D01*
X76500000Y-126000000D02*
X79359000Y-126000000D01*
%TO.N,/TMC_UL*%
X80375011Y-125999989D02*
X113499989Y-125999989D01*
X79375000Y-127000000D02*
X80375011Y-125999989D01*
X129600000Y-129900000D02*
X130000000Y-129500000D01*
X76500000Y-127000000D02*
X79375000Y-127000000D01*
X113499989Y-125999989D02*
X117400000Y-129900000D01*
X117400000Y-129900000D02*
X129600000Y-129900000D01*
%TO.N,/TMC_WL*%
X80763999Y-126500001D02*
X113000001Y-126500001D01*
X76500000Y-128000000D02*
X79264000Y-128000000D01*
X79264000Y-128000000D02*
X80763999Y-126500001D01*
%TO.N,/TMC_VL*%
X79153000Y-129000000D02*
X76500000Y-129000000D01*
X81153000Y-127000000D02*
X79153000Y-129000000D01*
X116500000Y-131000000D02*
X112500000Y-127000000D01*
X132000000Y-131000000D02*
X116500000Y-131000000D01*
X132500000Y-130500000D02*
X132000000Y-131000000D01*
X112500000Y-127000000D02*
X81153000Y-127000000D01*
%TO.N,/PRX_INT*%
X74168000Y-131064000D02*
X73914000Y-131064000D01*
X73914000Y-131064000D02*
X71882000Y-129032000D01*
X75786000Y-131064000D02*
X74168000Y-131064000D01*
X75850000Y-131000000D02*
X75786000Y-131064000D01*
X76500000Y-131000000D02*
X75850000Y-131000000D01*
%TO.N,/USB_SERIAL_TXO*%
X63500000Y-131000000D02*
X72517000Y-131000000D01*
%TO.N,/USB_SERIAL_RXI*%
X63500000Y-132000000D02*
X73453000Y-132000000D01*
%TO.N,/TMC_DIAG*%
X133400000Y-131500000D02*
X134600000Y-130300000D01*
X116000000Y-131500000D02*
X133400000Y-131500000D01*
X81621710Y-127500000D02*
X112000000Y-127500000D01*
X80224000Y-128897710D02*
X81621710Y-127500000D01*
X112000000Y-127500000D02*
X116000000Y-131500000D01*
X80224000Y-128945000D02*
X80224000Y-128897710D01*
X78740000Y-130429000D02*
X80224000Y-128945000D01*
X78740000Y-131318000D02*
X78740000Y-130429000D01*
X76500000Y-132000000D02*
X78058000Y-132000000D01*
X78058000Y-132000000D02*
X78740000Y-131318000D01*
%TO.N,/ESP32_EN*%
X79770000Y-131050000D02*
X79820000Y-131000000D01*
X79225000Y-131050000D02*
X79770000Y-131050000D01*
D91*
%TO.N,+3.3V*%
X81671315Y-128404990D02*
X90324990Y-128404990D01*
X90324990Y-128404990D02*
X90975000Y-129055000D01*
X80899000Y-129177305D02*
X81671315Y-128404990D01*
D89*
%TO.N,GND*%
X104938698Y-82438698D02*
X104500000Y-82000000D01*
X114322987Y-109568871D02*
X114322987Y-110177013D01*
X104938698Y-83374289D02*
X104938698Y-82438698D01*
X114322987Y-110177013D02*
X114000000Y-110500000D01*
X108263966Y-115248340D02*
X108643892Y-115248340D01*
X108643892Y-115248340D02*
X109569996Y-114322236D01*
X110145089Y-114322236D02*
X110828626Y-113638699D01*
X109569996Y-114322236D02*
X110145089Y-114322236D01*
X101095000Y-98095000D02*
X101000000Y-98000000D01*
X101225000Y-103500000D02*
X100000000Y-103500000D01*
X102475000Y-98095000D02*
X101095000Y-98095000D01*
D93*
X62550000Y-118000000D02*
X62550000Y-118550000D01*
D89*
X95061302Y-116625711D02*
X95061302Y-117561302D01*
X89854911Y-85677764D02*
X89171374Y-86361301D01*
X81000000Y-135950000D02*
X81550000Y-135950000D01*
X69450000Y-116725010D02*
X69175010Y-117000000D01*
X89822987Y-114322987D02*
X89500000Y-114000000D01*
X126225000Y-117500000D02*
X126200000Y-117500000D01*
X116625711Y-104938698D02*
X117061302Y-104938698D01*
X117061302Y-104938698D02*
X117500000Y-104500000D01*
X114322236Y-89854911D02*
X113638699Y-89171374D01*
X85677764Y-110145089D02*
X86361301Y-110828626D01*
X95061302Y-117561302D02*
X95500000Y-118000000D01*
X91736034Y-84751660D02*
X91356108Y-84751660D01*
X85677013Y-90431129D02*
X85677013Y-89822987D01*
X80825000Y-135775000D02*
X81000000Y-135950000D01*
D93*
X120000000Y-124000000D02*
X120450000Y-124000000D01*
D89*
X115248340Y-91356108D02*
X114322236Y-90430004D01*
X126200000Y-117500000D02*
X124900000Y-118800000D01*
X90430004Y-85677764D02*
X89854911Y-85677764D01*
X76500000Y-135000000D02*
X78225000Y-135000000D01*
X126550000Y-122800000D02*
X124025000Y-122800000D01*
X84751660Y-108263966D02*
X84751660Y-108643892D01*
X94525000Y-133850000D02*
X96800000Y-133850000D01*
X126550000Y-121200000D02*
X126550000Y-120908226D01*
D90*
X127600000Y-119300000D02*
X127600000Y-120550000D01*
D89*
X81550000Y-135950000D02*
X82000000Y-135500000D01*
D90*
X129450000Y-121600000D02*
X130100000Y-121600000D01*
D89*
X86025000Y-129055000D02*
X87055000Y-129055000D01*
X80775000Y-132500000D02*
X81000001Y-132500001D01*
X114322236Y-90430004D02*
X114322236Y-89854911D01*
X63500000Y-135000000D02*
X65000000Y-135000000D01*
X67775000Y-109725000D02*
X68000000Y-109500000D01*
X68000000Y-109500000D02*
X68500000Y-109500000D01*
D90*
X129450000Y-122000000D02*
X130500000Y-122000000D01*
D89*
X83374289Y-95061302D02*
X82938698Y-95061302D01*
X76500000Y-121000000D02*
X76500000Y-120000000D01*
X69450000Y-115100000D02*
X69450000Y-116725010D01*
X126550000Y-120908226D02*
X125989142Y-120347368D01*
X90431129Y-114322987D02*
X89822987Y-114322987D01*
X115248340Y-91736034D02*
X115248340Y-91356108D01*
X79000000Y-135775000D02*
X80825000Y-135775000D01*
D90*
X130100000Y-121600000D02*
X130500000Y-122000000D01*
D89*
X130775000Y-117500000D02*
X130775000Y-118725000D01*
D93*
X120450000Y-124000000D02*
X121000000Y-123450000D01*
D89*
X81000001Y-132500001D02*
X81400000Y-132900000D01*
D93*
X122000000Y-122950000D02*
X121182458Y-122950000D01*
D89*
X91356108Y-84751660D02*
X90430004Y-85677764D01*
X106325000Y-132943000D02*
X105418000Y-133850000D01*
D93*
X122047533Y-122997533D02*
X122000000Y-122950000D01*
D89*
X106325000Y-132080000D02*
X106325000Y-132943000D01*
D90*
X127200000Y-118900000D02*
X127600000Y-119300000D01*
D89*
X82938698Y-95061302D02*
X82500000Y-95500000D01*
X85677764Y-109569996D02*
X85677764Y-110145089D01*
X105418000Y-133850000D02*
X103200000Y-133850000D01*
X109568871Y-85677013D02*
X110177013Y-85677013D01*
X84751660Y-108643892D02*
X85677764Y-109569996D01*
X85677013Y-89822987D02*
X86000000Y-89500000D01*
X130775000Y-118725000D02*
X130500000Y-119000000D01*
X124025000Y-122800000D02*
X124000000Y-122775000D01*
X87055000Y-129055000D02*
X87500000Y-129500000D01*
X110177013Y-85677013D02*
X110500000Y-86000000D01*
D93*
X62550000Y-118550000D02*
X63500000Y-119500000D01*
D91*
X124000000Y-122775000D02*
X125934300Y-122775000D01*
D89*
X78225000Y-135000000D02*
X79000000Y-135775000D01*
%TO.N,Net-(D1-Pad3)*%
X90693006Y-113496932D02*
X91735336Y-114539262D01*
X89984217Y-113496932D02*
X90693006Y-113496932D01*
X86503675Y-109307475D02*
X86503675Y-110016390D01*
X91735336Y-114539262D02*
X91735336Y-115248051D01*
X85530841Y-107697677D02*
X85530841Y-108334641D01*
X84282873Y-107132214D02*
X84965378Y-107132214D01*
X85530841Y-108334641D02*
X86503675Y-109307475D01*
X84965378Y-107132214D02*
X85530841Y-107697677D01*
X86503675Y-110016390D02*
X89984217Y-113496932D01*
%TO.N,Net-(D3-Pad3)*%
X109307475Y-113496325D02*
X110016390Y-113496325D01*
X113496932Y-109306994D02*
X114539262Y-108264664D01*
X114539262Y-108264664D02*
X115248051Y-108264664D01*
X107697677Y-114469159D02*
X108334641Y-114469159D01*
X107132214Y-115717127D02*
X107132214Y-115034622D01*
X113496932Y-110015783D02*
X113496932Y-109306994D01*
X110016390Y-113496325D02*
X113496932Y-110015783D01*
X107132214Y-115034622D02*
X107697677Y-114469159D01*
X108334641Y-114469159D02*
X109307475Y-113496325D01*
D91*
%TO.N,Net-(D4-Pad3)*%
X116156924Y-106070450D02*
X123782185Y-106070450D01*
X126000000Y-103852635D02*
X126000000Y-96779779D01*
X123782185Y-106070450D02*
X126000000Y-103852635D01*
X124282221Y-95062000D02*
X116626000Y-95062000D01*
X126000000Y-96779779D02*
X124282221Y-95062000D01*
D89*
%TO.N,Net-(D5-Pad3)*%
X113496325Y-89983610D02*
X110015783Y-86503068D01*
X109306994Y-86503068D02*
X108264664Y-85460738D01*
X115717127Y-92867786D02*
X115034622Y-92867786D01*
X113496325Y-90692525D02*
X113496325Y-89983610D01*
X108264664Y-85460738D02*
X108264664Y-84751949D01*
X114469159Y-92302323D02*
X114469159Y-91665359D01*
X114469159Y-91665359D02*
X113496325Y-90692525D01*
X110015783Y-86503068D02*
X109306994Y-86503068D01*
X115034622Y-92867786D02*
X114469159Y-92302323D01*
D91*
%TO.N,Net-(D6-Pad3)*%
X106070450Y-77070450D02*
X102900000Y-73900000D01*
X96975760Y-73900000D02*
X95062000Y-75813760D01*
X95062000Y-75813760D02*
X95062000Y-83374000D01*
X102900000Y-73900000D02*
X96975760Y-73900000D01*
X106070450Y-83843076D02*
X106070450Y-77070450D01*
D89*
%TO.N,Net-(D7-Pad3)*%
X90692525Y-86503675D02*
X89983610Y-86503675D01*
X89983610Y-86503675D02*
X86503068Y-89984217D01*
X92867786Y-84965378D02*
X92302323Y-85530841D01*
X91665359Y-85530841D02*
X90692525Y-86503675D01*
X86503068Y-89984217D02*
X86503068Y-90693006D01*
X85460738Y-91735336D02*
X84751949Y-91735336D01*
X86503068Y-90693006D02*
X85460738Y-91735336D01*
X92867786Y-84282873D02*
X92867786Y-84965378D01*
X92302323Y-85530841D02*
X91665359Y-85530841D01*
D90*
%TO.N,/USB_D-*%
X92500000Y-134487501D02*
X92187490Y-134800011D01*
X98169215Y-132249930D02*
X97964271Y-132044986D01*
X100250000Y-133850000D02*
X100250000Y-133298957D01*
X97964271Y-132044986D02*
X97409000Y-131489715D01*
X86629989Y-134800011D02*
X86025000Y-135405000D01*
X92500000Y-132036000D02*
X92500000Y-134487501D01*
X100374025Y-133174932D02*
X100374025Y-132574930D01*
X99250000Y-133850000D02*
X99250000Y-133330715D01*
X97409000Y-131489701D02*
X97299299Y-131380000D01*
X100250000Y-133298957D02*
X100374025Y-133174932D01*
X93156000Y-131380000D02*
X92500000Y-132036000D01*
X100049025Y-132249930D02*
X98169215Y-132249930D01*
X92187490Y-134800011D02*
X86629989Y-134800011D01*
X99250000Y-133375010D02*
X99250000Y-133850000D01*
X100374025Y-132574930D02*
X100049025Y-132249930D01*
X97299299Y-131380000D02*
X93156000Y-131380000D01*
X99250000Y-133330715D02*
X97964271Y-132044986D01*
X97409000Y-131489715D02*
X97409000Y-131489701D01*
%TO.N,/USB_D+*%
X97407563Y-131064000D02*
X92964000Y-131064000D01*
X100750000Y-133787133D02*
X100750000Y-132950000D01*
X100173293Y-131949919D02*
X98293482Y-131949919D01*
X100750000Y-132950000D02*
X101100000Y-132600000D01*
X98293482Y-131949919D02*
X97407563Y-131064000D01*
X92964000Y-131064000D02*
X92199989Y-131828011D01*
X89994664Y-133609990D02*
X89469654Y-134135000D01*
X101100000Y-132600000D02*
X100823374Y-132600000D01*
X92199989Y-131828011D02*
X92199989Y-133300011D01*
X92199989Y-133300011D02*
X91890010Y-133609990D01*
X91890010Y-133609990D02*
X89994664Y-133609990D01*
X89469654Y-134135000D02*
X86025000Y-134135000D01*
X100823374Y-132600000D02*
X100173293Y-131949919D01*
%TO.N,/USB_CC2*%
X102299999Y-132074999D02*
X102738974Y-132074999D01*
X101750000Y-133850000D02*
X101750000Y-132624998D01*
X102738974Y-132074999D02*
X102748206Y-132084231D01*
X101750000Y-132624998D02*
X102299999Y-132074999D01*
X104670769Y-132084231D02*
X104675000Y-132080000D01*
X102748206Y-132084231D02*
X104670769Y-132084231D01*
%TO.N,Net-(C15-Pad2)*%
X127275000Y-126000000D02*
X127600000Y-125675000D01*
X127600000Y-125675000D02*
X127600000Y-123450000D01*
D89*
%TO.N,/STRAIN_E+*%
X79500000Y-77500000D02*
X81000000Y-79000000D01*
X75750000Y-77562500D02*
X76037500Y-77275000D01*
X77675000Y-77450000D02*
X79500000Y-77450000D01*
X77500000Y-77275000D02*
X77675000Y-77450000D01*
X76000000Y-84000000D02*
X79500000Y-80500000D01*
X76037500Y-77275000D02*
X77500000Y-77275000D01*
X79500000Y-80500000D02*
X79500000Y-77450000D01*
X79500000Y-77450000D02*
X79500000Y-77500000D01*
D90*
%TO.N,Net-(C21-Pad1)*%
X128000000Y-120550000D02*
X128000000Y-117725000D01*
X128000000Y-117725000D02*
X127775000Y-117500000D01*
D89*
%TO.N,Net-(C22-Pad2)*%
X71820000Y-72095000D02*
X72225000Y-72500000D01*
X69975000Y-72095000D02*
X71820000Y-72095000D01*
%TO.N,Net-(C23-Pad2)*%
X69975000Y-70825000D02*
X71950000Y-70825000D01*
X73950000Y-70275000D02*
X74175000Y-70500000D01*
X71950000Y-70825000D02*
X72500000Y-70275000D01*
X72500000Y-70275000D02*
X73950000Y-70275000D01*
%TO.N,Net-(C23-Pad1)*%
X69975000Y-69555000D02*
X71670000Y-69555000D01*
X73900000Y-68725000D02*
X74175000Y-69000000D01*
X71670000Y-69555000D02*
X72500000Y-68725000D01*
X72500000Y-68725000D02*
X73900000Y-68725000D01*
%TO.N,Net-(J1-Pad3)*%
X126100000Y-119200000D02*
X126100000Y-119450000D01*
X126100000Y-119450000D02*
X127200000Y-120550000D01*
D91*
%TO.N,Net-(J1-Pad2)*%
X124300000Y-119900000D02*
X125774990Y-121374990D01*
X124300000Y-119900000D02*
X121800000Y-119900000D01*
D89*
X126000000Y-121600000D02*
X124300000Y-119900000D01*
X126550000Y-121600000D02*
X126000000Y-121600000D01*
D91*
%TO.N,Net-(J1-Pad1)*%
X126900000Y-124100000D02*
X122399999Y-124100001D01*
D89*
X127200000Y-123450000D02*
X127200000Y-123800000D01*
D91*
X122399999Y-124100001D02*
X122000000Y-124500000D01*
D89*
X127200000Y-123800000D02*
X126900000Y-124100000D01*
D91*
X126900000Y-124100000D02*
X127149990Y-123850010D01*
D89*
%TO.N,Net-(L1-Pad1)*%
X74437500Y-80000000D02*
X74000000Y-79562500D01*
X69975000Y-75905000D02*
X70320010Y-76250010D01*
X74000000Y-79562500D02*
X74000000Y-75675000D01*
X70320010Y-76250010D02*
X73074990Y-76250010D01*
X73074990Y-76250010D02*
X73825000Y-75500000D01*
X73825000Y-75500000D02*
X73887500Y-75437500D01*
X74000000Y-75675000D02*
X73825000Y-75500000D01*
X73887500Y-75437500D02*
X75750000Y-75437500D01*
%TO.N,Net-(Q1-Pad1)*%
X70687500Y-77175000D02*
X72562500Y-79050000D01*
X69975000Y-77175000D02*
X70687500Y-77175000D01*
%TO.N,Net-(R3-Pad2)*%
X71540000Y-74635000D02*
X72175000Y-74000000D01*
X72175000Y-74000000D02*
X72175000Y-75500000D01*
X69975000Y-74635000D02*
X71540000Y-74635000D01*
%TO.N,/STRAIN_S-*%
X81000000Y-75275000D02*
X81000000Y-76000000D01*
X75825000Y-70500000D02*
X76225000Y-70500000D01*
X76225000Y-70500000D02*
X81000000Y-75275000D01*
%TO.N,/STRAIN_S+*%
X82500000Y-74934315D02*
X82500000Y-77500000D01*
X76565685Y-69000000D02*
X82500000Y-74934315D01*
X75825000Y-69000000D02*
X76565685Y-69000000D01*
%TO.N,/RTS*%
X80079998Y-138500000D02*
X80450000Y-138500000D01*
X86906068Y-133559990D02*
X85023952Y-133559990D01*
X81499003Y-138500000D02*
X80450000Y-138500000D01*
X85023952Y-133559990D02*
X83000000Y-135583942D01*
X90975000Y-131595000D02*
X88871058Y-131595000D01*
X79429998Y-137850000D02*
X80079998Y-138500000D01*
X83000000Y-136999003D02*
X81499003Y-138500000D01*
X88871058Y-131595000D02*
X86906068Y-133559990D01*
X78550000Y-137850000D02*
X79429998Y-137850000D01*
X83000000Y-135583942D02*
X83000000Y-136999003D01*
%TO.N,/DTR*%
X90975000Y-132865000D02*
X89135000Y-132865000D01*
X88600000Y-136000000D02*
X88600000Y-136946058D01*
X86396058Y-139150000D02*
X80450000Y-139150000D01*
X79570002Y-139150000D02*
X78920002Y-138500000D01*
X88600000Y-136946058D02*
X86396058Y-139150000D01*
X80450000Y-139150000D02*
X79570002Y-139150000D01*
X89135000Y-132865000D02*
X88700000Y-133300000D01*
X78920002Y-138500000D02*
X78550000Y-138500000D01*
%TO.N,/ESP32_EN*%
X79974999Y-137374999D02*
X80450000Y-137850000D01*
X75474999Y-133429999D02*
X75474999Y-135509299D01*
X78725000Y-133000000D02*
X79225000Y-132500000D01*
X79225000Y-132500000D02*
X79225000Y-131050000D01*
X81150042Y-137850000D02*
X81500042Y-137500000D01*
X80450000Y-137850000D02*
X81150042Y-137850000D01*
X76500000Y-133000000D02*
X75904998Y-133000000D01*
X77340699Y-137374999D02*
X79974999Y-137374999D01*
X75904998Y-133000000D02*
X75474999Y-133429999D01*
X76500000Y-133000000D02*
X78725000Y-133000000D01*
X75474999Y-135509299D02*
X77340699Y-137374999D01*
%TO.N,/ESP32_BOOT*%
X65000000Y-134000000D02*
X73400000Y-134000000D01*
X77500000Y-138100000D02*
X77500000Y-138850000D01*
X77500000Y-138850000D02*
X77800000Y-139150000D01*
X61500000Y-122804998D02*
X61500000Y-134000000D01*
X62304998Y-122000000D02*
X61500000Y-122804998D01*
X77800000Y-139150000D02*
X78550000Y-139150000D01*
X73400000Y-134000000D02*
X77500000Y-138100000D01*
X63500000Y-122000000D02*
X62304998Y-122000000D01*
%TO.N,/USB_SERIAL_RXI*%
X85620000Y-132000000D02*
X83000000Y-132000000D01*
X86025000Y-131595000D02*
X85620000Y-132000000D01*
%TO.N,/USB_SERIAL_TXO*%
X85350000Y-131000000D02*
X83000000Y-131000000D01*
X86025000Y-130325000D02*
X85350000Y-131000000D01*
%TO.N,/LED_DATA_5V*%
X83374000Y-104938000D02*
X82562006Y-104938000D01*
X74000000Y-110000000D02*
X77500006Y-110000000D01*
X70500000Y-111850000D02*
X70500000Y-110000000D01*
X77500006Y-110000000D02*
X80500000Y-107000006D01*
X69450000Y-112900000D02*
X70500000Y-111850000D01*
X82562006Y-104938000D02*
X80500000Y-107000006D01*
%TO.N,/LCD_CMD*%
X63500000Y-133000000D02*
X65500000Y-133000000D01*
%TO.N,/LCD_CS*%
X63500000Y-130000000D02*
X65500000Y-130000000D01*
%TO.N,/LCD_BACKLIGHT*%
X64500000Y-128000000D02*
X65500000Y-129000000D01*
X63500000Y-128000000D02*
X64500000Y-128000000D01*
%TO.N,/LCD_DATA*%
X64500000Y-126000000D02*
X65500000Y-127000000D01*
X63500000Y-126000000D02*
X64500000Y-126000000D01*
%TO.N,/LCD_SCK*%
X63500000Y-125000000D02*
X65500000Y-125000000D01*
%TO.N,/LCD_RST*%
X63500000Y-123000000D02*
X65500000Y-123000000D01*
D91*
%TO.N,/MAG_DO*%
X86500000Y-99500000D02*
X88500000Y-97500000D01*
X70074990Y-104425010D02*
X75000000Y-99500000D01*
X71399979Y-116899979D02*
X71399979Y-117177812D01*
X71399979Y-117177812D02*
X72500000Y-118277833D01*
X72500000Y-118277833D02*
X72500000Y-119500000D01*
X75000000Y-99500000D02*
X86500000Y-99500000D01*
X94685000Y-97500000D02*
X96550000Y-99365000D01*
X69825000Y-108000000D02*
X70074990Y-107750010D01*
X71399979Y-109574979D02*
X71399979Y-116899979D01*
X88500000Y-97500000D02*
X94685000Y-97500000D01*
X69825000Y-108000000D02*
X71399979Y-109574979D01*
X96550000Y-99365000D02*
X97525000Y-99365000D01*
X70074990Y-107750010D02*
X70074990Y-104425010D01*
%TO.N,/MAG_CLK*%
X93770000Y-102500000D02*
X95635000Y-100635000D01*
X72399979Y-109100021D02*
X72399979Y-116177812D01*
X88500000Y-102500000D02*
X93770000Y-102500000D01*
X70825000Y-104661083D02*
X74986083Y-100500000D01*
X70825000Y-106500000D02*
X70825000Y-104661083D01*
X86500000Y-100500000D02*
X88500000Y-102500000D01*
X70825000Y-106500000D02*
X70825000Y-107525042D01*
X95635000Y-100635000D02*
X97525000Y-100635000D01*
X73500000Y-117277833D02*
X73111083Y-116888917D01*
X72399979Y-116177812D02*
X73111083Y-116888917D01*
X73500000Y-119500000D02*
X73500000Y-117277833D01*
X74986083Y-100500000D02*
X86500000Y-100500000D01*
X70825000Y-107525042D02*
X72399979Y-109100021D01*
%TO.N,/MAG_CSN*%
X76500000Y-123000000D02*
X75769998Y-123000000D01*
X74916084Y-117583916D02*
X73332168Y-116000000D01*
X86449989Y-101449989D02*
X88500000Y-103500000D01*
D89*
X73000000Y-116000000D02*
X73221168Y-116000000D01*
D91*
X75000000Y-118000000D02*
X75000000Y-117667832D01*
X75000000Y-122230002D02*
X75000000Y-118000000D01*
X75769998Y-123000000D02*
X75000000Y-122230002D01*
X73187500Y-103187500D02*
X74925011Y-101449989D01*
X72949990Y-103425010D02*
X73187500Y-103187500D01*
D89*
X75000000Y-117778832D02*
X75000000Y-118000000D01*
D91*
X74925011Y-101449989D02*
X86449989Y-101449989D01*
X75000000Y-117667832D02*
X74916084Y-117583916D01*
D89*
X73221168Y-116000000D02*
X75000000Y-117778832D01*
D91*
X73000000Y-116000000D02*
X72949990Y-115949990D01*
X73000000Y-103375000D02*
X73187500Y-103187500D01*
X95930000Y-103500000D02*
X97525000Y-101905000D01*
X72949990Y-115949990D02*
X72949990Y-103425010D01*
X88500000Y-103500000D02*
X95930000Y-103500000D01*
X73332168Y-116000000D02*
X73050010Y-116000000D01*
D89*
%TO.N,/STRAIN_DO*%
X70200002Y-114500000D02*
X70500000Y-114799998D01*
X63500000Y-79500000D02*
X64500000Y-80500000D01*
X64500000Y-80500000D02*
X64500000Y-95000000D01*
X70500000Y-117304998D02*
X71500000Y-118304998D01*
X66500000Y-109000000D02*
X66500000Y-114025000D01*
X70500000Y-114799998D02*
X70500000Y-117304998D01*
X65399999Y-107100001D02*
X65000000Y-107500000D01*
X67124989Y-105375011D02*
X65399999Y-107100001D01*
X64500000Y-95000000D02*
X67124989Y-97624989D01*
X63500000Y-73915000D02*
X63500000Y-79500000D01*
X71500000Y-118304998D02*
X71500000Y-119500000D01*
X65025000Y-73365000D02*
X64050000Y-73365000D01*
X66975000Y-114500000D02*
X70200002Y-114500000D01*
X67124989Y-97624989D02*
X67124989Y-105375011D01*
X67000000Y-108500000D02*
X66500000Y-109000000D01*
X64050000Y-73365000D02*
X63500000Y-73915000D01*
X66500000Y-114025000D02*
X66975000Y-114500000D01*
%TO.N,/STRAIN_SCK*%
X65025000Y-72095000D02*
X64050000Y-72095000D01*
X64050000Y-72095000D02*
X63000000Y-73145000D01*
X60500000Y-118000000D02*
X63500000Y-121000000D01*
X63000000Y-80500000D02*
X62800000Y-80700000D01*
X62800000Y-106124990D02*
X63175010Y-106500000D01*
X62800000Y-80700000D02*
X62800000Y-106124990D01*
X63000000Y-73145000D02*
X63000000Y-80500000D01*
X60500000Y-106500000D02*
X60500000Y-118000000D01*
D90*
%TO.N,/TMC_UH*%
X128000000Y-127000000D02*
X127500000Y-127500000D01*
X127500000Y-127500000D02*
X125500000Y-127500000D01*
X128000000Y-123450000D02*
X128000000Y-127000000D01*
X128000000Y-132675000D02*
X128000000Y-132500000D01*
X129000000Y-133675000D02*
X128000000Y-132675000D01*
%TO.N,/TMC_VH*%
X128400000Y-123450000D02*
X128400000Y-127600000D01*
X129500000Y-132675000D02*
X130500000Y-133675000D01*
D89*
X76500000Y-124000000D02*
X86700000Y-124000000D01*
D90*
X129500000Y-132500000D02*
X129500000Y-132675000D01*
X127000000Y-128200000D02*
X127800000Y-128200000D01*
X128400000Y-127600000D02*
X127800000Y-128200000D01*
D89*
X86700000Y-124000000D02*
X86800000Y-124100000D01*
%TO.N,/TMC_WH*%
X76500000Y-122000000D02*
X83800000Y-122000000D01*
D90*
X128800000Y-128700000D02*
X128800000Y-123450000D01*
X131000000Y-132500000D02*
X131000000Y-132675000D01*
X131000000Y-132675000D02*
X132000000Y-133675000D01*
D89*
X83800000Y-122000000D02*
X84700000Y-122900000D01*
D90*
X128500000Y-129000000D02*
X128800000Y-128700000D01*
%TO.N,/TMC_UL*%
X132500000Y-132500000D02*
X132500000Y-132675000D01*
X130000000Y-129500000D02*
X130700000Y-128800000D01*
X132500000Y-132675000D02*
X133500000Y-133675000D01*
X130700000Y-124050000D02*
X130700000Y-128800000D01*
X129450000Y-122800000D02*
X130700000Y-124050000D01*
D89*
%TO.N,/TMC_WL*%
X131000000Y-130500000D02*
X131500000Y-130000000D01*
X113000001Y-126500001D02*
X117000000Y-130500000D01*
D90*
X135000000Y-133675000D02*
X134000000Y-132675000D01*
X129450000Y-122400000D02*
X129875000Y-122400000D01*
X131900000Y-129600000D02*
X131500000Y-130000000D01*
X131900000Y-124425000D02*
X131900000Y-129600000D01*
X129875000Y-122400000D02*
X131900000Y-124425000D01*
X134000000Y-132675000D02*
X134000000Y-132500000D01*
D89*
X117000000Y-130500000D02*
X131000000Y-130500000D01*
D90*
%TO.N,/TMC_VL*%
X132800000Y-123304512D02*
X132800000Y-130200000D01*
X130695488Y-121200000D02*
X132800000Y-123304512D01*
X129450000Y-121200000D02*
X130695488Y-121200000D01*
X135500000Y-132675000D02*
X135500000Y-132500000D01*
X132500000Y-130500000D02*
X132800000Y-130200000D01*
X136500000Y-133675000D02*
X135500000Y-132675000D01*
%TO.N,/TMC_DIAG*%
X128450010Y-120499990D02*
X128450010Y-117163578D01*
X131675835Y-116075499D02*
X134600000Y-118999664D01*
X128400000Y-120550000D02*
X128450010Y-120499990D01*
X134600000Y-118999664D02*
X134600000Y-130300000D01*
X129538089Y-116075499D02*
X131675835Y-116075499D01*
X128450010Y-117163578D02*
X129538089Y-116075499D01*
D89*
%TO.N,/LED_DATA_3V3*%
X68500000Y-119500000D02*
X68500000Y-115100000D01*
%TO.N,GNDA*%
X65025000Y-75905000D02*
X66595000Y-75905000D01*
X65025000Y-69555000D02*
X66945000Y-69555000D01*
X65025000Y-70825000D02*
X66825000Y-70825000D01*
X66825000Y-70825000D02*
X67000000Y-71000000D01*
X66595000Y-75905000D02*
X67000000Y-75500000D01*
X66945000Y-69555000D02*
X67000000Y-69500000D01*
%TO.N,+5V*%
X106777719Y-116701859D02*
X109339909Y-116701859D01*
X106185237Y-116109377D02*
X106777719Y-116701859D01*
X109339909Y-116701859D02*
X110430004Y-115611764D01*
X116338021Y-109704121D02*
X116338021Y-107590774D01*
X115611013Y-110431129D02*
X116338021Y-109704121D01*
X110430004Y-115611764D02*
X115610639Y-110431129D01*
X116338021Y-107590774D02*
X115764674Y-107017427D01*
X115610639Y-110431129D02*
X115611013Y-110431129D01*
X67500000Y-112850000D02*
X67550000Y-112900000D01*
D93*
X114700000Y-133200000D02*
X111000000Y-129500000D01*
D89*
X89568871Y-115611013D02*
X85957858Y-112000000D01*
X93222281Y-83298141D02*
X90660091Y-83298141D01*
D91*
X124814763Y-93814763D02*
X116109377Y-93814763D01*
D89*
X85957858Y-112000000D02*
X74500008Y-112000000D01*
X125725000Y-126000000D02*
X121000000Y-126000000D01*
X67500000Y-111275000D02*
X67775000Y-111275000D01*
X121000000Y-126000000D02*
X118375000Y-123375000D01*
X116109377Y-93814763D02*
X116701859Y-93222281D01*
D93*
X110899999Y-129399999D02*
X111000000Y-129500000D01*
D89*
X116701859Y-93222281D02*
X116701859Y-90660091D01*
D91*
X102400000Y-133850000D02*
X102400000Y-132900000D01*
D93*
X118650000Y-133200000D02*
X118000000Y-132550000D01*
D91*
X107017427Y-76717427D02*
X103400000Y-73100000D01*
D89*
X107590774Y-83661979D02*
X107017427Y-84235326D01*
D93*
X97415668Y-132760666D02*
X97207866Y-132760666D01*
D89*
X84388987Y-89568871D02*
X83661979Y-90295879D01*
X89569996Y-84388236D02*
X84389361Y-89568871D01*
X84389361Y-89568871D02*
X84388987Y-89568871D01*
X83298141Y-106777719D02*
X83298141Y-109339909D01*
D91*
X115764674Y-107017427D02*
X123982573Y-107017427D01*
D89*
X109924140Y-118424140D02*
X114500000Y-123000000D01*
D93*
X105066322Y-129399999D02*
X110899999Y-129399999D01*
D89*
X110431129Y-84389361D02*
X110431129Y-84388987D01*
X90660091Y-83298141D02*
X89569996Y-84388236D01*
X67775000Y-111275000D02*
X68500000Y-112000000D01*
D91*
X96700000Y-73100000D02*
X93814763Y-75985237D01*
D89*
X106185237Y-116109377D02*
X108500000Y-118424140D01*
X110431129Y-84388987D02*
X109704121Y-83661979D01*
D91*
X123982573Y-107017427D02*
X127000000Y-104000000D01*
D93*
X97600000Y-133850000D02*
X97600000Y-132944998D01*
D91*
X127000000Y-96000000D02*
X124814763Y-93814763D01*
X127000000Y-104000000D02*
X127000000Y-96000000D01*
D93*
X115150000Y-133200000D02*
X114700000Y-133200000D01*
X114300000Y-133200000D02*
X115150000Y-133200000D01*
D89*
X114500000Y-123000000D02*
X117500000Y-123000000D01*
X84388236Y-110430004D02*
X89568871Y-115610639D01*
X115611764Y-89569996D02*
X110431129Y-84389361D01*
X118375000Y-123375000D02*
X118375000Y-122125000D01*
X83661979Y-90295879D02*
X83661979Y-92409226D01*
X83661979Y-92409226D02*
X84235326Y-92982573D01*
D91*
X107017427Y-84235326D02*
X107017427Y-76717427D01*
D93*
X120350000Y-133200000D02*
X118650000Y-133200000D01*
D91*
X102400000Y-132900000D02*
X102600000Y-132700000D01*
D89*
X83298141Y-109339909D02*
X84388236Y-110430004D01*
X89568871Y-115611013D02*
X90295879Y-116338021D01*
D93*
X113500000Y-134000000D02*
X114300000Y-133200000D01*
D89*
X90295879Y-116338021D02*
X92409226Y-116338021D01*
D93*
X118949990Y-121550000D02*
X121000000Y-121550000D01*
X113500000Y-134500000D02*
X113500000Y-134000000D01*
D89*
X67500000Y-111275000D02*
X67500000Y-112850000D01*
D93*
X103007090Y-131459231D02*
X105066322Y-129399999D01*
X116000000Y-124499990D02*
X118949990Y-121550000D01*
D89*
X93814763Y-83890623D02*
X93222281Y-83298141D01*
D93*
X117350000Y-133200000D02*
X118000000Y-132550000D01*
D89*
X108500000Y-118424140D02*
X109924140Y-118424140D01*
D93*
X97600000Y-132944998D02*
X97415668Y-132760666D01*
D89*
X116701859Y-90660091D02*
X115611764Y-89569996D01*
D93*
X115150000Y-133200000D02*
X117350000Y-133200000D01*
D89*
X92409226Y-116338021D02*
X92982573Y-115764674D01*
D91*
X103400000Y-73100000D02*
X96700000Y-73100000D01*
D89*
X89568871Y-115610639D02*
X89568871Y-115611013D01*
D91*
X93814763Y-75985237D02*
X93814763Y-83890623D01*
D89*
X109704121Y-83661979D02*
X107590774Y-83661979D01*
X83890623Y-106185237D02*
X83298141Y-106777719D01*
%TO.N,+3.3V*%
X102475000Y-103200000D02*
X102775000Y-103500000D01*
X102475000Y-101905000D02*
X102475000Y-103200000D01*
X71837500Y-80225000D02*
X72562500Y-80950000D01*
D91*
X80825000Y-134225000D02*
X81000000Y-134050000D01*
X66000000Y-110500000D02*
X66000000Y-109000000D01*
D90*
X128800000Y-117925000D02*
X129225000Y-117500000D01*
D91*
X104000000Y-100085000D02*
X104000000Y-97937876D01*
D89*
X70325000Y-80050000D02*
X70500000Y-80225000D01*
D91*
X118000000Y-138450000D02*
X119700000Y-138450000D01*
X71400000Y-121600000D02*
X73400000Y-121600000D01*
X114000000Y-135500000D02*
X115300000Y-135500000D01*
X82060004Y-134050000D02*
X83245004Y-132865000D01*
X138250000Y-135750000D02*
X136000000Y-138000000D01*
X67600000Y-89100000D02*
X67600000Y-105900000D01*
X118000000Y-138200000D02*
X118000000Y-138450000D01*
X66000000Y-109000000D02*
X66000000Y-107500000D01*
X119700000Y-138450000D02*
X120350000Y-137800000D01*
X92710000Y-129055000D02*
X93040000Y-128725000D01*
X83245004Y-132865000D02*
X86025000Y-132865000D01*
X79000000Y-134225000D02*
X80825000Y-134225000D01*
X120350000Y-137800000D02*
X120550000Y-138000000D01*
X88394711Y-96500000D02*
X86500000Y-98394711D01*
X64450000Y-118000000D02*
X64450000Y-112550000D01*
X75105289Y-98394711D02*
X67095999Y-106404001D01*
X93040000Y-128725000D02*
X97275000Y-128725000D01*
X67600000Y-105900000D02*
X66000000Y-107500000D01*
X102500000Y-128500000D02*
X107500000Y-128500000D01*
X74400000Y-122600000D02*
X74400000Y-128600000D01*
X97275000Y-128725000D02*
X97500000Y-128500000D01*
D89*
X69975000Y-79700000D02*
X70500000Y-80225000D01*
X64500000Y-65500000D02*
X63500000Y-66500000D01*
D91*
X69175000Y-106500000D02*
X67000000Y-106500000D01*
X131500000Y-116500000D02*
X130225000Y-116500000D01*
X67000000Y-106500000D02*
X66000000Y-107500000D01*
X66000000Y-87000000D02*
X66000000Y-87500000D01*
X107500000Y-130500000D02*
X108850000Y-131850000D01*
X120550000Y-138000000D02*
X124999998Y-138000000D01*
X102475000Y-100635000D02*
X103450000Y-100635000D01*
X66000000Y-87500000D02*
X67600000Y-89100000D01*
X68500000Y-80050000D02*
X66950000Y-80050000D01*
X102562124Y-96500000D02*
X88394711Y-96500000D01*
X78775000Y-134000000D02*
X79000000Y-134225000D01*
D89*
X64825000Y-110500000D02*
X66000000Y-110500000D01*
D91*
X114000000Y-135500000D02*
X115150000Y-135500000D01*
X108850000Y-131850000D02*
X108850000Y-135500000D01*
X115300000Y-135500000D02*
X118000000Y-138200000D01*
X108850000Y-135500000D02*
X114000000Y-135500000D01*
X68175000Y-108000000D02*
X68175000Y-107675000D01*
D89*
X63825000Y-109000000D02*
X66000000Y-109000000D01*
D91*
X103450000Y-100635000D02*
X104000000Y-100085000D01*
X133600000Y-128750000D02*
X133600000Y-118600000D01*
X86437124Y-132865000D02*
X90247124Y-129055000D01*
D90*
X128800000Y-120550000D02*
X128800000Y-117925000D01*
D91*
X81000000Y-134050000D02*
X82060004Y-134050000D01*
X90247124Y-129055000D02*
X90975000Y-129055000D01*
X138250000Y-133500000D02*
X138250000Y-135750000D01*
D89*
X100775000Y-64500000D02*
X99775000Y-65500000D01*
D91*
X66000000Y-111000000D02*
X66000000Y-110500000D01*
X67095999Y-106404001D02*
X67000000Y-106500000D01*
X65500000Y-118000000D02*
X64450000Y-118000000D01*
D89*
X62000000Y-72500000D02*
X62000000Y-86500000D01*
X68500000Y-80050000D02*
X70325000Y-80050000D01*
X63500000Y-66500000D02*
X63500000Y-71000000D01*
X100775000Y-64500000D02*
X102000000Y-64500000D01*
X65755001Y-79175001D02*
X67625001Y-79175001D01*
D91*
X64450000Y-112550000D02*
X66000000Y-111000000D01*
D89*
X67625001Y-79175001D02*
X68500000Y-80050000D01*
X69975000Y-78445000D02*
X69975000Y-79700000D01*
D91*
X86500000Y-98394711D02*
X75105289Y-98394711D01*
X66000000Y-87000000D02*
X66175012Y-87000000D01*
X66000000Y-81000000D02*
X66000000Y-87000000D01*
X130225000Y-116500000D02*
X129225000Y-117500000D01*
X73400000Y-121600000D02*
X74400000Y-122600000D01*
D89*
X70500000Y-80225000D02*
X71837500Y-80225000D01*
D91*
X133600000Y-118600000D02*
X131500000Y-116500000D01*
X68175000Y-107675000D02*
X67000000Y-106500000D01*
X115150000Y-135500000D02*
X115300000Y-135500000D01*
X90975000Y-129055000D02*
X92710000Y-129055000D01*
X66950000Y-80050000D02*
X66000000Y-81000000D01*
X104000000Y-97937876D02*
X102562124Y-96500000D01*
X86025000Y-132865000D02*
X86437124Y-132865000D01*
D89*
X65025000Y-78445000D02*
X65755001Y-79175001D01*
X65025000Y-77175000D02*
X65025000Y-78445000D01*
D91*
X76500000Y-134000000D02*
X78775000Y-134000000D01*
D89*
X63500000Y-71000000D02*
X62000000Y-72500000D01*
D91*
X136000000Y-138000000D02*
X124999998Y-138000000D01*
X102475000Y-100635000D02*
X102475000Y-101905000D01*
D89*
%TO.N,/SDA*%
X66500000Y-116675010D02*
X65324990Y-115500000D01*
X66500000Y-119500000D02*
X66500000Y-116675010D01*
X62175000Y-109000000D02*
X62175000Y-114675000D01*
X62175000Y-114675000D02*
X63000000Y-115500000D01*
%TO.N,/SCL*%
X65500000Y-113500000D02*
X66000000Y-114000000D01*
X103100001Y-63600001D02*
X94100001Y-63600001D01*
X103500000Y-64000000D02*
X103100001Y-63600001D01*
X93500000Y-63000000D02*
X89000000Y-63000000D01*
X67500000Y-117000000D02*
X67500000Y-119500000D01*
X63175000Y-113175000D02*
X63500000Y-113500000D01*
X63175000Y-110500000D02*
X63175000Y-113175000D01*
X66000000Y-114000000D02*
X66000000Y-115500000D01*
X66000000Y-115500000D02*
X67500000Y-117000000D01*
X94100001Y-63600001D02*
X93500000Y-63000000D01*
%TD*%
%TA.AperFunction,Conductor*%
%TO.N,GND*%
G36*
X140287621Y-114520002D02*
G01*
X140334114Y-114573658D01*
X140345500Y-114626000D01*
X140345500Y-136562523D01*
X140343079Y-136587102D01*
X140340514Y-136599999D01*
X140342934Y-136612168D01*
X140342934Y-136624568D01*
X140343749Y-136635623D01*
X140327768Y-136960939D01*
X140326557Y-136973240D01*
X140277494Y-137303999D01*
X140274440Y-137324585D01*
X140272031Y-137336700D01*
X140185725Y-137681253D01*
X140182136Y-137693085D01*
X140062476Y-138027512D01*
X140057744Y-138038936D01*
X140002537Y-138155661D01*
X139921740Y-138326494D01*
X139905882Y-138360022D01*
X139900055Y-138370923D01*
X139859063Y-138439315D01*
X139717450Y-138675582D01*
X139710580Y-138685863D01*
X139498998Y-138971148D01*
X139491154Y-138980706D01*
X139252626Y-139243881D01*
X139243882Y-139252625D01*
X138980706Y-139491153D01*
X138971148Y-139498997D01*
X138685864Y-139710579D01*
X138675583Y-139717449D01*
X138370928Y-139900053D01*
X138360023Y-139905882D01*
X138038937Y-140057744D01*
X138027513Y-140062476D01*
X137693085Y-140182136D01*
X137681254Y-140185725D01*
X137336701Y-140272031D01*
X137324595Y-140274438D01*
X136973241Y-140326557D01*
X136960947Y-140327767D01*
X136635622Y-140343750D01*
X136624568Y-140342934D01*
X136612172Y-140342934D01*
X136600000Y-140340513D01*
X136587103Y-140343078D01*
X136562524Y-140345499D01*
X136528484Y-140345499D01*
X113125999Y-140345500D01*
X113057879Y-140325498D01*
X113011386Y-140271842D01*
X113000000Y-140219500D01*
X113000000Y-138568828D01*
X113896001Y-138568828D01*
X113897209Y-138581088D01*
X113908315Y-138636931D01*
X113917633Y-138659427D01*
X113959983Y-138722808D01*
X113977192Y-138740017D01*
X114040575Y-138782368D01*
X114063066Y-138791684D01*
X114118915Y-138802793D01*
X114131170Y-138804000D01*
X114877885Y-138804000D01*
X114893124Y-138799525D01*
X114894329Y-138798135D01*
X114896000Y-138790452D01*
X114896000Y-138785884D01*
X115404000Y-138785884D01*
X115408475Y-138801123D01*
X115409865Y-138802328D01*
X115417548Y-138803999D01*
X116168828Y-138803999D01*
X116181088Y-138802791D01*
X116236931Y-138791685D01*
X116259427Y-138782367D01*
X116322808Y-138740017D01*
X116340017Y-138722808D01*
X116382368Y-138659425D01*
X116391684Y-138636934D01*
X116402793Y-138581085D01*
X116404000Y-138568830D01*
X116404000Y-138072115D01*
X116399525Y-138056876D01*
X116398135Y-138055671D01*
X116390452Y-138054000D01*
X115422115Y-138054000D01*
X115406876Y-138058475D01*
X115405671Y-138059865D01*
X115404000Y-138067548D01*
X115404000Y-138785884D01*
X114896000Y-138785884D01*
X114896000Y-138072115D01*
X114891525Y-138056876D01*
X114890135Y-138055671D01*
X114882452Y-138054000D01*
X113914116Y-138054000D01*
X113898877Y-138058475D01*
X113897672Y-138059865D01*
X113896001Y-138067548D01*
X113896001Y-138568828D01*
X113000000Y-138568828D01*
X113000000Y-137527885D01*
X113896000Y-137527885D01*
X113900475Y-137543124D01*
X113901865Y-137544329D01*
X113909548Y-137546000D01*
X114877885Y-137546000D01*
X114893124Y-137541525D01*
X114894329Y-137540135D01*
X114896000Y-137532452D01*
X114896000Y-136814116D01*
X114891525Y-136798877D01*
X114890135Y-136797672D01*
X114882452Y-136796001D01*
X114131172Y-136796001D01*
X114118912Y-136797209D01*
X114063069Y-136808315D01*
X114040573Y-136817633D01*
X113977192Y-136859983D01*
X113959983Y-136877192D01*
X113917632Y-136940575D01*
X113908316Y-136963066D01*
X113897207Y-137018915D01*
X113896000Y-137031170D01*
X113896000Y-137527885D01*
X113000000Y-137527885D01*
X113000000Y-136080500D01*
X113020002Y-136012379D01*
X113073658Y-135965886D01*
X113126000Y-135954500D01*
X113769501Y-135954500D01*
X113837622Y-135974502D01*
X113884115Y-136028158D01*
X113895501Y-136080500D01*
X113895501Y-136275066D01*
X113910266Y-136349301D01*
X113917161Y-136359621D01*
X113917162Y-136359622D01*
X113936568Y-136388664D01*
X113966516Y-136433484D01*
X114050699Y-136489734D01*
X114124933Y-136504500D01*
X114287809Y-136504500D01*
X115609549Y-136504499D01*
X115677670Y-136524501D01*
X115698644Y-136541404D01*
X115738145Y-136580905D01*
X115772171Y-136643217D01*
X115767106Y-136714032D01*
X115724559Y-136770868D01*
X115658039Y-136795679D01*
X115649050Y-136796000D01*
X115422115Y-136796000D01*
X115406876Y-136800475D01*
X115405671Y-136801865D01*
X115404000Y-136809548D01*
X115404000Y-137527885D01*
X115408475Y-137543124D01*
X115409865Y-137544329D01*
X115417548Y-137546000D01*
X116385884Y-137546000D01*
X116401123Y-137541525D01*
X116402328Y-137540135D01*
X116405994Y-137523282D01*
X116440020Y-137460970D01*
X116502332Y-137426945D01*
X116573147Y-137432009D01*
X116618210Y-137460970D01*
X117029986Y-137872746D01*
X117064012Y-137935058D01*
X117058873Y-138006068D01*
X117027202Y-138090552D01*
X117020500Y-138152244D01*
X117020500Y-138747756D01*
X117027202Y-138809448D01*
X117077929Y-138944764D01*
X117083309Y-138951943D01*
X117083311Y-138951946D01*
X117104866Y-138980706D01*
X117164596Y-139060404D01*
X117171776Y-139065785D01*
X117273054Y-139141689D01*
X117273057Y-139141691D01*
X117280236Y-139147071D01*
X117369954Y-139180704D01*
X117408157Y-139195026D01*
X117408159Y-139195026D01*
X117415552Y-139197798D01*
X117423402Y-139198651D01*
X117423403Y-139198651D01*
X117473847Y-139204131D01*
X117477244Y-139204500D01*
X118522756Y-139204500D01*
X118526153Y-139204131D01*
X118576597Y-139198651D01*
X118576598Y-139198651D01*
X118584448Y-139197798D01*
X118591841Y-139195026D01*
X118591843Y-139195026D01*
X118630046Y-139180704D01*
X118719764Y-139147071D01*
X118726943Y-139141691D01*
X118726946Y-139141689D01*
X118828224Y-139065785D01*
X118835404Y-139060404D01*
X118914449Y-138954935D01*
X118971307Y-138912420D01*
X119015274Y-138904500D01*
X119665544Y-138904500D01*
X119680354Y-138905373D01*
X119714438Y-138909407D01*
X119723702Y-138907715D01*
X119723705Y-138907715D01*
X119772680Y-138898771D01*
X119776582Y-138898122D01*
X119825836Y-138890716D01*
X119825839Y-138890715D01*
X119835151Y-138889315D01*
X119841718Y-138886162D01*
X119848883Y-138884853D01*
X119901467Y-138857538D01*
X119904957Y-138855795D01*
X119958353Y-138830154D01*
X119962982Y-138825874D01*
X119963288Y-138825781D01*
X119967900Y-138823029D01*
X119970166Y-138821852D01*
X119970985Y-138823429D01*
X120032946Y-138804500D01*
X121206360Y-138804499D01*
X121375066Y-138804499D01*
X121410818Y-138797388D01*
X121437126Y-138792156D01*
X121437128Y-138792155D01*
X121449301Y-138789734D01*
X121459621Y-138782839D01*
X121459622Y-138782838D01*
X121523168Y-138740377D01*
X121533484Y-138733484D01*
X121589734Y-138649301D01*
X121604500Y-138575067D01*
X121604500Y-138568880D01*
X121604572Y-138568149D01*
X121631155Y-138502317D01*
X121689109Y-138461308D01*
X121729965Y-138454500D01*
X124478201Y-138454500D01*
X124546322Y-138474502D01*
X124563000Y-138487306D01*
X124618074Y-138537419D01*
X124757291Y-138613008D01*
X124910520Y-138653207D01*
X124994475Y-138654526D01*
X125061317Y-138655576D01*
X125061320Y-138655576D01*
X125068914Y-138655695D01*
X125223330Y-138620329D01*
X125364853Y-138549151D01*
X125440330Y-138484688D01*
X125505117Y-138455658D01*
X125522158Y-138454500D01*
X135965544Y-138454500D01*
X135980354Y-138455373D01*
X136014438Y-138459407D01*
X136023702Y-138457715D01*
X136023705Y-138457715D01*
X136072680Y-138448771D01*
X136076582Y-138448122D01*
X136125836Y-138440716D01*
X136125839Y-138440715D01*
X136135151Y-138439315D01*
X136141718Y-138436162D01*
X136148883Y-138434853D01*
X136201467Y-138407538D01*
X136204957Y-138405795D01*
X136258353Y-138380154D01*
X136263648Y-138375259D01*
X136263787Y-138375166D01*
X136270166Y-138371852D01*
X136275254Y-138367506D01*
X136312836Y-138329924D01*
X136316402Y-138326494D01*
X136351798Y-138293774D01*
X136358712Y-138287383D01*
X136362430Y-138280983D01*
X136368037Y-138274723D01*
X138547011Y-136095749D01*
X138558100Y-136085894D01*
X138564942Y-136080500D01*
X138585059Y-136064641D01*
X138618742Y-136015906D01*
X138621024Y-136012713D01*
X138656209Y-135965076D01*
X138658623Y-135958203D01*
X138662764Y-135952211D01*
X138680629Y-135895722D01*
X138681880Y-135891973D01*
X138693546Y-135858754D01*
X138701493Y-135836126D01*
X138701776Y-135828922D01*
X138701809Y-135828751D01*
X138703975Y-135821903D01*
X138704500Y-135815232D01*
X138704500Y-135762061D01*
X138704597Y-135757115D01*
X138706488Y-135708975D01*
X138706858Y-135699562D01*
X138704961Y-135692407D01*
X138704500Y-135684032D01*
X138704500Y-134027556D01*
X138724502Y-133959435D01*
X138733408Y-133947897D01*
X138735314Y-133946269D01*
X138827755Y-133817624D01*
X138886842Y-133670641D01*
X138909162Y-133513807D01*
X138909307Y-133500000D01*
X138908167Y-133490575D01*
X138899351Y-133417729D01*
X138890276Y-133342733D01*
X138834280Y-133194546D01*
X138778241Y-133113008D01*
X138748855Y-133070251D01*
X138748854Y-133070249D01*
X138744553Y-133063992D01*
X138626275Y-132958611D01*
X138618889Y-132954700D01*
X138492988Y-132888039D01*
X138492989Y-132888039D01*
X138486274Y-132884484D01*
X138332633Y-132845892D01*
X138325034Y-132845852D01*
X138325033Y-132845852D01*
X138259181Y-132845507D01*
X138174221Y-132845062D01*
X138166841Y-132846834D01*
X138166839Y-132846834D01*
X138027563Y-132880271D01*
X138027560Y-132880272D01*
X138020184Y-132882043D01*
X137879414Y-132954700D01*
X137760039Y-133058838D01*
X137668950Y-133188444D01*
X137611406Y-133336037D01*
X137610414Y-133343570D01*
X137610414Y-133343571D01*
X137594603Y-133463673D01*
X137590729Y-133493096D01*
X137598488Y-133563373D01*
X137604001Y-133613304D01*
X137608113Y-133650553D01*
X137610723Y-133657684D01*
X137610723Y-133657686D01*
X137628474Y-133706192D01*
X137662553Y-133799319D01*
X137666789Y-133805622D01*
X137666789Y-133805623D01*
X137745954Y-133923432D01*
X137750908Y-133930805D01*
X137756527Y-133935918D01*
X137761489Y-133941666D01*
X137759881Y-133943054D01*
X137791224Y-133994540D01*
X137795500Y-134027085D01*
X137795500Y-135509550D01*
X137775498Y-135577671D01*
X137758595Y-135598645D01*
X135848645Y-137508595D01*
X135786333Y-137542621D01*
X135759550Y-137545500D01*
X128030000Y-137545500D01*
X127961879Y-137525498D01*
X127915386Y-137471842D01*
X127904000Y-137419500D01*
X127904000Y-135772115D01*
X127899525Y-135756876D01*
X127898135Y-135755671D01*
X127890452Y-135754000D01*
X125414116Y-135754000D01*
X125398877Y-135758475D01*
X125397672Y-135759865D01*
X125396001Y-135767548D01*
X125396001Y-137263444D01*
X125375999Y-137331565D01*
X125322343Y-137378058D01*
X125252069Y-137388162D01*
X125236374Y-137384077D01*
X125236272Y-137384484D01*
X125090000Y-137347743D01*
X125082631Y-137345892D01*
X125075032Y-137345852D01*
X125075031Y-137345852D01*
X125009179Y-137345507D01*
X124924219Y-137345062D01*
X124916839Y-137346834D01*
X124916837Y-137346834D01*
X124777561Y-137380271D01*
X124777558Y-137380272D01*
X124770182Y-137382043D01*
X124629412Y-137454700D01*
X124623693Y-137459689D01*
X124560921Y-137514449D01*
X124496439Y-137544157D01*
X124478091Y-137545500D01*
X121730499Y-137545500D01*
X121662378Y-137525498D01*
X121615885Y-137471842D01*
X121604499Y-137419500D01*
X121604499Y-137024934D01*
X121597388Y-136989182D01*
X121592156Y-136962874D01*
X121592155Y-136962872D01*
X121589734Y-136950699D01*
X121533484Y-136866516D01*
X121449301Y-136810266D01*
X121375067Y-136795500D01*
X120350166Y-136795500D01*
X119324934Y-136795501D01*
X119289182Y-136802612D01*
X119262874Y-136807844D01*
X119262872Y-136807845D01*
X119250699Y-136810266D01*
X119240379Y-136817161D01*
X119240378Y-136817162D01*
X119166516Y-136866516D01*
X119164622Y-136863682D01*
X119120267Y-136887902D01*
X119049452Y-136882837D01*
X118992616Y-136840290D01*
X118976935Y-136808964D01*
X118973135Y-136805671D01*
X118965452Y-136804000D01*
X118272115Y-136804000D01*
X118256876Y-136808475D01*
X118255671Y-136809865D01*
X118254000Y-136817548D01*
X118254000Y-137285884D01*
X118258475Y-137301123D01*
X118259865Y-137302328D01*
X118267548Y-137303999D01*
X118519292Y-137303999D01*
X118526110Y-137303630D01*
X118576482Y-137298159D01*
X118591741Y-137294530D01*
X118711118Y-137249778D01*
X118726704Y-137241246D01*
X118827867Y-137165428D01*
X118840427Y-137152868D01*
X118868673Y-137115179D01*
X118925532Y-137072663D01*
X118996351Y-137067637D01*
X119058644Y-137101697D01*
X119092635Y-137164027D01*
X119095500Y-137190743D01*
X119095501Y-137508595D01*
X119095501Y-137808424D01*
X119075499Y-137876545D01*
X119021843Y-137923038D01*
X118951570Y-137933142D01*
X118886989Y-137903649D01*
X118868675Y-137883989D01*
X118840786Y-137846777D01*
X118840785Y-137846776D01*
X118835404Y-137839596D01*
X118736594Y-137765542D01*
X118726946Y-137758311D01*
X118726943Y-137758309D01*
X118719764Y-137752929D01*
X118630046Y-137719296D01*
X118591843Y-137704974D01*
X118591841Y-137704974D01*
X118584448Y-137702202D01*
X118576598Y-137701349D01*
X118576597Y-137701349D01*
X118526153Y-137695869D01*
X118526152Y-137695869D01*
X118522756Y-137695500D01*
X118190450Y-137695500D01*
X118122329Y-137675498D01*
X118101355Y-137658595D01*
X117782905Y-137340145D01*
X117748879Y-137277833D01*
X117746000Y-137251050D01*
X117746000Y-136277885D01*
X118254000Y-136277885D01*
X118258475Y-136293124D01*
X118259865Y-136294329D01*
X118267548Y-136296000D01*
X118960881Y-136296000D01*
X118968615Y-136293729D01*
X119039612Y-136293729D01*
X119099339Y-136332112D01*
X119110100Y-136349532D01*
X119110737Y-136349106D01*
X119159983Y-136422808D01*
X119177192Y-136440017D01*
X119240575Y-136482368D01*
X119263066Y-136491684D01*
X119318915Y-136502793D01*
X119331170Y-136504000D01*
X120077885Y-136504000D01*
X120093124Y-136499525D01*
X120094329Y-136498135D01*
X120096000Y-136490452D01*
X120096000Y-136485884D01*
X120604000Y-136485884D01*
X120608475Y-136501123D01*
X120609865Y-136502328D01*
X120617548Y-136503999D01*
X121368828Y-136503999D01*
X121381088Y-136502791D01*
X121436931Y-136491685D01*
X121459427Y-136482367D01*
X121522808Y-136440017D01*
X121540017Y-136422808D01*
X121582368Y-136359425D01*
X121591684Y-136336934D01*
X121602793Y-136281085D01*
X121604000Y-136268830D01*
X121604000Y-135772115D01*
X121599525Y-135756876D01*
X121598135Y-135755671D01*
X121590452Y-135754000D01*
X120622115Y-135754000D01*
X120606876Y-135758475D01*
X120605671Y-135759865D01*
X120604000Y-135767548D01*
X120604000Y-136485884D01*
X120096000Y-136485884D01*
X120096000Y-135772115D01*
X120091525Y-135756876D01*
X120090135Y-135755671D01*
X120082452Y-135754000D01*
X119114116Y-135754000D01*
X119098877Y-135758475D01*
X119097672Y-135759865D01*
X119096001Y-135767548D01*
X119096001Y-135909925D01*
X119075999Y-135978046D01*
X119022343Y-136024539D01*
X118952069Y-136034643D01*
X118887489Y-136005149D01*
X118869175Y-135985490D01*
X118840428Y-135947133D01*
X118827867Y-135934572D01*
X118726704Y-135858754D01*
X118711118Y-135850222D01*
X118591735Y-135805467D01*
X118576490Y-135801842D01*
X118526108Y-135796369D01*
X118519294Y-135796000D01*
X118272115Y-135796000D01*
X118256876Y-135800475D01*
X118255671Y-135801865D01*
X118254000Y-135809548D01*
X118254000Y-136277885D01*
X117746000Y-136277885D01*
X117746000Y-135814116D01*
X117741525Y-135798877D01*
X117740135Y-135797672D01*
X117732452Y-135796001D01*
X117480708Y-135796001D01*
X117473890Y-135796370D01*
X117423518Y-135801841D01*
X117408259Y-135805470D01*
X117288882Y-135850222D01*
X117273296Y-135858754D01*
X117172133Y-135934572D01*
X117159572Y-135947133D01*
X117083754Y-136048296D01*
X117075222Y-136063882D01*
X117030467Y-136183265D01*
X117026842Y-136198510D01*
X117021369Y-136248892D01*
X117021000Y-136255706D01*
X117021000Y-136274050D01*
X117000998Y-136342171D01*
X116947342Y-136388664D01*
X116877068Y-136398768D01*
X116812488Y-136369274D01*
X116805905Y-136363145D01*
X116441405Y-135998645D01*
X116407379Y-135936333D01*
X116404500Y-135909550D01*
X116404500Y-135588521D01*
X128271877Y-135588521D01*
X128273281Y-135603382D01*
X128276549Y-135618280D01*
X128316116Y-135730951D01*
X128324837Y-135747420D01*
X128394752Y-135842078D01*
X128407922Y-135855248D01*
X128502580Y-135925163D01*
X128519049Y-135933884D01*
X128631723Y-135973452D01*
X128646614Y-135976719D01*
X128667799Y-135978721D01*
X128673713Y-135979000D01*
X128727885Y-135979000D01*
X128743124Y-135974525D01*
X128744329Y-135973135D01*
X128746000Y-135965452D01*
X128746000Y-135960884D01*
X129254000Y-135960884D01*
X129258475Y-135976123D01*
X129259865Y-135977328D01*
X129267548Y-135978999D01*
X129326283Y-135978999D01*
X129332207Y-135978720D01*
X129353382Y-135976719D01*
X129368280Y-135973451D01*
X129480951Y-135933884D01*
X129497420Y-135925163D01*
X129592078Y-135855248D01*
X129605248Y-135842078D01*
X129648649Y-135783318D01*
X129705210Y-135740407D01*
X129775992Y-135734887D01*
X129838521Y-135768511D01*
X129851351Y-135783318D01*
X129894752Y-135842078D01*
X129907922Y-135855248D01*
X130002580Y-135925163D01*
X130019049Y-135933884D01*
X130131723Y-135973452D01*
X130146614Y-135976719D01*
X130167799Y-135978721D01*
X130173713Y-135979000D01*
X130227885Y-135979000D01*
X130243124Y-135974525D01*
X130244329Y-135973135D01*
X130246000Y-135965452D01*
X130246000Y-135960884D01*
X130754000Y-135960884D01*
X130758475Y-135976123D01*
X130759865Y-135977328D01*
X130767548Y-135978999D01*
X130826283Y-135978999D01*
X130832207Y-135978720D01*
X130853382Y-135976719D01*
X130868280Y-135973451D01*
X130980951Y-135933884D01*
X130997420Y-135925163D01*
X131092078Y-135855248D01*
X131105248Y-135842078D01*
X131148649Y-135783318D01*
X131205210Y-135740407D01*
X131275992Y-135734887D01*
X131338521Y-135768511D01*
X131351351Y-135783318D01*
X131394752Y-135842078D01*
X131407922Y-135855248D01*
X131502580Y-135925163D01*
X131519049Y-135933884D01*
X131631723Y-135973452D01*
X131646614Y-135976719D01*
X131667799Y-135978721D01*
X131673713Y-135979000D01*
X131727885Y-135979000D01*
X131743124Y-135974525D01*
X131744329Y-135973135D01*
X131746000Y-135965452D01*
X131746000Y-135960884D01*
X132254000Y-135960884D01*
X132258475Y-135976123D01*
X132259865Y-135977328D01*
X132267548Y-135978999D01*
X132326283Y-135978999D01*
X132332207Y-135978720D01*
X132353382Y-135976719D01*
X132368280Y-135973451D01*
X132480951Y-135933884D01*
X132497420Y-135925163D01*
X132592078Y-135855248D01*
X132605248Y-135842078D01*
X132648649Y-135783318D01*
X132705210Y-135740407D01*
X132775992Y-135734887D01*
X132838521Y-135768511D01*
X132851351Y-135783318D01*
X132894752Y-135842078D01*
X132907922Y-135855248D01*
X133002580Y-135925163D01*
X133019049Y-135933884D01*
X133131723Y-135973452D01*
X133146614Y-135976719D01*
X133167799Y-135978721D01*
X133173713Y-135979000D01*
X133227885Y-135979000D01*
X133243124Y-135974525D01*
X133244329Y-135973135D01*
X133246000Y-135965452D01*
X133246000Y-135960884D01*
X133754000Y-135960884D01*
X133758475Y-135976123D01*
X133759865Y-135977328D01*
X133767548Y-135978999D01*
X133826283Y-135978999D01*
X133832207Y-135978720D01*
X133853382Y-135976719D01*
X133868280Y-135973451D01*
X133980951Y-135933884D01*
X133997420Y-135925163D01*
X134092078Y-135855248D01*
X134105248Y-135842078D01*
X134148649Y-135783318D01*
X134205210Y-135740407D01*
X134275992Y-135734887D01*
X134338521Y-135768511D01*
X134351351Y-135783318D01*
X134394752Y-135842078D01*
X134407922Y-135855248D01*
X134502580Y-135925163D01*
X134519049Y-135933884D01*
X134631723Y-135973452D01*
X134646614Y-135976719D01*
X134667799Y-135978721D01*
X134673713Y-135979000D01*
X134727885Y-135979000D01*
X134743124Y-135974525D01*
X134744329Y-135973135D01*
X134746000Y-135965452D01*
X134746000Y-135960884D01*
X135254000Y-135960884D01*
X135258475Y-135976123D01*
X135259865Y-135977328D01*
X135267548Y-135978999D01*
X135326283Y-135978999D01*
X135332207Y-135978720D01*
X135353382Y-135976719D01*
X135368280Y-135973451D01*
X135480951Y-135933884D01*
X135497420Y-135925163D01*
X135592078Y-135855248D01*
X135605248Y-135842078D01*
X135648649Y-135783318D01*
X135705210Y-135740407D01*
X135775992Y-135734887D01*
X135838521Y-135768511D01*
X135851351Y-135783318D01*
X135894752Y-135842078D01*
X135907922Y-135855248D01*
X136002580Y-135925163D01*
X136019049Y-135933884D01*
X136131723Y-135973452D01*
X136146614Y-135976719D01*
X136167799Y-135978721D01*
X136173713Y-135979000D01*
X136227885Y-135979000D01*
X136243124Y-135974525D01*
X136244329Y-135973135D01*
X136246000Y-135965452D01*
X136246000Y-135960884D01*
X136754000Y-135960884D01*
X136758475Y-135976123D01*
X136759865Y-135977328D01*
X136767548Y-135978999D01*
X136826283Y-135978999D01*
X136832207Y-135978720D01*
X136853382Y-135976719D01*
X136868280Y-135973451D01*
X136980951Y-135933884D01*
X136997420Y-135925163D01*
X137092078Y-135855248D01*
X137105248Y-135842078D01*
X137175163Y-135747420D01*
X137183884Y-135730951D01*
X137223452Y-135618277D01*
X137226719Y-135603386D01*
X137227723Y-135592765D01*
X137224525Y-135581876D01*
X137223135Y-135580671D01*
X137215452Y-135579000D01*
X136772115Y-135579000D01*
X136756876Y-135583475D01*
X136755671Y-135584865D01*
X136754000Y-135592548D01*
X136754000Y-135960884D01*
X136246000Y-135960884D01*
X136246000Y-135597115D01*
X136241525Y-135581876D01*
X136240135Y-135580671D01*
X136232452Y-135579000D01*
X135789118Y-135579000D01*
X135788624Y-135579145D01*
X135726346Y-135581369D01*
X135715455Y-135579000D01*
X135272115Y-135579000D01*
X135256876Y-135583475D01*
X135255671Y-135584865D01*
X135254000Y-135592548D01*
X135254000Y-135960884D01*
X134746000Y-135960884D01*
X134746000Y-135597115D01*
X134741525Y-135581876D01*
X134740135Y-135580671D01*
X134732452Y-135579000D01*
X134289118Y-135579000D01*
X134288624Y-135579145D01*
X134226346Y-135581369D01*
X134215455Y-135579000D01*
X133772115Y-135579000D01*
X133756876Y-135583475D01*
X133755671Y-135584865D01*
X133754000Y-135592548D01*
X133754000Y-135960884D01*
X133246000Y-135960884D01*
X133246000Y-135597115D01*
X133241525Y-135581876D01*
X133240135Y-135580671D01*
X133232452Y-135579000D01*
X132789118Y-135579000D01*
X132788624Y-135579145D01*
X132726346Y-135581369D01*
X132715455Y-135579000D01*
X132272115Y-135579000D01*
X132256876Y-135583475D01*
X132255671Y-135584865D01*
X132254000Y-135592548D01*
X132254000Y-135960884D01*
X131746000Y-135960884D01*
X131746000Y-135597115D01*
X131741525Y-135581876D01*
X131740135Y-135580671D01*
X131732452Y-135579000D01*
X131289118Y-135579000D01*
X131288624Y-135579145D01*
X131226346Y-135581369D01*
X131215455Y-135579000D01*
X130772115Y-135579000D01*
X130756876Y-135583475D01*
X130755671Y-135584865D01*
X130754000Y-135592548D01*
X130754000Y-135960884D01*
X130246000Y-135960884D01*
X130246000Y-135597115D01*
X130241525Y-135581876D01*
X130240135Y-135580671D01*
X130232452Y-135579000D01*
X129789118Y-135579000D01*
X129788624Y-135579145D01*
X129726346Y-135581369D01*
X129715455Y-135579000D01*
X129272115Y-135579000D01*
X129256876Y-135583475D01*
X129255671Y-135584865D01*
X129254000Y-135592548D01*
X129254000Y-135960884D01*
X128746000Y-135960884D01*
X128746000Y-135597115D01*
X128741525Y-135581876D01*
X128740135Y-135580671D01*
X128732452Y-135579000D01*
X128289116Y-135579000D01*
X128273877Y-135583475D01*
X128272672Y-135584865D01*
X128271877Y-135588521D01*
X116404500Y-135588521D01*
X116404499Y-134744292D01*
X117021001Y-134744292D01*
X117021370Y-134751110D01*
X117026841Y-134801482D01*
X117030470Y-134816741D01*
X117075222Y-134936118D01*
X117083754Y-134951704D01*
X117159572Y-135052867D01*
X117172133Y-135065428D01*
X117273296Y-135141246D01*
X117288882Y-135149778D01*
X117408265Y-135194533D01*
X117423510Y-135198158D01*
X117473892Y-135203631D01*
X117480706Y-135204000D01*
X117727885Y-135204000D01*
X117743124Y-135199525D01*
X117744329Y-135198135D01*
X117746000Y-135190452D01*
X117746000Y-135185884D01*
X118254000Y-135185884D01*
X118258475Y-135201123D01*
X118259865Y-135202328D01*
X118267548Y-135203999D01*
X118519292Y-135203999D01*
X118526110Y-135203630D01*
X118576482Y-135198159D01*
X118591741Y-135194530D01*
X118711118Y-135149778D01*
X118726704Y-135141246D01*
X118827867Y-135065428D01*
X118840424Y-135052871D01*
X118869173Y-135014511D01*
X118926033Y-134971996D01*
X118996851Y-134966970D01*
X119059145Y-135001030D01*
X119093135Y-135063361D01*
X119096000Y-135090076D01*
X119096000Y-135227885D01*
X119100475Y-135243124D01*
X119101865Y-135244329D01*
X119109548Y-135246000D01*
X120077885Y-135246000D01*
X120093124Y-135241525D01*
X120094329Y-135240135D01*
X120096000Y-135232452D01*
X120096000Y-135227885D01*
X120604000Y-135227885D01*
X120608475Y-135243124D01*
X120609865Y-135244329D01*
X120617548Y-135246000D01*
X121585884Y-135246000D01*
X121601123Y-135241525D01*
X121602328Y-135240135D01*
X121603999Y-135232452D01*
X121603999Y-135227885D01*
X125396000Y-135227885D01*
X125400475Y-135243124D01*
X125401865Y-135244329D01*
X125409548Y-135246000D01*
X126377885Y-135246000D01*
X126393124Y-135241525D01*
X126394329Y-135240135D01*
X126396000Y-135232452D01*
X126396000Y-135227885D01*
X126904000Y-135227885D01*
X126908475Y-135243124D01*
X126909865Y-135244329D01*
X126917548Y-135246000D01*
X127885884Y-135246000D01*
X127901123Y-135241525D01*
X127902328Y-135240135D01*
X127903999Y-135232452D01*
X127903999Y-135057235D01*
X128272277Y-135057235D01*
X128275475Y-135068124D01*
X128276865Y-135069329D01*
X128284548Y-135071000D01*
X128727885Y-135071000D01*
X128743124Y-135066525D01*
X128744329Y-135065135D01*
X128746000Y-135057452D01*
X128746000Y-135052885D01*
X129254000Y-135052885D01*
X129258475Y-135068124D01*
X129259865Y-135069329D01*
X129267548Y-135071000D01*
X129710882Y-135071000D01*
X129711376Y-135070855D01*
X129773654Y-135068631D01*
X129784545Y-135071000D01*
X130227885Y-135071000D01*
X130243124Y-135066525D01*
X130244329Y-135065135D01*
X130246000Y-135057452D01*
X130246000Y-135052885D01*
X130754000Y-135052885D01*
X130758475Y-135068124D01*
X130759865Y-135069329D01*
X130767548Y-135071000D01*
X131210882Y-135071000D01*
X131211376Y-135070855D01*
X131273654Y-135068631D01*
X131284545Y-135071000D01*
X131727885Y-135071000D01*
X131743124Y-135066525D01*
X131744329Y-135065135D01*
X131746000Y-135057452D01*
X131746000Y-135052885D01*
X132254000Y-135052885D01*
X132258475Y-135068124D01*
X132259865Y-135069329D01*
X132267548Y-135071000D01*
X132710882Y-135071000D01*
X132711376Y-135070855D01*
X132773654Y-135068631D01*
X132784545Y-135071000D01*
X133227885Y-135071000D01*
X133243124Y-135066525D01*
X133244329Y-135065135D01*
X133246000Y-135057452D01*
X133246000Y-135052885D01*
X133754000Y-135052885D01*
X133758475Y-135068124D01*
X133759865Y-135069329D01*
X133767548Y-135071000D01*
X134210882Y-135071000D01*
X134211376Y-135070855D01*
X134273654Y-135068631D01*
X134284545Y-135071000D01*
X134727885Y-135071000D01*
X134743124Y-135066525D01*
X134744329Y-135065135D01*
X134746000Y-135057452D01*
X134746000Y-135052885D01*
X135254000Y-135052885D01*
X135258475Y-135068124D01*
X135259865Y-135069329D01*
X135267548Y-135071000D01*
X135710882Y-135071000D01*
X135711376Y-135070855D01*
X135773654Y-135068631D01*
X135784545Y-135071000D01*
X136227885Y-135071000D01*
X136243124Y-135066525D01*
X136244329Y-135065135D01*
X136246000Y-135057452D01*
X136246000Y-135052885D01*
X136754000Y-135052885D01*
X136758475Y-135068124D01*
X136759865Y-135069329D01*
X136767548Y-135071000D01*
X137210884Y-135071000D01*
X137226123Y-135066525D01*
X137227328Y-135065135D01*
X137228123Y-135061479D01*
X137226719Y-135046618D01*
X137223451Y-135031720D01*
X137183884Y-134919049D01*
X137175163Y-134902580D01*
X137105248Y-134807922D01*
X137092078Y-134794752D01*
X136997420Y-134724837D01*
X136980951Y-134716116D01*
X136868277Y-134676548D01*
X136853386Y-134673281D01*
X136832201Y-134671279D01*
X136826287Y-134671000D01*
X136772115Y-134671000D01*
X136756876Y-134675475D01*
X136755671Y-134676865D01*
X136754000Y-134684548D01*
X136754000Y-135052885D01*
X136246000Y-135052885D01*
X136246000Y-134689116D01*
X136241525Y-134673877D01*
X136240135Y-134672672D01*
X136232452Y-134671001D01*
X136173717Y-134671001D01*
X136167793Y-134671280D01*
X136146618Y-134673281D01*
X136131720Y-134676549D01*
X136019049Y-134716116D01*
X136002580Y-134724837D01*
X135907922Y-134794752D01*
X135894752Y-134807922D01*
X135851351Y-134866682D01*
X135794790Y-134909593D01*
X135724008Y-134915113D01*
X135661479Y-134881489D01*
X135648649Y-134866682D01*
X135605248Y-134807922D01*
X135592078Y-134794752D01*
X135497420Y-134724837D01*
X135480951Y-134716116D01*
X135368277Y-134676548D01*
X135353386Y-134673281D01*
X135332201Y-134671279D01*
X135326287Y-134671000D01*
X135272115Y-134671000D01*
X135256876Y-134675475D01*
X135255671Y-134676865D01*
X135254000Y-134684548D01*
X135254000Y-135052885D01*
X134746000Y-135052885D01*
X134746000Y-134689116D01*
X134741525Y-134673877D01*
X134740135Y-134672672D01*
X134732452Y-134671001D01*
X134673717Y-134671001D01*
X134667793Y-134671280D01*
X134646618Y-134673281D01*
X134631720Y-134676549D01*
X134519049Y-134716116D01*
X134502580Y-134724837D01*
X134407922Y-134794752D01*
X134394752Y-134807922D01*
X134351351Y-134866682D01*
X134294790Y-134909593D01*
X134224008Y-134915113D01*
X134161479Y-134881489D01*
X134148649Y-134866682D01*
X134105248Y-134807922D01*
X134092078Y-134794752D01*
X133997420Y-134724837D01*
X133980951Y-134716116D01*
X133868277Y-134676548D01*
X133853386Y-134673281D01*
X133832201Y-134671279D01*
X133826287Y-134671000D01*
X133772115Y-134671000D01*
X133756876Y-134675475D01*
X133755671Y-134676865D01*
X133754000Y-134684548D01*
X133754000Y-135052885D01*
X133246000Y-135052885D01*
X133246000Y-134689116D01*
X133241525Y-134673877D01*
X133240135Y-134672672D01*
X133232452Y-134671001D01*
X133173717Y-134671001D01*
X133167793Y-134671280D01*
X133146618Y-134673281D01*
X133131720Y-134676549D01*
X133019049Y-134716116D01*
X133002580Y-134724837D01*
X132907922Y-134794752D01*
X132894752Y-134807922D01*
X132851351Y-134866682D01*
X132794790Y-134909593D01*
X132724008Y-134915113D01*
X132661479Y-134881489D01*
X132648649Y-134866682D01*
X132605248Y-134807922D01*
X132592078Y-134794752D01*
X132497420Y-134724837D01*
X132480951Y-134716116D01*
X132368277Y-134676548D01*
X132353386Y-134673281D01*
X132332201Y-134671279D01*
X132326287Y-134671000D01*
X132272115Y-134671000D01*
X132256876Y-134675475D01*
X132255671Y-134676865D01*
X132254000Y-134684548D01*
X132254000Y-135052885D01*
X131746000Y-135052885D01*
X131746000Y-134689116D01*
X131741525Y-134673877D01*
X131740135Y-134672672D01*
X131732452Y-134671001D01*
X131673717Y-134671001D01*
X131667793Y-134671280D01*
X131646618Y-134673281D01*
X131631720Y-134676549D01*
X131519049Y-134716116D01*
X131502580Y-134724837D01*
X131407922Y-134794752D01*
X131394752Y-134807922D01*
X131351351Y-134866682D01*
X131294790Y-134909593D01*
X131224008Y-134915113D01*
X131161479Y-134881489D01*
X131148649Y-134866682D01*
X131105248Y-134807922D01*
X131092078Y-134794752D01*
X130997420Y-134724837D01*
X130980951Y-134716116D01*
X130868277Y-134676548D01*
X130853386Y-134673281D01*
X130832201Y-134671279D01*
X130826287Y-134671000D01*
X130772115Y-134671000D01*
X130756876Y-134675475D01*
X130755671Y-134676865D01*
X130754000Y-134684548D01*
X130754000Y-135052885D01*
X130246000Y-135052885D01*
X130246000Y-134689116D01*
X130241525Y-134673877D01*
X130240135Y-134672672D01*
X130232452Y-134671001D01*
X130173717Y-134671001D01*
X130167793Y-134671280D01*
X130146618Y-134673281D01*
X130131720Y-134676549D01*
X130019049Y-134716116D01*
X130002580Y-134724837D01*
X129907922Y-134794752D01*
X129894752Y-134807922D01*
X129851351Y-134866682D01*
X129794790Y-134909593D01*
X129724008Y-134915113D01*
X129661479Y-134881489D01*
X129648649Y-134866682D01*
X129605248Y-134807922D01*
X129592078Y-134794752D01*
X129497420Y-134724837D01*
X129480951Y-134716116D01*
X129368277Y-134676548D01*
X129353386Y-134673281D01*
X129332201Y-134671279D01*
X129326287Y-134671000D01*
X129272115Y-134671000D01*
X129256876Y-134675475D01*
X129255671Y-134676865D01*
X129254000Y-134684548D01*
X129254000Y-135052885D01*
X128746000Y-135052885D01*
X128746000Y-134689116D01*
X128741525Y-134673877D01*
X128740135Y-134672672D01*
X128732452Y-134671001D01*
X128673717Y-134671001D01*
X128667793Y-134671280D01*
X128646618Y-134673281D01*
X128631720Y-134676549D01*
X128519049Y-134716116D01*
X128502580Y-134724837D01*
X128407922Y-134794752D01*
X128394752Y-134807922D01*
X128324837Y-134902580D01*
X128316116Y-134919049D01*
X128276548Y-135031723D01*
X128273281Y-135046614D01*
X128272277Y-135057235D01*
X127903999Y-135057235D01*
X127903999Y-133581172D01*
X127902791Y-133568912D01*
X127891685Y-133513069D01*
X127882367Y-133490573D01*
X127840017Y-133427192D01*
X127822808Y-133409983D01*
X127757773Y-133366528D01*
X127735678Y-133340090D01*
X127681318Y-133347230D01*
X127668830Y-133346000D01*
X126922115Y-133346000D01*
X126906876Y-133350475D01*
X126905671Y-133351865D01*
X126904000Y-133359548D01*
X126904000Y-135227885D01*
X126396000Y-135227885D01*
X126396000Y-133364116D01*
X126391525Y-133348877D01*
X126390135Y-133347672D01*
X126382452Y-133346001D01*
X125631172Y-133346001D01*
X125618912Y-133347209D01*
X125563069Y-133358315D01*
X125540573Y-133367633D01*
X125477192Y-133409983D01*
X125459983Y-133427192D01*
X125417632Y-133490575D01*
X125408316Y-133513066D01*
X125397207Y-133568915D01*
X125396000Y-133581170D01*
X125396000Y-135227885D01*
X121603999Y-135227885D01*
X121603999Y-134731172D01*
X121602791Y-134718912D01*
X121591685Y-134663069D01*
X121582367Y-134640573D01*
X121540017Y-134577192D01*
X121522808Y-134559983D01*
X121459425Y-134517632D01*
X121436934Y-134508316D01*
X121381085Y-134497207D01*
X121368830Y-134496000D01*
X120622115Y-134496000D01*
X120606876Y-134500475D01*
X120605671Y-134501865D01*
X120604000Y-134509548D01*
X120604000Y-135227885D01*
X120096000Y-135227885D01*
X120096000Y-134514116D01*
X120091525Y-134498877D01*
X120090135Y-134497672D01*
X120082452Y-134496001D01*
X119331172Y-134496001D01*
X119318912Y-134497209D01*
X119263069Y-134508315D01*
X119240573Y-134517633D01*
X119177192Y-134559983D01*
X119159983Y-134577192D01*
X119110737Y-134650894D01*
X119107592Y-134648792D01*
X119076682Y-134687134D01*
X119009314Y-134709542D01*
X118978059Y-134706742D01*
X118965453Y-134704000D01*
X118272115Y-134704000D01*
X118256876Y-134708475D01*
X118255671Y-134709865D01*
X118254000Y-134717548D01*
X118254000Y-135185884D01*
X117746000Y-135185884D01*
X117746000Y-134722115D01*
X117741525Y-134706876D01*
X117740135Y-134705671D01*
X117732452Y-134704000D01*
X117039116Y-134704000D01*
X117023877Y-134708475D01*
X117022672Y-134709865D01*
X117021001Y-134717548D01*
X117021001Y-134744292D01*
X116404499Y-134744292D01*
X116404499Y-134731123D01*
X116404499Y-134724934D01*
X116396466Y-134684548D01*
X116392156Y-134662874D01*
X116392155Y-134662872D01*
X116389734Y-134650699D01*
X116333484Y-134566516D01*
X116249301Y-134510266D01*
X116175067Y-134495500D01*
X116069220Y-134495500D01*
X114270434Y-134495501D01*
X114202313Y-134475499D01*
X114155820Y-134421843D01*
X114145347Y-134384639D01*
X114140627Y-134345636D01*
X114152299Y-134275608D01*
X114199981Y-134223005D01*
X114265714Y-134204500D01*
X116088734Y-134204499D01*
X116175066Y-134204499D01*
X116210818Y-134197388D01*
X116237126Y-134192156D01*
X116237128Y-134192155D01*
X116249301Y-134189734D01*
X116259621Y-134182839D01*
X116259622Y-134182838D01*
X116323168Y-134140377D01*
X116333484Y-134133484D01*
X116389734Y-134049301D01*
X116404500Y-133975067D01*
X116404500Y-133905500D01*
X116424502Y-133837379D01*
X116478158Y-133790886D01*
X116530500Y-133779500D01*
X116963537Y-133779500D01*
X117031658Y-133799502D01*
X117078151Y-133853158D01*
X117088255Y-133923432D01*
X117077659Y-133955211D01*
X117078372Y-133955478D01*
X117030467Y-134083265D01*
X117026842Y-134098510D01*
X117021369Y-134148892D01*
X117021000Y-134155706D01*
X117021000Y-134177885D01*
X117025475Y-134193124D01*
X117026865Y-134194329D01*
X117034548Y-134196000D01*
X117727885Y-134196000D01*
X117743124Y-134191525D01*
X117744329Y-134190135D01*
X117746000Y-134182452D01*
X117746000Y-133696001D01*
X117747414Y-133696001D01*
X117747414Y-133647936D01*
X117768347Y-133606732D01*
X117781606Y-133589452D01*
X117792468Y-133577068D01*
X117910905Y-133458631D01*
X117973217Y-133424605D01*
X118044032Y-133429670D01*
X118089095Y-133458631D01*
X118207532Y-133577068D01*
X118218394Y-133589452D01*
X118230907Y-133605760D01*
X118256508Y-133671977D01*
X118254065Y-133709248D01*
X118254000Y-133709547D01*
X118254000Y-134177885D01*
X118258475Y-134193124D01*
X118259865Y-134194329D01*
X118267548Y-134196000D01*
X118960884Y-134196000D01*
X118976123Y-134191525D01*
X118995765Y-134168857D01*
X119006843Y-134148571D01*
X119069157Y-134114548D01*
X119139972Y-134119616D01*
X119165024Y-134135717D01*
X119166516Y-134133484D01*
X119250699Y-134189734D01*
X119324933Y-134204500D01*
X120349834Y-134204500D01*
X121375066Y-134204499D01*
X121410818Y-134197388D01*
X121437126Y-134192156D01*
X121437128Y-134192155D01*
X121449301Y-134189734D01*
X121459621Y-134182839D01*
X121459622Y-134182838D01*
X121523168Y-134140377D01*
X121533484Y-134133484D01*
X121589734Y-134049301D01*
X121604500Y-133975067D01*
X121604499Y-132424934D01*
X121589734Y-132350699D01*
X121575207Y-132328957D01*
X121540377Y-132276832D01*
X121533484Y-132266516D01*
X121449301Y-132210266D01*
X121375067Y-132195500D01*
X120350166Y-132195500D01*
X119324934Y-132195501D01*
X119289182Y-132202612D01*
X119262874Y-132207844D01*
X119262872Y-132207845D01*
X119250699Y-132210266D01*
X119240379Y-132217161D01*
X119240378Y-132217162D01*
X119166516Y-132266516D01*
X119164320Y-132263229D01*
X119121628Y-132286541D01*
X119050813Y-132281476D01*
X118993977Y-132238929D01*
X118973245Y-132194663D01*
X118972798Y-132190552D01*
X118922071Y-132055236D01*
X118924004Y-132054512D01*
X118911349Y-131996651D01*
X118936086Y-131930103D01*
X118992874Y-131887493D01*
X119037038Y-131879500D01*
X127393519Y-131879500D01*
X127461640Y-131899502D01*
X127508133Y-131953158D01*
X127518237Y-132023432D01*
X127496606Y-132077951D01*
X127478064Y-132104333D01*
X127418950Y-132188444D01*
X127392743Y-132255661D01*
X127367540Y-132320305D01*
X127361406Y-132336037D01*
X127360414Y-132343570D01*
X127360414Y-132343571D01*
X127348888Y-132431123D01*
X127340729Y-132493096D01*
X127358113Y-132650553D01*
X127412553Y-132799319D01*
X127416789Y-132805622D01*
X127416789Y-132805623D01*
X127469782Y-132884484D01*
X127500908Y-132930805D01*
X127506527Y-132935918D01*
X127506528Y-132935919D01*
X127532651Y-132959689D01*
X127618076Y-133037419D01*
X127670108Y-133065670D01*
X127753790Y-133111106D01*
X127787428Y-133144584D01*
X127794440Y-133140253D01*
X127859748Y-133139887D01*
X127903171Y-133151279D01*
X127903175Y-133151280D01*
X127910522Y-133153207D01*
X127962818Y-133154028D01*
X128030615Y-133175096D01*
X128049934Y-133190917D01*
X128233595Y-133374578D01*
X128267621Y-133436890D01*
X128270500Y-133463673D01*
X128270501Y-133696001D01*
X128270501Y-133929314D01*
X128270780Y-133932262D01*
X128270780Y-133932271D01*
X128271799Y-133943054D01*
X128273507Y-133961127D01*
X128318791Y-134090076D01*
X128399990Y-134200010D01*
X128509924Y-134281209D01*
X128638873Y-134326493D01*
X128646515Y-134327215D01*
X128646518Y-134327216D01*
X128661421Y-134328624D01*
X128670685Y-134329500D01*
X128999777Y-134329500D01*
X129329314Y-134329499D01*
X129332262Y-134329220D01*
X129332271Y-134329220D01*
X129353478Y-134327216D01*
X129353480Y-134327216D01*
X129361127Y-134326493D01*
X129490076Y-134281209D01*
X129600010Y-134200010D01*
X129605602Y-134192439D01*
X129605605Y-134192436D01*
X129648649Y-134134159D01*
X129705210Y-134091248D01*
X129775991Y-134085728D01*
X129838521Y-134119352D01*
X129851351Y-134134159D01*
X129894395Y-134192436D01*
X129894398Y-134192439D01*
X129899990Y-134200010D01*
X130009924Y-134281209D01*
X130138873Y-134326493D01*
X130146515Y-134327215D01*
X130146518Y-134327216D01*
X130161421Y-134328624D01*
X130170685Y-134329500D01*
X130499777Y-134329500D01*
X130829314Y-134329499D01*
X130832262Y-134329220D01*
X130832271Y-134329220D01*
X130853478Y-134327216D01*
X130853480Y-134327216D01*
X130861127Y-134326493D01*
X130990076Y-134281209D01*
X131100010Y-134200010D01*
X131105602Y-134192439D01*
X131105605Y-134192436D01*
X131148649Y-134134159D01*
X131205210Y-134091248D01*
X131275991Y-134085728D01*
X131338521Y-134119352D01*
X131351351Y-134134159D01*
X131394395Y-134192436D01*
X131394398Y-134192439D01*
X131399990Y-134200010D01*
X131509924Y-134281209D01*
X131638873Y-134326493D01*
X131646515Y-134327215D01*
X131646518Y-134327216D01*
X131661421Y-134328624D01*
X131670685Y-134329500D01*
X131999777Y-134329500D01*
X132329314Y-134329499D01*
X132332262Y-134329220D01*
X132332271Y-134329220D01*
X132353478Y-134327216D01*
X132353480Y-134327216D01*
X132361127Y-134326493D01*
X132490076Y-134281209D01*
X132600010Y-134200010D01*
X132605602Y-134192439D01*
X132605605Y-134192436D01*
X132648649Y-134134159D01*
X132705210Y-134091248D01*
X132775991Y-134085728D01*
X132838521Y-134119352D01*
X132851351Y-134134159D01*
X132894395Y-134192436D01*
X132894398Y-134192439D01*
X132899990Y-134200010D01*
X133009924Y-134281209D01*
X133138873Y-134326493D01*
X133146515Y-134327215D01*
X133146518Y-134327216D01*
X133161421Y-134328624D01*
X133170685Y-134329500D01*
X133499777Y-134329500D01*
X133829314Y-134329499D01*
X133832262Y-134329220D01*
X133832271Y-134329220D01*
X133853478Y-134327216D01*
X133853480Y-134327216D01*
X133861127Y-134326493D01*
X133990076Y-134281209D01*
X134100010Y-134200010D01*
X134105602Y-134192439D01*
X134105605Y-134192436D01*
X134148649Y-134134159D01*
X134205210Y-134091248D01*
X134275991Y-134085728D01*
X134338521Y-134119352D01*
X134351351Y-134134159D01*
X134394395Y-134192436D01*
X134394398Y-134192439D01*
X134399990Y-134200010D01*
X134509924Y-134281209D01*
X134638873Y-134326493D01*
X134646515Y-134327215D01*
X134646518Y-134327216D01*
X134661421Y-134328624D01*
X134670685Y-134329500D01*
X134999777Y-134329500D01*
X135329314Y-134329499D01*
X135332262Y-134329220D01*
X135332271Y-134329220D01*
X135353478Y-134327216D01*
X135353480Y-134327216D01*
X135361127Y-134326493D01*
X135490076Y-134281209D01*
X135600010Y-134200010D01*
X135605602Y-134192439D01*
X135605605Y-134192436D01*
X135648649Y-134134159D01*
X135705210Y-134091248D01*
X135775991Y-134085728D01*
X135838521Y-134119352D01*
X135851351Y-134134159D01*
X135894395Y-134192436D01*
X135894398Y-134192439D01*
X135899990Y-134200010D01*
X136009924Y-134281209D01*
X136138873Y-134326493D01*
X136146515Y-134327215D01*
X136146518Y-134327216D01*
X136161421Y-134328624D01*
X136170685Y-134329500D01*
X136499777Y-134329500D01*
X136829314Y-134329499D01*
X136832262Y-134329220D01*
X136832271Y-134329220D01*
X136853478Y-134327216D01*
X136853480Y-134327216D01*
X136861127Y-134326493D01*
X136990076Y-134281209D01*
X137100010Y-134200010D01*
X137181209Y-134090076D01*
X137226493Y-133961127D01*
X137227898Y-133946269D01*
X137228624Y-133938579D01*
X137229500Y-133929315D01*
X137229499Y-133420686D01*
X137226493Y-133388873D01*
X137181209Y-133259924D01*
X137100010Y-133149990D01*
X136990076Y-133068791D01*
X136861127Y-133023507D01*
X136853485Y-133022785D01*
X136853482Y-133022784D01*
X136838579Y-133021376D01*
X136829315Y-133020500D01*
X136801487Y-133020500D01*
X136363674Y-133020501D01*
X136295553Y-133000499D01*
X136274579Y-132983596D01*
X136145461Y-132854478D01*
X136111435Y-132792166D01*
X136117648Y-132718387D01*
X136134008Y-132677691D01*
X136134008Y-132677690D01*
X136136842Y-132670641D01*
X136145598Y-132609114D01*
X136158581Y-132517891D01*
X136158581Y-132517888D01*
X136159162Y-132513807D01*
X136159307Y-132500000D01*
X136158642Y-132494500D01*
X136150223Y-132424933D01*
X136140276Y-132342733D01*
X136084280Y-132194546D01*
X135994553Y-132063992D01*
X135984726Y-132055236D01*
X135933276Y-132009397D01*
X135876275Y-131958611D01*
X135868889Y-131954700D01*
X135742988Y-131888039D01*
X135742989Y-131888039D01*
X135736274Y-131884484D01*
X135582633Y-131845892D01*
X135575034Y-131845852D01*
X135575033Y-131845852D01*
X135509181Y-131845507D01*
X135424221Y-131845062D01*
X135416841Y-131846834D01*
X135416839Y-131846834D01*
X135277563Y-131880271D01*
X135277560Y-131880272D01*
X135270184Y-131882043D01*
X135129414Y-131954700D01*
X135010039Y-132058838D01*
X134918950Y-132188444D01*
X134916190Y-132195524D01*
X134916188Y-132195527D01*
X134867060Y-132321535D01*
X134823680Y-132377737D01*
X134756801Y-132401564D01*
X134687657Y-132385451D01*
X134638201Y-132334513D01*
X134631801Y-132320305D01*
X134584280Y-132194546D01*
X134494553Y-132063992D01*
X134484726Y-132055236D01*
X134433276Y-132009397D01*
X134376275Y-131958611D01*
X134368889Y-131954700D01*
X134242988Y-131888039D01*
X134242989Y-131888039D01*
X134236274Y-131884484D01*
X134082633Y-131845892D01*
X134075034Y-131845852D01*
X134075033Y-131845852D01*
X134009181Y-131845507D01*
X133924221Y-131845062D01*
X133916839Y-131846834D01*
X133909286Y-131847708D01*
X133909001Y-131845242D01*
X133850066Y-131842293D01*
X133792333Y-131800972D01*
X133766104Y-131734998D01*
X133779707Y-131665317D01*
X133802467Y-131634227D01*
X134890638Y-130546056D01*
X134910765Y-130517891D01*
X134939459Y-130477738D01*
X134939459Y-130477737D01*
X134945513Y-130469266D01*
X134981713Y-130348222D01*
X134978694Y-130271385D01*
X134977162Y-130232382D01*
X134977162Y-130232380D01*
X134976753Y-130221979D01*
X134962685Y-130185614D01*
X134937987Y-130121775D01*
X134929500Y-130076313D01*
X134929500Y-119019546D01*
X134929980Y-119008564D01*
X134932349Y-118981486D01*
X134933310Y-118970504D01*
X134923419Y-118933591D01*
X134921041Y-118922863D01*
X134916319Y-118896083D01*
X134916319Y-118896082D01*
X134914405Y-118885230D01*
X134908894Y-118875685D01*
X134907637Y-118872231D01*
X134906087Y-118868908D01*
X134903235Y-118858263D01*
X134881315Y-118826958D01*
X134875410Y-118817688D01*
X134861819Y-118794147D01*
X134861816Y-118794143D01*
X134856305Y-118784598D01*
X134827038Y-118760040D01*
X134818934Y-118752614D01*
X133515091Y-117448771D01*
X133481065Y-117386459D01*
X133486130Y-117315644D01*
X133528677Y-117258808D01*
X133595197Y-117233997D01*
X133626554Y-117236909D01*
X133626645Y-117236248D01*
X133634172Y-117237279D01*
X133641522Y-117239207D01*
X133725477Y-117240526D01*
X133792319Y-117241576D01*
X133792322Y-117241576D01*
X133799916Y-117241695D01*
X133954332Y-117206329D01*
X134058509Y-117153934D01*
X134089072Y-117138563D01*
X134089075Y-117138561D01*
X134095855Y-117135151D01*
X134101626Y-117130222D01*
X134101629Y-117130220D01*
X134210536Y-117037204D01*
X134210536Y-117037203D01*
X134216314Y-117032269D01*
X134308755Y-116903624D01*
X134367842Y-116756641D01*
X134390162Y-116599807D01*
X134390307Y-116586000D01*
X134388561Y-116571567D01*
X134372188Y-116436273D01*
X134371276Y-116428733D01*
X134315280Y-116280546D01*
X134225553Y-116149992D01*
X134107275Y-116044611D01*
X133967274Y-115970484D01*
X133813633Y-115931892D01*
X133806034Y-115931852D01*
X133806033Y-115931852D01*
X133745626Y-115931536D01*
X133664335Y-115931110D01*
X133596321Y-115910752D01*
X133575901Y-115894207D01*
X132496405Y-114814711D01*
X132462379Y-114752399D01*
X132459500Y-114725616D01*
X132459500Y-114626000D01*
X132479502Y-114557879D01*
X132533158Y-114511386D01*
X132585500Y-114500000D01*
X140219500Y-114500000D01*
X140287621Y-114520002D01*
G37*
%TD.AperFunction*%
%TA.AperFunction,Conductor*%
G36*
X129354448Y-123174502D02*
G01*
X129375422Y-123191405D01*
X130333595Y-124149578D01*
X130367621Y-124211890D01*
X130370500Y-124238673D01*
X130370500Y-128611327D01*
X130350498Y-128679448D01*
X130333595Y-128700422D01*
X130217458Y-128816559D01*
X130155146Y-128850585D01*
X130097672Y-128849669D01*
X130090006Y-128847744D01*
X130082633Y-128845892D01*
X130075033Y-128845852D01*
X130075032Y-128845852D01*
X130010232Y-128845513D01*
X129924221Y-128845062D01*
X129916841Y-128846834D01*
X129916839Y-128846834D01*
X129777563Y-128880271D01*
X129777560Y-128880272D01*
X129770184Y-128882043D01*
X129629414Y-128954700D01*
X129510039Y-129058838D01*
X129418950Y-129188444D01*
X129394253Y-129251789D01*
X129368287Y-129318389D01*
X129361406Y-129336037D01*
X129360414Y-129343570D01*
X129360414Y-129343571D01*
X129351544Y-129410946D01*
X129322822Y-129475874D01*
X129263556Y-129514965D01*
X129226622Y-129520500D01*
X129177670Y-129520500D01*
X129109549Y-129500498D01*
X129063056Y-129446842D01*
X129052952Y-129376568D01*
X129071191Y-129331287D01*
X129069663Y-129330447D01*
X129073318Y-129323799D01*
X129077755Y-129317624D01*
X129136842Y-129170641D01*
X129152108Y-129063376D01*
X129158581Y-129017891D01*
X129158581Y-129017888D01*
X129159162Y-129013807D01*
X129159307Y-129000000D01*
X129140276Y-128842733D01*
X129132738Y-128822785D01*
X129128896Y-128745632D01*
X129130457Y-128739807D01*
X129133310Y-128729160D01*
X129129980Y-128691100D01*
X129129500Y-128680118D01*
X129129500Y-123897557D01*
X129140259Y-123846612D01*
X129151466Y-123821263D01*
X129154500Y-123795238D01*
X129154500Y-123280500D01*
X129174502Y-123212379D01*
X129228158Y-123165886D01*
X129280500Y-123154500D01*
X129286327Y-123154500D01*
X129354448Y-123174502D01*
G37*
%TD.AperFunction*%
%TA.AperFunction,Conductor*%
G36*
X117957510Y-123466182D02*
G01*
X118014346Y-123508729D01*
X118024363Y-123524401D01*
X118035332Y-123544728D01*
X118038031Y-123550025D01*
X118056785Y-123589082D01*
X118056788Y-123589086D01*
X118060219Y-123596232D01*
X118063814Y-123600508D01*
X118065737Y-123602431D01*
X118067509Y-123604363D01*
X118067552Y-123604442D01*
X118067428Y-123604555D01*
X118067904Y-123605095D01*
X118070990Y-123610814D01*
X118078635Y-123617881D01*
X118110586Y-123647416D01*
X118114152Y-123650846D01*
X120693522Y-126230216D01*
X120708664Y-126248964D01*
X120709779Y-126250189D01*
X120715429Y-126258940D01*
X120723607Y-126265387D01*
X120723609Y-126265389D01*
X120741800Y-126279729D01*
X120746241Y-126283675D01*
X120746303Y-126283602D01*
X120750267Y-126286961D01*
X120753944Y-126290638D01*
X120769692Y-126301892D01*
X120774362Y-126305398D01*
X120814647Y-126337156D01*
X120823281Y-126340188D01*
X120830734Y-126345514D01*
X120879850Y-126360203D01*
X120885492Y-126362036D01*
X120926367Y-126376390D01*
X120933851Y-126379018D01*
X120939416Y-126379500D01*
X120942124Y-126379500D01*
X120944758Y-126379614D01*
X120944856Y-126379643D01*
X120944849Y-126379807D01*
X120945553Y-126379851D01*
X120951778Y-126381713D01*
X121005635Y-126379597D01*
X121010582Y-126379500D01*
X124949092Y-126379500D01*
X125017213Y-126399502D01*
X125063706Y-126453158D01*
X125067074Y-126461271D01*
X125075083Y-126482635D01*
X125080463Y-126489814D01*
X125080465Y-126489817D01*
X125110722Y-126530188D01*
X125157456Y-126592544D01*
X125164633Y-126597923D01*
X125267365Y-126674917D01*
X125265963Y-126676788D01*
X125307119Y-126718034D01*
X125322135Y-126787424D01*
X125297252Y-126853917D01*
X125254256Y-126890264D01*
X125129414Y-126954700D01*
X125010039Y-127058838D01*
X125005672Y-127065051D01*
X125005667Y-127065057D01*
X125004336Y-127066951D01*
X125003013Y-127068005D01*
X125000589Y-127070697D01*
X125000140Y-127070293D01*
X124948802Y-127111183D01*
X124901250Y-127120500D01*
X118209384Y-127120500D01*
X118141263Y-127100498D01*
X118120289Y-127083595D01*
X116302513Y-125265819D01*
X116268487Y-125203507D01*
X116273552Y-125132692D01*
X116316099Y-125075856D01*
X116334987Y-125064163D01*
X116364855Y-125049141D01*
X116370626Y-125044212D01*
X116370629Y-125044210D01*
X116479536Y-124951194D01*
X116479536Y-124951193D01*
X116485314Y-124946259D01*
X116577755Y-124817614D01*
X116619136Y-124714675D01*
X116646948Y-124672578D01*
X117824383Y-123495143D01*
X117886695Y-123461117D01*
X117957510Y-123466182D01*
G37*
%TD.AperFunction*%
%TA.AperFunction,Conductor*%
G36*
X120151422Y-122149502D02*
G01*
X120164056Y-122159683D01*
X120164596Y-122160404D01*
X120227600Y-122207623D01*
X120273054Y-122241689D01*
X120273057Y-122241691D01*
X120280236Y-122247071D01*
X120364706Y-122278737D01*
X120408157Y-122295026D01*
X120408159Y-122295026D01*
X120415552Y-122297798D01*
X120423402Y-122298651D01*
X120423403Y-122298651D01*
X120473847Y-122304131D01*
X120477244Y-122304500D01*
X121522756Y-122304500D01*
X121526153Y-122304131D01*
X121576597Y-122298651D01*
X121576598Y-122298651D01*
X121584448Y-122297798D01*
X121591841Y-122295026D01*
X121591843Y-122295026D01*
X121665221Y-122267518D01*
X121709450Y-122259500D01*
X122324020Y-122259500D01*
X122392141Y-122279502D01*
X122406132Y-122290777D01*
X122407456Y-122292544D01*
X122414633Y-122297923D01*
X122510183Y-122369535D01*
X122510186Y-122369537D01*
X122517365Y-122374917D01*
X122536374Y-122382043D01*
X122537020Y-122382285D01*
X122593784Y-122424927D01*
X122618484Y-122491488D01*
X122616617Y-122500000D01*
X120500000Y-122500000D01*
X120500000Y-122696001D01*
X120480708Y-122696001D01*
X120473890Y-122696370D01*
X120423518Y-122701841D01*
X120408259Y-122705470D01*
X120288882Y-122750222D01*
X120273296Y-122758754D01*
X120172133Y-122834572D01*
X120159572Y-122847133D01*
X120083754Y-122948296D01*
X120075222Y-122963882D01*
X120030467Y-123083265D01*
X120026842Y-123098510D01*
X120021369Y-123148892D01*
X120021000Y-123155706D01*
X120021000Y-123177885D01*
X120025475Y-123193124D01*
X120026865Y-123194329D01*
X120034548Y-123196000D01*
X120500000Y-123196000D01*
X120500000Y-123400000D01*
X126820500Y-123400000D01*
X126820500Y-123484550D01*
X126800498Y-123552671D01*
X126783595Y-123573645D01*
X126748645Y-123608595D01*
X126686333Y-123642621D01*
X126659550Y-123645500D01*
X126560378Y-123645500D01*
X123852210Y-123645501D01*
X123784090Y-123625499D01*
X123737597Y-123571843D01*
X123731315Y-123554999D01*
X123724526Y-123531876D01*
X123723135Y-123530671D01*
X123715452Y-123529000D01*
X122289115Y-123529000D01*
X122273876Y-123533475D01*
X122272671Y-123534865D01*
X122271027Y-123542424D01*
X122271369Y-123548736D01*
X122272949Y-123563280D01*
X122260422Y-123633163D01*
X122212102Y-123685179D01*
X122205774Y-123688701D01*
X122198557Y-123692450D01*
X122195042Y-123694207D01*
X122141646Y-123719847D01*
X122136688Y-123724430D01*
X122135985Y-123724653D01*
X122132099Y-123726972D01*
X122129833Y-123728149D01*
X122129145Y-123726824D01*
X122069252Y-123745833D01*
X122000713Y-123727315D01*
X121984003Y-123715088D01*
X121973135Y-123705671D01*
X121965452Y-123704000D01*
X121272115Y-123704000D01*
X121256876Y-123708475D01*
X121255671Y-123709865D01*
X121254000Y-123717548D01*
X121254000Y-124185884D01*
X121258475Y-124201123D01*
X121259865Y-124202328D01*
X121262422Y-124202884D01*
X121324735Y-124236909D01*
X121358760Y-124299221D01*
X121360562Y-124342449D01*
X121353533Y-124395839D01*
X121342433Y-124480154D01*
X121340729Y-124493096D01*
X121358113Y-124650553D01*
X121360723Y-124657684D01*
X121360723Y-124657686D01*
X121405552Y-124780187D01*
X121412553Y-124799319D01*
X121500908Y-124930805D01*
X121506527Y-124935918D01*
X121506528Y-124935919D01*
X121517892Y-124946259D01*
X121618076Y-125037419D01*
X121757293Y-125113008D01*
X121910522Y-125153207D01*
X121994477Y-125154526D01*
X122061319Y-125155576D01*
X122061322Y-125155576D01*
X122068916Y-125155695D01*
X122223332Y-125120329D01*
X122335017Y-125064158D01*
X122358072Y-125052563D01*
X122358075Y-125052561D01*
X122364855Y-125049151D01*
X122370626Y-125044222D01*
X122370629Y-125044220D01*
X122479536Y-124951204D01*
X122479536Y-124951203D01*
X122485314Y-124946269D01*
X122577755Y-124817624D01*
X122636842Y-124670641D01*
X122637965Y-124662751D01*
X122638076Y-124662506D01*
X122639878Y-124655782D01*
X122640999Y-124656082D01*
X122667362Y-124598129D01*
X122727032Y-124559657D01*
X122762708Y-124554501D01*
X126604378Y-124554500D01*
X126865544Y-124554500D01*
X126880354Y-124555373D01*
X126914438Y-124559407D01*
X126923702Y-124557715D01*
X126923705Y-124557715D01*
X126972680Y-124548771D01*
X126976582Y-124548122D01*
X127025836Y-124540716D01*
X127025839Y-124540715D01*
X127035151Y-124539315D01*
X127041718Y-124536162D01*
X127048883Y-124534853D01*
X127086419Y-124515355D01*
X127156089Y-124501703D01*
X127222081Y-124527886D01*
X127263442Y-124585590D01*
X127270500Y-124627169D01*
X127270500Y-125144501D01*
X127250498Y-125212622D01*
X127196842Y-125259115D01*
X127144500Y-125270501D01*
X127004612Y-125270501D01*
X127001218Y-125270870D01*
X127001212Y-125270870D01*
X126953834Y-125276016D01*
X126953830Y-125276017D01*
X126945976Y-125276870D01*
X126817365Y-125325083D01*
X126810186Y-125330463D01*
X126810183Y-125330465D01*
X126714633Y-125402077D01*
X126707456Y-125407456D01*
X126702077Y-125414633D01*
X126630465Y-125510183D01*
X126630463Y-125510186D01*
X126625083Y-125517365D01*
X126621932Y-125525771D01*
X126617982Y-125536307D01*
X126575341Y-125593072D01*
X126508779Y-125617772D01*
X126439430Y-125602565D01*
X126389312Y-125552279D01*
X126382018Y-125536307D01*
X126378068Y-125525771D01*
X126374917Y-125517365D01*
X126369537Y-125510186D01*
X126369535Y-125510183D01*
X126297923Y-125414633D01*
X126292544Y-125407456D01*
X126285367Y-125402077D01*
X126189817Y-125330465D01*
X126189814Y-125330463D01*
X126182635Y-125325083D01*
X126085755Y-125288765D01*
X126061419Y-125279642D01*
X126061418Y-125279642D01*
X126054024Y-125276870D01*
X126046174Y-125276017D01*
X126046173Y-125276017D01*
X125998786Y-125270869D01*
X125998785Y-125270869D01*
X125995389Y-125270500D01*
X125725080Y-125270500D01*
X125454612Y-125270501D01*
X125451218Y-125270870D01*
X125451212Y-125270870D01*
X125403834Y-125276016D01*
X125403830Y-125276017D01*
X125395976Y-125276870D01*
X125267365Y-125325083D01*
X125260186Y-125330463D01*
X125260183Y-125330465D01*
X125164633Y-125402077D01*
X125157456Y-125407456D01*
X125152077Y-125414633D01*
X125080465Y-125510183D01*
X125080463Y-125510186D01*
X125075083Y-125517365D01*
X125071932Y-125525771D01*
X125067074Y-125538729D01*
X125024433Y-125595494D01*
X124957871Y-125620194D01*
X124949092Y-125620500D01*
X121209384Y-125620500D01*
X121141263Y-125600498D01*
X121120289Y-125583595D01*
X119280986Y-123744292D01*
X120021001Y-123744292D01*
X120021370Y-123751110D01*
X120026841Y-123801482D01*
X120030470Y-123816741D01*
X120075222Y-123936118D01*
X120083754Y-123951704D01*
X120159572Y-124052867D01*
X120172133Y-124065428D01*
X120273296Y-124141246D01*
X120288882Y-124149778D01*
X120408265Y-124194533D01*
X120423510Y-124198158D01*
X120473892Y-124203631D01*
X120480706Y-124204000D01*
X120727885Y-124204000D01*
X120743124Y-124199525D01*
X120744329Y-124198135D01*
X120746000Y-124190452D01*
X120746000Y-123722115D01*
X120741525Y-123706876D01*
X120740135Y-123705671D01*
X120732452Y-123704000D01*
X120039116Y-123704000D01*
X120023877Y-123708475D01*
X120022672Y-123709865D01*
X120021001Y-123717548D01*
X120021001Y-123744292D01*
X119280986Y-123744292D01*
X118791405Y-123254711D01*
X118757379Y-123192399D01*
X118754500Y-123165616D01*
X118754500Y-122617216D01*
X118774502Y-122549095D01*
X118791405Y-122528121D01*
X119153121Y-122166405D01*
X119215433Y-122132379D01*
X119242216Y-122129500D01*
X120083301Y-122129500D01*
X120151422Y-122149502D01*
G37*
%TD.AperFunction*%
%TA.AperFunction,Conductor*%
G36*
X130574936Y-121549502D02*
G01*
X130595910Y-121566405D01*
X132433595Y-123404090D01*
X132467621Y-123466402D01*
X132470500Y-123493185D01*
X132470500Y-124322762D01*
X132450498Y-124390883D01*
X132396842Y-124437376D01*
X132326568Y-124447480D01*
X132261988Y-124417986D01*
X132223604Y-124358260D01*
X132220414Y-124344643D01*
X132216319Y-124321418D01*
X132216318Y-124321416D01*
X132214405Y-124310566D01*
X132208894Y-124301021D01*
X132207637Y-124297567D01*
X132206087Y-124294243D01*
X132203235Y-124283599D01*
X132181317Y-124252296D01*
X132175413Y-124243029D01*
X132161820Y-124219485D01*
X132161818Y-124219482D01*
X132156305Y-124209934D01*
X132127019Y-124185360D01*
X132118928Y-124177945D01*
X130122060Y-122181077D01*
X130114633Y-122172973D01*
X130090066Y-122143695D01*
X130091534Y-122142463D01*
X130059682Y-122094588D01*
X130054000Y-122057177D01*
X130053999Y-121908561D01*
X130053558Y-121901129D01*
X130051964Y-121887720D01*
X130047008Y-121869685D01*
X130038749Y-121851092D01*
X130029375Y-121780717D01*
X130038659Y-121748997D01*
X130047139Y-121729814D01*
X130052069Y-121711733D01*
X130053576Y-121698807D01*
X130054000Y-121691504D01*
X130054000Y-121655500D01*
X130074002Y-121587379D01*
X130127658Y-121540886D01*
X130180000Y-121529500D01*
X130506815Y-121529500D01*
X130574936Y-121549502D01*
G37*
%TD.AperFunction*%
%TA.AperFunction,Conductor*%
G36*
X131623791Y-117266551D02*
G01*
X131739445Y-117382205D01*
X131773471Y-117444517D01*
X131768406Y-117515332D01*
X131760100Y-117531101D01*
X131760908Y-117531534D01*
X131757320Y-117538227D01*
X131752950Y-117544444D01*
X131695406Y-117692037D01*
X131694414Y-117699572D01*
X131693007Y-117705052D01*
X131656693Y-117766059D01*
X131593162Y-117797748D01*
X131522583Y-117790060D01*
X131488453Y-117768944D01*
X131473135Y-117755671D01*
X131465452Y-117754000D01*
X131047115Y-117754000D01*
X131031876Y-117758475D01*
X131030671Y-117759865D01*
X131029000Y-117767548D01*
X131029000Y-118210885D01*
X131033475Y-118226124D01*
X131034865Y-118227329D01*
X131042424Y-118228973D01*
X131048741Y-118228631D01*
X131096066Y-118223490D01*
X131111311Y-118219865D01*
X131223988Y-118177625D01*
X131239575Y-118169092D01*
X131335010Y-118097566D01*
X131347566Y-118085010D01*
X131419092Y-117989575D01*
X131427625Y-117973988D01*
X131443869Y-117930656D01*
X131486510Y-117873891D01*
X131553071Y-117849191D01*
X131622420Y-117864398D01*
X131672539Y-117914684D01*
X131687090Y-117961058D01*
X131690239Y-117989575D01*
X131692113Y-118006553D01*
X131694723Y-118013684D01*
X131694723Y-118013686D01*
X131725419Y-118097566D01*
X131746553Y-118155319D01*
X131750789Y-118161622D01*
X131750789Y-118161623D01*
X131796401Y-118229500D01*
X131834908Y-118286805D01*
X131952076Y-118393419D01*
X132091293Y-118469008D01*
X132244522Y-118509207D01*
X132328477Y-118510526D01*
X132395319Y-118511576D01*
X132395322Y-118511576D01*
X132402916Y-118511695D01*
X132557332Y-118476329D01*
X132659797Y-118424795D01*
X132729640Y-118412057D01*
X132795284Y-118439101D01*
X132805505Y-118448265D01*
X133108595Y-118751355D01*
X133142621Y-118813667D01*
X133145500Y-118840450D01*
X133145500Y-122879839D01*
X133125498Y-122947960D01*
X133071842Y-122994453D01*
X133001568Y-123004557D01*
X132936988Y-122975063D01*
X132930405Y-122968934D01*
X130942548Y-120981077D01*
X130935121Y-120972973D01*
X130917639Y-120952139D01*
X130910554Y-120943695D01*
X130901011Y-120938185D01*
X130901007Y-120938182D01*
X130877459Y-120924587D01*
X130868188Y-120918681D01*
X130845917Y-120903086D01*
X130845915Y-120903085D01*
X130836889Y-120896765D01*
X130826245Y-120893913D01*
X130822921Y-120892363D01*
X130819467Y-120891106D01*
X130809922Y-120885595D01*
X130799070Y-120883681D01*
X130799069Y-120883681D01*
X130772289Y-120878959D01*
X130761558Y-120876580D01*
X130735297Y-120869543D01*
X130735295Y-120869543D01*
X130724648Y-120866690D01*
X130713664Y-120867651D01*
X130713663Y-120867651D01*
X130686588Y-120870020D01*
X130675606Y-120870500D01*
X129897557Y-120870500D01*
X129846612Y-120859741D01*
X129821263Y-120848534D01*
X129795238Y-120845500D01*
X129280500Y-120845500D01*
X129212379Y-120825498D01*
X129165886Y-120771842D01*
X129154500Y-120719500D01*
X129154500Y-120204762D01*
X129153853Y-120199319D01*
X129152458Y-120187597D01*
X129152458Y-120187595D01*
X129151341Y-120178211D01*
X129140348Y-120153463D01*
X129129500Y-120102317D01*
X129129500Y-118355500D01*
X129149502Y-118287379D01*
X129203158Y-118240886D01*
X129255499Y-118229500D01*
X129485725Y-118229499D01*
X129495388Y-118229499D01*
X129498782Y-118229130D01*
X129498788Y-118229130D01*
X129546166Y-118223984D01*
X129546170Y-118223983D01*
X129554024Y-118223130D01*
X129682635Y-118174917D01*
X129689814Y-118169537D01*
X129689817Y-118169535D01*
X129785367Y-118097923D01*
X129792544Y-118092544D01*
X129797923Y-118085367D01*
X129869535Y-117989817D01*
X129869537Y-117989814D01*
X129874917Y-117982635D01*
X129882285Y-117962980D01*
X129924927Y-117906216D01*
X129991488Y-117881516D01*
X130060837Y-117896724D01*
X130110955Y-117947010D01*
X130118249Y-117962982D01*
X130122374Y-117973986D01*
X130130908Y-117989575D01*
X130202434Y-118085010D01*
X130214990Y-118097566D01*
X130310425Y-118169092D01*
X130326012Y-118177625D01*
X130438689Y-118219865D01*
X130453934Y-118223490D01*
X130501259Y-118228631D01*
X130503693Y-118228763D01*
X130518124Y-118224525D01*
X130519329Y-118223135D01*
X130521000Y-118215452D01*
X130521000Y-117372000D01*
X130541002Y-117303879D01*
X130594658Y-117257386D01*
X130647000Y-117246000D01*
X131460883Y-117246000D01*
X131499197Y-117234750D01*
X131570194Y-117234750D01*
X131623791Y-117266551D01*
G37*
%TD.AperFunction*%
%TA.AperFunction,Conductor*%
G36*
X131642621Y-114520002D02*
G01*
X131689114Y-114573658D01*
X131700500Y-114626000D01*
X131700500Y-114881080D01*
X131697951Y-114905028D01*
X131697872Y-114906693D01*
X131695680Y-114916876D01*
X131696904Y-114927217D01*
X131699627Y-114950223D01*
X131699977Y-114956154D01*
X131700072Y-114956146D01*
X131700500Y-114961324D01*
X131700500Y-114966524D01*
X131701354Y-114971653D01*
X131701354Y-114971656D01*
X131703669Y-114985565D01*
X131704506Y-114991443D01*
X131710530Y-115042341D01*
X131714493Y-115050593D01*
X131715996Y-115059626D01*
X131720943Y-115068795D01*
X131720944Y-115068797D01*
X131740334Y-115104732D01*
X131743031Y-115110025D01*
X131761785Y-115149082D01*
X131761788Y-115149086D01*
X131765219Y-115156232D01*
X131768814Y-115160508D01*
X131770737Y-115162431D01*
X131772509Y-115164363D01*
X131772552Y-115164442D01*
X131772428Y-115164555D01*
X131772904Y-115165095D01*
X131775990Y-115170814D01*
X131783635Y-115177881D01*
X131815586Y-115207416D01*
X131819152Y-115210846D01*
X133041249Y-116432943D01*
X133075275Y-116495255D01*
X133077076Y-116538482D01*
X133071729Y-116579096D01*
X133085264Y-116701688D01*
X133072858Y-116771592D01*
X133024629Y-116823692D01*
X132955888Y-116841447D01*
X132888461Y-116819219D01*
X132870930Y-116804611D01*
X131922884Y-115856565D01*
X131915468Y-115848472D01*
X131897986Y-115827638D01*
X131890901Y-115819194D01*
X131881358Y-115813684D01*
X131881354Y-115813681D01*
X131857806Y-115800086D01*
X131848535Y-115794180D01*
X131826264Y-115778585D01*
X131826262Y-115778584D01*
X131817236Y-115772264D01*
X131806592Y-115769412D01*
X131803268Y-115767862D01*
X131799814Y-115766605D01*
X131790269Y-115761094D01*
X131779417Y-115759180D01*
X131779416Y-115759180D01*
X131752636Y-115754458D01*
X131741905Y-115752079D01*
X131715644Y-115745042D01*
X131715642Y-115745042D01*
X131704995Y-115742189D01*
X131694011Y-115743150D01*
X131694010Y-115743150D01*
X131666935Y-115745519D01*
X131655953Y-115745999D01*
X129557971Y-115745999D01*
X129546989Y-115745519D01*
X129519914Y-115743150D01*
X129519913Y-115743150D01*
X129508929Y-115742189D01*
X129498282Y-115745042D01*
X129498280Y-115745042D01*
X129472019Y-115752079D01*
X129461288Y-115754458D01*
X129434508Y-115759180D01*
X129434507Y-115759180D01*
X129423655Y-115761094D01*
X129414110Y-115766605D01*
X129410656Y-115767862D01*
X129407332Y-115769412D01*
X129396688Y-115772264D01*
X129387662Y-115778584D01*
X129387660Y-115778585D01*
X129365389Y-115794180D01*
X129356118Y-115800086D01*
X129332574Y-115813679D01*
X129332571Y-115813681D01*
X129323023Y-115819194D01*
X129298456Y-115848472D01*
X129291034Y-115856571D01*
X128355376Y-116792229D01*
X128293064Y-116826255D01*
X128222053Y-116821116D01*
X128112734Y-116780135D01*
X128111419Y-116779642D01*
X128111418Y-116779642D01*
X128104024Y-116776870D01*
X128096174Y-116776017D01*
X128096173Y-116776017D01*
X128048786Y-116770869D01*
X128048785Y-116770869D01*
X128045389Y-116770500D01*
X127775080Y-116770500D01*
X127504612Y-116770501D01*
X127501218Y-116770870D01*
X127501212Y-116770870D01*
X127453834Y-116776016D01*
X127453830Y-116776017D01*
X127445976Y-116776870D01*
X127353335Y-116811599D01*
X127333008Y-116819219D01*
X127317365Y-116825083D01*
X127310186Y-116830463D01*
X127310183Y-116830465D01*
X127236993Y-116885319D01*
X127207456Y-116907456D01*
X127202077Y-116914633D01*
X127130465Y-117010183D01*
X127130463Y-117010186D01*
X127125083Y-117017365D01*
X127119496Y-117032269D01*
X127117715Y-117037020D01*
X127075073Y-117093784D01*
X127008512Y-117118484D01*
X126939163Y-117103276D01*
X126889045Y-117052990D01*
X126881751Y-117037018D01*
X126877626Y-117026014D01*
X126869092Y-117010425D01*
X126797566Y-116914990D01*
X126785010Y-116902434D01*
X126689575Y-116830908D01*
X126673988Y-116822375D01*
X126561311Y-116780135D01*
X126546066Y-116776510D01*
X126498741Y-116771369D01*
X126496307Y-116771237D01*
X126481876Y-116775475D01*
X126480671Y-116776865D01*
X126479000Y-116784548D01*
X126479000Y-118210885D01*
X126483475Y-118226124D01*
X126484865Y-118227329D01*
X126492424Y-118228973D01*
X126498741Y-118228631D01*
X126546066Y-118223490D01*
X126561311Y-118219865D01*
X126673988Y-118177625D01*
X126689575Y-118169092D01*
X126785010Y-118097566D01*
X126797566Y-118085010D01*
X126869092Y-117989575D01*
X126877626Y-117973986D01*
X126881751Y-117962982D01*
X126924391Y-117906217D01*
X126990953Y-117881516D01*
X127060302Y-117896723D01*
X127110421Y-117947008D01*
X127117714Y-117962978D01*
X127125083Y-117982635D01*
X127130463Y-117989814D01*
X127130465Y-117989817D01*
X127202077Y-118085367D01*
X127207456Y-118092544D01*
X127214633Y-118097923D01*
X127310183Y-118169535D01*
X127310186Y-118169537D01*
X127317365Y-118174917D01*
X127325769Y-118178067D01*
X127325770Y-118178068D01*
X127438581Y-118220358D01*
X127438582Y-118220358D01*
X127445976Y-118223130D01*
X127453826Y-118223983D01*
X127453827Y-118223983D01*
X127473535Y-118226124D01*
X127504611Y-118229500D01*
X127544500Y-118229500D01*
X127612621Y-118249502D01*
X127659114Y-118303158D01*
X127670500Y-118355500D01*
X127670500Y-119820001D01*
X127650498Y-119888122D01*
X127596842Y-119934615D01*
X127544500Y-119946001D01*
X127508561Y-119946001D01*
X127501129Y-119946442D01*
X127487717Y-119948036D01*
X127469686Y-119952991D01*
X127451709Y-119960977D01*
X127381334Y-119970352D01*
X127349618Y-119961070D01*
X127321263Y-119948534D01*
X127295238Y-119945500D01*
X127184384Y-119945500D01*
X127116263Y-119925498D01*
X127095289Y-119908595D01*
X126744231Y-119557537D01*
X126710205Y-119495225D01*
X126716419Y-119421446D01*
X126734006Y-119377698D01*
X126734008Y-119377691D01*
X126736842Y-119370641D01*
X126749703Y-119280271D01*
X126758581Y-119217891D01*
X126758581Y-119217888D01*
X126759162Y-119213807D01*
X126759307Y-119200000D01*
X126740276Y-119042733D01*
X126684280Y-118894546D01*
X126668943Y-118872231D01*
X126598855Y-118770251D01*
X126598854Y-118770249D01*
X126594553Y-118763992D01*
X126580370Y-118751355D01*
X126481946Y-118663664D01*
X126476275Y-118658611D01*
X126468889Y-118654700D01*
X126342988Y-118588039D01*
X126342989Y-118588039D01*
X126336274Y-118584484D01*
X126182633Y-118545892D01*
X126175034Y-118545852D01*
X126175033Y-118545852D01*
X126109181Y-118545507D01*
X126024221Y-118545062D01*
X126016841Y-118546834D01*
X126016839Y-118546834D01*
X125877563Y-118580271D01*
X125877560Y-118580272D01*
X125870184Y-118582043D01*
X125729414Y-118654700D01*
X125610039Y-118758838D01*
X125518950Y-118888444D01*
X125516190Y-118895524D01*
X125467836Y-119019546D01*
X125461406Y-119036037D01*
X125440729Y-119193096D01*
X125446466Y-119245062D01*
X125450354Y-119280271D01*
X125458113Y-119350553D01*
X125460723Y-119357684D01*
X125460723Y-119357686D01*
X125509647Y-119491377D01*
X125512553Y-119499319D01*
X125516789Y-119505622D01*
X125516789Y-119505623D01*
X125578683Y-119597730D01*
X125600908Y-119630805D01*
X125718076Y-119737419D01*
X125724749Y-119741042D01*
X125850616Y-119809383D01*
X125850618Y-119809384D01*
X125857293Y-119813008D01*
X125917864Y-119828898D01*
X125974985Y-119861679D01*
X126744211Y-120630905D01*
X126778237Y-120693217D01*
X126773172Y-120764032D01*
X126730625Y-120820868D01*
X126664105Y-120845679D01*
X126655116Y-120846000D01*
X126208562Y-120846001D01*
X126201129Y-120846442D01*
X126187720Y-120848036D01*
X126169685Y-120852992D01*
X126085459Y-120890405D01*
X126081559Y-120893085D01*
X126014090Y-120915184D01*
X125945383Y-120897297D01*
X125921099Y-120878339D01*
X124645749Y-119602989D01*
X124635894Y-119591900D01*
X124628269Y-119582228D01*
X124614641Y-119564941D01*
X124589762Y-119547746D01*
X124565906Y-119531258D01*
X124562713Y-119528976D01*
X124515076Y-119493791D01*
X124508203Y-119491377D01*
X124502211Y-119487236D01*
X124445722Y-119469371D01*
X124442001Y-119468129D01*
X124386126Y-119448507D01*
X124378922Y-119448224D01*
X124378751Y-119448191D01*
X124371903Y-119446025D01*
X124365232Y-119445500D01*
X124312062Y-119445500D01*
X124307116Y-119445403D01*
X124306224Y-119445368D01*
X124249563Y-119443142D01*
X124242408Y-119445039D01*
X124234033Y-119445500D01*
X122321787Y-119445500D01*
X122253666Y-119425498D01*
X122237968Y-119413577D01*
X122181946Y-119363664D01*
X122176275Y-119358611D01*
X122168889Y-119354700D01*
X122042988Y-119288039D01*
X122042989Y-119288039D01*
X122036274Y-119284484D01*
X121882633Y-119245892D01*
X121875034Y-119245852D01*
X121875033Y-119245852D01*
X121809181Y-119245507D01*
X121724221Y-119245062D01*
X121716841Y-119246834D01*
X121716839Y-119246834D01*
X121577563Y-119280271D01*
X121577560Y-119280272D01*
X121570184Y-119282043D01*
X121429414Y-119354700D01*
X121310039Y-119458838D01*
X121218950Y-119588444D01*
X121161406Y-119736037D01*
X121160414Y-119743570D01*
X121160414Y-119743571D01*
X121149181Y-119828898D01*
X121140729Y-119893096D01*
X121147342Y-119952991D01*
X121151914Y-119994401D01*
X121158113Y-120050553D01*
X121160723Y-120057684D01*
X121160723Y-120057686D01*
X121204829Y-120178211D01*
X121212553Y-120199319D01*
X121300908Y-120330805D01*
X121306527Y-120335918D01*
X121306528Y-120335919D01*
X121412460Y-120432309D01*
X121418076Y-120437419D01*
X121536899Y-120501935D01*
X121540277Y-120503769D01*
X121590599Y-120553852D01*
X121605855Y-120623190D01*
X121581202Y-120689769D01*
X121524468Y-120732451D01*
X121480155Y-120740500D01*
X121074000Y-120740500D01*
X121072630Y-120740560D01*
X121072621Y-120740560D01*
X121063705Y-120740949D01*
X121051388Y-120741487D01*
X121038538Y-120742611D01*
X121037010Y-120742778D01*
X121034115Y-120743095D01*
X121034113Y-120743095D01*
X121027275Y-120743844D01*
X120931397Y-120776392D01*
X120926035Y-120779488D01*
X120920403Y-120782040D01*
X120919793Y-120780693D01*
X120864541Y-120795500D01*
X120477244Y-120795500D01*
X120473848Y-120795869D01*
X120473847Y-120795869D01*
X120423403Y-120801349D01*
X120423402Y-120801349D01*
X120415552Y-120802202D01*
X120408159Y-120804974D01*
X120408157Y-120804974D01*
X120369954Y-120819296D01*
X120280236Y-120852929D01*
X120273057Y-120858309D01*
X120273054Y-120858311D01*
X120164596Y-120939596D01*
X120163670Y-120938360D01*
X120110084Y-120967621D01*
X120083301Y-120970500D01*
X118996228Y-120970500D01*
X118979782Y-120969422D01*
X118958179Y-120966578D01*
X118958178Y-120966578D01*
X118949990Y-120965500D01*
X118912010Y-120970500D01*
X118861270Y-120977180D01*
X118798710Y-120985416D01*
X118657740Y-121043808D01*
X118536686Y-121136696D01*
X118531660Y-121143246D01*
X118531657Y-121143249D01*
X118518389Y-121160541D01*
X118507522Y-121172932D01*
X117096859Y-122583595D01*
X117034547Y-122617621D01*
X117007764Y-122620500D01*
X114709384Y-122620500D01*
X114641263Y-122600498D01*
X114620289Y-122583595D01*
X113107442Y-121070748D01*
X113073416Y-121008436D01*
X113078481Y-120937621D01*
X113107442Y-120892558D01*
X116208073Y-117791927D01*
X125521000Y-117791927D01*
X125521369Y-117798741D01*
X125526510Y-117846066D01*
X125530135Y-117861311D01*
X125572375Y-117973988D01*
X125580908Y-117989575D01*
X125652434Y-118085010D01*
X125664990Y-118097566D01*
X125760425Y-118169092D01*
X125776012Y-118177625D01*
X125888689Y-118219865D01*
X125903934Y-118223490D01*
X125951259Y-118228631D01*
X125953693Y-118228763D01*
X125968124Y-118224525D01*
X125969329Y-118223135D01*
X125971000Y-118215452D01*
X125971000Y-117772115D01*
X125966525Y-117756876D01*
X125965135Y-117755671D01*
X125957452Y-117754000D01*
X125539115Y-117754000D01*
X125523876Y-117758475D01*
X125522671Y-117759865D01*
X125521000Y-117767548D01*
X125521000Y-117791927D01*
X116208073Y-117791927D01*
X116772115Y-117227885D01*
X125521000Y-117227885D01*
X125525475Y-117243124D01*
X125526865Y-117244329D01*
X125534548Y-117246000D01*
X125952885Y-117246000D01*
X125968124Y-117241525D01*
X125969329Y-117240135D01*
X125971000Y-117232452D01*
X125971000Y-116789115D01*
X125966525Y-116773876D01*
X125965135Y-116772671D01*
X125957576Y-116771027D01*
X125951259Y-116771369D01*
X125903934Y-116776510D01*
X125888689Y-116780135D01*
X125776012Y-116822375D01*
X125760425Y-116830908D01*
X125664990Y-116902434D01*
X125652434Y-116914990D01*
X125580908Y-117010425D01*
X125572375Y-117026012D01*
X125530135Y-117138689D01*
X125526510Y-117153934D01*
X125521369Y-117201259D01*
X125521000Y-117208073D01*
X125521000Y-117227885D01*
X116772115Y-117227885D01*
X119463095Y-114536905D01*
X119525407Y-114502879D01*
X119552190Y-114500000D01*
X131574500Y-114500000D01*
X131642621Y-114520002D01*
G37*
%TD.AperFunction*%
%TA.AperFunction,Conductor*%
G36*
X124491965Y-122260398D02*
G01*
X125841513Y-122422344D01*
X125906766Y-122450319D01*
X125938906Y-122500000D01*
X123383500Y-122500000D01*
X123396723Y-122439698D01*
X123447008Y-122389579D01*
X123462980Y-122382285D01*
X123463626Y-122382043D01*
X123482635Y-122374917D01*
X123489814Y-122369537D01*
X123489817Y-122369535D01*
X123585367Y-122297923D01*
X123592544Y-122292544D01*
X123592954Y-122293091D01*
X123649197Y-122262379D01*
X123675980Y-122259500D01*
X124476953Y-122259500D01*
X124491965Y-122260398D01*
G37*
%TD.AperFunction*%
%TD*%
%TA.AperFunction,Conductor*%
%TO.N,+5V*%
G36*
X124513773Y-121005799D02*
G01*
X125185009Y-121288425D01*
X125208618Y-121304300D01*
X125547737Y-121643418D01*
X125618659Y-121694101D01*
X125624519Y-121695853D01*
X125624520Y-121695854D01*
X125666653Y-121708454D01*
X125723196Y-121725363D01*
X125754319Y-121743935D01*
X125780855Y-121770471D01*
X125790056Y-121781682D01*
X125801376Y-121798624D01*
X125824377Y-121813993D01*
X125824378Y-121813994D01*
X125845415Y-121828050D01*
X125892505Y-121859515D01*
X125937371Y-121868439D01*
X125972865Y-121875500D01*
X125972868Y-121875500D01*
X126000000Y-121880897D01*
X126019984Y-121876922D01*
X126034420Y-121875500D01*
X126577133Y-121875500D01*
X126580702Y-121874790D01*
X126580703Y-121874790D01*
X126650346Y-121860937D01*
X126657495Y-121859515D01*
X126662816Y-121855960D01*
X126690263Y-121850500D01*
X126869748Y-121850500D01*
X126873317Y-121849790D01*
X126873318Y-121849790D01*
X126880927Y-121848276D01*
X126911564Y-121842182D01*
X126961592Y-121849882D01*
X126994968Y-121887939D01*
X127000000Y-121914760D01*
X127000000Y-122085240D01*
X126982687Y-122132806D01*
X126938850Y-122158116D01*
X126911566Y-122157818D01*
X126880927Y-122151724D01*
X126873318Y-122150210D01*
X126873317Y-122150210D01*
X126869748Y-122149500D01*
X126230252Y-122149500D01*
X126226683Y-122150210D01*
X126226682Y-122150210D01*
X126216295Y-122152276D01*
X126171769Y-122161133D01*
X126165707Y-122165184D01*
X126165706Y-122165184D01*
X126144437Y-122179396D01*
X126094507Y-122191341D01*
X124500000Y-122000000D01*
X121074000Y-122000000D01*
X121026434Y-121982687D01*
X121001124Y-121938850D01*
X121000000Y-121926000D01*
X121000000Y-121074000D01*
X121017313Y-121026434D01*
X121061150Y-121001124D01*
X121074000Y-121000000D01*
X124485057Y-121000000D01*
X124513773Y-121005799D01*
G37*
%TD.AperFunction*%
%TD*%
%TA.AperFunction,Conductor*%
%TO.N,GND*%
G36*
X126061133Y-122528231D02*
G01*
X126105448Y-122594552D01*
X126171769Y-122638867D01*
X126216295Y-122647724D01*
X126226682Y-122649790D01*
X126226683Y-122649790D01*
X126230252Y-122650500D01*
X126869748Y-122650500D01*
X126873317Y-122649790D01*
X126873318Y-122649790D01*
X126878409Y-122648777D01*
X126900000Y-122644482D01*
X126900000Y-123400000D01*
X120500000Y-123400000D01*
X120500000Y-122500000D01*
X126055518Y-122500000D01*
X126061133Y-122528231D01*
G37*
%TD.AperFunction*%
%TD*%
%TA.AperFunction,Conductor*%
%TO.N,GND*%
G36*
X125500000Y-119350000D02*
G01*
X125567271Y-119352403D01*
X125619139Y-119477625D01*
X125707379Y-119592621D01*
X125822375Y-119680861D01*
X125956291Y-119736330D01*
X125961099Y-119736963D01*
X125977938Y-119739180D01*
X126020605Y-119760221D01*
X126900000Y-120639616D01*
X126900000Y-121300000D01*
X126132624Y-121300000D01*
X126116725Y-121275613D01*
X126116226Y-121275852D01*
X126114396Y-121272040D01*
X126114394Y-121272037D01*
X126065716Y-121170664D01*
X126062398Y-121166716D01*
X124579866Y-119684184D01*
X124570025Y-119671998D01*
X124566145Y-119665989D01*
X124566143Y-119665987D01*
X124562825Y-119660848D01*
X124536514Y-119640106D01*
X124530001Y-119634319D01*
X124527254Y-119631572D01*
X124524776Y-119629801D01*
X124524771Y-119629797D01*
X124511920Y-119620614D01*
X124509157Y-119618540D01*
X124471189Y-119588608D01*
X124465420Y-119586582D01*
X124464383Y-119586012D01*
X124463680Y-119585570D01*
X124463140Y-119585289D01*
X124462383Y-119584972D01*
X124461307Y-119584445D01*
X124456331Y-119580889D01*
X124410023Y-119567040D01*
X124406707Y-119565963D01*
X124399374Y-119563388D01*
X124361094Y-119549945D01*
X124355956Y-119549500D01*
X124354619Y-119549500D01*
X124350088Y-119549116D01*
X124344536Y-119547456D01*
X124338426Y-119547696D01*
X124338425Y-119547696D01*
X124293963Y-119549443D01*
X124291058Y-119549500D01*
X122500000Y-119549500D01*
X122500000Y-118300000D01*
X125500000Y-118300000D01*
X125500000Y-119350000D01*
G37*
%TD.AperFunction*%
%TA.AperFunction,Conductor*%
G36*
X126900000Y-119400000D02*
G01*
X126900000Y-119860384D01*
X126597190Y-119557574D01*
X126575798Y-119511698D01*
X126581149Y-119476930D01*
X126617197Y-119389900D01*
X126900000Y-119400000D01*
G37*
%TD.AperFunction*%
%TD*%
%TA.AperFunction,Conductor*%
%TO.N,GNDA*%
G36*
X78015931Y-67020002D02*
G01*
X78036905Y-67036905D01*
X88910905Y-77910905D01*
X88944931Y-77973217D01*
X88939866Y-78044032D01*
X88910905Y-78089095D01*
X78089095Y-88910905D01*
X78026783Y-88944931D01*
X77955968Y-88939866D01*
X77910905Y-88910905D01*
X72500000Y-83500000D01*
X66580500Y-83500000D01*
X66512379Y-83479998D01*
X66465886Y-83426342D01*
X66454500Y-83374000D01*
X66454500Y-82247095D01*
X67267001Y-82247095D01*
X67267338Y-82253614D01*
X67277257Y-82349206D01*
X67280149Y-82362600D01*
X67331588Y-82516784D01*
X67337761Y-82529962D01*
X67423063Y-82667807D01*
X67432099Y-82679208D01*
X67546829Y-82793739D01*
X67558240Y-82802751D01*
X67696243Y-82887816D01*
X67709424Y-82893963D01*
X67863710Y-82945138D01*
X67877086Y-82948005D01*
X67971438Y-82957672D01*
X67977854Y-82958000D01*
X68227885Y-82958000D01*
X68243124Y-82953525D01*
X68244329Y-82952135D01*
X68246000Y-82944452D01*
X68246000Y-82939884D01*
X68754000Y-82939884D01*
X68758475Y-82955123D01*
X68759865Y-82956328D01*
X68767548Y-82957999D01*
X69022095Y-82957999D01*
X69028614Y-82957662D01*
X69124206Y-82947743D01*
X69137600Y-82944851D01*
X69291784Y-82893412D01*
X69304962Y-82887239D01*
X69442807Y-82801937D01*
X69454208Y-82792901D01*
X69568739Y-82678171D01*
X69577753Y-82666757D01*
X69610594Y-82613479D01*
X69663366Y-82565985D01*
X69733437Y-82554561D01*
X69792531Y-82579284D01*
X69792609Y-82579157D01*
X69793417Y-82579655D01*
X69795948Y-82580714D01*
X69798839Y-82582997D01*
X69931880Y-82665004D01*
X69945061Y-82671151D01*
X70093814Y-82720491D01*
X70107190Y-82723358D01*
X70198097Y-82732672D01*
X70204513Y-82733000D01*
X70227885Y-82733000D01*
X70243124Y-82728525D01*
X70244329Y-82727135D01*
X70246000Y-82719452D01*
X70246000Y-82714885D01*
X70754000Y-82714885D01*
X70758475Y-82730124D01*
X70759865Y-82731329D01*
X70767548Y-82733000D01*
X70795438Y-82733000D01*
X70801953Y-82732663D01*
X70894057Y-82723106D01*
X70907456Y-82720212D01*
X71056107Y-82670619D01*
X71069286Y-82664445D01*
X71202173Y-82582212D01*
X71213574Y-82573176D01*
X71323986Y-82462571D01*
X71332998Y-82451160D01*
X71415004Y-82318120D01*
X71421151Y-82304939D01*
X71470491Y-82156186D01*
X71473358Y-82142810D01*
X71482672Y-82051903D01*
X71482929Y-82046874D01*
X71478525Y-82031876D01*
X71477135Y-82030671D01*
X71469452Y-82029000D01*
X70772115Y-82029000D01*
X70756876Y-82033475D01*
X70755671Y-82034865D01*
X70754000Y-82042548D01*
X70754000Y-82714885D01*
X70246000Y-82714885D01*
X70246000Y-82047115D01*
X70241525Y-82031876D01*
X70240135Y-82030671D01*
X70232452Y-82029000D01*
X69791115Y-82029000D01*
X69775876Y-82033475D01*
X69774671Y-82034865D01*
X69773000Y-82042548D01*
X69773000Y-82078000D01*
X69752998Y-82146121D01*
X69699342Y-82192614D01*
X69647000Y-82204000D01*
X68772115Y-82204000D01*
X68756876Y-82208475D01*
X68755671Y-82209865D01*
X68754000Y-82217548D01*
X68754000Y-82939884D01*
X68246000Y-82939884D01*
X68246000Y-82222115D01*
X68241525Y-82206876D01*
X68240135Y-82205671D01*
X68232452Y-82204000D01*
X67285116Y-82204000D01*
X67269877Y-82208475D01*
X67268672Y-82209865D01*
X67267001Y-82217548D01*
X67267001Y-82247095D01*
X66454500Y-82247095D01*
X66454500Y-81240450D01*
X66474502Y-81172329D01*
X66491405Y-81151355D01*
X67101355Y-80541405D01*
X67163667Y-80507379D01*
X67190450Y-80504500D01*
X67484726Y-80504500D01*
X67552847Y-80524502D01*
X67585551Y-80554934D01*
X67664596Y-80660404D01*
X67780236Y-80747071D01*
X67788645Y-80750223D01*
X67795874Y-80754181D01*
X67846021Y-80804438D01*
X67861036Y-80873829D01*
X67836152Y-80940322D01*
X67775243Y-80984226D01*
X67708216Y-81006588D01*
X67695038Y-81012761D01*
X67557193Y-81098063D01*
X67545792Y-81107099D01*
X67431261Y-81221829D01*
X67422249Y-81233240D01*
X67337184Y-81371243D01*
X67331037Y-81384424D01*
X67279862Y-81538710D01*
X67276995Y-81552086D01*
X67267328Y-81646438D01*
X67267000Y-81652855D01*
X67267000Y-81677885D01*
X67271475Y-81693124D01*
X67272865Y-81694329D01*
X67280548Y-81696000D01*
X69458885Y-81696000D01*
X69474124Y-81691525D01*
X69475329Y-81690135D01*
X69477000Y-81682452D01*
X69477000Y-81647000D01*
X69497002Y-81578879D01*
X69550658Y-81532386D01*
X69603000Y-81521000D01*
X71464885Y-81521000D01*
X71480124Y-81516525D01*
X71481329Y-81515135D01*
X71483000Y-81507452D01*
X71483000Y-81504562D01*
X71482663Y-81498043D01*
X71482453Y-81496022D01*
X71482535Y-81495577D01*
X71482495Y-81494803D01*
X71482679Y-81494793D01*
X71495318Y-81426201D01*
X71543889Y-81374419D01*
X71612745Y-81357117D01*
X71680025Y-81379788D01*
X71696875Y-81393924D01*
X71734277Y-81431326D01*
X71848445Y-81489498D01*
X71943166Y-81504500D01*
X73181834Y-81504500D01*
X73276555Y-81489498D01*
X73390723Y-81431326D01*
X73481326Y-81340723D01*
X73539498Y-81226555D01*
X73554500Y-81131834D01*
X73554500Y-80768166D01*
X73539498Y-80673445D01*
X73542435Y-80672980D01*
X73540867Y-80617931D01*
X73577535Y-80557136D01*
X73641250Y-80525817D01*
X73704794Y-80533113D01*
X73705178Y-80531932D01*
X73711012Y-80533827D01*
X73711783Y-80533916D01*
X73712937Y-80534453D01*
X73714611Y-80534997D01*
X73723445Y-80539498D01*
X73818166Y-80554500D01*
X75056834Y-80554500D01*
X75151555Y-80539498D01*
X75265723Y-80481326D01*
X75356326Y-80390723D01*
X75414498Y-80276555D01*
X75429500Y-80181834D01*
X75429500Y-79818166D01*
X75414498Y-79723445D01*
X75356326Y-79609277D01*
X75265723Y-79518674D01*
X75151555Y-79460502D01*
X75056834Y-79445500D01*
X74505500Y-79445500D01*
X74437379Y-79425498D01*
X74390886Y-79371842D01*
X74379500Y-79319500D01*
X74379500Y-76101572D01*
X74399502Y-76033451D01*
X74404149Y-76026712D01*
X74416728Y-76009682D01*
X74431209Y-75990076D01*
X74462403Y-75901249D01*
X74503845Y-75843606D01*
X74569874Y-75817518D01*
X74581284Y-75817000D01*
X74838462Y-75817000D01*
X74906583Y-75837002D01*
X74947527Y-75880931D01*
X74949372Y-75885853D01*
X75030670Y-75994330D01*
X75139147Y-76075628D01*
X75147547Y-76078777D01*
X75147551Y-76078779D01*
X75223475Y-76107242D01*
X75266081Y-76123214D01*
X75273934Y-76124067D01*
X75273938Y-76124068D01*
X75320548Y-76129131D01*
X75320552Y-76129131D01*
X75323947Y-76129500D01*
X75749937Y-76129500D01*
X76176052Y-76129499D01*
X76233919Y-76123214D01*
X76360853Y-76075628D01*
X76364302Y-76073043D01*
X76431368Y-76058375D01*
X76497916Y-76083112D01*
X76542043Y-76144189D01*
X76579380Y-76256105D01*
X76585555Y-76269286D01*
X76667788Y-76402173D01*
X76676824Y-76413574D01*
X76787429Y-76523986D01*
X76798840Y-76532998D01*
X76845102Y-76561514D01*
X76892595Y-76614286D01*
X76904019Y-76684358D01*
X76879812Y-76744339D01*
X76830470Y-76810176D01*
X76830468Y-76810180D01*
X76825083Y-76817365D01*
X76821930Y-76825775D01*
X76819614Y-76830006D01*
X76769357Y-76880153D01*
X76709092Y-76895500D01*
X76306680Y-76895500D01*
X76262450Y-76887482D01*
X76242900Y-76880153D01*
X76233919Y-76876786D01*
X76226066Y-76875933D01*
X76226062Y-76875932D01*
X76179452Y-76870869D01*
X76179448Y-76870869D01*
X76176053Y-76870500D01*
X75750063Y-76870500D01*
X75323948Y-76870501D01*
X75266081Y-76876786D01*
X75257100Y-76880153D01*
X75147551Y-76921221D01*
X75147548Y-76921222D01*
X75139147Y-76924372D01*
X75030670Y-77005670D01*
X74949372Y-77114147D01*
X74946222Y-77122548D01*
X74946221Y-77122551D01*
X74936363Y-77148847D01*
X74901786Y-77241081D01*
X74895500Y-77298947D01*
X74895501Y-77826052D01*
X74901786Y-77883919D01*
X74909877Y-77905502D01*
X74937618Y-77979499D01*
X74949372Y-78010853D01*
X75030670Y-78119330D01*
X75139147Y-78200628D01*
X75147548Y-78203778D01*
X75147551Y-78203779D01*
X75196708Y-78222207D01*
X75266081Y-78248214D01*
X75273934Y-78249067D01*
X75273938Y-78249068D01*
X75320548Y-78254131D01*
X75320552Y-78254131D01*
X75323947Y-78254500D01*
X75749937Y-78254500D01*
X76176052Y-78254499D01*
X76233919Y-78248214D01*
X76303292Y-78222207D01*
X76352449Y-78203779D01*
X76352452Y-78203778D01*
X76360853Y-78200628D01*
X76469330Y-78119330D01*
X76550628Y-78010853D01*
X76562383Y-77979499D01*
X76590123Y-77905502D01*
X76598214Y-77883919D01*
X76599067Y-77876066D01*
X76599068Y-77876062D01*
X76604131Y-77829452D01*
X76604131Y-77829448D01*
X76604500Y-77826053D01*
X76604500Y-77816531D01*
X76624502Y-77748410D01*
X76678158Y-77701917D01*
X76748432Y-77691813D01*
X76813012Y-77721307D01*
X76831326Y-77740965D01*
X76895097Y-77826053D01*
X76907456Y-77842544D01*
X76914633Y-77847923D01*
X77010183Y-77919535D01*
X77010186Y-77919537D01*
X77017365Y-77924917D01*
X77025769Y-77928067D01*
X77025770Y-77928068D01*
X77138581Y-77970358D01*
X77138582Y-77970358D01*
X77145976Y-77973130D01*
X77153826Y-77973983D01*
X77153827Y-77973983D01*
X77201205Y-77979130D01*
X77204611Y-77979500D01*
X77499956Y-77979500D01*
X77795388Y-77979499D01*
X77798782Y-77979130D01*
X77798788Y-77979130D01*
X77846166Y-77973984D01*
X77846170Y-77973983D01*
X77854024Y-77973130D01*
X77953287Y-77935919D01*
X77974230Y-77928068D01*
X77974231Y-77928067D01*
X77982635Y-77924917D01*
X77989814Y-77919537D01*
X77989817Y-77919535D01*
X78076359Y-77854674D01*
X78142866Y-77829826D01*
X78151925Y-77829500D01*
X78447391Y-77829500D01*
X78515512Y-77849502D01*
X78562005Y-77903158D01*
X78565371Y-77911265D01*
X78577929Y-77944764D01*
X78583309Y-77951943D01*
X78583311Y-77951946D01*
X78603961Y-77979499D01*
X78664596Y-78060404D01*
X78671776Y-78065785D01*
X78773054Y-78141689D01*
X78773057Y-78141691D01*
X78780236Y-78147071D01*
X78813690Y-78159612D01*
X78908157Y-78195026D01*
X78908159Y-78195026D01*
X78915552Y-78197798D01*
X78923402Y-78198651D01*
X78923403Y-78198651D01*
X78941602Y-78200628D01*
X78977244Y-78204500D01*
X78994500Y-78204500D01*
X79062621Y-78224502D01*
X79109114Y-78278158D01*
X79120500Y-78330500D01*
X79120500Y-80290616D01*
X79100498Y-80358737D01*
X79083595Y-80379711D01*
X76154411Y-83308895D01*
X76092099Y-83342921D01*
X76064658Y-83345798D01*
X75924221Y-83345062D01*
X75916841Y-83346834D01*
X75916839Y-83346834D01*
X75777563Y-83380271D01*
X75777560Y-83380272D01*
X75770184Y-83382043D01*
X75629414Y-83454700D01*
X75510039Y-83558838D01*
X75418950Y-83688444D01*
X75361406Y-83836037D01*
X75360414Y-83843570D01*
X75360414Y-83843571D01*
X75344294Y-83966020D01*
X75340729Y-83993096D01*
X75358113Y-84150553D01*
X75360723Y-84157684D01*
X75360723Y-84157686D01*
X75398437Y-84260744D01*
X75412553Y-84299319D01*
X75500908Y-84430805D01*
X75506527Y-84435918D01*
X75506528Y-84435919D01*
X75612460Y-84532309D01*
X75618076Y-84537419D01*
X75757293Y-84613008D01*
X75910522Y-84653207D01*
X75994477Y-84654526D01*
X76061319Y-84655576D01*
X76061322Y-84655576D01*
X76068916Y-84655695D01*
X76223332Y-84620329D01*
X76293742Y-84584917D01*
X76358072Y-84552563D01*
X76358075Y-84552561D01*
X76364855Y-84549151D01*
X76370626Y-84544222D01*
X76370629Y-84544220D01*
X76479536Y-84451204D01*
X76479536Y-84451203D01*
X76485314Y-84446269D01*
X76577755Y-84317624D01*
X76636842Y-84170641D01*
X76659162Y-84013807D01*
X76659307Y-84000000D01*
X76653437Y-83951496D01*
X76665109Y-83881468D01*
X76689429Y-83847265D01*
X79730219Y-80806476D01*
X79748961Y-80791339D01*
X79750190Y-80790221D01*
X79758940Y-80784571D01*
X79779729Y-80758200D01*
X79783676Y-80753759D01*
X79783603Y-80753697D01*
X79786963Y-80749732D01*
X79790638Y-80746057D01*
X79793655Y-80741835D01*
X79793660Y-80741829D01*
X79801862Y-80730350D01*
X79805428Y-80725600D01*
X79830711Y-80693528D01*
X79837156Y-80685353D01*
X79840189Y-80676716D01*
X79845513Y-80669266D01*
X79860202Y-80620151D01*
X79862034Y-80614514D01*
X79876390Y-80573633D01*
X79876390Y-80573632D01*
X79879018Y-80566149D01*
X79879500Y-80560584D01*
X79879500Y-80557876D01*
X79879614Y-80555242D01*
X79879643Y-80555144D01*
X79879807Y-80555151D01*
X79879851Y-80554447D01*
X79881713Y-80548222D01*
X79879597Y-80494365D01*
X79879500Y-80489418D01*
X79879500Y-78720384D01*
X79899502Y-78652263D01*
X79953158Y-78605770D01*
X80023432Y-78595666D01*
X80088012Y-78625160D01*
X80094595Y-78631289D01*
X80310249Y-78846943D01*
X80344275Y-78909255D01*
X80346076Y-78952485D01*
X80342454Y-78979997D01*
X80340729Y-78993096D01*
X80358113Y-79150553D01*
X80412553Y-79299319D01*
X80416789Y-79305622D01*
X80416789Y-79305623D01*
X80490087Y-79414701D01*
X80500908Y-79430805D01*
X80506527Y-79435918D01*
X80506528Y-79435919D01*
X80599888Y-79520869D01*
X80618076Y-79537419D01*
X80757293Y-79613008D01*
X80910522Y-79653207D01*
X80994477Y-79654526D01*
X81061319Y-79655576D01*
X81061322Y-79655576D01*
X81068916Y-79655695D01*
X81223332Y-79620329D01*
X81299677Y-79581932D01*
X81358072Y-79552563D01*
X81358075Y-79552561D01*
X81364855Y-79549151D01*
X81370626Y-79544222D01*
X81370629Y-79544220D01*
X81479536Y-79451204D01*
X81479536Y-79451203D01*
X81485314Y-79446269D01*
X81577755Y-79317624D01*
X81636842Y-79170641D01*
X81643266Y-79125500D01*
X81658581Y-79017891D01*
X81658581Y-79017888D01*
X81659162Y-79013807D01*
X81659307Y-79000000D01*
X81657561Y-78985567D01*
X81646077Y-78890673D01*
X81640276Y-78842733D01*
X81584280Y-78694546D01*
X81563952Y-78664968D01*
X81498855Y-78570251D01*
X81498854Y-78570249D01*
X81494553Y-78563992D01*
X81376275Y-78458611D01*
X81236274Y-78384484D01*
X81082633Y-78345892D01*
X81075034Y-78345852D01*
X81075033Y-78345852D01*
X81014626Y-78345536D01*
X80933335Y-78345110D01*
X80865321Y-78324752D01*
X80844901Y-78308207D01*
X80495626Y-77958932D01*
X80461600Y-77896620D01*
X80466740Y-77825609D01*
X80472798Y-77809448D01*
X80479500Y-77747756D01*
X80479500Y-77152244D01*
X80472798Y-77090552D01*
X80422071Y-76955236D01*
X80416691Y-76948057D01*
X80416689Y-76948054D01*
X80340785Y-76846776D01*
X80335404Y-76839596D01*
X80219764Y-76752929D01*
X80211355Y-76749777D01*
X80204126Y-76745819D01*
X80153979Y-76695562D01*
X80138964Y-76626171D01*
X80163848Y-76559678D01*
X80224757Y-76515774D01*
X80291784Y-76493412D01*
X80304963Y-76487238D01*
X80377694Y-76442231D01*
X80446146Y-76423393D01*
X80513916Y-76444554D01*
X80528796Y-76456181D01*
X80612354Y-76532212D01*
X80618076Y-76537419D01*
X80757293Y-76613008D01*
X80910522Y-76653207D01*
X80994477Y-76654526D01*
X81061319Y-76655576D01*
X81061322Y-76655576D01*
X81068916Y-76655695D01*
X81223332Y-76620329D01*
X81297376Y-76583089D01*
X81358072Y-76552563D01*
X81358075Y-76552561D01*
X81364855Y-76549151D01*
X81370626Y-76544222D01*
X81370629Y-76544220D01*
X81479536Y-76451204D01*
X81479536Y-76451203D01*
X81485314Y-76446269D01*
X81577755Y-76317624D01*
X81636842Y-76170641D01*
X81649474Y-76081880D01*
X81658581Y-76017891D01*
X81658581Y-76017888D01*
X81659162Y-76013807D01*
X81659307Y-76000000D01*
X81640276Y-75842733D01*
X81584280Y-75694546D01*
X81538850Y-75628445D01*
X81498855Y-75570251D01*
X81498854Y-75570249D01*
X81494553Y-75563992D01*
X81421681Y-75499065D01*
X81384126Y-75438816D01*
X81379500Y-75404989D01*
X81379500Y-75328920D01*
X81382049Y-75304972D01*
X81382128Y-75303307D01*
X81384320Y-75293124D01*
X81380373Y-75259777D01*
X81380023Y-75253846D01*
X81379928Y-75253854D01*
X81379500Y-75248676D01*
X81379500Y-75243476D01*
X81378646Y-75238344D01*
X81376331Y-75224435D01*
X81375494Y-75218557D01*
X81370694Y-75177999D01*
X81370694Y-75177998D01*
X81369470Y-75167659D01*
X81365507Y-75159407D01*
X81364004Y-75150374D01*
X81357799Y-75138873D01*
X81339666Y-75105268D01*
X81336969Y-75099975D01*
X81318215Y-75060919D01*
X81318214Y-75060918D01*
X81314781Y-75053768D01*
X81311187Y-75049493D01*
X81309262Y-75047568D01*
X81307491Y-75045638D01*
X81307445Y-75045553D01*
X81307568Y-75045441D01*
X81307096Y-75044906D01*
X81304010Y-75039186D01*
X81264413Y-75002583D01*
X81260848Y-74999154D01*
X76531478Y-70269784D01*
X76516337Y-70251037D01*
X76515222Y-70249811D01*
X76509571Y-70241060D01*
X76509300Y-70240846D01*
X76480813Y-70182282D01*
X76479566Y-70170680D01*
X76479499Y-70170686D01*
X76477216Y-70146522D01*
X76477215Y-70146518D01*
X76476493Y-70138873D01*
X76431209Y-70009924D01*
X76350010Y-69899990D01*
X76342439Y-69894398D01*
X76342436Y-69894395D01*
X76284159Y-69851351D01*
X76241248Y-69794790D01*
X76235728Y-69724009D01*
X76269352Y-69661479D01*
X76284159Y-69648649D01*
X76342436Y-69605605D01*
X76342439Y-69605602D01*
X76350010Y-69600010D01*
X76355602Y-69592439D01*
X76355605Y-69592436D01*
X76381579Y-69557270D01*
X76438140Y-69514359D01*
X76508922Y-69508839D01*
X76572025Y-69543034D01*
X82083595Y-75054604D01*
X82117621Y-75116916D01*
X82120500Y-75143699D01*
X82120500Y-76905187D01*
X82100498Y-76973308D01*
X82077330Y-77000135D01*
X82010039Y-77058838D01*
X81918950Y-77188444D01*
X81861406Y-77336037D01*
X81840729Y-77493096D01*
X81858113Y-77650553D01*
X81860723Y-77657684D01*
X81860723Y-77657686D01*
X81893218Y-77746482D01*
X81912553Y-77799319D01*
X81916789Y-77805622D01*
X81916789Y-77805623D01*
X81995171Y-77922267D01*
X82000908Y-77930805D01*
X82006527Y-77935918D01*
X82006528Y-77935919D01*
X82016249Y-77944764D01*
X82118076Y-78037419D01*
X82257293Y-78113008D01*
X82410522Y-78153207D01*
X82494477Y-78154526D01*
X82561319Y-78155576D01*
X82561322Y-78155576D01*
X82568916Y-78155695D01*
X82723332Y-78120329D01*
X82831782Y-78065785D01*
X82858072Y-78052563D01*
X82858075Y-78052561D01*
X82864855Y-78049151D01*
X82870626Y-78044222D01*
X82870629Y-78044220D01*
X82979536Y-77951204D01*
X82979536Y-77951203D01*
X82985314Y-77946269D01*
X83077755Y-77817624D01*
X83136842Y-77670641D01*
X83159162Y-77513807D01*
X83159307Y-77500000D01*
X83140276Y-77342733D01*
X83084280Y-77194546D01*
X83052872Y-77148847D01*
X82998855Y-77070251D01*
X82998854Y-77070249D01*
X82994553Y-77063992D01*
X82921681Y-76999065D01*
X82884126Y-76938816D01*
X82879500Y-76904989D01*
X82879500Y-74988235D01*
X82882049Y-74964287D01*
X82882128Y-74962622D01*
X82884320Y-74952439D01*
X82880373Y-74919092D01*
X82880023Y-74913161D01*
X82879928Y-74913169D01*
X82879500Y-74907991D01*
X82879500Y-74902791D01*
X82878646Y-74897659D01*
X82876331Y-74883750D01*
X82875494Y-74877872D01*
X82870694Y-74837314D01*
X82870694Y-74837313D01*
X82869470Y-74826974D01*
X82865507Y-74818722D01*
X82864004Y-74809689D01*
X82858438Y-74799372D01*
X82839666Y-74764583D01*
X82836969Y-74759290D01*
X82818215Y-74720234D01*
X82818214Y-74720233D01*
X82814781Y-74713083D01*
X82811187Y-74708808D01*
X82809262Y-74706883D01*
X82807491Y-74704953D01*
X82807445Y-74704868D01*
X82807568Y-74704756D01*
X82807096Y-74704221D01*
X82804010Y-74698501D01*
X82764413Y-74661898D01*
X82760848Y-74658469D01*
X76872163Y-68769784D01*
X76857021Y-68751036D01*
X76855906Y-68749811D01*
X76850256Y-68741060D01*
X76842078Y-68734613D01*
X76842076Y-68734611D01*
X76823885Y-68720271D01*
X76819444Y-68716325D01*
X76819382Y-68716398D01*
X76815418Y-68713039D01*
X76811741Y-68709362D01*
X76795993Y-68698108D01*
X76791323Y-68694602D01*
X76751038Y-68662844D01*
X76742404Y-68659812D01*
X76734951Y-68654486D01*
X76685835Y-68639797D01*
X76680193Y-68637964D01*
X76639318Y-68623610D01*
X76639317Y-68623610D01*
X76631834Y-68620982D01*
X76626269Y-68620500D01*
X76623561Y-68620500D01*
X76620927Y-68620386D01*
X76620829Y-68620357D01*
X76620836Y-68620193D01*
X76620132Y-68620149D01*
X76613907Y-68618287D01*
X76564225Y-68620239D01*
X76495371Y-68602927D01*
X76446808Y-68551138D01*
X76440400Y-68536095D01*
X76431209Y-68509924D01*
X76350010Y-68399990D01*
X76240076Y-68318791D01*
X76111127Y-68273507D01*
X76103485Y-68272785D01*
X76103482Y-68272784D01*
X76088579Y-68271376D01*
X76079315Y-68270500D01*
X75825172Y-68270500D01*
X75570686Y-68270501D01*
X75567738Y-68270780D01*
X75567729Y-68270780D01*
X75546522Y-68272784D01*
X75546520Y-68272784D01*
X75538873Y-68273507D01*
X75409924Y-68318791D01*
X75299990Y-68399990D01*
X75218791Y-68509924D01*
X75173507Y-68638873D01*
X75172785Y-68646515D01*
X75172784Y-68646518D01*
X75171743Y-68657534D01*
X75170500Y-68670685D01*
X75170501Y-69329314D01*
X75173507Y-69361127D01*
X75218791Y-69490076D01*
X75299990Y-69600010D01*
X75307561Y-69605602D01*
X75307564Y-69605605D01*
X75365841Y-69648649D01*
X75408752Y-69705210D01*
X75414272Y-69775991D01*
X75380648Y-69838521D01*
X75365841Y-69851351D01*
X75307564Y-69894395D01*
X75307561Y-69894398D01*
X75299990Y-69899990D01*
X75218791Y-70009924D01*
X75173507Y-70138873D01*
X75170500Y-70170685D01*
X75170501Y-70829314D01*
X75173507Y-70861127D01*
X75218791Y-70990076D01*
X75299990Y-71100010D01*
X75409924Y-71181209D01*
X75538873Y-71226493D01*
X75546515Y-71227215D01*
X75546518Y-71227216D01*
X75561421Y-71228624D01*
X75570685Y-71229500D01*
X75824828Y-71229500D01*
X76079314Y-71229499D01*
X76082262Y-71229220D01*
X76082271Y-71229220D01*
X76103478Y-71227216D01*
X76103480Y-71227216D01*
X76111127Y-71226493D01*
X76173754Y-71204500D01*
X76231186Y-71184331D01*
X76240076Y-71181209D01*
X76243862Y-71178413D01*
X76310987Y-71164713D01*
X76377183Y-71190378D01*
X76389477Y-71201171D01*
X79717095Y-74528789D01*
X79751121Y-74591101D01*
X79754000Y-74617884D01*
X79754000Y-75678000D01*
X79733998Y-75746121D01*
X79680342Y-75792614D01*
X79628000Y-75804000D01*
X78541115Y-75804000D01*
X78525876Y-75808475D01*
X78524671Y-75809865D01*
X78523000Y-75817548D01*
X78523000Y-75853000D01*
X78502998Y-75921121D01*
X78449342Y-75967614D01*
X78397000Y-75979000D01*
X77372000Y-75979000D01*
X77303879Y-75958998D01*
X77257386Y-75905342D01*
X77246000Y-75853000D01*
X77246000Y-75452885D01*
X77754000Y-75452885D01*
X77758475Y-75468124D01*
X77759865Y-75469329D01*
X77767548Y-75471000D01*
X78208885Y-75471000D01*
X78224124Y-75466525D01*
X78225329Y-75465135D01*
X78227000Y-75457452D01*
X78227000Y-75422000D01*
X78247002Y-75353879D01*
X78300658Y-75307386D01*
X78353000Y-75296000D01*
X79227885Y-75296000D01*
X79243124Y-75291525D01*
X79244329Y-75290135D01*
X79246000Y-75282452D01*
X79246000Y-74560116D01*
X79241525Y-74544877D01*
X79240135Y-74543672D01*
X79232452Y-74542001D01*
X78977905Y-74542001D01*
X78971386Y-74542338D01*
X78875794Y-74552257D01*
X78862400Y-74555149D01*
X78708216Y-74606588D01*
X78695038Y-74612761D01*
X78557193Y-74698063D01*
X78545792Y-74707099D01*
X78431261Y-74821829D01*
X78422247Y-74833243D01*
X78389406Y-74886521D01*
X78336634Y-74934015D01*
X78266563Y-74945439D01*
X78207469Y-74920716D01*
X78207391Y-74920843D01*
X78206583Y-74920345D01*
X78204052Y-74919286D01*
X78201161Y-74917003D01*
X78068120Y-74834996D01*
X78054939Y-74828849D01*
X77906186Y-74779509D01*
X77892810Y-74776642D01*
X77801903Y-74767328D01*
X77795486Y-74767000D01*
X77772115Y-74767000D01*
X77756876Y-74771475D01*
X77755671Y-74772865D01*
X77754000Y-74780548D01*
X77754000Y-75452885D01*
X77246000Y-75452885D01*
X77246000Y-74785115D01*
X77241525Y-74769876D01*
X77240135Y-74768671D01*
X77232452Y-74767000D01*
X77204562Y-74767000D01*
X77198047Y-74767337D01*
X77105943Y-74776894D01*
X77092544Y-74779788D01*
X76943893Y-74829381D01*
X76930714Y-74835555D01*
X76797827Y-74917788D01*
X76786426Y-74926824D01*
X76727829Y-74985523D01*
X76665546Y-75019602D01*
X76594726Y-75014599D01*
X76537830Y-74972071D01*
X76469330Y-74880670D01*
X76360853Y-74799372D01*
X76352452Y-74796222D01*
X76352449Y-74796221D01*
X76274502Y-74767000D01*
X76233919Y-74751786D01*
X76226066Y-74750933D01*
X76226062Y-74750932D01*
X76179452Y-74745869D01*
X76179448Y-74745869D01*
X76176053Y-74745500D01*
X75750063Y-74745500D01*
X75323948Y-74745501D01*
X75266081Y-74751786D01*
X75224599Y-74767337D01*
X75147551Y-74796221D01*
X75147548Y-74796222D01*
X75139147Y-74799372D01*
X75030670Y-74880670D01*
X74949372Y-74989147D01*
X74947592Y-74993895D01*
X74898725Y-75042655D01*
X74838462Y-75058000D01*
X74545668Y-75058000D01*
X74477547Y-75037998D01*
X74431054Y-74984342D01*
X74420950Y-74914068D01*
X74450444Y-74849488D01*
X74467918Y-74832849D01*
X74470443Y-74830869D01*
X74580869Y-74720443D01*
X74590176Y-74708574D01*
X74671079Y-74574988D01*
X74677285Y-74561243D01*
X74724256Y-74411356D01*
X74726869Y-74398306D01*
X74732734Y-74334479D01*
X74733000Y-74328691D01*
X74733000Y-74272115D01*
X74728525Y-74256876D01*
X74727135Y-74255671D01*
X74719452Y-74254000D01*
X73697000Y-74254000D01*
X73628879Y-74233998D01*
X73582386Y-74180342D01*
X73571000Y-74128000D01*
X73571000Y-73541115D01*
X73566526Y-73525876D01*
X73564488Y-73524111D01*
X73526104Y-73464385D01*
X73521000Y-73428886D01*
X73521000Y-72958885D01*
X74029000Y-72958885D01*
X74033474Y-72974124D01*
X74035512Y-72975889D01*
X74073896Y-73035615D01*
X74079000Y-73071114D01*
X74079000Y-73727885D01*
X74083475Y-73743124D01*
X74084865Y-73744329D01*
X74092548Y-73746000D01*
X74714884Y-73746000D01*
X74730123Y-73741525D01*
X74731328Y-73740135D01*
X74732999Y-73732452D01*
X74732999Y-73671295D01*
X74732736Y-73665546D01*
X74726868Y-73601685D01*
X74724257Y-73588649D01*
X74677285Y-73438757D01*
X74671077Y-73425008D01*
X74598925Y-73305871D01*
X74580746Y-73237242D01*
X74599441Y-73174484D01*
X74665004Y-73068120D01*
X74671151Y-73054939D01*
X74720491Y-72906186D01*
X74723358Y-72892810D01*
X74732672Y-72801903D01*
X74733000Y-72795487D01*
X74733000Y-72772115D01*
X74728525Y-72756876D01*
X74727135Y-72755671D01*
X74719452Y-72754000D01*
X74047115Y-72754000D01*
X74031876Y-72758475D01*
X74030671Y-72759865D01*
X74029000Y-72767548D01*
X74029000Y-72958885D01*
X73521000Y-72958885D01*
X73521000Y-72227885D01*
X74029000Y-72227885D01*
X74033475Y-72243124D01*
X74034865Y-72244329D01*
X74042548Y-72246000D01*
X74714885Y-72246000D01*
X74730124Y-72241525D01*
X74731329Y-72240135D01*
X74733000Y-72232452D01*
X74733000Y-72204562D01*
X74732663Y-72198047D01*
X74723106Y-72105943D01*
X74720212Y-72092544D01*
X74670619Y-71943893D01*
X74664445Y-71930714D01*
X74582212Y-71797827D01*
X74573176Y-71786426D01*
X74462571Y-71676014D01*
X74451160Y-71667002D01*
X74318120Y-71584996D01*
X74304939Y-71578849D01*
X74156186Y-71529509D01*
X74142810Y-71526642D01*
X74051903Y-71517328D01*
X74046874Y-71517071D01*
X74031876Y-71521475D01*
X74030671Y-71522865D01*
X74029000Y-71530548D01*
X74029000Y-72227885D01*
X73521000Y-72227885D01*
X73521000Y-71535115D01*
X73516525Y-71519876D01*
X73515135Y-71518671D01*
X73507452Y-71517000D01*
X73504562Y-71517000D01*
X73498047Y-71517337D01*
X73405943Y-71526894D01*
X73392544Y-71529788D01*
X73243893Y-71579381D01*
X73230714Y-71585555D01*
X73097827Y-71667788D01*
X73086426Y-71676824D01*
X72976014Y-71787429D01*
X72967002Y-71798840D01*
X72938486Y-71845102D01*
X72885714Y-71892595D01*
X72815642Y-71904019D01*
X72755661Y-71879812D01*
X72689821Y-71830468D01*
X72689818Y-71830466D01*
X72682635Y-71825083D01*
X72664928Y-71818445D01*
X72561419Y-71779642D01*
X72561418Y-71779642D01*
X72554024Y-71776870D01*
X72546174Y-71776017D01*
X72546173Y-71776017D01*
X72498786Y-71770869D01*
X72498785Y-71770869D01*
X72495389Y-71770500D01*
X72454388Y-71770500D01*
X72057482Y-71770501D01*
X72006381Y-71758655D01*
X72005353Y-71757844D01*
X71996719Y-71754812D01*
X71989266Y-71749486D01*
X71940150Y-71734797D01*
X71934508Y-71732964D01*
X71893633Y-71718610D01*
X71893632Y-71718610D01*
X71886149Y-71715982D01*
X71880584Y-71715500D01*
X71877876Y-71715500D01*
X71875242Y-71715386D01*
X71875144Y-71715357D01*
X71875151Y-71715193D01*
X71874447Y-71715149D01*
X71868222Y-71713287D01*
X71814365Y-71715403D01*
X71809418Y-71715500D01*
X71194739Y-71715500D01*
X71126618Y-71695498D01*
X71105644Y-71678595D01*
X71040723Y-71613674D01*
X70959458Y-71572267D01*
X70907843Y-71523518D01*
X70890777Y-71454603D01*
X70913678Y-71387402D01*
X70959458Y-71347733D01*
X70967165Y-71343806D01*
X71040723Y-71306326D01*
X71105644Y-71241405D01*
X71167956Y-71207379D01*
X71194739Y-71204500D01*
X71896080Y-71204500D01*
X71920028Y-71207049D01*
X71921693Y-71207128D01*
X71931876Y-71209320D01*
X71942217Y-71208096D01*
X71965223Y-71205373D01*
X71971154Y-71205023D01*
X71971146Y-71204928D01*
X71976324Y-71204500D01*
X71981524Y-71204500D01*
X71986653Y-71203646D01*
X71986656Y-71203646D01*
X72000565Y-71201331D01*
X72006443Y-71200494D01*
X72047001Y-71195694D01*
X72047002Y-71195694D01*
X72057341Y-71194470D01*
X72065593Y-71190507D01*
X72074626Y-71189004D01*
X72083795Y-71184057D01*
X72083797Y-71184056D01*
X72119732Y-71164666D01*
X72125025Y-71161969D01*
X72164082Y-71143215D01*
X72164086Y-71143212D01*
X72171232Y-71139781D01*
X72175508Y-71136186D01*
X72177431Y-71134263D01*
X72179363Y-71132491D01*
X72179442Y-71132448D01*
X72179555Y-71132572D01*
X72180095Y-71132096D01*
X72185814Y-71129010D01*
X72222416Y-71089414D01*
X72225845Y-71085849D01*
X72295289Y-71016405D01*
X72357601Y-70982379D01*
X72384384Y-70979500D01*
X72766917Y-70979499D01*
X72795388Y-70979499D01*
X72798782Y-70979130D01*
X72798788Y-70979130D01*
X72846166Y-70973984D01*
X72846170Y-70973983D01*
X72854024Y-70973130D01*
X72946665Y-70938401D01*
X72974230Y-70928068D01*
X72974231Y-70928067D01*
X72982635Y-70924917D01*
X72989814Y-70919537D01*
X72989817Y-70919535D01*
X73085367Y-70847923D01*
X73092544Y-70842544D01*
X73174917Y-70732635D01*
X73178070Y-70724224D01*
X73180386Y-70719994D01*
X73230643Y-70669847D01*
X73290908Y-70654500D01*
X73394501Y-70654500D01*
X73462622Y-70674502D01*
X73509115Y-70728158D01*
X73520501Y-70780500D01*
X73520501Y-70829314D01*
X73523507Y-70861127D01*
X73568791Y-70990076D01*
X73649990Y-71100010D01*
X73759924Y-71181209D01*
X73888873Y-71226493D01*
X73896515Y-71227215D01*
X73896518Y-71227216D01*
X73911421Y-71228624D01*
X73920685Y-71229500D01*
X74174828Y-71229500D01*
X74429314Y-71229499D01*
X74432262Y-71229220D01*
X74432271Y-71229220D01*
X74453478Y-71227216D01*
X74453480Y-71227216D01*
X74461127Y-71226493D01*
X74590076Y-71181209D01*
X74700010Y-71100010D01*
X74781209Y-70990076D01*
X74826493Y-70861127D01*
X74829500Y-70829315D01*
X74829499Y-70170686D01*
X74826493Y-70138873D01*
X74781209Y-70009924D01*
X74700010Y-69899990D01*
X74692439Y-69894398D01*
X74692436Y-69894395D01*
X74634159Y-69851351D01*
X74591248Y-69794790D01*
X74585728Y-69724009D01*
X74619352Y-69661479D01*
X74634159Y-69648649D01*
X74692436Y-69605605D01*
X74692439Y-69605602D01*
X74700010Y-69600010D01*
X74781209Y-69490076D01*
X74826493Y-69361127D01*
X74829500Y-69329315D01*
X74829499Y-68670686D01*
X74828257Y-68657534D01*
X74827216Y-68646522D01*
X74827215Y-68646518D01*
X74826493Y-68638873D01*
X74781209Y-68509924D01*
X74700010Y-68399990D01*
X74590076Y-68318791D01*
X74461127Y-68273507D01*
X74453485Y-68272785D01*
X74453482Y-68272784D01*
X74438579Y-68271376D01*
X74429315Y-68270500D01*
X74175172Y-68270500D01*
X73920686Y-68270501D01*
X73917738Y-68270780D01*
X73917729Y-68270780D01*
X73896522Y-68272784D01*
X73896520Y-68272784D01*
X73888873Y-68273507D01*
X73759924Y-68318791D01*
X73752345Y-68324389D01*
X73744025Y-68328794D01*
X73742628Y-68326156D01*
X73690457Y-68345234D01*
X73682276Y-68345500D01*
X73290908Y-68345500D01*
X73222787Y-68325498D01*
X73180386Y-68280006D01*
X73178070Y-68275776D01*
X73174917Y-68267365D01*
X73092544Y-68157456D01*
X73085367Y-68152077D01*
X72989817Y-68080465D01*
X72989814Y-68080463D01*
X72982635Y-68075083D01*
X72899941Y-68044083D01*
X72861419Y-68029642D01*
X72861418Y-68029642D01*
X72854024Y-68026870D01*
X72846174Y-68026017D01*
X72846173Y-68026017D01*
X72798786Y-68020869D01*
X72798785Y-68020869D01*
X72795389Y-68020500D01*
X72500044Y-68020500D01*
X72204612Y-68020501D01*
X72201218Y-68020870D01*
X72201212Y-68020870D01*
X72153834Y-68026016D01*
X72153830Y-68026017D01*
X72145976Y-68026870D01*
X72017365Y-68075083D01*
X72010186Y-68080463D01*
X72010183Y-68080465D01*
X71914633Y-68152077D01*
X71907456Y-68157456D01*
X71902077Y-68164633D01*
X71830465Y-68260183D01*
X71830463Y-68260186D01*
X71825083Y-68267365D01*
X71821933Y-68275769D01*
X71821932Y-68275770D01*
X71806975Y-68315670D01*
X71776870Y-68395976D01*
X71770500Y-68454611D01*
X71770501Y-68673654D01*
X71770501Y-68865615D01*
X71750499Y-68933735D01*
X71733596Y-68954710D01*
X71549711Y-69138595D01*
X71487399Y-69172621D01*
X71460616Y-69175500D01*
X71194739Y-69175500D01*
X71126618Y-69155498D01*
X71105644Y-69138595D01*
X71040723Y-69073674D01*
X70926555Y-69015502D01*
X70831834Y-69000500D01*
X69118166Y-69000500D01*
X69023445Y-69015502D01*
X68909277Y-69073674D01*
X68818674Y-69164277D01*
X68760502Y-69278445D01*
X68745500Y-69373166D01*
X68745500Y-69736834D01*
X68760502Y-69831555D01*
X68818674Y-69945723D01*
X68909277Y-70036326D01*
X68984687Y-70074750D01*
X68990542Y-70077733D01*
X69042157Y-70126482D01*
X69059223Y-70195397D01*
X69036322Y-70262598D01*
X68990542Y-70302267D01*
X68909277Y-70343674D01*
X68818674Y-70434277D01*
X68760502Y-70548445D01*
X68745500Y-70643166D01*
X68745500Y-71006834D01*
X68760502Y-71101555D01*
X68818674Y-71215723D01*
X68909277Y-71306326D01*
X68982835Y-71343806D01*
X68990542Y-71347733D01*
X69042157Y-71396482D01*
X69059223Y-71465397D01*
X69036322Y-71532598D01*
X68990542Y-71572267D01*
X68909277Y-71613674D01*
X68818674Y-71704277D01*
X68760502Y-71818445D01*
X68745500Y-71913166D01*
X68745500Y-72276834D01*
X68760502Y-72371555D01*
X68765003Y-72380388D01*
X68812956Y-72474500D01*
X68818674Y-72485723D01*
X68821442Y-72488491D01*
X68844180Y-72552217D01*
X68828101Y-72621369D01*
X68782525Y-72667867D01*
X68750323Y-72686911D01*
X68737896Y-72696551D01*
X68631551Y-72802896D01*
X68621911Y-72815322D01*
X68545352Y-72944779D01*
X68539107Y-72959210D01*
X68500061Y-73093605D01*
X68500101Y-73107706D01*
X68507370Y-73111000D01*
X71436878Y-73111000D01*
X71452117Y-73106525D01*
X71466144Y-73090337D01*
X71525870Y-73051953D01*
X71596867Y-73051953D01*
X71650464Y-73083754D01*
X71652077Y-73085367D01*
X71657456Y-73092544D01*
X71664633Y-73097923D01*
X71664637Y-73097927D01*
X71724842Y-73143049D01*
X71767357Y-73199908D01*
X71772381Y-73270727D01*
X71738321Y-73333020D01*
X71724135Y-73345225D01*
X71657564Y-73394395D01*
X71657561Y-73394398D01*
X71649990Y-73399990D01*
X71568791Y-73509924D01*
X71563809Y-73524111D01*
X71560073Y-73534749D01*
X71518630Y-73592394D01*
X71452600Y-73618482D01*
X71441191Y-73619000D01*
X68513122Y-73619000D01*
X68499591Y-73622973D01*
X68498456Y-73630871D01*
X68539107Y-73770790D01*
X68545352Y-73785221D01*
X68621911Y-73914678D01*
X68631551Y-73927104D01*
X68737896Y-74033449D01*
X68750323Y-74043089D01*
X68782525Y-74062133D01*
X68830978Y-74114026D01*
X68843683Y-74183877D01*
X68821582Y-74241369D01*
X68818674Y-74244277D01*
X68814172Y-74253113D01*
X68814171Y-74253114D01*
X68812868Y-74255671D01*
X68760502Y-74358445D01*
X68745500Y-74453166D01*
X68745500Y-74816834D01*
X68760502Y-74911555D01*
X68818674Y-75025723D01*
X68909277Y-75116326D01*
X68976906Y-75150785D01*
X68990542Y-75157733D01*
X69042157Y-75206482D01*
X69059223Y-75275397D01*
X69036322Y-75342598D01*
X68990542Y-75382267D01*
X68909277Y-75423674D01*
X68818674Y-75514277D01*
X68760502Y-75628445D01*
X68745500Y-75723166D01*
X68745500Y-76086834D01*
X68760502Y-76181555D01*
X68818674Y-76295723D01*
X68909277Y-76386326D01*
X68984687Y-76424750D01*
X68990542Y-76427733D01*
X69042157Y-76476482D01*
X69059223Y-76545397D01*
X69036322Y-76612598D01*
X68990542Y-76652267D01*
X68909277Y-76693674D01*
X68818674Y-76784277D01*
X68760502Y-76898445D01*
X68745500Y-76993166D01*
X68745500Y-77356834D01*
X68760502Y-77451555D01*
X68818674Y-77565723D01*
X68909277Y-77656326D01*
X68937372Y-77670641D01*
X68990542Y-77697733D01*
X69042157Y-77746482D01*
X69059223Y-77815397D01*
X69036322Y-77882598D01*
X68990542Y-77922267D01*
X68909277Y-77963674D01*
X68818674Y-78054277D01*
X68760502Y-78168445D01*
X68745500Y-78263166D01*
X68745500Y-78626834D01*
X68760502Y-78721555D01*
X68818674Y-78835723D01*
X68909277Y-78926326D01*
X69023445Y-78984498D01*
X69118166Y-78999500D01*
X69469500Y-78999500D01*
X69537621Y-79019502D01*
X69584114Y-79073158D01*
X69595500Y-79125500D01*
X69595500Y-79408423D01*
X69575498Y-79476544D01*
X69521842Y-79523037D01*
X69451568Y-79533141D01*
X69386988Y-79503647D01*
X69368674Y-79483988D01*
X69340785Y-79446776D01*
X69335404Y-79439596D01*
X69245000Y-79371842D01*
X69226946Y-79358311D01*
X69226943Y-79358309D01*
X69219764Y-79352929D01*
X69093574Y-79305623D01*
X69091843Y-79304974D01*
X69091841Y-79304974D01*
X69084448Y-79302202D01*
X69076598Y-79301349D01*
X69076597Y-79301349D01*
X69026153Y-79295869D01*
X69026152Y-79295869D01*
X69022756Y-79295500D01*
X68334384Y-79295500D01*
X68266263Y-79275498D01*
X68245289Y-79258595D01*
X67931479Y-78944785D01*
X67916337Y-78926037D01*
X67915222Y-78924812D01*
X67909572Y-78916061D01*
X67901394Y-78909614D01*
X67901392Y-78909612D01*
X67883201Y-78895272D01*
X67878760Y-78891326D01*
X67878698Y-78891399D01*
X67874734Y-78888040D01*
X67871057Y-78884363D01*
X67855309Y-78873109D01*
X67850639Y-78869603D01*
X67810354Y-78837845D01*
X67801720Y-78834813D01*
X67794267Y-78829487D01*
X67745151Y-78814798D01*
X67739509Y-78812965D01*
X67698634Y-78798611D01*
X67698633Y-78798611D01*
X67691150Y-78795983D01*
X67685585Y-78795501D01*
X67682877Y-78795501D01*
X67680243Y-78795387D01*
X67680145Y-78795358D01*
X67680152Y-78795194D01*
X67679448Y-78795150D01*
X67673223Y-78793288D01*
X67619366Y-78795404D01*
X67614419Y-78795501D01*
X66375313Y-78795501D01*
X66307192Y-78775499D01*
X66260699Y-78721843D01*
X66250864Y-78649790D01*
X66253725Y-78631726D01*
X66254500Y-78626834D01*
X66254500Y-78263166D01*
X66239498Y-78168445D01*
X66181326Y-78054277D01*
X66090723Y-77963674D01*
X66009458Y-77922267D01*
X65957843Y-77873518D01*
X65940777Y-77804603D01*
X65963678Y-77737402D01*
X66009458Y-77697733D01*
X66062628Y-77670641D01*
X66090723Y-77656326D01*
X66181326Y-77565723D01*
X66239498Y-77451555D01*
X66254500Y-77356834D01*
X66254500Y-76993166D01*
X66239498Y-76898445D01*
X66181326Y-76784277D01*
X66178558Y-76781509D01*
X66155820Y-76717783D01*
X66171899Y-76648631D01*
X66217475Y-76602133D01*
X66249677Y-76583089D01*
X66262104Y-76573449D01*
X66368449Y-76467104D01*
X66378089Y-76454678D01*
X66454648Y-76325221D01*
X66460893Y-76310790D01*
X66499939Y-76176395D01*
X66499899Y-76162294D01*
X66492630Y-76159000D01*
X65500000Y-76159000D01*
X65500000Y-75651000D01*
X66486878Y-75651000D01*
X66500409Y-75647027D01*
X66501544Y-75639129D01*
X66460893Y-75499210D01*
X66454648Y-75484779D01*
X66378089Y-75355322D01*
X66368449Y-75342896D01*
X66262104Y-75236551D01*
X66249677Y-75226911D01*
X66217475Y-75207867D01*
X66169022Y-75155974D01*
X66156317Y-75086123D01*
X66178418Y-75028631D01*
X66181326Y-75025723D01*
X66187045Y-75014500D01*
X66234997Y-74920388D01*
X66239498Y-74911555D01*
X66254500Y-74816834D01*
X66254500Y-74453166D01*
X66239498Y-74358445D01*
X66181326Y-74244277D01*
X66090723Y-74153674D01*
X66009458Y-74112267D01*
X65957843Y-74063518D01*
X65940777Y-73994603D01*
X65963678Y-73927402D01*
X66009458Y-73887733D01*
X66015313Y-73884750D01*
X66090723Y-73846326D01*
X66181326Y-73755723D01*
X66239498Y-73641555D01*
X66254500Y-73546834D01*
X66254500Y-73183166D01*
X66239498Y-73088445D01*
X66181326Y-72974277D01*
X66090723Y-72883674D01*
X66009458Y-72842267D01*
X65957843Y-72793518D01*
X65940777Y-72724603D01*
X65963678Y-72657402D01*
X66009458Y-72617733D01*
X66015313Y-72614750D01*
X66090723Y-72576326D01*
X66181326Y-72485723D01*
X66239498Y-72371555D01*
X66254500Y-72276834D01*
X66254500Y-71913166D01*
X66239498Y-71818445D01*
X66194441Y-71730016D01*
X66185829Y-71713114D01*
X66185828Y-71713113D01*
X66181326Y-71704277D01*
X66178558Y-71701509D01*
X66155820Y-71637783D01*
X66171899Y-71568631D01*
X66217475Y-71522133D01*
X66249677Y-71503089D01*
X66262104Y-71493449D01*
X66368449Y-71387104D01*
X66378089Y-71374678D01*
X66454648Y-71245221D01*
X66460893Y-71230790D01*
X66499939Y-71096395D01*
X66499899Y-71082294D01*
X66492630Y-71079000D01*
X65500000Y-71079000D01*
X65500000Y-70571000D01*
X66486878Y-70571000D01*
X66500409Y-70567027D01*
X66501544Y-70559129D01*
X66460893Y-70419210D01*
X66454648Y-70404779D01*
X66378088Y-70275322D01*
X66371811Y-70267230D01*
X66345861Y-70201146D01*
X66359759Y-70131523D01*
X66371811Y-70112770D01*
X66378088Y-70104678D01*
X66454648Y-69975221D01*
X66460893Y-69960790D01*
X66499939Y-69826395D01*
X66499899Y-69812294D01*
X66492630Y-69809000D01*
X65500000Y-69809000D01*
X65500000Y-69301000D01*
X66486878Y-69301000D01*
X66500409Y-69297027D01*
X66501544Y-69289129D01*
X66460893Y-69149210D01*
X66454648Y-69134779D01*
X66378089Y-69005322D01*
X66368449Y-68992896D01*
X66262104Y-68886551D01*
X66249678Y-68876911D01*
X66120221Y-68800352D01*
X66105790Y-68794107D01*
X65959935Y-68751731D01*
X65947333Y-68749430D01*
X65918916Y-68747193D01*
X65913986Y-68747000D01*
X65626000Y-68747000D01*
X65557879Y-68726998D01*
X65511386Y-68673342D01*
X65500000Y-68621000D01*
X65500000Y-67126000D01*
X65520002Y-67057879D01*
X65573658Y-67011386D01*
X65626000Y-67000000D01*
X77947810Y-67000000D01*
X78015931Y-67020002D01*
G37*
%TD.AperFunction*%
%TD*%
M02*
