%TF.GenerationSoftware,KiCad,Pcbnew,(6.0.10)*%
%TF.CreationDate,2023-01-22T12:58:48+02:00*%
%TF.ProjectId,view_base,76696577-5f62-4617-9365-2e6b69636164,rev?*%
%TF.SameCoordinates,Original*%
%TF.FileFunction,Legend,Top*%
%TF.FilePolarity,Positive*%
%FSLAX46Y46*%
G04 Gerber Fmt 4.6, Leading zero omitted, Abs format (unit mm)*
G04 Created by KiCad (PCBNEW (6.0.10)) date 2023-01-22 12:58:48*
%MOMM*%
%LPD*%
G01*
G04 APERTURE LIST*
%ADD10C,0.150000*%
%ADD11C,0.200000*%
%ADD12C,0.120000*%
%ADD13C,0.300000*%
%ADD14C,0.254000*%
%ADD15C,0.250000*%
%ADD16C,0.100000*%
%ADD17C,0.127000*%
G04 APERTURE END LIST*
D10*
X69810380Y-133016047D02*
X70524666Y-133016047D01*
X70667523Y-133063666D01*
X70762761Y-133158904D01*
X70810380Y-133301761D01*
X70810380Y-133397000D01*
X70810380Y-132063666D02*
X70810380Y-132539857D01*
X69810380Y-132539857D01*
X70715142Y-131158904D02*
X70762761Y-131206523D01*
X70810380Y-131349380D01*
X70810380Y-131444619D01*
X70762761Y-131587476D01*
X70667523Y-131682714D01*
X70572285Y-131730333D01*
X70381809Y-131777952D01*
X70238952Y-131777952D01*
X70048476Y-131730333D01*
X69953238Y-131682714D01*
X69858000Y-131587476D01*
X69810380Y-131444619D01*
X69810380Y-131349380D01*
X69858000Y-131206523D01*
X69905619Y-131158904D01*
X69810380Y-130444619D02*
X70524666Y-130444619D01*
X70667523Y-130492238D01*
X70762761Y-130587476D01*
X70810380Y-130730333D01*
X70810380Y-130825571D01*
X70810380Y-129492238D02*
X70810380Y-129968428D01*
X69810380Y-129968428D01*
X70715142Y-128587476D02*
X70762761Y-128635095D01*
X70810380Y-128777952D01*
X70810380Y-128873190D01*
X70762761Y-129016047D01*
X70667523Y-129111285D01*
X70572285Y-129158904D01*
X70381809Y-129206523D01*
X70238952Y-129206523D01*
X70048476Y-129158904D01*
X69953238Y-129111285D01*
X69858000Y-129016047D01*
X69810380Y-128873190D01*
X69810380Y-128777952D01*
X69858000Y-128635095D01*
X69905619Y-128587476D01*
X69810380Y-127873190D02*
X70524666Y-127873190D01*
X70667523Y-127920809D01*
X70762761Y-128016047D01*
X70810380Y-128158904D01*
X70810380Y-128254142D01*
X70810380Y-126920809D02*
X70810380Y-127397000D01*
X69810380Y-127397000D01*
X70715142Y-126016047D02*
X70762761Y-126063666D01*
X70810380Y-126206523D01*
X70810380Y-126301761D01*
X70762761Y-126444619D01*
X70667523Y-126539857D01*
X70572285Y-126587476D01*
X70381809Y-126635095D01*
X70238952Y-126635095D01*
X70048476Y-126587476D01*
X69953238Y-126539857D01*
X69858000Y-126444619D01*
X69810380Y-126301761D01*
X69810380Y-126206523D01*
X69858000Y-126063666D01*
X69905619Y-126016047D01*
X69810380Y-125301761D02*
X70524666Y-125301761D01*
X70667523Y-125349380D01*
X70762761Y-125444619D01*
X70810380Y-125587476D01*
X70810380Y-125682714D01*
X70810380Y-124349380D02*
X70810380Y-124825571D01*
X69810380Y-124825571D01*
X70715142Y-123444619D02*
X70762761Y-123492238D01*
X70810380Y-123635095D01*
X70810380Y-123730333D01*
X70762761Y-123873190D01*
X70667523Y-123968428D01*
X70572285Y-124016047D01*
X70381809Y-124063666D01*
X70238952Y-124063666D01*
X70048476Y-124016047D01*
X69953238Y-123968428D01*
X69858000Y-123873190D01*
X69810380Y-123730333D01*
X69810380Y-123635095D01*
X69858000Y-123492238D01*
X69905619Y-123444619D01*
D11*
X71242668Y-101567092D02*
G75*
G03*
X98452153Y-128758375I28757332J1567092D01*
G01*
X101567092Y-128757332D02*
G75*
G03*
X128758375Y-101547847I-1567092J28757332D01*
G01*
X128757332Y-98432908D02*
G75*
G03*
X101547847Y-71241625I-28757332J-1567092D01*
G01*
X98432908Y-71242668D02*
G75*
G03*
X71241625Y-98452153I1567092J-28757332D01*
G01*
D12*
X111414142Y-68726857D02*
X111628428Y-68798285D01*
X111699857Y-68869714D01*
X111771285Y-69012571D01*
X111771285Y-69226857D01*
X111699857Y-69369714D01*
X111628428Y-69441142D01*
X111485571Y-69512571D01*
X110914142Y-69512571D01*
X110914142Y-68012571D01*
X111414142Y-68012571D01*
X111557000Y-68084000D01*
X111628428Y-68155428D01*
X111699857Y-68298285D01*
X111699857Y-68441142D01*
X111628428Y-68584000D01*
X111557000Y-68655428D01*
X111414142Y-68726857D01*
X110914142Y-68726857D01*
X113057000Y-69512571D02*
X113057000Y-68726857D01*
X112985571Y-68584000D01*
X112842714Y-68512571D01*
X112557000Y-68512571D01*
X112414142Y-68584000D01*
X113057000Y-69441142D02*
X112914142Y-69512571D01*
X112557000Y-69512571D01*
X112414142Y-69441142D01*
X112342714Y-69298285D01*
X112342714Y-69155428D01*
X112414142Y-69012571D01*
X112557000Y-68941142D01*
X112914142Y-68941142D01*
X113057000Y-68869714D01*
X113699857Y-69441142D02*
X113842714Y-69512571D01*
X114128428Y-69512571D01*
X114271285Y-69441142D01*
X114342714Y-69298285D01*
X114342714Y-69226857D01*
X114271285Y-69084000D01*
X114128428Y-69012571D01*
X113914142Y-69012571D01*
X113771285Y-68941142D01*
X113699857Y-68798285D01*
X113699857Y-68726857D01*
X113771285Y-68584000D01*
X113914142Y-68512571D01*
X114128428Y-68512571D01*
X114271285Y-68584000D01*
X115557000Y-69441142D02*
X115414142Y-69512571D01*
X115128428Y-69512571D01*
X114985571Y-69441142D01*
X114914142Y-69298285D01*
X114914142Y-68726857D01*
X114985571Y-68584000D01*
X115128428Y-68512571D01*
X115414142Y-68512571D01*
X115557000Y-68584000D01*
X115628428Y-68726857D01*
X115628428Y-68869714D01*
X114914142Y-69012571D01*
X117414142Y-69512571D02*
X117414142Y-68012571D01*
X117985571Y-68012571D01*
X118128428Y-68084000D01*
X118199857Y-68155428D01*
X118271285Y-68298285D01*
X118271285Y-68512571D01*
X118199857Y-68655428D01*
X118128428Y-68726857D01*
X117985571Y-68798285D01*
X117414142Y-68798285D01*
X119771285Y-69369714D02*
X119699857Y-69441142D01*
X119485571Y-69512571D01*
X119342714Y-69512571D01*
X119128428Y-69441142D01*
X118985571Y-69298285D01*
X118914142Y-69155428D01*
X118842714Y-68869714D01*
X118842714Y-68655428D01*
X118914142Y-68369714D01*
X118985571Y-68226857D01*
X119128428Y-68084000D01*
X119342714Y-68012571D01*
X119485571Y-68012571D01*
X119699857Y-68084000D01*
X119771285Y-68155428D01*
X120914142Y-68726857D02*
X121128428Y-68798285D01*
X121199857Y-68869714D01*
X121271285Y-69012571D01*
X121271285Y-69226857D01*
X121199857Y-69369714D01*
X121128428Y-69441142D01*
X120985571Y-69512571D01*
X120414142Y-69512571D01*
X120414142Y-68012571D01*
X120914142Y-68012571D01*
X121057000Y-68084000D01*
X121128428Y-68155428D01*
X121199857Y-68298285D01*
X121199857Y-68441142D01*
X121128428Y-68584000D01*
X121057000Y-68655428D01*
X120914142Y-68726857D01*
X120414142Y-68726857D01*
X122914142Y-68512571D02*
X123271285Y-69512571D01*
X123628428Y-68512571D01*
X124128428Y-68512571D02*
X125199857Y-68512571D01*
X124557000Y-67869714D02*
X124128428Y-69798285D01*
X125057000Y-69155428D02*
X123985571Y-69155428D01*
X124628428Y-69798285D02*
X125057000Y-67869714D01*
X125699857Y-69369714D02*
X125771285Y-69441142D01*
X125699857Y-69512571D01*
X125628428Y-69441142D01*
X125699857Y-69369714D01*
X125699857Y-69512571D01*
X126342714Y-68512571D02*
X127414142Y-68512571D01*
X126771285Y-67869714D02*
X126342714Y-69798285D01*
X127271285Y-69155428D02*
X126199857Y-69155428D01*
X126842714Y-69798285D02*
X127271285Y-67869714D01*
D13*
X106265428Y-67022571D02*
X106522571Y-67108285D01*
X106951142Y-67108285D01*
X107122571Y-67022571D01*
X107208285Y-66936857D01*
X107294000Y-66765428D01*
X107294000Y-66594000D01*
X107208285Y-66422571D01*
X107122571Y-66336857D01*
X106951142Y-66251142D01*
X106608285Y-66165428D01*
X106436857Y-66079714D01*
X106351142Y-65994000D01*
X106265428Y-65822571D01*
X106265428Y-65651142D01*
X106351142Y-65479714D01*
X106436857Y-65394000D01*
X106608285Y-65308285D01*
X107036857Y-65308285D01*
X107294000Y-65394000D01*
X108065428Y-67108285D02*
X108065428Y-65908285D01*
X108065428Y-66079714D02*
X108151142Y-65994000D01*
X108322571Y-65908285D01*
X108579714Y-65908285D01*
X108751142Y-65994000D01*
X108836857Y-66165428D01*
X108836857Y-67108285D01*
X108836857Y-66165428D02*
X108922571Y-65994000D01*
X109094000Y-65908285D01*
X109351142Y-65908285D01*
X109522571Y-65994000D01*
X109608285Y-66165428D01*
X109608285Y-67108285D01*
X111236857Y-67108285D02*
X111236857Y-66165428D01*
X111151142Y-65994000D01*
X110979714Y-65908285D01*
X110636857Y-65908285D01*
X110465428Y-65994000D01*
X111236857Y-67022571D02*
X111065428Y-67108285D01*
X110636857Y-67108285D01*
X110465428Y-67022571D01*
X110379714Y-66851142D01*
X110379714Y-66679714D01*
X110465428Y-66508285D01*
X110636857Y-66422571D01*
X111065428Y-66422571D01*
X111236857Y-66336857D01*
X112094000Y-67108285D02*
X112094000Y-65908285D01*
X112094000Y-66251142D02*
X112179714Y-66079714D01*
X112265428Y-65994000D01*
X112436857Y-65908285D01*
X112608285Y-65908285D01*
X112951142Y-65908285D02*
X113636857Y-65908285D01*
X113208285Y-65308285D02*
X113208285Y-66851142D01*
X113294000Y-67022571D01*
X113465428Y-67108285D01*
X113636857Y-67108285D01*
X114236857Y-67108285D02*
X114236857Y-65308285D01*
X115265428Y-67108285D02*
X114494000Y-66079714D01*
X115265428Y-65308285D02*
X114236857Y-66336857D01*
X116036857Y-65908285D02*
X116036857Y-67108285D01*
X116036857Y-66079714D02*
X116122571Y-65994000D01*
X116294000Y-65908285D01*
X116551142Y-65908285D01*
X116722571Y-65994000D01*
X116808285Y-66165428D01*
X116808285Y-67108285D01*
X117922571Y-67108285D02*
X117751142Y-67022571D01*
X117665428Y-66936857D01*
X117579714Y-66765428D01*
X117579714Y-66251142D01*
X117665428Y-66079714D01*
X117751142Y-65994000D01*
X117922571Y-65908285D01*
X118179714Y-65908285D01*
X118351142Y-65994000D01*
X118436857Y-66079714D01*
X118522571Y-66251142D01*
X118522571Y-66765428D01*
X118436857Y-66936857D01*
X118351142Y-67022571D01*
X118179714Y-67108285D01*
X117922571Y-67108285D01*
X119294000Y-67108285D02*
X119294000Y-65308285D01*
X119294000Y-65994000D02*
X119465428Y-65908285D01*
X119808285Y-65908285D01*
X119979714Y-65994000D01*
X120065428Y-66079714D01*
X120151142Y-66251142D01*
X120151142Y-66765428D01*
X120065428Y-66936857D01*
X119979714Y-67022571D01*
X119808285Y-67108285D01*
X119465428Y-67108285D01*
X119294000Y-67022571D01*
X122036857Y-65308285D02*
X122636857Y-67108285D01*
X123236857Y-65308285D01*
X123836857Y-67108285D02*
X123836857Y-65908285D01*
X123836857Y-65308285D02*
X123751142Y-65394000D01*
X123836857Y-65479714D01*
X123922571Y-65394000D01*
X123836857Y-65308285D01*
X123836857Y-65479714D01*
X125379714Y-67022571D02*
X125208285Y-67108285D01*
X124865428Y-67108285D01*
X124694000Y-67022571D01*
X124608285Y-66851142D01*
X124608285Y-66165428D01*
X124694000Y-65994000D01*
X124865428Y-65908285D01*
X125208285Y-65908285D01*
X125379714Y-65994000D01*
X125465428Y-66165428D01*
X125465428Y-66336857D01*
X124608285Y-66508285D01*
X126065428Y-65908285D02*
X126408285Y-67108285D01*
X126751142Y-66251142D01*
X127094000Y-67108285D01*
X127436857Y-65908285D01*
D14*
%TO.C,C37*%
X125421571Y-77778428D02*
X125482047Y-77838904D01*
X125542523Y-78020333D01*
X125542523Y-78141285D01*
X125482047Y-78322714D01*
X125361095Y-78443666D01*
X125240142Y-78504142D01*
X124998238Y-78564619D01*
X124816809Y-78564619D01*
X124574904Y-78504142D01*
X124453952Y-78443666D01*
X124333000Y-78322714D01*
X124272523Y-78141285D01*
X124272523Y-78020333D01*
X124333000Y-77838904D01*
X124393476Y-77778428D01*
X124272523Y-77355095D02*
X124272523Y-76568904D01*
X124756333Y-76992238D01*
X124756333Y-76810809D01*
X124816809Y-76689857D01*
X124877285Y-76629380D01*
X124998238Y-76568904D01*
X125300619Y-76568904D01*
X125421571Y-76629380D01*
X125482047Y-76689857D01*
X125542523Y-76810809D01*
X125542523Y-77173666D01*
X125482047Y-77294619D01*
X125421571Y-77355095D01*
X124272523Y-76145571D02*
X124272523Y-75298904D01*
X125542523Y-75843190D01*
%TO.C,AC1*%
X93175666Y-70884142D02*
X93175666Y-70279380D01*
X93538523Y-71005095D02*
X92268523Y-70581761D01*
X93538523Y-70158428D01*
X93417571Y-69009380D02*
X93478047Y-69069857D01*
X93538523Y-69251285D01*
X93538523Y-69372238D01*
X93478047Y-69553666D01*
X93357095Y-69674619D01*
X93236142Y-69735095D01*
X92994238Y-69795571D01*
X92812809Y-69795571D01*
X92570904Y-69735095D01*
X92449952Y-69674619D01*
X92329000Y-69553666D01*
X92268523Y-69372238D01*
X92268523Y-69251285D01*
X92329000Y-69069857D01*
X92389476Y-69009380D01*
X93538523Y-67799857D02*
X93538523Y-68525571D01*
X93538523Y-68162714D02*
X92268523Y-68162714D01*
X92449952Y-68283666D01*
X92570904Y-68404619D01*
X92631380Y-68525571D01*
%TO.C,U11*%
X129860523Y-110538380D02*
X130888619Y-110538380D01*
X131009571Y-110477904D01*
X131070047Y-110417428D01*
X131130523Y-110296476D01*
X131130523Y-110054571D01*
X131070047Y-109933619D01*
X131009571Y-109873142D01*
X130888619Y-109812666D01*
X129860523Y-109812666D01*
X131130523Y-108542666D02*
X131130523Y-109268380D01*
X131130523Y-108905523D02*
X129860523Y-108905523D01*
X130041952Y-109026476D01*
X130162904Y-109147428D01*
X130223380Y-109268380D01*
X131130523Y-107333142D02*
X131130523Y-108058857D01*
X131130523Y-107696000D02*
X129860523Y-107696000D01*
X130041952Y-107816952D01*
X130162904Y-107937904D01*
X130223380Y-108058857D01*
D10*
%TO.C,LS1*%
X132961142Y-67000380D02*
X132484952Y-67000380D01*
X132484952Y-66000380D01*
X133246857Y-66952761D02*
X133389714Y-67000380D01*
X133627809Y-67000380D01*
X133723047Y-66952761D01*
X133770666Y-66905142D01*
X133818285Y-66809904D01*
X133818285Y-66714666D01*
X133770666Y-66619428D01*
X133723047Y-66571809D01*
X133627809Y-66524190D01*
X133437333Y-66476571D01*
X133342095Y-66428952D01*
X133294476Y-66381333D01*
X133246857Y-66286095D01*
X133246857Y-66190857D01*
X133294476Y-66095619D01*
X133342095Y-66048000D01*
X133437333Y-66000380D01*
X133675428Y-66000380D01*
X133818285Y-66048000D01*
X134770666Y-67000380D02*
X134199238Y-67000380D01*
X134484952Y-67000380D02*
X134484952Y-66000380D01*
X134389714Y-66143238D01*
X134294476Y-66238476D01*
X134199238Y-66286095D01*
%TO.C,R19*%
X131135380Y-90939857D02*
X130659190Y-91273190D01*
X131135380Y-91511285D02*
X130135380Y-91511285D01*
X130135380Y-91130333D01*
X130183000Y-91035095D01*
X130230619Y-90987476D01*
X130325857Y-90939857D01*
X130468714Y-90939857D01*
X130563952Y-90987476D01*
X130611571Y-91035095D01*
X130659190Y-91130333D01*
X130659190Y-91511285D01*
X131135380Y-89987476D02*
X131135380Y-90558904D01*
X131135380Y-90273190D02*
X130135380Y-90273190D01*
X130278238Y-90368428D01*
X130373476Y-90463666D01*
X130421095Y-90558904D01*
X131135380Y-89511285D02*
X131135380Y-89320809D01*
X131087761Y-89225571D01*
X131040142Y-89177952D01*
X130897285Y-89082714D01*
X130706809Y-89035095D01*
X130325857Y-89035095D01*
X130230619Y-89082714D01*
X130183000Y-89130333D01*
X130135380Y-89225571D01*
X130135380Y-89416047D01*
X130183000Y-89511285D01*
X130230619Y-89558904D01*
X130325857Y-89606523D01*
X130563952Y-89606523D01*
X130659190Y-89558904D01*
X130706809Y-89511285D01*
X130754428Y-89416047D01*
X130754428Y-89225571D01*
X130706809Y-89130333D01*
X130659190Y-89082714D01*
X130563952Y-89035095D01*
%TO.C,C35*%
X139455142Y-78620857D02*
X139502761Y-78668476D01*
X139550380Y-78811333D01*
X139550380Y-78906571D01*
X139502761Y-79049428D01*
X139407523Y-79144666D01*
X139312285Y-79192285D01*
X139121809Y-79239904D01*
X138978952Y-79239904D01*
X138788476Y-79192285D01*
X138693238Y-79144666D01*
X138598000Y-79049428D01*
X138550380Y-78906571D01*
X138550380Y-78811333D01*
X138598000Y-78668476D01*
X138645619Y-78620857D01*
X138550380Y-78287523D02*
X138550380Y-77668476D01*
X138931333Y-78001809D01*
X138931333Y-77858952D01*
X138978952Y-77763714D01*
X139026571Y-77716095D01*
X139121809Y-77668476D01*
X139359904Y-77668476D01*
X139455142Y-77716095D01*
X139502761Y-77763714D01*
X139550380Y-77858952D01*
X139550380Y-78144666D01*
X139502761Y-78239904D01*
X139455142Y-78287523D01*
X138550380Y-76763714D02*
X138550380Y-77239904D01*
X139026571Y-77287523D01*
X138978952Y-77239904D01*
X138931333Y-77144666D01*
X138931333Y-76906571D01*
X138978952Y-76811333D01*
X139026571Y-76763714D01*
X139121809Y-76716095D01*
X139359904Y-76716095D01*
X139455142Y-76763714D01*
X139502761Y-76811333D01*
X139550380Y-76906571D01*
X139550380Y-77144666D01*
X139502761Y-77239904D01*
X139455142Y-77287523D01*
%TO.C,C36*%
X136374142Y-78747857D02*
X136421761Y-78795476D01*
X136469380Y-78938333D01*
X136469380Y-79033571D01*
X136421761Y-79176428D01*
X136326523Y-79271666D01*
X136231285Y-79319285D01*
X136040809Y-79366904D01*
X135897952Y-79366904D01*
X135707476Y-79319285D01*
X135612238Y-79271666D01*
X135517000Y-79176428D01*
X135469380Y-79033571D01*
X135469380Y-78938333D01*
X135517000Y-78795476D01*
X135564619Y-78747857D01*
X135469380Y-78414523D02*
X135469380Y-77795476D01*
X135850333Y-78128809D01*
X135850333Y-77985952D01*
X135897952Y-77890714D01*
X135945571Y-77843095D01*
X136040809Y-77795476D01*
X136278904Y-77795476D01*
X136374142Y-77843095D01*
X136421761Y-77890714D01*
X136469380Y-77985952D01*
X136469380Y-78271666D01*
X136421761Y-78366904D01*
X136374142Y-78414523D01*
X135469380Y-76938333D02*
X135469380Y-77128809D01*
X135517000Y-77224047D01*
X135564619Y-77271666D01*
X135707476Y-77366904D01*
X135897952Y-77414523D01*
X136278904Y-77414523D01*
X136374142Y-77366904D01*
X136421761Y-77319285D01*
X136469380Y-77224047D01*
X136469380Y-77033571D01*
X136421761Y-76938333D01*
X136374142Y-76890714D01*
X136278904Y-76843095D01*
X136040809Y-76843095D01*
X135945571Y-76890714D01*
X135897952Y-76938333D01*
X135850333Y-77033571D01*
X135850333Y-77224047D01*
X135897952Y-77319285D01*
X135945571Y-77366904D01*
X136040809Y-77414523D01*
%TO.C,U10*%
X128611380Y-86201095D02*
X129420904Y-86201095D01*
X129516142Y-86153476D01*
X129563761Y-86105857D01*
X129611380Y-86010619D01*
X129611380Y-85820142D01*
X129563761Y-85724904D01*
X129516142Y-85677285D01*
X129420904Y-85629666D01*
X128611380Y-85629666D01*
X129611380Y-84629666D02*
X129611380Y-85201095D01*
X129611380Y-84915380D02*
X128611380Y-84915380D01*
X128754238Y-85010619D01*
X128849476Y-85105857D01*
X128897095Y-85201095D01*
X128611380Y-84010619D02*
X128611380Y-83915380D01*
X128659000Y-83820142D01*
X128706619Y-83772523D01*
X128801857Y-83724904D01*
X128992333Y-83677285D01*
X129230428Y-83677285D01*
X129420904Y-83724904D01*
X129516142Y-83772523D01*
X129563761Y-83820142D01*
X129611380Y-83915380D01*
X129611380Y-84010619D01*
X129563761Y-84105857D01*
X129516142Y-84153476D01*
X129420904Y-84201095D01*
X129230428Y-84248714D01*
X128992333Y-84248714D01*
X128801857Y-84201095D01*
X128706619Y-84153476D01*
X128659000Y-84105857D01*
X128611380Y-84010619D01*
%TO.C,R20*%
X136629380Y-75191857D02*
X136153190Y-75525190D01*
X136629380Y-75763285D02*
X135629380Y-75763285D01*
X135629380Y-75382333D01*
X135677000Y-75287095D01*
X135724619Y-75239476D01*
X135819857Y-75191857D01*
X135962714Y-75191857D01*
X136057952Y-75239476D01*
X136105571Y-75287095D01*
X136153190Y-75382333D01*
X136153190Y-75763285D01*
X135724619Y-74810904D02*
X135677000Y-74763285D01*
X135629380Y-74668047D01*
X135629380Y-74429952D01*
X135677000Y-74334714D01*
X135724619Y-74287095D01*
X135819857Y-74239476D01*
X135915095Y-74239476D01*
X136057952Y-74287095D01*
X136629380Y-74858523D01*
X136629380Y-74239476D01*
X135629380Y-73620428D02*
X135629380Y-73525190D01*
X135677000Y-73429952D01*
X135724619Y-73382333D01*
X135819857Y-73334714D01*
X136010333Y-73287095D01*
X136248428Y-73287095D01*
X136438904Y-73334714D01*
X136534142Y-73382333D01*
X136581761Y-73429952D01*
X136629380Y-73525190D01*
X136629380Y-73620428D01*
X136581761Y-73715666D01*
X136534142Y-73763285D01*
X136438904Y-73810904D01*
X136248428Y-73858523D01*
X136010333Y-73858523D01*
X135819857Y-73810904D01*
X135724619Y-73763285D01*
X135677000Y-73715666D01*
X135629380Y-73620428D01*
%TO.C,J2*%
X99666666Y-136104380D02*
X99666666Y-136818666D01*
X99619047Y-136961523D01*
X99523809Y-137056761D01*
X99380952Y-137104380D01*
X99285714Y-137104380D01*
X100095238Y-136199619D02*
X100142857Y-136152000D01*
X100238095Y-136104380D01*
X100476190Y-136104380D01*
X100571428Y-136152000D01*
X100619047Y-136199619D01*
X100666666Y-136294857D01*
X100666666Y-136390095D01*
X100619047Y-136532952D01*
X100047619Y-137104380D01*
X100666666Y-137104380D01*
%TO.C,C30*%
X85922142Y-70111857D02*
X85969761Y-70159476D01*
X86017380Y-70302333D01*
X86017380Y-70397571D01*
X85969761Y-70540428D01*
X85874523Y-70635666D01*
X85779285Y-70683285D01*
X85588809Y-70730904D01*
X85445952Y-70730904D01*
X85255476Y-70683285D01*
X85160238Y-70635666D01*
X85065000Y-70540428D01*
X85017380Y-70397571D01*
X85017380Y-70302333D01*
X85065000Y-70159476D01*
X85112619Y-70111857D01*
X85017380Y-69778523D02*
X85017380Y-69159476D01*
X85398333Y-69492809D01*
X85398333Y-69349952D01*
X85445952Y-69254714D01*
X85493571Y-69207095D01*
X85588809Y-69159476D01*
X85826904Y-69159476D01*
X85922142Y-69207095D01*
X85969761Y-69254714D01*
X86017380Y-69349952D01*
X86017380Y-69635666D01*
X85969761Y-69730904D01*
X85922142Y-69778523D01*
X85017380Y-68540428D02*
X85017380Y-68445190D01*
X85065000Y-68349952D01*
X85112619Y-68302333D01*
X85207857Y-68254714D01*
X85398333Y-68207095D01*
X85636428Y-68207095D01*
X85826904Y-68254714D01*
X85922142Y-68302333D01*
X85969761Y-68349952D01*
X86017380Y-68445190D01*
X86017380Y-68540428D01*
X85969761Y-68635666D01*
X85922142Y-68683285D01*
X85826904Y-68730904D01*
X85636428Y-68778523D01*
X85398333Y-68778523D01*
X85207857Y-68730904D01*
X85112619Y-68683285D01*
X85065000Y-68635666D01*
X85017380Y-68540428D01*
%TO.C,C31*%
X93845142Y-66905142D02*
X93797523Y-66952761D01*
X93654666Y-67000380D01*
X93559428Y-67000380D01*
X93416571Y-66952761D01*
X93321333Y-66857523D01*
X93273714Y-66762285D01*
X93226095Y-66571809D01*
X93226095Y-66428952D01*
X93273714Y-66238476D01*
X93321333Y-66143238D01*
X93416571Y-66048000D01*
X93559428Y-66000380D01*
X93654666Y-66000380D01*
X93797523Y-66048000D01*
X93845142Y-66095619D01*
X94178476Y-66000380D02*
X94797523Y-66000380D01*
X94464190Y-66381333D01*
X94607047Y-66381333D01*
X94702285Y-66428952D01*
X94749904Y-66476571D01*
X94797523Y-66571809D01*
X94797523Y-66809904D01*
X94749904Y-66905142D01*
X94702285Y-66952761D01*
X94607047Y-67000380D01*
X94321333Y-67000380D01*
X94226095Y-66952761D01*
X94178476Y-66905142D01*
X95749904Y-67000380D02*
X95178476Y-67000380D01*
X95464190Y-67000380D02*
X95464190Y-66000380D01*
X95368952Y-66143238D01*
X95273714Y-66238476D01*
X95178476Y-66286095D01*
%TO.C,C33*%
X127627142Y-113260142D02*
X127579523Y-113307761D01*
X127436666Y-113355380D01*
X127341428Y-113355380D01*
X127198571Y-113307761D01*
X127103333Y-113212523D01*
X127055714Y-113117285D01*
X127008095Y-112926809D01*
X127008095Y-112783952D01*
X127055714Y-112593476D01*
X127103333Y-112498238D01*
X127198571Y-112403000D01*
X127341428Y-112355380D01*
X127436666Y-112355380D01*
X127579523Y-112403000D01*
X127627142Y-112450619D01*
X127960476Y-112355380D02*
X128579523Y-112355380D01*
X128246190Y-112736333D01*
X128389047Y-112736333D01*
X128484285Y-112783952D01*
X128531904Y-112831571D01*
X128579523Y-112926809D01*
X128579523Y-113164904D01*
X128531904Y-113260142D01*
X128484285Y-113307761D01*
X128389047Y-113355380D01*
X128103333Y-113355380D01*
X128008095Y-113307761D01*
X127960476Y-113260142D01*
X128912857Y-112355380D02*
X129531904Y-112355380D01*
X129198571Y-112736333D01*
X129341428Y-112736333D01*
X129436666Y-112783952D01*
X129484285Y-112831571D01*
X129531904Y-112926809D01*
X129531904Y-113164904D01*
X129484285Y-113260142D01*
X129436666Y-113307761D01*
X129341428Y-113355380D01*
X129055714Y-113355380D01*
X128960476Y-113307761D01*
X128912857Y-113260142D01*
%TO.C,C32*%
X137025142Y-113514142D02*
X136977523Y-113561761D01*
X136834666Y-113609380D01*
X136739428Y-113609380D01*
X136596571Y-113561761D01*
X136501333Y-113466523D01*
X136453714Y-113371285D01*
X136406095Y-113180809D01*
X136406095Y-113037952D01*
X136453714Y-112847476D01*
X136501333Y-112752238D01*
X136596571Y-112657000D01*
X136739428Y-112609380D01*
X136834666Y-112609380D01*
X136977523Y-112657000D01*
X137025142Y-112704619D01*
X137358476Y-112609380D02*
X137977523Y-112609380D01*
X137644190Y-112990333D01*
X137787047Y-112990333D01*
X137882285Y-113037952D01*
X137929904Y-113085571D01*
X137977523Y-113180809D01*
X137977523Y-113418904D01*
X137929904Y-113514142D01*
X137882285Y-113561761D01*
X137787047Y-113609380D01*
X137501333Y-113609380D01*
X137406095Y-113561761D01*
X137358476Y-113514142D01*
X138358476Y-112704619D02*
X138406095Y-112657000D01*
X138501333Y-112609380D01*
X138739428Y-112609380D01*
X138834666Y-112657000D01*
X138882285Y-112704619D01*
X138929904Y-112799857D01*
X138929904Y-112895095D01*
X138882285Y-113037952D01*
X138310857Y-113609380D01*
X138929904Y-113609380D01*
%TO.C,C34*%
X138041142Y-105386142D02*
X137993523Y-105433761D01*
X137850666Y-105481380D01*
X137755428Y-105481380D01*
X137612571Y-105433761D01*
X137517333Y-105338523D01*
X137469714Y-105243285D01*
X137422095Y-105052809D01*
X137422095Y-104909952D01*
X137469714Y-104719476D01*
X137517333Y-104624238D01*
X137612571Y-104529000D01*
X137755428Y-104481380D01*
X137850666Y-104481380D01*
X137993523Y-104529000D01*
X138041142Y-104576619D01*
X138374476Y-104481380D02*
X138993523Y-104481380D01*
X138660190Y-104862333D01*
X138803047Y-104862333D01*
X138898285Y-104909952D01*
X138945904Y-104957571D01*
X138993523Y-105052809D01*
X138993523Y-105290904D01*
X138945904Y-105386142D01*
X138898285Y-105433761D01*
X138803047Y-105481380D01*
X138517333Y-105481380D01*
X138422095Y-105433761D01*
X138374476Y-105386142D01*
X139850666Y-104814714D02*
X139850666Y-105481380D01*
X139612571Y-104433761D02*
X139374476Y-105148047D01*
X139993523Y-105148047D01*
%TO.C,U9*%
X111238095Y-139452380D02*
X111238095Y-140261904D01*
X111285714Y-140357142D01*
X111333333Y-140404761D01*
X111428571Y-140452380D01*
X111619047Y-140452380D01*
X111714285Y-140404761D01*
X111761904Y-140357142D01*
X111809523Y-140261904D01*
X111809523Y-139452380D01*
X112333333Y-140452380D02*
X112523809Y-140452380D01*
X112619047Y-140404761D01*
X112666666Y-140357142D01*
X112761904Y-140214285D01*
X112809523Y-140023809D01*
X112809523Y-139642857D01*
X112761904Y-139547619D01*
X112714285Y-139500000D01*
X112619047Y-139452380D01*
X112428571Y-139452380D01*
X112333333Y-139500000D01*
X112285714Y-139547619D01*
X112238095Y-139642857D01*
X112238095Y-139880952D01*
X112285714Y-139976190D01*
X112333333Y-140023809D01*
X112428571Y-140071428D01*
X112619047Y-140071428D01*
X112714285Y-140023809D01*
X112761904Y-139976190D01*
X112809523Y-139880952D01*
%TO.C,U6*%
X122738095Y-130452380D02*
X122738095Y-131261904D01*
X122785714Y-131357142D01*
X122833333Y-131404761D01*
X122928571Y-131452380D01*
X123119047Y-131452380D01*
X123214285Y-131404761D01*
X123261904Y-131357142D01*
X123309523Y-131261904D01*
X123309523Y-130452380D01*
X124214285Y-130452380D02*
X124023809Y-130452380D01*
X123928571Y-130500000D01*
X123880952Y-130547619D01*
X123785714Y-130690476D01*
X123738095Y-130880952D01*
X123738095Y-131261904D01*
X123785714Y-131357142D01*
X123833333Y-131404761D01*
X123928571Y-131452380D01*
X124119047Y-131452380D01*
X124214285Y-131404761D01*
X124261904Y-131357142D01*
X124309523Y-131261904D01*
X124309523Y-131023809D01*
X124261904Y-130928571D01*
X124214285Y-130880952D01*
X124119047Y-130833333D01*
X123928571Y-130833333D01*
X123833333Y-130880952D01*
X123785714Y-130928571D01*
X123738095Y-131023809D01*
%TO.C,R18*%
X86733142Y-72715380D02*
X86399809Y-72239190D01*
X86161714Y-72715380D02*
X86161714Y-71715380D01*
X86542666Y-71715380D01*
X86637904Y-71763000D01*
X86685523Y-71810619D01*
X86733142Y-71905857D01*
X86733142Y-72048714D01*
X86685523Y-72143952D01*
X86637904Y-72191571D01*
X86542666Y-72239190D01*
X86161714Y-72239190D01*
X87685523Y-72715380D02*
X87114095Y-72715380D01*
X87399809Y-72715380D02*
X87399809Y-71715380D01*
X87304571Y-71858238D01*
X87209333Y-71953476D01*
X87114095Y-72001095D01*
X88256952Y-72143952D02*
X88161714Y-72096333D01*
X88114095Y-72048714D01*
X88066476Y-71953476D01*
X88066476Y-71905857D01*
X88114095Y-71810619D01*
X88161714Y-71763000D01*
X88256952Y-71715380D01*
X88447428Y-71715380D01*
X88542666Y-71763000D01*
X88590285Y-71810619D01*
X88637904Y-71905857D01*
X88637904Y-71953476D01*
X88590285Y-72048714D01*
X88542666Y-72096333D01*
X88447428Y-72143952D01*
X88256952Y-72143952D01*
X88161714Y-72191571D01*
X88114095Y-72239190D01*
X88066476Y-72334428D01*
X88066476Y-72524904D01*
X88114095Y-72620142D01*
X88161714Y-72667761D01*
X88256952Y-72715380D01*
X88447428Y-72715380D01*
X88542666Y-72667761D01*
X88590285Y-72620142D01*
X88637904Y-72524904D01*
X88637904Y-72334428D01*
X88590285Y-72239190D01*
X88542666Y-72191571D01*
X88447428Y-72143952D01*
%TO.C,R1*%
X94956333Y-131516380D02*
X94623000Y-131040190D01*
X94384904Y-131516380D02*
X94384904Y-130516380D01*
X94765857Y-130516380D01*
X94861095Y-130564000D01*
X94908714Y-130611619D01*
X94956333Y-130706857D01*
X94956333Y-130849714D01*
X94908714Y-130944952D01*
X94861095Y-130992571D01*
X94765857Y-131040190D01*
X94384904Y-131040190D01*
X95908714Y-131516380D02*
X95337285Y-131516380D01*
X95623000Y-131516380D02*
X95623000Y-130516380D01*
X95527761Y-130659238D01*
X95432523Y-130754476D01*
X95337285Y-130802095D01*
%TO.C,R2*%
X105333333Y-131102380D02*
X105000000Y-130626190D01*
X104761904Y-131102380D02*
X104761904Y-130102380D01*
X105142857Y-130102380D01*
X105238095Y-130150000D01*
X105285714Y-130197619D01*
X105333333Y-130292857D01*
X105333333Y-130435714D01*
X105285714Y-130530952D01*
X105238095Y-130578571D01*
X105142857Y-130626190D01*
X104761904Y-130626190D01*
X105714285Y-130197619D02*
X105761904Y-130150000D01*
X105857142Y-130102380D01*
X106095238Y-130102380D01*
X106190476Y-130150000D01*
X106238095Y-130197619D01*
X106285714Y-130292857D01*
X106285714Y-130388095D01*
X106238095Y-130530952D01*
X105666666Y-131102380D01*
X106285714Y-131102380D01*
%TO.C,U2*%
X73738095Y-138952380D02*
X73738095Y-139761904D01*
X73785714Y-139857142D01*
X73833333Y-139904761D01*
X73928571Y-139952380D01*
X74119047Y-139952380D01*
X74214285Y-139904761D01*
X74261904Y-139857142D01*
X74309523Y-139761904D01*
X74309523Y-138952380D01*
X74738095Y-139047619D02*
X74785714Y-139000000D01*
X74880952Y-138952380D01*
X75119047Y-138952380D01*
X75214285Y-139000000D01*
X75261904Y-139047619D01*
X75309523Y-139142857D01*
X75309523Y-139238095D01*
X75261904Y-139380952D01*
X74690476Y-139952380D01*
X75309523Y-139952380D01*
%TO.C,C11*%
X94480142Y-130024142D02*
X94432523Y-130071761D01*
X94289666Y-130119380D01*
X94194428Y-130119380D01*
X94051571Y-130071761D01*
X93956333Y-129976523D01*
X93908714Y-129881285D01*
X93861095Y-129690809D01*
X93861095Y-129547952D01*
X93908714Y-129357476D01*
X93956333Y-129262238D01*
X94051571Y-129167000D01*
X94194428Y-129119380D01*
X94289666Y-129119380D01*
X94432523Y-129167000D01*
X94480142Y-129214619D01*
X95432523Y-130119380D02*
X94861095Y-130119380D01*
X95146809Y-130119380D02*
X95146809Y-129119380D01*
X95051571Y-129262238D01*
X94956333Y-129357476D01*
X94861095Y-129405095D01*
X96384904Y-130119380D02*
X95813476Y-130119380D01*
X96099190Y-130119380D02*
X96099190Y-129119380D01*
X96003952Y-129262238D01*
X95908714Y-129357476D01*
X95813476Y-129405095D01*
%TO.C,C13*%
X119857142Y-125857142D02*
X119809523Y-125904761D01*
X119666666Y-125952380D01*
X119571428Y-125952380D01*
X119428571Y-125904761D01*
X119333333Y-125809523D01*
X119285714Y-125714285D01*
X119238095Y-125523809D01*
X119238095Y-125380952D01*
X119285714Y-125190476D01*
X119333333Y-125095238D01*
X119428571Y-125000000D01*
X119571428Y-124952380D01*
X119666666Y-124952380D01*
X119809523Y-125000000D01*
X119857142Y-125047619D01*
X120809523Y-125952380D02*
X120238095Y-125952380D01*
X120523809Y-125952380D02*
X120523809Y-124952380D01*
X120428571Y-125095238D01*
X120333333Y-125190476D01*
X120238095Y-125238095D01*
X121142857Y-124952380D02*
X121761904Y-124952380D01*
X121428571Y-125333333D01*
X121571428Y-125333333D01*
X121666666Y-125380952D01*
X121714285Y-125428571D01*
X121761904Y-125523809D01*
X121761904Y-125761904D01*
X121714285Y-125857142D01*
X121666666Y-125904761D01*
X121571428Y-125952380D01*
X121285714Y-125952380D01*
X121190476Y-125904761D01*
X121142857Y-125857142D01*
%TO.C,C14*%
X122857142Y-125857142D02*
X122809523Y-125904761D01*
X122666666Y-125952380D01*
X122571428Y-125952380D01*
X122428571Y-125904761D01*
X122333333Y-125809523D01*
X122285714Y-125714285D01*
X122238095Y-125523809D01*
X122238095Y-125380952D01*
X122285714Y-125190476D01*
X122333333Y-125095238D01*
X122428571Y-125000000D01*
X122571428Y-124952380D01*
X122666666Y-124952380D01*
X122809523Y-125000000D01*
X122857142Y-125047619D01*
X123809523Y-125952380D02*
X123238095Y-125952380D01*
X123523809Y-125952380D02*
X123523809Y-124952380D01*
X123428571Y-125095238D01*
X123333333Y-125190476D01*
X123238095Y-125238095D01*
X124666666Y-125285714D02*
X124666666Y-125952380D01*
X124428571Y-124904761D02*
X124190476Y-125619047D01*
X124809523Y-125619047D01*
%TO.C,C15*%
X128857142Y-126357142D02*
X128809523Y-126404761D01*
X128666666Y-126452380D01*
X128571428Y-126452380D01*
X128428571Y-126404761D01*
X128333333Y-126309523D01*
X128285714Y-126214285D01*
X128238095Y-126023809D01*
X128238095Y-125880952D01*
X128285714Y-125690476D01*
X128333333Y-125595238D01*
X128428571Y-125500000D01*
X128571428Y-125452380D01*
X128666666Y-125452380D01*
X128809523Y-125500000D01*
X128857142Y-125547619D01*
X129809523Y-126452380D02*
X129238095Y-126452380D01*
X129523809Y-126452380D02*
X129523809Y-125452380D01*
X129428571Y-125595238D01*
X129333333Y-125690476D01*
X129238095Y-125738095D01*
X130714285Y-125452380D02*
X130238095Y-125452380D01*
X130190476Y-125928571D01*
X130238095Y-125880952D01*
X130333333Y-125833333D01*
X130571428Y-125833333D01*
X130666666Y-125880952D01*
X130714285Y-125928571D01*
X130761904Y-126023809D01*
X130761904Y-126261904D01*
X130714285Y-126357142D01*
X130666666Y-126404761D01*
X130571428Y-126452380D01*
X130333333Y-126452380D01*
X130238095Y-126404761D01*
X130190476Y-126357142D01*
%TO.C,C16*%
X67357142Y-84357142D02*
X67309523Y-84404761D01*
X67166666Y-84452380D01*
X67071428Y-84452380D01*
X66928571Y-84404761D01*
X66833333Y-84309523D01*
X66785714Y-84214285D01*
X66738095Y-84023809D01*
X66738095Y-83880952D01*
X66785714Y-83690476D01*
X66833333Y-83595238D01*
X66928571Y-83500000D01*
X67071428Y-83452380D01*
X67166666Y-83452380D01*
X67309523Y-83500000D01*
X67357142Y-83547619D01*
X68309523Y-84452380D02*
X67738095Y-84452380D01*
X68023809Y-84452380D02*
X68023809Y-83452380D01*
X67928571Y-83595238D01*
X67833333Y-83690476D01*
X67738095Y-83738095D01*
X69166666Y-83452380D02*
X68976190Y-83452380D01*
X68880952Y-83500000D01*
X68833333Y-83547619D01*
X68738095Y-83690476D01*
X68690476Y-83880952D01*
X68690476Y-84261904D01*
X68738095Y-84357142D01*
X68785714Y-84404761D01*
X68880952Y-84452380D01*
X69071428Y-84452380D01*
X69166666Y-84404761D01*
X69214285Y-84357142D01*
X69261904Y-84261904D01*
X69261904Y-84023809D01*
X69214285Y-83928571D01*
X69166666Y-83880952D01*
X69071428Y-83833333D01*
X68880952Y-83833333D01*
X68785714Y-83880952D01*
X68738095Y-83928571D01*
X68690476Y-84023809D01*
%TO.C,C17*%
X129357142Y-116357142D02*
X129309523Y-116404761D01*
X129166666Y-116452380D01*
X129071428Y-116452380D01*
X128928571Y-116404761D01*
X128833333Y-116309523D01*
X128785714Y-116214285D01*
X128738095Y-116023809D01*
X128738095Y-115880952D01*
X128785714Y-115690476D01*
X128833333Y-115595238D01*
X128928571Y-115500000D01*
X129071428Y-115452380D01*
X129166666Y-115452380D01*
X129309523Y-115500000D01*
X129357142Y-115547619D01*
X130309523Y-116452380D02*
X129738095Y-116452380D01*
X130023809Y-116452380D02*
X130023809Y-115452380D01*
X129928571Y-115595238D01*
X129833333Y-115690476D01*
X129738095Y-115738095D01*
X130642857Y-115452380D02*
X131309523Y-115452380D01*
X130880952Y-116452380D01*
%TO.C,C18*%
X80357142Y-74857142D02*
X80309523Y-74904761D01*
X80166666Y-74952380D01*
X80071428Y-74952380D01*
X79928571Y-74904761D01*
X79833333Y-74809523D01*
X79785714Y-74714285D01*
X79738095Y-74523809D01*
X79738095Y-74380952D01*
X79785714Y-74190476D01*
X79833333Y-74095238D01*
X79928571Y-74000000D01*
X80071428Y-73952380D01*
X80166666Y-73952380D01*
X80309523Y-74000000D01*
X80357142Y-74047619D01*
X81309523Y-74952380D02*
X80738095Y-74952380D01*
X81023809Y-74952380D02*
X81023809Y-73952380D01*
X80928571Y-74095238D01*
X80833333Y-74190476D01*
X80738095Y-74238095D01*
X81880952Y-74380952D02*
X81785714Y-74333333D01*
X81738095Y-74285714D01*
X81690476Y-74190476D01*
X81690476Y-74142857D01*
X81738095Y-74047619D01*
X81785714Y-74000000D01*
X81880952Y-73952380D01*
X82071428Y-73952380D01*
X82166666Y-74000000D01*
X82214285Y-74047619D01*
X82261904Y-74142857D01*
X82261904Y-74190476D01*
X82214285Y-74285714D01*
X82166666Y-74333333D01*
X82071428Y-74380952D01*
X81880952Y-74380952D01*
X81785714Y-74428571D01*
X81738095Y-74476190D01*
X81690476Y-74571428D01*
X81690476Y-74761904D01*
X81738095Y-74857142D01*
X81785714Y-74904761D01*
X81880952Y-74952380D01*
X82071428Y-74952380D01*
X82166666Y-74904761D01*
X82214285Y-74857142D01*
X82261904Y-74761904D01*
X82261904Y-74571428D01*
X82214285Y-74476190D01*
X82166666Y-74428571D01*
X82071428Y-74380952D01*
%TO.C,C22*%
X75357142Y-72857142D02*
X75309523Y-72904761D01*
X75166666Y-72952380D01*
X75071428Y-72952380D01*
X74928571Y-72904761D01*
X74833333Y-72809523D01*
X74785714Y-72714285D01*
X74738095Y-72523809D01*
X74738095Y-72380952D01*
X74785714Y-72190476D01*
X74833333Y-72095238D01*
X74928571Y-72000000D01*
X75071428Y-71952380D01*
X75166666Y-71952380D01*
X75309523Y-72000000D01*
X75357142Y-72047619D01*
X75738095Y-72047619D02*
X75785714Y-72000000D01*
X75880952Y-71952380D01*
X76119047Y-71952380D01*
X76214285Y-72000000D01*
X76261904Y-72047619D01*
X76309523Y-72142857D01*
X76309523Y-72238095D01*
X76261904Y-72380952D01*
X75690476Y-72952380D01*
X76309523Y-72952380D01*
X76690476Y-72047619D02*
X76738095Y-72000000D01*
X76833333Y-71952380D01*
X77071428Y-71952380D01*
X77166666Y-72000000D01*
X77214285Y-72047619D01*
X77261904Y-72142857D01*
X77261904Y-72238095D01*
X77214285Y-72380952D01*
X76642857Y-72952380D01*
X77261904Y-72952380D01*
%TO.C,Q1*%
X73404761Y-83047619D02*
X73309523Y-83000000D01*
X73214285Y-82904761D01*
X73071428Y-82761904D01*
X72976190Y-82714285D01*
X72880952Y-82714285D01*
X72928571Y-82952380D02*
X72833333Y-82904761D01*
X72738095Y-82809523D01*
X72690476Y-82619047D01*
X72690476Y-82285714D01*
X72738095Y-82095238D01*
X72833333Y-82000000D01*
X72928571Y-81952380D01*
X73119047Y-81952380D01*
X73214285Y-82000000D01*
X73309523Y-82095238D01*
X73357142Y-82285714D01*
X73357142Y-82619047D01*
X73309523Y-82809523D01*
X73214285Y-82904761D01*
X73119047Y-82952380D01*
X72928571Y-82952380D01*
X74309523Y-82952380D02*
X73738095Y-82952380D01*
X74023809Y-82952380D02*
X74023809Y-81952380D01*
X73928571Y-82095238D01*
X73833333Y-82190476D01*
X73738095Y-82238095D01*
%TO.C,R4*%
X75333333Y-74452380D02*
X75000000Y-73976190D01*
X74761904Y-74452380D02*
X74761904Y-73452380D01*
X75142857Y-73452380D01*
X75238095Y-73500000D01*
X75285714Y-73547619D01*
X75333333Y-73642857D01*
X75333333Y-73785714D01*
X75285714Y-73880952D01*
X75238095Y-73928571D01*
X75142857Y-73976190D01*
X74761904Y-73976190D01*
X76190476Y-73785714D02*
X76190476Y-74452380D01*
X75952380Y-73404761D02*
X75714285Y-74119047D01*
X76333333Y-74119047D01*
%TO.C,R5*%
X77333333Y-69452380D02*
X77000000Y-68976190D01*
X76761904Y-69452380D02*
X76761904Y-68452380D01*
X77142857Y-68452380D01*
X77238095Y-68500000D01*
X77285714Y-68547619D01*
X77333333Y-68642857D01*
X77333333Y-68785714D01*
X77285714Y-68880952D01*
X77238095Y-68928571D01*
X77142857Y-68976190D01*
X76761904Y-68976190D01*
X78238095Y-68452380D02*
X77761904Y-68452380D01*
X77714285Y-68928571D01*
X77761904Y-68880952D01*
X77857142Y-68833333D01*
X78095238Y-68833333D01*
X78190476Y-68880952D01*
X78238095Y-68928571D01*
X78285714Y-69023809D01*
X78285714Y-69261904D01*
X78238095Y-69357142D01*
X78190476Y-69404761D01*
X78095238Y-69452380D01*
X77857142Y-69452380D01*
X77761904Y-69404761D01*
X77714285Y-69357142D01*
%TO.C,C26*%
X62857142Y-116857142D02*
X62809523Y-116904761D01*
X62666666Y-116952380D01*
X62571428Y-116952380D01*
X62428571Y-116904761D01*
X62333333Y-116809523D01*
X62285714Y-116714285D01*
X62238095Y-116523809D01*
X62238095Y-116380952D01*
X62285714Y-116190476D01*
X62333333Y-116095238D01*
X62428571Y-116000000D01*
X62571428Y-115952380D01*
X62666666Y-115952380D01*
X62809523Y-116000000D01*
X62857142Y-116047619D01*
X63238095Y-116047619D02*
X63285714Y-116000000D01*
X63380952Y-115952380D01*
X63619047Y-115952380D01*
X63714285Y-116000000D01*
X63761904Y-116047619D01*
X63809523Y-116142857D01*
X63809523Y-116238095D01*
X63761904Y-116380952D01*
X63190476Y-116952380D01*
X63809523Y-116952380D01*
X64666666Y-115952380D02*
X64476190Y-115952380D01*
X64380952Y-116000000D01*
X64333333Y-116047619D01*
X64238095Y-116190476D01*
X64190476Y-116380952D01*
X64190476Y-116761904D01*
X64238095Y-116857142D01*
X64285714Y-116904761D01*
X64380952Y-116952380D01*
X64571428Y-116952380D01*
X64666666Y-116904761D01*
X64714285Y-116857142D01*
X64761904Y-116761904D01*
X64761904Y-116523809D01*
X64714285Y-116428571D01*
X64666666Y-116380952D01*
X64571428Y-116333333D01*
X64380952Y-116333333D01*
X64285714Y-116380952D01*
X64238095Y-116428571D01*
X64190476Y-116523809D01*
%TO.C,Q2*%
X81904761Y-139547619D02*
X81809523Y-139500000D01*
X81714285Y-139404761D01*
X81571428Y-139261904D01*
X81476190Y-139214285D01*
X81380952Y-139214285D01*
X81428571Y-139452380D02*
X81333333Y-139404761D01*
X81238095Y-139309523D01*
X81190476Y-139119047D01*
X81190476Y-138785714D01*
X81238095Y-138595238D01*
X81333333Y-138500000D01*
X81428571Y-138452380D01*
X81619047Y-138452380D01*
X81714285Y-138500000D01*
X81809523Y-138595238D01*
X81857142Y-138785714D01*
X81857142Y-139119047D01*
X81809523Y-139309523D01*
X81714285Y-139404761D01*
X81619047Y-139452380D01*
X81428571Y-139452380D01*
X82238095Y-138547619D02*
X82285714Y-138500000D01*
X82380952Y-138452380D01*
X82619047Y-138452380D01*
X82714285Y-138500000D01*
X82761904Y-138547619D01*
X82809523Y-138642857D01*
X82809523Y-138738095D01*
X82761904Y-138880952D01*
X82190476Y-139452380D01*
X82809523Y-139452380D01*
%TO.C,U3*%
X87738095Y-127052380D02*
X87738095Y-127861904D01*
X87785714Y-127957142D01*
X87833333Y-128004761D01*
X87928571Y-128052380D01*
X88119047Y-128052380D01*
X88214285Y-128004761D01*
X88261904Y-127957142D01*
X88309523Y-127861904D01*
X88309523Y-127052380D01*
X88690476Y-127052380D02*
X89309523Y-127052380D01*
X88976190Y-127433333D01*
X89119047Y-127433333D01*
X89214285Y-127480952D01*
X89261904Y-127528571D01*
X89309523Y-127623809D01*
X89309523Y-127861904D01*
X89261904Y-127957142D01*
X89214285Y-128004761D01*
X89119047Y-128052380D01*
X88833333Y-128052380D01*
X88738095Y-128004761D01*
X88690476Y-127957142D01*
%TO.C,C12*%
X70357142Y-84357142D02*
X70309523Y-84404761D01*
X70166666Y-84452380D01*
X70071428Y-84452380D01*
X69928571Y-84404761D01*
X69833333Y-84309523D01*
X69785714Y-84214285D01*
X69738095Y-84023809D01*
X69738095Y-83880952D01*
X69785714Y-83690476D01*
X69833333Y-83595238D01*
X69928571Y-83500000D01*
X70071428Y-83452380D01*
X70166666Y-83452380D01*
X70309523Y-83500000D01*
X70357142Y-83547619D01*
X71309523Y-84452380D02*
X70738095Y-84452380D01*
X71023809Y-84452380D02*
X71023809Y-83452380D01*
X70928571Y-83595238D01*
X70833333Y-83690476D01*
X70738095Y-83738095D01*
X71690476Y-83547619D02*
X71738095Y-83500000D01*
X71833333Y-83452380D01*
X72071428Y-83452380D01*
X72166666Y-83500000D01*
X72214285Y-83547619D01*
X72261904Y-83642857D01*
X72261904Y-83738095D01*
X72214285Y-83880952D01*
X71642857Y-84452380D01*
X72261904Y-84452380D01*
%TO.C,U7*%
X64738095Y-113952380D02*
X64738095Y-114761904D01*
X64785714Y-114857142D01*
X64833333Y-114904761D01*
X64928571Y-114952380D01*
X65119047Y-114952380D01*
X65214285Y-114904761D01*
X65261904Y-114857142D01*
X65309523Y-114761904D01*
X65309523Y-113952380D01*
X65690476Y-113952380D02*
X66357142Y-113952380D01*
X65928571Y-114952380D01*
%TO.C,L1*%
X76083333Y-79452380D02*
X75607142Y-79452380D01*
X75607142Y-78452380D01*
X76940476Y-79452380D02*
X76369047Y-79452380D01*
X76654761Y-79452380D02*
X76654761Y-78452380D01*
X76559523Y-78595238D01*
X76464285Y-78690476D01*
X76369047Y-78738095D01*
%TO.C,U5*%
X124238095Y-123452380D02*
X124238095Y-124261904D01*
X124285714Y-124357142D01*
X124333333Y-124404761D01*
X124428571Y-124452380D01*
X124619047Y-124452380D01*
X124714285Y-124404761D01*
X124761904Y-124357142D01*
X124809523Y-124261904D01*
X124809523Y-123452380D01*
X125761904Y-123452380D02*
X125285714Y-123452380D01*
X125238095Y-123928571D01*
X125285714Y-123880952D01*
X125380952Y-123833333D01*
X125619047Y-123833333D01*
X125714285Y-123880952D01*
X125761904Y-123928571D01*
X125809523Y-124023809D01*
X125809523Y-124261904D01*
X125761904Y-124357142D01*
X125714285Y-124404761D01*
X125619047Y-124452380D01*
X125380952Y-124452380D01*
X125285714Y-124404761D01*
X125238095Y-124357142D01*
%TO.C,C27*%
X99357142Y-66287142D02*
X99309523Y-66334761D01*
X99166666Y-66382380D01*
X99071428Y-66382380D01*
X98928571Y-66334761D01*
X98833333Y-66239523D01*
X98785714Y-66144285D01*
X98738095Y-65953809D01*
X98738095Y-65810952D01*
X98785714Y-65620476D01*
X98833333Y-65525238D01*
X98928571Y-65430000D01*
X99071428Y-65382380D01*
X99166666Y-65382380D01*
X99309523Y-65430000D01*
X99357142Y-65477619D01*
X99738095Y-65477619D02*
X99785714Y-65430000D01*
X99880952Y-65382380D01*
X100119047Y-65382380D01*
X100214285Y-65430000D01*
X100261904Y-65477619D01*
X100309523Y-65572857D01*
X100309523Y-65668095D01*
X100261904Y-65810952D01*
X99690476Y-66382380D01*
X100309523Y-66382380D01*
X100642857Y-65382380D02*
X101309523Y-65382380D01*
X100880952Y-66382380D01*
%TO.C,C21*%
X126357142Y-116357142D02*
X126309523Y-116404761D01*
X126166666Y-116452380D01*
X126071428Y-116452380D01*
X125928571Y-116404761D01*
X125833333Y-116309523D01*
X125785714Y-116214285D01*
X125738095Y-116023809D01*
X125738095Y-115880952D01*
X125785714Y-115690476D01*
X125833333Y-115595238D01*
X125928571Y-115500000D01*
X126071428Y-115452380D01*
X126166666Y-115452380D01*
X126309523Y-115500000D01*
X126357142Y-115547619D01*
X126738095Y-115547619D02*
X126785714Y-115500000D01*
X126880952Y-115452380D01*
X127119047Y-115452380D01*
X127214285Y-115500000D01*
X127261904Y-115547619D01*
X127309523Y-115642857D01*
X127309523Y-115738095D01*
X127261904Y-115880952D01*
X126690476Y-116452380D01*
X127309523Y-116452380D01*
X128261904Y-116452380D02*
X127690476Y-116452380D01*
X127976190Y-116452380D02*
X127976190Y-115452380D01*
X127880952Y-115595238D01*
X127785714Y-115690476D01*
X127690476Y-115738095D01*
%TO.C,R16*%
X65857142Y-106952380D02*
X65523809Y-106476190D01*
X65285714Y-106952380D02*
X65285714Y-105952380D01*
X65666666Y-105952380D01*
X65761904Y-106000000D01*
X65809523Y-106047619D01*
X65857142Y-106142857D01*
X65857142Y-106285714D01*
X65809523Y-106380952D01*
X65761904Y-106428571D01*
X65666666Y-106476190D01*
X65285714Y-106476190D01*
X66809523Y-106952380D02*
X66238095Y-106952380D01*
X66523809Y-106952380D02*
X66523809Y-105952380D01*
X66428571Y-106095238D01*
X66333333Y-106190476D01*
X66238095Y-106238095D01*
X67666666Y-105952380D02*
X67476190Y-105952380D01*
X67380952Y-106000000D01*
X67333333Y-106047619D01*
X67238095Y-106190476D01*
X67190476Y-106380952D01*
X67190476Y-106761904D01*
X67238095Y-106857142D01*
X67285714Y-106904761D01*
X67380952Y-106952380D01*
X67571428Y-106952380D01*
X67666666Y-106904761D01*
X67714285Y-106857142D01*
X67761904Y-106761904D01*
X67761904Y-106523809D01*
X67714285Y-106428571D01*
X67666666Y-106380952D01*
X67571428Y-106333333D01*
X67380952Y-106333333D01*
X67285714Y-106380952D01*
X67238095Y-106428571D01*
X67190476Y-106523809D01*
%TO.C,U1*%
X97738095Y-102952380D02*
X97738095Y-103761904D01*
X97785714Y-103857142D01*
X97833333Y-103904761D01*
X97928571Y-103952380D01*
X98119047Y-103952380D01*
X98214285Y-103904761D01*
X98261904Y-103857142D01*
X98309523Y-103761904D01*
X98309523Y-102952380D01*
X99309523Y-103952380D02*
X98738095Y-103952380D01*
X99023809Y-103952380D02*
X99023809Y-102952380D01*
X98928571Y-103095238D01*
X98833333Y-103190476D01*
X98738095Y-103238095D01*
%TO.C,C20*%
X101357142Y-105287142D02*
X101309523Y-105334761D01*
X101166666Y-105382380D01*
X101071428Y-105382380D01*
X100928571Y-105334761D01*
X100833333Y-105239523D01*
X100785714Y-105144285D01*
X100738095Y-104953809D01*
X100738095Y-104810952D01*
X100785714Y-104620476D01*
X100833333Y-104525238D01*
X100928571Y-104430000D01*
X101071428Y-104382380D01*
X101166666Y-104382380D01*
X101309523Y-104430000D01*
X101357142Y-104477619D01*
X101738095Y-104477619D02*
X101785714Y-104430000D01*
X101880952Y-104382380D01*
X102119047Y-104382380D01*
X102214285Y-104430000D01*
X102261904Y-104477619D01*
X102309523Y-104572857D01*
X102309523Y-104668095D01*
X102261904Y-104810952D01*
X101690476Y-105382380D01*
X102309523Y-105382380D01*
X102928571Y-104382380D02*
X103023809Y-104382380D01*
X103119047Y-104430000D01*
X103166666Y-104477619D01*
X103214285Y-104572857D01*
X103261904Y-104763333D01*
X103261904Y-105001428D01*
X103214285Y-105191904D01*
X103166666Y-105287142D01*
X103119047Y-105334761D01*
X103023809Y-105382380D01*
X102928571Y-105382380D01*
X102833333Y-105334761D01*
X102785714Y-105287142D01*
X102738095Y-105191904D01*
X102690476Y-105001428D01*
X102690476Y-104763333D01*
X102738095Y-104572857D01*
X102785714Y-104477619D01*
X102833333Y-104430000D01*
X102928571Y-104382380D01*
%TO.C,C29*%
X68857142Y-111357142D02*
X68809523Y-111404761D01*
X68666666Y-111452380D01*
X68571428Y-111452380D01*
X68428571Y-111404761D01*
X68333333Y-111309523D01*
X68285714Y-111214285D01*
X68238095Y-111023809D01*
X68238095Y-110880952D01*
X68285714Y-110690476D01*
X68333333Y-110595238D01*
X68428571Y-110500000D01*
X68571428Y-110452380D01*
X68666666Y-110452380D01*
X68809523Y-110500000D01*
X68857142Y-110547619D01*
X69238095Y-110547619D02*
X69285714Y-110500000D01*
X69380952Y-110452380D01*
X69619047Y-110452380D01*
X69714285Y-110500000D01*
X69761904Y-110547619D01*
X69809523Y-110642857D01*
X69809523Y-110738095D01*
X69761904Y-110880952D01*
X69190476Y-111452380D01*
X69809523Y-111452380D01*
X70285714Y-111452380D02*
X70476190Y-111452380D01*
X70571428Y-111404761D01*
X70619047Y-111357142D01*
X70714285Y-111214285D01*
X70761904Y-111023809D01*
X70761904Y-110642857D01*
X70714285Y-110547619D01*
X70666666Y-110500000D01*
X70571428Y-110452380D01*
X70380952Y-110452380D01*
X70285714Y-110500000D01*
X70238095Y-110547619D01*
X70190476Y-110642857D01*
X70190476Y-110880952D01*
X70238095Y-110976190D01*
X70285714Y-111023809D01*
X70380952Y-111071428D01*
X70571428Y-111071428D01*
X70666666Y-111023809D01*
X70714285Y-110976190D01*
X70761904Y-110880952D01*
%TO.C,R15*%
X66857142Y-105452380D02*
X66523809Y-104976190D01*
X66285714Y-105452380D02*
X66285714Y-104452380D01*
X66666666Y-104452380D01*
X66761904Y-104500000D01*
X66809523Y-104547619D01*
X66857142Y-104642857D01*
X66857142Y-104785714D01*
X66809523Y-104880952D01*
X66761904Y-104928571D01*
X66666666Y-104976190D01*
X66285714Y-104976190D01*
X67809523Y-105452380D02*
X67238095Y-105452380D01*
X67523809Y-105452380D02*
X67523809Y-104452380D01*
X67428571Y-104595238D01*
X67333333Y-104690476D01*
X67238095Y-104738095D01*
X68714285Y-104452380D02*
X68238095Y-104452380D01*
X68190476Y-104928571D01*
X68238095Y-104880952D01*
X68333333Y-104833333D01*
X68571428Y-104833333D01*
X68666666Y-104880952D01*
X68714285Y-104928571D01*
X68761904Y-105023809D01*
X68761904Y-105261904D01*
X68714285Y-105357142D01*
X68666666Y-105404761D01*
X68571428Y-105452380D01*
X68333333Y-105452380D01*
X68238095Y-105404761D01*
X68190476Y-105357142D01*
%TO.C,R14*%
X63357142Y-112452380D02*
X63023809Y-111976190D01*
X62785714Y-112452380D02*
X62785714Y-111452380D01*
X63166666Y-111452380D01*
X63261904Y-111500000D01*
X63309523Y-111547619D01*
X63357142Y-111642857D01*
X63357142Y-111785714D01*
X63309523Y-111880952D01*
X63261904Y-111928571D01*
X63166666Y-111976190D01*
X62785714Y-111976190D01*
X64309523Y-112452380D02*
X63738095Y-112452380D01*
X64023809Y-112452380D02*
X64023809Y-111452380D01*
X63928571Y-111595238D01*
X63833333Y-111690476D01*
X63738095Y-111738095D01*
X65166666Y-111785714D02*
X65166666Y-112452380D01*
X64928571Y-111404761D02*
X64690476Y-112119047D01*
X65309523Y-112119047D01*
%TO.C,R13*%
X62357142Y-107952380D02*
X62023809Y-107476190D01*
X61785714Y-107952380D02*
X61785714Y-106952380D01*
X62166666Y-106952380D01*
X62261904Y-107000000D01*
X62309523Y-107047619D01*
X62357142Y-107142857D01*
X62357142Y-107285714D01*
X62309523Y-107380952D01*
X62261904Y-107428571D01*
X62166666Y-107476190D01*
X61785714Y-107476190D01*
X63309523Y-107952380D02*
X62738095Y-107952380D01*
X63023809Y-107952380D02*
X63023809Y-106952380D01*
X62928571Y-107095238D01*
X62833333Y-107190476D01*
X62738095Y-107238095D01*
X63642857Y-106952380D02*
X64261904Y-106952380D01*
X63928571Y-107333333D01*
X64071428Y-107333333D01*
X64166666Y-107380952D01*
X64214285Y-107428571D01*
X64261904Y-107523809D01*
X64261904Y-107761904D01*
X64214285Y-107857142D01*
X64166666Y-107904761D01*
X64071428Y-107952380D01*
X63785714Y-107952380D01*
X63690476Y-107904761D01*
X63642857Y-107857142D01*
%TO.C,U4*%
X65238095Y-79452380D02*
X65238095Y-80261904D01*
X65285714Y-80357142D01*
X65333333Y-80404761D01*
X65428571Y-80452380D01*
X65619047Y-80452380D01*
X65714285Y-80404761D01*
X65761904Y-80357142D01*
X65809523Y-80261904D01*
X65809523Y-79452380D01*
X66714285Y-79785714D02*
X66714285Y-80452380D01*
X66476190Y-79404761D02*
X66238095Y-80119047D01*
X66857142Y-80119047D01*
%TO.C,R6*%
X77333333Y-70952380D02*
X77000000Y-70476190D01*
X76761904Y-70952380D02*
X76761904Y-69952380D01*
X77142857Y-69952380D01*
X77238095Y-70000000D01*
X77285714Y-70047619D01*
X77333333Y-70142857D01*
X77333333Y-70285714D01*
X77285714Y-70380952D01*
X77238095Y-70428571D01*
X77142857Y-70476190D01*
X76761904Y-70476190D01*
X78190476Y-69952380D02*
X78000000Y-69952380D01*
X77904761Y-70000000D01*
X77857142Y-70047619D01*
X77761904Y-70190476D01*
X77714285Y-70380952D01*
X77714285Y-70761904D01*
X77761904Y-70857142D01*
X77809523Y-70904761D01*
X77904761Y-70952380D01*
X78095238Y-70952380D01*
X78190476Y-70904761D01*
X78238095Y-70857142D01*
X78285714Y-70761904D01*
X78285714Y-70523809D01*
X78238095Y-70428571D01*
X78190476Y-70380952D01*
X78095238Y-70333333D01*
X77904761Y-70333333D01*
X77809523Y-70380952D01*
X77761904Y-70428571D01*
X77714285Y-70523809D01*
%TO.C,C19*%
X77357142Y-74857142D02*
X77309523Y-74904761D01*
X77166666Y-74952380D01*
X77071428Y-74952380D01*
X76928571Y-74904761D01*
X76833333Y-74809523D01*
X76785714Y-74714285D01*
X76738095Y-74523809D01*
X76738095Y-74380952D01*
X76785714Y-74190476D01*
X76833333Y-74095238D01*
X76928571Y-74000000D01*
X77071428Y-73952380D01*
X77166666Y-73952380D01*
X77309523Y-74000000D01*
X77357142Y-74047619D01*
X78309523Y-74952380D02*
X77738095Y-74952380D01*
X78023809Y-74952380D02*
X78023809Y-73952380D01*
X77928571Y-74095238D01*
X77833333Y-74190476D01*
X77738095Y-74238095D01*
X78785714Y-74952380D02*
X78976190Y-74952380D01*
X79071428Y-74904761D01*
X79119047Y-74857142D01*
X79214285Y-74714285D01*
X79261904Y-74523809D01*
X79261904Y-74142857D01*
X79214285Y-74047619D01*
X79166666Y-74000000D01*
X79071428Y-73952380D01*
X78880952Y-73952380D01*
X78785714Y-74000000D01*
X78738095Y-74047619D01*
X78690476Y-74142857D01*
X78690476Y-74380952D01*
X78738095Y-74476190D01*
X78785714Y-74523809D01*
X78880952Y-74571428D01*
X79071428Y-74571428D01*
X79166666Y-74523809D01*
X79214285Y-74476190D01*
X79261904Y-74380952D01*
%TO.C,R3*%
X72833333Y-77382380D02*
X72500000Y-76906190D01*
X72261904Y-77382380D02*
X72261904Y-76382380D01*
X72642857Y-76382380D01*
X72738095Y-76430000D01*
X72785714Y-76477619D01*
X72833333Y-76572857D01*
X72833333Y-76715714D01*
X72785714Y-76810952D01*
X72738095Y-76858571D01*
X72642857Y-76906190D01*
X72261904Y-76906190D01*
X73166666Y-76382380D02*
X73785714Y-76382380D01*
X73452380Y-76763333D01*
X73595238Y-76763333D01*
X73690476Y-76810952D01*
X73738095Y-76858571D01*
X73785714Y-76953809D01*
X73785714Y-77191904D01*
X73738095Y-77287142D01*
X73690476Y-77334761D01*
X73595238Y-77382380D01*
X73309523Y-77382380D01*
X73214285Y-77334761D01*
X73166666Y-77287142D01*
%TO.C,C23*%
X71857142Y-66857142D02*
X71809523Y-66904761D01*
X71666666Y-66952380D01*
X71571428Y-66952380D01*
X71428571Y-66904761D01*
X71333333Y-66809523D01*
X71285714Y-66714285D01*
X71238095Y-66523809D01*
X71238095Y-66380952D01*
X71285714Y-66190476D01*
X71333333Y-66095238D01*
X71428571Y-66000000D01*
X71571428Y-65952380D01*
X71666666Y-65952380D01*
X71809523Y-66000000D01*
X71857142Y-66047619D01*
X72238095Y-66047619D02*
X72285714Y-66000000D01*
X72380952Y-65952380D01*
X72619047Y-65952380D01*
X72714285Y-66000000D01*
X72761904Y-66047619D01*
X72809523Y-66142857D01*
X72809523Y-66238095D01*
X72761904Y-66380952D01*
X72190476Y-66952380D01*
X72809523Y-66952380D01*
X73142857Y-65952380D02*
X73761904Y-65952380D01*
X73428571Y-66333333D01*
X73571428Y-66333333D01*
X73666666Y-66380952D01*
X73714285Y-66428571D01*
X73761904Y-66523809D01*
X73761904Y-66761904D01*
X73714285Y-66857142D01*
X73666666Y-66904761D01*
X73571428Y-66952380D01*
X73285714Y-66952380D01*
X73190476Y-66904761D01*
X73142857Y-66857142D01*
%TO.C,R7*%
X129452380Y-137666666D02*
X128976190Y-138000000D01*
X129452380Y-138238095D02*
X128452380Y-138238095D01*
X128452380Y-137857142D01*
X128500000Y-137761904D01*
X128547619Y-137714285D01*
X128642857Y-137666666D01*
X128785714Y-137666666D01*
X128880952Y-137714285D01*
X128928571Y-137761904D01*
X128976190Y-137857142D01*
X128976190Y-138238095D01*
X128452380Y-137333333D02*
X128452380Y-136666666D01*
X129452380Y-137095238D01*
%TO.C,R8*%
X130952380Y-137666666D02*
X130476190Y-138000000D01*
X130952380Y-138238095D02*
X129952380Y-138238095D01*
X129952380Y-137857142D01*
X130000000Y-137761904D01*
X130047619Y-137714285D01*
X130142857Y-137666666D01*
X130285714Y-137666666D01*
X130380952Y-137714285D01*
X130428571Y-137761904D01*
X130476190Y-137857142D01*
X130476190Y-138238095D01*
X130380952Y-137095238D02*
X130333333Y-137190476D01*
X130285714Y-137238095D01*
X130190476Y-137285714D01*
X130142857Y-137285714D01*
X130047619Y-137238095D01*
X130000000Y-137190476D01*
X129952380Y-137095238D01*
X129952380Y-136904761D01*
X130000000Y-136809523D01*
X130047619Y-136761904D01*
X130142857Y-136714285D01*
X130190476Y-136714285D01*
X130285714Y-136761904D01*
X130333333Y-136809523D01*
X130380952Y-136904761D01*
X130380952Y-137095238D01*
X130428571Y-137190476D01*
X130476190Y-137238095D01*
X130571428Y-137285714D01*
X130761904Y-137285714D01*
X130857142Y-137238095D01*
X130904761Y-137190476D01*
X130952380Y-137095238D01*
X130952380Y-136904761D01*
X130904761Y-136809523D01*
X130857142Y-136761904D01*
X130761904Y-136714285D01*
X130571428Y-136714285D01*
X130476190Y-136761904D01*
X130428571Y-136809523D01*
X130380952Y-136904761D01*
%TO.C,R12*%
X136952380Y-138142857D02*
X136476190Y-138476190D01*
X136952380Y-138714285D02*
X135952380Y-138714285D01*
X135952380Y-138333333D01*
X136000000Y-138238095D01*
X136047619Y-138190476D01*
X136142857Y-138142857D01*
X136285714Y-138142857D01*
X136380952Y-138190476D01*
X136428571Y-138238095D01*
X136476190Y-138333333D01*
X136476190Y-138714285D01*
X136952380Y-137190476D02*
X136952380Y-137761904D01*
X136952380Y-137476190D02*
X135952380Y-137476190D01*
X136095238Y-137571428D01*
X136190476Y-137666666D01*
X136238095Y-137761904D01*
X136047619Y-136809523D02*
X136000000Y-136761904D01*
X135952380Y-136666666D01*
X135952380Y-136428571D01*
X136000000Y-136333333D01*
X136047619Y-136285714D01*
X136142857Y-136238095D01*
X136238095Y-136238095D01*
X136380952Y-136285714D01*
X136952380Y-136857142D01*
X136952380Y-136238095D01*
%TO.C,R9*%
X132452380Y-137666666D02*
X131976190Y-138000000D01*
X132452380Y-138238095D02*
X131452380Y-138238095D01*
X131452380Y-137857142D01*
X131500000Y-137761904D01*
X131547619Y-137714285D01*
X131642857Y-137666666D01*
X131785714Y-137666666D01*
X131880952Y-137714285D01*
X131928571Y-137761904D01*
X131976190Y-137857142D01*
X131976190Y-138238095D01*
X132452380Y-137190476D02*
X132452380Y-137000000D01*
X132404761Y-136904761D01*
X132357142Y-136857142D01*
X132214285Y-136761904D01*
X132023809Y-136714285D01*
X131642857Y-136714285D01*
X131547619Y-136761904D01*
X131500000Y-136809523D01*
X131452380Y-136904761D01*
X131452380Y-137095238D01*
X131500000Y-137190476D01*
X131547619Y-137238095D01*
X131642857Y-137285714D01*
X131880952Y-137285714D01*
X131976190Y-137238095D01*
X132023809Y-137190476D01*
X132071428Y-137095238D01*
X132071428Y-136904761D01*
X132023809Y-136809523D01*
X131976190Y-136761904D01*
X131880952Y-136714285D01*
%TO.C,R10*%
X133952380Y-138142857D02*
X133476190Y-138476190D01*
X133952380Y-138714285D02*
X132952380Y-138714285D01*
X132952380Y-138333333D01*
X133000000Y-138238095D01*
X133047619Y-138190476D01*
X133142857Y-138142857D01*
X133285714Y-138142857D01*
X133380952Y-138190476D01*
X133428571Y-138238095D01*
X133476190Y-138333333D01*
X133476190Y-138714285D01*
X133952380Y-137190476D02*
X133952380Y-137761904D01*
X133952380Y-137476190D02*
X132952380Y-137476190D01*
X133095238Y-137571428D01*
X133190476Y-137666666D01*
X133238095Y-137761904D01*
X132952380Y-136571428D02*
X132952380Y-136476190D01*
X133000000Y-136380952D01*
X133047619Y-136333333D01*
X133142857Y-136285714D01*
X133333333Y-136238095D01*
X133571428Y-136238095D01*
X133761904Y-136285714D01*
X133857142Y-136333333D01*
X133904761Y-136380952D01*
X133952380Y-136476190D01*
X133952380Y-136571428D01*
X133904761Y-136666666D01*
X133857142Y-136714285D01*
X133761904Y-136761904D01*
X133571428Y-136809523D01*
X133333333Y-136809523D01*
X133142857Y-136761904D01*
X133047619Y-136714285D01*
X133000000Y-136666666D01*
X132952380Y-136571428D01*
%TO.C,R11*%
X135452380Y-138142857D02*
X134976190Y-138476190D01*
X135452380Y-138714285D02*
X134452380Y-138714285D01*
X134452380Y-138333333D01*
X134500000Y-138238095D01*
X134547619Y-138190476D01*
X134642857Y-138142857D01*
X134785714Y-138142857D01*
X134880952Y-138190476D01*
X134928571Y-138238095D01*
X134976190Y-138333333D01*
X134976190Y-138714285D01*
X135452380Y-137190476D02*
X135452380Y-137761904D01*
X135452380Y-137476190D02*
X134452380Y-137476190D01*
X134595238Y-137571428D01*
X134690476Y-137666666D01*
X134738095Y-137761904D01*
X135452380Y-136238095D02*
X135452380Y-136809523D01*
X135452380Y-136523809D02*
X134452380Y-136523809D01*
X134595238Y-136619047D01*
X134690476Y-136714285D01*
X134738095Y-136809523D01*
%TO.C,R17*%
X80002142Y-127202380D02*
X79668809Y-126726190D01*
X79430714Y-127202380D02*
X79430714Y-126202380D01*
X79811666Y-126202380D01*
X79906904Y-126250000D01*
X79954523Y-126297619D01*
X80002142Y-126392857D01*
X80002142Y-126535714D01*
X79954523Y-126630952D01*
X79906904Y-126678571D01*
X79811666Y-126726190D01*
X79430714Y-126726190D01*
X80954523Y-127202380D02*
X80383095Y-127202380D01*
X80668809Y-127202380D02*
X80668809Y-126202380D01*
X80573571Y-126345238D01*
X80478333Y-126440476D01*
X80383095Y-126488095D01*
X81287857Y-126202380D02*
X81954523Y-126202380D01*
X81525952Y-127202380D01*
%TO.C,C28*%
X79357142Y-128357142D02*
X79309523Y-128404761D01*
X79166666Y-128452380D01*
X79071428Y-128452380D01*
X78928571Y-128404761D01*
X78833333Y-128309523D01*
X78785714Y-128214285D01*
X78738095Y-128023809D01*
X78738095Y-127880952D01*
X78785714Y-127690476D01*
X78833333Y-127595238D01*
X78928571Y-127500000D01*
X79071428Y-127452380D01*
X79166666Y-127452380D01*
X79309523Y-127500000D01*
X79357142Y-127547619D01*
X79738095Y-127547619D02*
X79785714Y-127500000D01*
X79880952Y-127452380D01*
X80119047Y-127452380D01*
X80214285Y-127500000D01*
X80261904Y-127547619D01*
X80309523Y-127642857D01*
X80309523Y-127738095D01*
X80261904Y-127880952D01*
X79690476Y-128452380D01*
X80309523Y-128452380D01*
X80880952Y-127880952D02*
X80785714Y-127833333D01*
X80738095Y-127785714D01*
X80690476Y-127690476D01*
X80690476Y-127642857D01*
X80738095Y-127547619D01*
X80785714Y-127500000D01*
X80880952Y-127452380D01*
X81071428Y-127452380D01*
X81166666Y-127500000D01*
X81214285Y-127547619D01*
X81261904Y-127642857D01*
X81261904Y-127690476D01*
X81214285Y-127785714D01*
X81166666Y-127833333D01*
X81071428Y-127880952D01*
X80880952Y-127880952D01*
X80785714Y-127928571D01*
X80738095Y-127976190D01*
X80690476Y-128071428D01*
X80690476Y-128261904D01*
X80738095Y-128357142D01*
X80785714Y-128404761D01*
X80880952Y-128452380D01*
X81071428Y-128452380D01*
X81166666Y-128404761D01*
X81214285Y-128357142D01*
X81261904Y-128261904D01*
X81261904Y-128071428D01*
X81214285Y-127976190D01*
X81166666Y-127928571D01*
X81071428Y-127880952D01*
%TO.C,C25*%
X79367142Y-129770142D02*
X79319523Y-129817761D01*
X79176666Y-129865380D01*
X79081428Y-129865380D01*
X78938571Y-129817761D01*
X78843333Y-129722523D01*
X78795714Y-129627285D01*
X78748095Y-129436809D01*
X78748095Y-129293952D01*
X78795714Y-129103476D01*
X78843333Y-129008238D01*
X78938571Y-128913000D01*
X79081428Y-128865380D01*
X79176666Y-128865380D01*
X79319523Y-128913000D01*
X79367142Y-128960619D01*
X79748095Y-128960619D02*
X79795714Y-128913000D01*
X79890952Y-128865380D01*
X80129047Y-128865380D01*
X80224285Y-128913000D01*
X80271904Y-128960619D01*
X80319523Y-129055857D01*
X80319523Y-129151095D01*
X80271904Y-129293952D01*
X79700476Y-129865380D01*
X80319523Y-129865380D01*
X81224285Y-128865380D02*
X80748095Y-128865380D01*
X80700476Y-129341571D01*
X80748095Y-129293952D01*
X80843333Y-129246333D01*
X81081428Y-129246333D01*
X81176666Y-129293952D01*
X81224285Y-129341571D01*
X81271904Y-129436809D01*
X81271904Y-129674904D01*
X81224285Y-129770142D01*
X81176666Y-129817761D01*
X81081428Y-129865380D01*
X80843333Y-129865380D01*
X80748095Y-129817761D01*
X80700476Y-129770142D01*
%TO.C,C10*%
X117357142Y-140107142D02*
X117309523Y-140154761D01*
X117166666Y-140202380D01*
X117071428Y-140202380D01*
X116928571Y-140154761D01*
X116833333Y-140059523D01*
X116785714Y-139964285D01*
X116738095Y-139773809D01*
X116738095Y-139630952D01*
X116785714Y-139440476D01*
X116833333Y-139345238D01*
X116928571Y-139250000D01*
X117071428Y-139202380D01*
X117166666Y-139202380D01*
X117309523Y-139250000D01*
X117357142Y-139297619D01*
X118309523Y-140202380D02*
X117738095Y-140202380D01*
X118023809Y-140202380D02*
X118023809Y-139202380D01*
X117928571Y-139345238D01*
X117833333Y-139440476D01*
X117738095Y-139488095D01*
X118928571Y-139202380D02*
X119023809Y-139202380D01*
X119119047Y-139250000D01*
X119166666Y-139297619D01*
X119214285Y-139392857D01*
X119261904Y-139583333D01*
X119261904Y-139821428D01*
X119214285Y-140011904D01*
X119166666Y-140107142D01*
X119119047Y-140154761D01*
X119023809Y-140202380D01*
X118928571Y-140202380D01*
X118833333Y-140154761D01*
X118785714Y-140107142D01*
X118738095Y-140011904D01*
X118690476Y-139821428D01*
X118690476Y-139583333D01*
X118738095Y-139392857D01*
X118785714Y-139297619D01*
X118833333Y-139250000D01*
X118928571Y-139202380D01*
%TO.C,C9*%
X117833333Y-131357142D02*
X117785714Y-131404761D01*
X117642857Y-131452380D01*
X117547619Y-131452380D01*
X117404761Y-131404761D01*
X117309523Y-131309523D01*
X117261904Y-131214285D01*
X117214285Y-131023809D01*
X117214285Y-130880952D01*
X117261904Y-130690476D01*
X117309523Y-130595238D01*
X117404761Y-130500000D01*
X117547619Y-130452380D01*
X117642857Y-130452380D01*
X117785714Y-130500000D01*
X117833333Y-130547619D01*
X118309523Y-131452380D02*
X118500000Y-131452380D01*
X118595238Y-131404761D01*
X118642857Y-131357142D01*
X118738095Y-131214285D01*
X118785714Y-131023809D01*
X118785714Y-130642857D01*
X118738095Y-130547619D01*
X118690476Y-130500000D01*
X118595238Y-130452380D01*
X118404761Y-130452380D01*
X118309523Y-130500000D01*
X118261904Y-130547619D01*
X118214285Y-130642857D01*
X118214285Y-130880952D01*
X118261904Y-130976190D01*
X118309523Y-131023809D01*
X118404761Y-131071428D01*
X118595238Y-131071428D01*
X118690476Y-131023809D01*
X118738095Y-130976190D01*
X118785714Y-130880952D01*
%TO.C,C24*%
X82357142Y-129607142D02*
X82309523Y-129654761D01*
X82166666Y-129702380D01*
X82071428Y-129702380D01*
X81928571Y-129654761D01*
X81833333Y-129559523D01*
X81785714Y-129464285D01*
X81738095Y-129273809D01*
X81738095Y-129130952D01*
X81785714Y-128940476D01*
X81833333Y-128845238D01*
X81928571Y-128750000D01*
X82071428Y-128702380D01*
X82166666Y-128702380D01*
X82309523Y-128750000D01*
X82357142Y-128797619D01*
X82738095Y-128797619D02*
X82785714Y-128750000D01*
X82880952Y-128702380D01*
X83119047Y-128702380D01*
X83214285Y-128750000D01*
X83261904Y-128797619D01*
X83309523Y-128892857D01*
X83309523Y-128988095D01*
X83261904Y-129130952D01*
X82690476Y-129702380D01*
X83309523Y-129702380D01*
X84166666Y-129035714D02*
X84166666Y-129702380D01*
X83928571Y-128654761D02*
X83690476Y-129369047D01*
X84309523Y-129369047D01*
D11*
%TO.C,C37*%
X132713000Y-72385000D02*
X132713000Y-80135000D01*
X126113000Y-75185000D02*
X126113000Y-80135000D01*
%TO.C,AC1*%
X91797000Y-70715000D02*
X91297000Y-70715000D01*
X88797000Y-67715000D02*
X88797000Y-67715000D01*
X91797000Y-67715000D02*
X91797000Y-67715000D01*
X88797000Y-67715000D02*
X89297000Y-67715000D01*
X91797000Y-67715000D02*
X91297000Y-67715000D01*
X88797000Y-67715000D02*
X88797000Y-67715000D01*
X88797000Y-70715000D02*
X88797000Y-70715000D01*
X88797000Y-70715000D02*
X89297000Y-70715000D01*
X91797000Y-70715000D02*
X91797000Y-70715000D01*
D15*
X88322000Y-68215000D02*
G75*
G03*
X88322000Y-68215000I-125000J0D01*
G01*
D16*
%TO.C,U11*%
X132158000Y-111439000D02*
G75*
G03*
X132058000Y-111439000I-50000J0D01*
G01*
X132058000Y-111439000D02*
G75*
G03*
X132158000Y-111439000I50000J0D01*
G01*
X131883000Y-106839000D02*
X131883000Y-108639000D01*
X132158000Y-111439000D02*
X132158000Y-111439000D01*
X135833000Y-110039000D02*
X135833000Y-110839000D01*
X135833000Y-106839000D02*
X135833000Y-108439000D01*
X132058000Y-111439000D02*
X132058000Y-111439000D01*
X131883000Y-109439000D02*
X131858000Y-110839000D01*
D17*
%TO.C,LS1*%
X136704000Y-71048000D02*
X138104000Y-69648000D01*
X133604000Y-72148000D02*
X133604000Y-73348000D01*
X133004000Y-72748000D02*
X134204000Y-72748000D01*
X133004000Y-60748000D02*
X134204000Y-60748000D01*
X129104000Y-62048000D02*
X132484000Y-62048000D01*
X129104000Y-71048000D02*
X129104000Y-62048000D01*
X132484000Y-71048000D02*
X129104000Y-71048000D01*
X136704000Y-71048000D02*
X134724000Y-71048000D01*
X138104000Y-62048000D02*
X138104000Y-69648000D01*
X134724000Y-62048000D02*
X138104000Y-62048000D01*
D12*
%TO.C,R19*%
X132327000Y-90938000D02*
X132327000Y-90418000D01*
X132327000Y-93198000D02*
X132327000Y-92718000D01*
X137167000Y-92818000D02*
X137167000Y-91918000D01*
X137167000Y-92818000D02*
X137167000Y-91918000D01*
X137167000Y-88158000D02*
X132327000Y-88158000D01*
X137167000Y-93198000D02*
X132327000Y-93198000D01*
X137167000Y-93198000D02*
X137167000Y-91918000D01*
X137167000Y-92818000D02*
X137167000Y-92818000D01*
X132327000Y-88638000D02*
X132327000Y-88158000D01*
X137167000Y-89438000D02*
X137167000Y-88158000D01*
%TO.C,C35*%
X137158000Y-77837420D02*
X137158000Y-78118580D01*
X138178000Y-77837420D02*
X138178000Y-78118580D01*
%TO.C,C36*%
X134237000Y-77837420D02*
X134237000Y-78118580D01*
X135257000Y-77837420D02*
X135257000Y-78118580D01*
%TO.C,U10*%
X133731000Y-87523000D02*
X131781000Y-87523000D01*
X133731000Y-82403000D02*
X131781000Y-82403000D01*
X133731000Y-87523000D02*
X137181000Y-87523000D01*
X133731000Y-82403000D02*
X135681000Y-82403000D01*
%TO.C,R20*%
X134224500Y-74311742D02*
X134224500Y-74786258D01*
X135269500Y-74311742D02*
X135269500Y-74786258D01*
%TO.C,J2*%
X104470000Y-135982000D02*
X104470000Y-137782000D01*
X104470000Y-141492000D02*
X95530000Y-141492000D01*
X104470000Y-141492000D02*
X104470000Y-140032000D01*
X95530000Y-141492000D02*
X95530000Y-140032000D01*
X95530000Y-135982000D02*
X95530000Y-137782000D01*
%TO.C,C30*%
X87505000Y-69609580D02*
X87505000Y-69328420D01*
X86485000Y-69609580D02*
X86485000Y-69328420D01*
%TO.C,C31*%
X91426420Y-67058000D02*
X91707580Y-67058000D01*
X91426420Y-66038000D02*
X91707580Y-66038000D01*
%TO.C,C33*%
X131331580Y-113413000D02*
X131050420Y-113413000D01*
X131331580Y-112393000D02*
X131050420Y-112393000D01*
%TO.C,C32*%
X134754252Y-112422000D02*
X134231748Y-112422000D01*
X134754252Y-113892000D02*
X134231748Y-113892000D01*
%TO.C,C34*%
X138911000Y-107957252D02*
X138911000Y-107434748D01*
X137441000Y-107957252D02*
X137441000Y-107434748D01*
%TO.C,U9*%
X116100000Y-138910000D02*
X110090000Y-138910000D01*
X113850000Y-132090000D02*
X110090000Y-132090000D01*
X110090000Y-132090000D02*
X110090000Y-133350000D01*
X110090000Y-138910000D02*
X110090000Y-137650000D01*
%TO.C,U6*%
X119400000Y-132090000D02*
X125410000Y-132090000D01*
X121650000Y-138910000D02*
X125410000Y-138910000D01*
X125410000Y-138910000D02*
X125410000Y-137650000D01*
X125410000Y-132090000D02*
X125410000Y-133350000D01*
%TO.C,R18*%
X90788258Y-72277500D02*
X90313742Y-72277500D01*
X90788258Y-71232500D02*
X90313742Y-71232500D01*
%TO.C,C2*%
X89497994Y-114800109D02*
X89654402Y-114566469D01*
X90345598Y-115367531D02*
X90502006Y-115133891D01*
D16*
%TO.C,D2*%
X95937628Y-116339262D02*
X95440140Y-117540305D01*
X94617933Y-117957411D02*
X90552864Y-116273604D01*
X90552864Y-116273604D02*
X91318230Y-114425845D01*
X95440140Y-117540305D02*
X94617933Y-117957411D01*
X91318230Y-114425845D02*
X95937628Y-116339262D01*
D12*
%TO.C,C1*%
X85199015Y-110502297D02*
X85432927Y-110346297D01*
X84633073Y-109653703D02*
X84866985Y-109497703D01*
D16*
%TO.C,D1*%
X85573866Y-108681072D02*
X84372823Y-109178560D01*
X84372823Y-109178560D02*
X83496497Y-108892111D01*
X81812690Y-104827041D02*
X83660449Y-104061674D01*
X83496497Y-108892111D02*
X81812690Y-104827041D01*
X83660449Y-104061674D02*
X85573866Y-108681072D01*
D12*
%TO.C,R1*%
X95360258Y-132729500D02*
X94885742Y-132729500D01*
X95360258Y-131684500D02*
X94885742Y-131684500D01*
%TO.C,R2*%
X105262742Y-131557500D02*
X105737258Y-131557500D01*
X105262742Y-132602500D02*
X105737258Y-132602500D01*
D10*
%TO.C,U2*%
X76500000Y-137500000D02*
X74500000Y-138500000D01*
X76500000Y-120000000D02*
X76500000Y-119500000D01*
X74500000Y-136500000D02*
X70500000Y-138500000D01*
X68500000Y-138500000D02*
X72500000Y-136500000D01*
X76500000Y-138500000D02*
X63500000Y-138500000D01*
X63500000Y-138500000D02*
X63500000Y-136000000D01*
X65500000Y-119500000D02*
X63500000Y-119500000D01*
X76500000Y-119500000D02*
X74500000Y-119500000D01*
X66500000Y-136500000D02*
X63500000Y-138000000D01*
X64500000Y-136500000D02*
X63500000Y-137000000D01*
X76500000Y-136500000D02*
X72500000Y-138500000D01*
X68500000Y-136500000D02*
X64500000Y-138500000D01*
X63500000Y-119500000D02*
X63500000Y-120000000D01*
X76500000Y-136000000D02*
X76500000Y-138500000D01*
X70500000Y-136500000D02*
X66500000Y-138500000D01*
D12*
%TO.C,C11*%
X93510000Y-129399420D02*
X93510000Y-129680580D01*
X92490000Y-129399420D02*
X92490000Y-129680580D01*
%TO.C,C13*%
X121735000Y-122238748D02*
X121735000Y-122761252D01*
X120265000Y-122238748D02*
X120265000Y-122761252D01*
%TO.C,C14*%
X123510000Y-122359420D02*
X123510000Y-122640580D01*
X122490000Y-122359420D02*
X122490000Y-122640580D01*
%TO.C,C15*%
X126359420Y-125490000D02*
X126640580Y-125490000D01*
X126359420Y-126510000D02*
X126640580Y-126510000D01*
%TO.C,C16*%
X69235000Y-80738748D02*
X69235000Y-81261252D01*
X67765000Y-80738748D02*
X67765000Y-81261252D01*
%TO.C,C17*%
X129859420Y-118010000D02*
X130140580Y-118010000D01*
X129859420Y-116990000D02*
X130140580Y-116990000D01*
%TO.C,C18*%
X80235000Y-76761252D02*
X80235000Y-76238748D01*
X78765000Y-76761252D02*
X78765000Y-76238748D01*
%TO.C,C22*%
X73140580Y-71990000D02*
X72859420Y-71990000D01*
X73140580Y-73010000D02*
X72859420Y-73010000D01*
%TO.C,Q1*%
X73500000Y-78440000D02*
X71825000Y-78440000D01*
X73500000Y-81560000D02*
X74150000Y-81560000D01*
X73500000Y-81560000D02*
X72850000Y-81560000D01*
X73500000Y-78440000D02*
X74150000Y-78440000D01*
%TO.C,R4*%
X72762742Y-73477500D02*
X73237258Y-73477500D01*
X72762742Y-74522500D02*
X73237258Y-74522500D01*
%TO.C,R5*%
X74762742Y-71022500D02*
X75237258Y-71022500D01*
X74762742Y-69977500D02*
X75237258Y-69977500D01*
%TO.C,C26*%
X63761252Y-117265000D02*
X63238748Y-117265000D01*
X63761252Y-118735000D02*
X63238748Y-118735000D01*
%TO.C,Q2*%
X80200000Y-137340000D02*
X78300000Y-137340000D01*
X78800000Y-139660000D02*
X80200000Y-139660000D01*
%TO.C,U3*%
X88500000Y-128440000D02*
X85050000Y-128440000D01*
X88500000Y-128440000D02*
X90450000Y-128440000D01*
X88500000Y-138560000D02*
X90450000Y-138560000D01*
X88500000Y-138560000D02*
X86550000Y-138560000D01*
%TO.C,C12*%
X71010000Y-80859420D02*
X71010000Y-81140580D01*
X69990000Y-80859420D02*
X69990000Y-81140580D01*
%TO.C,U7*%
X70060000Y-114500000D02*
X70060000Y-113700000D01*
X66940000Y-114500000D02*
X66940000Y-116300000D01*
X70060000Y-114500000D02*
X70060000Y-115300000D01*
X66940000Y-114500000D02*
X66940000Y-113700000D01*
%TO.C,C7*%
X89497703Y-85199015D02*
X89653703Y-85432927D01*
X90346297Y-84633073D02*
X90502297Y-84866985D01*
D16*
%TO.C,D7*%
X95172959Y-81812690D02*
X95938326Y-83660449D01*
X91107889Y-83496497D02*
X95172959Y-81812690D01*
X91318928Y-85573866D02*
X90821440Y-84372823D01*
X95938326Y-83660449D02*
X91318928Y-85573866D01*
X90821440Y-84372823D02*
X91107889Y-83496497D01*
%TO.C,D8*%
X85574155Y-91318230D02*
X83660738Y-95937628D01*
X82459695Y-95440140D02*
X82042589Y-94617933D01*
X83726396Y-90552864D02*
X85574155Y-91318230D01*
X82042589Y-94617933D02*
X83726396Y-90552864D01*
X83660738Y-95937628D02*
X82459695Y-95440140D01*
D12*
%TO.C,C8*%
X84632469Y-90345598D02*
X84866109Y-90502006D01*
X85199891Y-89497994D02*
X85433531Y-89654402D01*
%TO.C,L1*%
X75190000Y-76100378D02*
X75190000Y-76899622D01*
X76310000Y-76100378D02*
X76310000Y-76899622D01*
%TO.C,U5*%
X126390000Y-120390000D02*
X126840000Y-120390000D01*
X126390000Y-123160000D02*
X126390000Y-123610000D01*
X129610000Y-123610000D02*
X129160000Y-123610000D01*
X126390000Y-120840000D02*
X126390000Y-120390000D01*
X129610000Y-123160000D02*
X129610000Y-123610000D01*
X129610000Y-120390000D02*
X129160000Y-120390000D01*
X129610000Y-120840000D02*
X129610000Y-120390000D01*
%TO.C,C27*%
X100140580Y-65010000D02*
X99859420Y-65010000D01*
X100140580Y-63990000D02*
X99859420Y-63990000D01*
%TO.C,C21*%
X127140580Y-118010000D02*
X126859420Y-118010000D01*
X127140580Y-116990000D02*
X126859420Y-116990000D01*
%TO.C,R16*%
X70237258Y-105977500D02*
X69762742Y-105977500D01*
X70237258Y-107022500D02*
X69762742Y-107022500D01*
%TO.C,U1*%
X100000000Y-97440000D02*
X101950000Y-97440000D01*
X100000000Y-102560000D02*
X98050000Y-102560000D01*
X100000000Y-102560000D02*
X103450000Y-102560000D01*
X100000000Y-97440000D02*
X98050000Y-97440000D01*
%TO.C,C20*%
X102140580Y-102990000D02*
X101859420Y-102990000D01*
X102140580Y-104010000D02*
X101859420Y-104010000D01*
%TO.C,C29*%
X66990000Y-110640580D02*
X66990000Y-110359420D01*
X68010000Y-110640580D02*
X68010000Y-110359420D01*
%TO.C,R15*%
X68762742Y-108522500D02*
X69237258Y-108522500D01*
X68762742Y-107477500D02*
X69237258Y-107477500D01*
%TO.C,R14*%
X64237258Y-109977500D02*
X63762742Y-109977500D01*
X64237258Y-111022500D02*
X63762742Y-111022500D01*
%TO.C,R13*%
X63237258Y-109522500D02*
X62762742Y-109522500D01*
X63237258Y-108477500D02*
X62762742Y-108477500D01*
%TO.C,U4*%
X67500000Y-79060000D02*
X70950000Y-79060000D01*
X67500000Y-79060000D02*
X65550000Y-79060000D01*
X67500000Y-68940000D02*
X69450000Y-68940000D01*
X67500000Y-68940000D02*
X65550000Y-68940000D01*
%TO.C,R6*%
X75237258Y-69522500D02*
X74762742Y-69522500D01*
X75237258Y-68477500D02*
X74762742Y-68477500D01*
%TO.C,C19*%
X76990000Y-76640580D02*
X76990000Y-76359420D01*
X78010000Y-76640580D02*
X78010000Y-76359420D01*
%TO.C,R3*%
X73237258Y-74977500D02*
X72762742Y-74977500D01*
X73237258Y-76022500D02*
X72762742Y-76022500D01*
%TO.C,C23*%
X71990000Y-69359420D02*
X71990000Y-69640580D01*
X73010000Y-69359420D02*
X73010000Y-69640580D01*
%TO.C,R7*%
X129522500Y-134262742D02*
X129522500Y-134737258D01*
X128477500Y-134262742D02*
X128477500Y-134737258D01*
%TO.C,R8*%
X131022500Y-134262742D02*
X131022500Y-134737258D01*
X129977500Y-134262742D02*
X129977500Y-134737258D01*
%TO.C,R12*%
X135977500Y-134262742D02*
X135977500Y-134737258D01*
X137022500Y-134262742D02*
X137022500Y-134737258D01*
%TO.C,R9*%
X132522500Y-134262742D02*
X132522500Y-134737258D01*
X131477500Y-134262742D02*
X131477500Y-134737258D01*
%TO.C,R10*%
X132977500Y-134262742D02*
X132977500Y-134737258D01*
X134022500Y-134262742D02*
X134022500Y-134737258D01*
%TO.C,R11*%
X135522500Y-134262742D02*
X135522500Y-134737258D01*
X134477500Y-134262742D02*
X134477500Y-134737258D01*
%TO.C,R17*%
X80882258Y-131522500D02*
X80407742Y-131522500D01*
X80882258Y-130477500D02*
X80407742Y-130477500D01*
%TO.C,C28*%
X79859420Y-133010000D02*
X80140580Y-133010000D01*
X79859420Y-131990000D02*
X80140580Y-131990000D01*
%TO.C,C25*%
X79510000Y-134859420D02*
X79510000Y-135140580D01*
X78490000Y-134859420D02*
X78490000Y-135140580D01*
%TO.C,C10*%
X117265000Y-137761252D02*
X117265000Y-137238748D01*
X118735000Y-137761252D02*
X118735000Y-137238748D01*
%TO.C,C9*%
X118735000Y-133238748D02*
X118735000Y-133761252D01*
X117265000Y-133238748D02*
X117265000Y-133761252D01*
%TO.C,C24*%
X81735000Y-134738748D02*
X81735000Y-135261252D01*
X80265000Y-134738748D02*
X80265000Y-135261252D01*
%TO.C,C5*%
X115366927Y-90346297D02*
X115133015Y-90502297D01*
X114800985Y-89497703D02*
X114567073Y-89653703D01*
D16*
%TO.C,D5*%
X114426134Y-91318928D02*
X115627177Y-90821440D01*
X115627177Y-90821440D02*
X116503503Y-91107889D01*
X118187310Y-95172959D02*
X116339551Y-95938326D01*
X116339551Y-95938326D02*
X114426134Y-91318928D01*
X116503503Y-91107889D02*
X118187310Y-95172959D01*
D12*
%TO.C,C3*%
X109653703Y-115366927D02*
X109497703Y-115133015D01*
X110502297Y-114800985D02*
X110346297Y-114567073D01*
%TO.C,C6*%
X110502006Y-85199891D02*
X110345598Y-85433531D01*
X109654402Y-84632469D02*
X109497994Y-84866109D01*
D16*
%TO.C,D6*%
X109447136Y-83726396D02*
X108681770Y-85574155D01*
X104062372Y-83660738D02*
X104559860Y-82459695D01*
X104559860Y-82459695D02*
X105382067Y-82042589D01*
X105382067Y-82042589D02*
X109447136Y-83726396D01*
X108681770Y-85574155D02*
X104062372Y-83660738D01*
%TO.C,D4*%
X116273604Y-109447136D02*
X114425845Y-108681770D01*
X117540305Y-104559860D02*
X117957411Y-105382067D01*
X116339262Y-104062372D02*
X117540305Y-104559860D01*
X117957411Y-105382067D02*
X116273604Y-109447136D01*
X114425845Y-108681770D02*
X116339262Y-104062372D01*
D12*
%TO.C,C4*%
X114800109Y-110502006D02*
X114566469Y-110345598D01*
X115367531Y-109654402D02*
X115133891Y-109497994D01*
D16*
%TO.C,D3*%
X108892111Y-116503503D02*
X104827041Y-118187310D01*
X108681072Y-114426134D02*
X109178560Y-115627177D01*
X104061674Y-116339551D02*
X108681072Y-114426134D01*
X109178560Y-115627177D02*
X108892111Y-116503503D01*
X104827041Y-118187310D02*
X104061674Y-116339551D01*
%TD*%
M02*
