M48
; DRILL file {KiCad (6.0.10)} date Mon Jan 30 12:24:04 2023
; FORMAT={-:-/ absolute / inch / decimal}
; #@! TF.CreationDate,2023-01-30T12:24:04+02:00
; #@! TF.GenerationSoftware,Kicad,Pcbnew,(6.0.10)
; #@! TF.FileFunction,Plated,1,2,PTH
FMAT,2
INCH
; #@! TA.AperFunction,Plated,PTH,ComponentDrill
T1C0.0118
; #@! TA.AperFunction,Plated,PTH,ViaDrill
T2C0.0157
; #@! TA.AperFunction,Plated,PTH,ComponentDrill
T3C0.0236
; #@! TA.AperFunction,Plated,PTH,ComponentDrill
T4C0.0669
; #@! TA.AperFunction,Plated,PTH,ComponentDrill
T5C0.0866
%
G90
G05
T1
X5.0197Y-4.7835
X5.0197Y-4.8228
X5.0591Y-4.7835
X5.0591Y-4.8228
T2
X2.3819Y-4.1929
X2.4213Y-5.2756
X2.4409Y-3.4055
X2.4803Y-4.5472
X2.4872Y-4.1929
X2.5Y-4.4685
X2.5Y-4.7047
X2.5591Y-4.2323
X2.5591Y-5.2756
X2.5591Y-5.315
X2.5718Y-4.5472
X2.5787Y-4.4685
X2.5787Y-4.6457
X2.5787Y-4.8425
X2.5787Y-4.9213
X2.5787Y-5.0
X2.5787Y-5.0787
X2.5787Y-5.1181
X2.5787Y-5.2362
X2.5984Y-2.6575
X2.6053Y-3.4252
X2.6378Y-2.7362
X2.6378Y-2.7953
X2.6378Y-2.8543
X2.6378Y-2.9134
X2.6378Y-2.9724
X2.6378Y-3.0315
X2.6378Y-3.0906
X2.6378Y-4.2717
X2.6772Y-2.6575
X2.6772Y-3.2677
X2.6969Y-4.311
X2.6969Y-4.4094
X2.7234Y-4.6063
X2.7559Y-2.6575
X2.7559Y-3.2677
X2.7756Y-4.3307
X2.811Y-4.6024
X2.811Y-4.7874
X2.83Y-5.08
X2.8346Y-2.6575
X2.8346Y-3.2677
X2.855Y-5.1575
X2.865Y-4.92
X2.8784Y-4.6019
X2.8919Y-5.1969
X2.8937Y-3.2874
X2.9134Y-2.6575
X2.9134Y-4.3307
X2.9291Y-5.063
X2.9331Y-4.4094
X2.9495Y-4.6293
X2.9528Y-3.3465
X2.9921Y-2.6575
X2.9921Y-3.1496
X2.9921Y-3.3071
X2.9921Y-3.3858
X3.0118Y-2.8937
X3.0118Y-4.7244
X3.0512Y-2.6575
X3.0512Y-5.437
X3.0906Y-3.4449
X3.1Y-4.92
X3.1102Y-2.7165
X3.1299Y-3.4055
X3.1693Y-2.7756
X3.1693Y-3.3661
X3.1693Y-4.2126
X3.185Y-5.0857
X3.189Y-2.9921
X3.189Y-3.1102
X3.2047Y-5.2323
X3.2087Y-5.4134
X3.2283Y-2.8346
X3.2283Y-3.3071
X3.2283Y-5.3346
X3.248Y-3.0512
X3.248Y-3.7598
X3.2677Y-5.1575
X3.2677Y-5.1969
X3.2874Y-2.8937
X3.2874Y-3.248
X3.3346Y-4.8386
X3.3465Y-2.9528
X3.3465Y-3.189
X3.3858Y-2.9921
X3.3858Y-3.5236
X3.4001Y-4.3633
X3.4055Y-3.1299
X3.4173Y-4.8858
X3.4449Y-3.0906
X3.4449Y-5.0984
X3.47Y-2.745
X3.4764Y-4.9213
X3.48Y-2.82
X3.4882Y-5.3543
X3.4921Y-5.248
X3.5039Y-2.4803
X3.5107Y-3.4001
X3.5236Y-4.4882
X3.563Y-2.4409
X3.66Y-2.725
X3.675Y-2.62
X3.715Y-5.105
X3.7598Y-4.6457
X3.775Y-2.5394
X3.7776Y-2.62
X3.8271Y-5.2268
X3.8386Y-5.0591
X3.86Y-2.63
X3.9271Y-5.2313
X3.937Y-4.0748
X3.9764Y-3.8583
X3.9803Y-5.2205
X4.0157Y-2.5394
X4.0354Y-5.0591
X4.0394Y-5.2244
X4.0554Y-5.1756
X4.0748Y-2.5197
X4.1142Y-3.2283
X4.2323Y-5.0591
X4.2323Y-5.1378
X4.29Y-4.93
X4.3504Y-3.3858
X4.3633Y-4.474
X4.3701Y-5.0984
X4.38Y-4.88
X4.4275Y-4.8425
X4.4685Y-5.2953
X4.474Y-3.5107
X4.4882Y-4.3504
X4.4882Y-4.7441
X4.5276Y-5.4921
X4.5669Y-4.9016
X4.6063Y-5.3346
X4.626Y-4.1142
X4.6457Y-4.9409
X4.7Y-3.65
X4.7047Y-4.5276
X4.7244Y-4.8819
X4.7244Y-5.4921
X4.74Y-3.615
X4.7953Y-4.7205
X4.8031Y-4.9016
X4.8071Y-4.8425
X4.878Y-4.6772
X4.9173Y-4.6772
X4.9213Y-5.4331
X4.9213Y-5.4921
X4.9409Y-5.0197
X4.9602Y-4.7381
X4.9646Y-4.6929
X4.9803Y-4.5276
X5.0Y-5.0472
X5.0079Y-4.6811
X5.0394Y-5.2165
X5.0591Y-5.0787
X5.0984Y-5.0197
X5.0984Y-5.2165
X5.1181Y-5.0984
X5.1181Y-5.4921
X5.1378Y-4.685
X5.1378Y-4.8031
X5.1575Y-5.2165
X5.1772Y-5.1181
X5.21Y-4.64
X5.2165Y-5.1378
X5.2165Y-5.2165
X5.2559Y-4.5276
X5.2598Y-5.0689
X5.265Y-4.59
X5.2756Y-5.2165
X5.29Y-4.31
X5.295Y-3.65
X5.3346Y-5.2165
X5.3937Y-4.685
X5.3937Y-4.8819
X5.3937Y-5.0787
X5.3937Y-5.4921
X5.395Y-4.365
X5.4429Y-5.2559
X5.45Y-4.455
T4
X3.5334Y-3.937
X4.1388Y-3.5875
X4.1388Y-4.2865
T5
X2.5591Y-3.937
X2.7638Y-3.937
X3.937Y-2.7638
X3.937Y-5.1102
X5.1102Y-3.937
X5.315Y-3.937
T3
G00X3.7669Y-5.3257
M15
G01X3.7669Y-5.2824
M16
G05
G00X3.7669Y-5.4839
M15
G01X3.7669Y-5.4524
M16
G05
G00X4.1071Y-5.3257
M15
G01X4.1071Y-5.2824
M16
G05
G00X4.1071Y-5.4839
M15
G01X4.1071Y-5.4524
M16
G05
T0
M30
